<?xml version="1.0" encoding="UTF-8"?>
<svg width="56px" height="87px" viewBox="0 0 56 87" version="1.1" xmlns="http://www.w3.org/2000/svg" xmlns:xlink="http://www.w3.org/1999/xlink">
    <title>714BA8E6-5402-411B-9EE5-F3CC70DEC354</title>
    <g id="01---Home" stroke="none" stroke-width="1" fill="none" fill-rule="evenodd">
        <g id="Mobile/Home/Home" transform="translate(-160.000000, -971.000000)" fill="#183D32">
            <g id="Asset-1-Copy" transform="translate(160.000000, 971.000000)">
                <path d="M48.9472267,40.9420762 C47.6309931,38.9411592 43.0767013,35.0191164 38.2597807,30.8669067 C37.2092656,29.9462394 36.1556608,29.0531921 35.1175048,28.1509381 C36.6191233,25.8953031 40.9200556,20.4296081 41.6924932,17.9100485 C44.5906789,7.92694572 39.0569363,2.47966401 32.9052436,0.7242583 C31.2696133,0.246567132 29.5738205,0.00269886202 27.8689508,0 C23.8646345,0 20.221819,1.34110541 17.6109801,3.77473606 C13.4645353,7.64767663 12.4325588,14.5158549 15.1577185,20.122719 C16.1958745,22.2709427 17.9384936,24.6524022 19.974639,27.2026507 C17.0053891,29.4122523 8.00803649,36.974 3.5093602,46.2297756 C-0.655623072,54.785844 -1.10981635,62.8785098 2.12824186,70.9681067 C5.8977371,80.401878 16.4214263,87 27.705194,87 C29.8727241,87.0010009 32.0332086,86.7549021 34.1442334,86.2665289 C46.0583102,83.5045269 52.9917097,76.7805865 55.3615481,65.7356474 C57.2061289,57.1151323 55.0494833,48.7953685 48.9472267,40.9420762 Z M37.1443809,77.6828405 C33.9346654,79.1362747 30.4509875,79.8967148 26.9234872,79.9139243 C22.906812,79.9139243 18.7294697,78.4776833 14.4563452,75.638959 C8.40352452,71.6217805 4.75452953,65.0052513 4.94300429,58.3672399 C5.26742806,46.8466227 19.2516375,33.2943996 22.4927854,30.2623352 L23.7904805,31.7967807 L23.8121088,31.8213318 L23.8121088,31.8397452 L23.8121088,31.8397452 C21.6925401,33.8007666 7.40862495,47.1504429 6.97914967,58.1217286 C6.74123891,64.394542 9.58380909,69.5533479 15.4636037,73.4661841 C19.34433,76.0409837 23.4444285,77.3514002 27.6372195,77.3514002 C30.7430953,77.3241623 33.8077436,76.6421482 36.6283926,75.3504832 C42.5792515,72.7112369 51.13168,64.7106378 45.4867064,51.4653038 C41.7790062,42.7373775 30.2758662,31.6556117 30.1800839,31.5666139 C30.0843017,31.477616 18.3123534,21.6939912 17.5460954,13.9695923 C17.3122748,11.6866998 18.0101365,9.4060468 19.4833687,7.63846995 C21.5120602,5.12285247 24.5868847,3.66589791 27.8318738,3.6825261 C29.6772847,3.70024832 31.4987691,4.09950285 33.1802314,4.85498572 C37.6449204,6.85283383 39.5698348,11.5881328 38.7819485,14.8288818 C37.7623309,19.0455382 33.1895006,24.4007532 32.2718448,25.6313785 L32.2996526,25.6559296 L32.2996526,25.6559296 C31.799113,25.2078715 31.3109325,24.7690201 30.835111,24.3332376 L30.835111,24.3332376 C31.7187795,23.1916101 35.8899423,18.7447869 36.8045084,14.9547063 C37.6202024,11.5789261 35.7972498,8.13256142 32.3707168,6.57663363 C30.9238772,5.88219891 29.3427295,5.50737931 27.7360915,5.47797062 C25.1592399,5.47797062 22.8728247,6.63187367 20.9757181,8.89671531 C19.739818,10.3483008 19.3381505,11.9656064 19.6347665,14.1598635 C20.5987686,21.1968308 30.6775337,29.4091834 30.7949442,29.5043191 C30.9123547,29.5994547 44.0623316,42.3752483 47.8380063,51.3640304 C49.6362409,55.6389957 54.1534557,70.1333684 37.1443809,77.6828405 Z M28.7062731,37.7872561 C28.7062731,37.7872561 28.7062731,37.7872561 28.7062731,37.7872561 L28.7062731,37.7872561 L28.7062731,37.7872561 C28.7062731,37.7872561 28.7062731,37.7872561 28.7062731,37.7872561 C31.9999468,41.991637 34.7652732,46.1683977 35.707647,50.0628206 C36.6716491,54.0339656 35.732365,57.3268858 33.0504619,59.3400784 C29.9984932,61.6341708 25.7774912,61.6127933 22.7492347,59.2879072 C19.6594845,56.9187233 18.7140209,53.1163672 20.2001908,49.8971004 C22.3028094,45.3977404 25.1815458,41.2983346 28.7062731,37.7841873 L28.7062731,37.7872561 Z M27.705194,21.3778954 L27.705194,21.3778954 C27.705194,21.3778954 27.705194,21.3778954 27.705194,21.3778954 C25.5979844,19.2695672 24.068558,17.443577 23.5834673,16.1392983 C22.6565422,13.6320143 23.2744922,11.5359617 25.1963169,10.6490521 C26.0703922,10.2858363 27.0112633,10.1081313 27.9585535,10.1273406 C28.8574669,10.1118907 29.7507289,10.2714047 30.587931,10.596881 C31.4826383,10.9652084 32.1861935,11.6817613 32.5344736,12.5793846 C32.9310174,13.7358924 32.8510494,15.0012272 32.3120116,16.0994027 C31.762036,17.2962703 28.4251058,20.8684595 27.705194,21.3748265 L27.705194,21.3778954 Z" id="Shape"></path>
            </g>
        </g>
    </g>
</svg>