<?xml version="1.0" encoding="UTF-8"?>
<svg width="103px" height="160px" viewBox="0 0 103 160" version="1.1" xmlns="http://www.w3.org/2000/svg" xmlns:xlink="http://www.w3.org/1999/xlink">
    <title>AC85DF56-7A3A-452D-87E0-4ABEB713BE15</title>
    <g id="01---Home" stroke="none" stroke-width="1" fill="none" fill-rule="evenodd">
        <g id="Desktop/Home/Home" transform="translate(-159.000000, -5380.000000)" fill="#FFFFFF">
            <g id="Desktop/Footer" transform="translate(0.000000, 5303.000000)">
                <g id="Asset-1" transform="translate(159.000000, 77.000000)">
                    <path d="M90.0279347,75.2957697 C87.6070051,71.6159225 79.2303613,64.4029704 70.3706681,56.766723 C68.4384707,55.0735418 66.5005904,53.431156 64.5911248,51.7718383 C67.3530304,47.6235443 75.2636737,37.5716917 76.6844071,32.938019 C82.0149986,14.5782905 71.8368649,4.56030147 60.5221445,1.33196924 C57.513753,0.453456778 54.3947055,0.00496342424 51.258963,0 C43.8938814,0 37.1937029,2.46640067 32.3916241,6.94204308 C24.7651275,14.0646922 22.8670278,26.6958242 27.879375,37.0072979 C29.7888406,40.9580542 32.9940151,45.3377496 36.7390682,50.0278617 C31.2777692,54.0914966 14.7290671,67.9981585 6.45471608,85.0202739 C-1.20587815,100.755572 -2.04126936,115.638635 3.91444485,130.516054 C10.8476236,147.865518 30.2036948,159.999989 50.9577676,159.999989 C54.9444747,160.001835 58.9182229,159.54924 62.8010008,158.651082 C84.714392,153.571538 97.4668946,141.205671 101.825704,120.89314 C105.218416,105.03932 101.251728,89.7386057 90.0279347,75.2957697 Z M68.3191291,142.864989 C62.4155453,145.537971 56.0080663,146.936482 49.5199854,146.968132 C42.132172,146.968132 34.448846,144.326769 26.5893491,139.106127 C15.4564826,131.718212 8.74493824,119.549883 9.09159718,107.342047 C9.68830519,86.1547054 35.4092618,61.2310775 41.3706589,55.6548673 L43.7574909,58.476836 L43.7972715,58.5219875 L43.7972715,58.5558512 L43.7972715,58.5558512 C39.8987792,62.1623272 13.626578,86.7134552 12.8366503,106.890532 C12.3990644,118.42674 17.6273632,127.914199 28.4419854,135.110219 C35.5797498,139.845482 43.1210024,142.255444 50.832743,142.255444 C56.545336,142.205351 62.1820998,140.951072 67.3700792,138.575597 C78.315409,133.72181 94.0457686,119.008065 83.6630493,94.6488312 C76.8435292,78.5974731 55.6859682,58.2172149 55.5097972,58.0535407 C55.3336263,57.8898666 33.68165,39.8969939 32.2722825,25.6912033 C31.8422197,21.4927804 33.1257869,17.2984763 35.8354818,14.0477603 C39.566825,9.42133754 45.2223057,6.74188097 51.1907678,6.77246155 C54.5850059,6.80505415 57.935236,7.53931533 61.0279256,8.92870907 C69.2397643,12.6029124 72.7802318,21.3115079 71.3310838,27.2715058 C69.4557158,35.0262759 61.0449744,44.8749468 59.3571431,47.1381657 L59.4082895,47.1833172 L59.4082895,47.1833172 C58.4876543,46.3593023 57.5897509,45.5522193 56.7145791,44.7507801 L56.7145791,44.7507801 C58.3398981,42.6512354 66.0118582,34.47317 67.6940065,27.5029073 C69.1943009,21.294576 65.8413702,14.9564343 59.538997,12.094958 C56.8778455,10.8178367 53.9696633,10.1285133 51.0145969,10.0744284 C46.2750304,10.0744284 42.0696597,12.1965489 38.5803386,16.3617747 C36.3071653,19.0313571 35.5683839,22.0057122 36.1139455,26.0411275 C37.8870207,38.9826761 56.4247495,54.0858527 56.640701,54.2608148 C56.8566524,54.4357768 81.043217,77.9314885 87.9877616,94.4625813 C91.2952289,102.324586 99.6036775,128.980903 68.3191291,142.864989 Z M52.799038,69.493802 C52.799038,69.493802 52.799038,69.493802 52.799038,69.493802 L52.799038,69.493802 L52.799038,69.493802 C52.799038,69.493802 52.799038,69.493802 52.799038,69.493802 C58.857045,77.2259963 63.9432704,84.9073952 65.6765651,92.0695518 C67.4496403,99.3728069 65.7220286,105.428752 60.7892424,109.131175 C55.1758,113.350195 47.4121713,113.31088 41.8423424,109.035228 C36.159409,104.678108 34.4204314,97.6852696 37.1539223,91.7647792 C41.0212387,83.4900944 46.3160574,75.9509575 52.799038,69.488158 L52.799038,69.493802 Z M50.9577676,39.3156684 L50.9577676,39.3156684 C50.9577676,39.3156684 50.9577676,39.3156684 50.9577676,39.3156684 C47.082007,35.4382833 44.268955,32.0801405 43.3767344,29.6814671 C41.6718544,25.0703702 42.8084411,21.2155609 46.3432256,19.584463 C47.9508999,18.9164798 49.6814306,18.5896661 51.4237681,18.6249936 C53.0771266,18.5965799 54.7200906,18.889939 56.2599444,19.4885161 C57.9055669,20.1658999 59.1996059,21.4836982 59.8401925,23.1344997 C60.5695499,25.2614105 60.4224658,27.5884628 59.4310213,29.6080959 C58.4194591,31.8092315 52.2818911,38.3787747 50.9577676,39.3100244 L50.9577676,39.3156684 Z" id="Shape"></path>
                </g>
            </g>
        </g>
    </g>
</svg>