<?xml version="1.0" encoding="UTF-8"?>
<svg width="27px" height="27px" viewBox="0 0 27 27" version="1.1" xmlns="http://www.w3.org/2000/svg" xmlns:xlink="http://www.w3.org/1999/xlink">
    <title>CCB43C35-AC1D-4711-BC3F-5E6B87BC8F94</title>
    <g id="01---Home" stroke="none" stroke-width="1" fill="none" fill-rule="evenodd">
        <g id="Desktop/Home/Home" transform="translate(-1045.000000, -5505.000000)" fill="#FFFFFF" fill-rule="nonzero">
            <g id="Desktop/Footer" transform="translate(0.000000, 5303.000000)">
                <g id="Group-10" transform="translate(1043.000000, 72.000000)">
                    <g id="icon/general/email" transform="translate(2.000000, 130.000000)">
                        <path d="M22.1538462,7.85076923 C22.5017855,7.85076923 22.7838462,8.13282984 22.7838462,8.48076923 L22.7838462,19.9038462 C22.7838462,20.2517855 22.5017855,20.5338462 22.1538462,20.5338462 L4.84615385,20.5338462 C4.49821445,20.5338462 4.21615385,20.2517855 4.21615385,19.9038462 L4.21615385,8.48076923 C4.21615385,8.13282984 4.49821445,7.85076923 4.84615385,7.85076923 L22.1538462,7.85076923 Z M5.47515385,9.73073462 L5.47615385,19.2738462 L21.5238462,19.2738462 L21.5231538,9.73173462 L13.8805938,15.525698 C13.6555438,15.6963058 13.3444562,15.6963058 13.1194062,15.525698 L5.47515385,9.73073462 Z M20.2551538,9.11073462 L6.74315385,9.11073462 L13.5,14.233086 L20.2551538,9.11073462 Z" id="email"></path>
                    </g>
                </g>
            </g>
        </g>
    </g>
</svg>