<?xml version="1.0" encoding="UTF-8"?>
<svg width="363px" height="564px" viewBox="0 0 363 564" version="1.1" xmlns="http://www.w3.org/2000/svg" xmlns:xlink="http://www.w3.org/1999/xlink">
    <title>64E9994D-8665-48D9-8954-0DB31523A82B</title>
    <g id="04---Events-" stroke="none" stroke-width="1" fill="none" fill-rule="evenodd" opacity="0.025">
        <g id="Desktop/Event-detail" transform="translate(-899.000000, -143.000000)" fill="#183D32">
            <g id="Asset-1" transform="translate(899.000000, 143.000000)">
                <path d="M317.282916,265.417597 C308.750901,252.446135 279.229331,227.020479 248.005364,200.102706 C241.195775,194.134241 234.366159,188.344831 227.636683,182.495737 C237.370389,167.873 265.249646,132.440218 270.256697,116.106521 C289.043151,51.3884757 253.17264,16.0750632 213.29649,4.69519174 C202.6941,1.5984352 191.701729,0.017496071 180.65052,0 C154.69397,0 131.08072,8.69406267 114.156889,24.4707027 C87.2790416,49.5780416 80.5896221,94.1027836 98.2544964,130.45073 C104.983972,144.377146 116.279878,159.815573 129.478464,176.348219 C110.231361,190.672532 51.9092365,239.693517 22.7481741,299.696476 C-4.24984242,355.163402 -7.19398814,407.626201 13.7955678,460.069106 C38.2299744,521.225968 106.446031,563.99998 179.589026,563.99998 C193.639265,564.006488 207.643834,562.411089 221.327799,559.245084 C298.556547,541.339692 343.499832,497.750009 358.861463,426.148335 C370.8183,370.263616 356.838615,316.328596 317.282916,265.417597 Z M240.775183,503.599104 C219.969349,513.021367 197.387651,517.951116 174.52189,518.062682 C148.485228,518.062682 121.407098,508.751878 93.7080945,490.349114 C54.4728464,464.306715 30.8195396,421.413353 32.04126,378.380727 C34.1442212,303.695347 124.791864,215.839556 145.801448,196.183414 L154.213293,206.130854 L154.353491,206.290013 L154.353491,206.409383 L154.353491,206.409383 C140.614144,219.122211 48.0237653,305.66494 45.2398452,376.789137 C43.6976736,417.454272 62.1236197,450.897566 100.237288,476.263538 C125.39271,492.955343 151.970135,501.450457 179.148405,501.450457 C199.281136,501.27388 219.146624,496.852547 237.430473,488.478995 C276.004791,471.369398 331.442855,419.503445 294.851329,333.637142 C270.817487,277.056102 196.25249,205.21569 195.631615,204.638738 C195.010741,204.061787 118.703291,140.636908 113.736297,90.5614949 C112.220638,75.7620536 116.744278,60.977131 126.293979,49.5183569 C139.444247,33.210216 159.375699,23.7651312 180.410182,23.8729278 C192.372399,23.9878167 204.179521,26.5760875 215.079,31.4737006 C244.019752,44.4252676 256.497322,75.1230678 251.39013,96.1320614 C244.780824,123.467627 215.139084,158.184193 209.190708,166.16204 L209.370962,166.321199 L209.370962,166.321199 C206.126393,163.416546 202.961937,160.571579 199.877594,157.746506 L199.877594,157.746506 C205.60566,150.34561 232.643733,121.517929 238.572081,96.9477515 C243.859526,75.0633832 232.042887,52.7214327 209.831611,42.6347284 C200.452989,38.1328757 190.203765,35.7030107 179.789308,35.5123612 C163.085787,35.5123612 148.264917,42.9928362 135.967601,57.6752578 C127.95632,67.0855362 125.352654,77.5701381 127.275361,91.7949775 C133.52416,137.413938 198.856156,190.652637 199.617228,191.269379 C200.378299,191.88612 285.618328,274.708506 310.092791,332.980611 C321.749205,360.694179 351.030436,454.657698 240.775183,503.599104 Z M186.078163,244.965661 C186.078163,244.965661 186.078163,244.965661 186.078163,244.965661 L186.078163,244.965661 L186.078163,244.965661 C186.078163,244.965661 186.078163,244.965661 186.078163,244.965661 C207.428227,272.221646 225.353468,299.298578 231.462069,324.545182 C237.710868,350.289157 231.622295,371.636363 214.237815,384.687405 C194.454518,399.559452 167.093381,399.420867 147.463789,384.349192 C127.435587,368.990344 121.306957,344.340587 130.940522,323.470858 C144.569997,294.302593 163.230377,267.727135 186.078163,244.945766 L186.078163,244.965661 Z M179.589026,138.587736 L179.589026,138.587736 C179.589026,138.587736 179.589026,138.587736 179.589026,138.587736 C165.929792,124.919953 156.015832,113.082499 152.871404,104.627175 C146.862943,88.3730581 150.868584,74.7848549 163.326125,69.0352345 C168.992006,66.6805938 175.090867,65.5285752 181.231338,65.6531048 C187.058223,65.5529465 192.848475,66.5870373 198.275338,68.6970215 C204.074959,71.0847995 208.635504,75.7300389 210.893106,81.5491141 C213.463559,89.0464751 212.945195,97.2493348 209.451075,104.368542 C205.886055,112.127545 184.255597,135.285186 179.589026,138.567841 L179.589026,138.587736 Z" id="Shape"></path>
            </g>
        </g>
    </g>
</svg>