<?xml version="1.0" encoding="UTF-8"?>
<svg width="27px" height="27px" viewBox="0 0 27 27" version="1.1" xmlns="http://www.w3.org/2000/svg" xmlns:xlink="http://www.w3.org/1999/xlink">
    <title>91554C09-44B1-473D-B983-7B80A10AC574</title>
    <g id="01---Home" stroke="none" stroke-width="1" fill="none" fill-rule="evenodd">
        <g id="Desktop/Home/Home" transform="translate(-1043.000000, -5470.000000)" fill="#FFFFFF" fill-rule="nonzero">
            <g id="Desktop/Footer" transform="translate(0.000000, 5303.000000)">
                <g id="Group-10" transform="translate(1043.000000, 72.000000)">
                    <g id="icon/general/phone" transform="translate(0.000000, 95.000000)">
                        <path d="M21.358269,18.780362 C21.3456261,18.7128639 21.3035995,18.6544937 21.2294676,18.6129893 L17.9625861,16.6813156 C17.9202112,16.6591408 17.8726508,16.6487751 17.7831841,16.6521318 C17.6777542,16.6507295 17.5757435,16.6895105 17.5226214,16.7367341 L16.5123789,17.7626142 C16.4064456,17.8545781 16.2806661,17.9207779 16.1448855,17.9560318 L15.9865625,17.97625 L15.87375,17.97625 L15.7535021,17.9646677 L15.4883154,17.9108429 C15.2318017,17.8381892 14.9850894,17.73457 14.7661054,17.6092197 C14.3904639,17.4056717 14.0305727,17.174313 13.6880818,16.9160502 C13.1730198,16.5254675 12.6907076,16.0934836 12.2641552,15.6428285 C11.8070855,15.1988281 11.3872144,14.7180757 11.0120764,14.2098511 C10.7552251,13.8682327 10.5252773,13.5071932 10.3278206,13.1364919 C10.1583773,12.8272647 10.0334282,12.4956691 9.94895834,12.110625 C9.93240574,12.0035526 9.93240574,11.8945724 9.9625614,11.7224501 C9.99793983,11.5888759 10.0631118,11.4650493 10.1854602,11.3254602 L11.0231578,10.4877633 C11.0834662,10.4275927 11.1243915,10.3507534 11.1456301,10.2439705 C11.157037,10.1952187 11.1498615,10.1439655 11.1198965,10.089923 L9.30313999,6.67530807 C9.26694762,6.61818602 9.22066486,6.56812508 9.16167392,6.52387719 C9.16073379,6.52315825 9.15958052,6.52280519 9.15508585,6.52280519 C9.12103559,6.52280519 9.08853948,6.5370757 9.05056263,6.57695138 L6.7553514,8.85970964 C6.6935165,8.91723195 6.64366548,8.98641297 6.59851203,9.08451051 C6.5576632,9.16599888 6.52821341,9.25264576 6.51093529,9.34201439 C6.51092968,9.38520363 6.51090978,9.44097421 6.51083926,9.6386252 C6.5066026,9.87850242 6.52685753,10.1181858 6.57274633,10.3619662 C6.64343447,10.7656716 6.74471264,11.1634186 6.87594139,11.55247 C7.05734586,12.0923676 7.28367852,12.6161127 7.55110544,13.1155002 C7.91094645,13.7796318 8.31899261,14.4164889 8.77283262,15.022114 C9.35224668,15.7990332 9.99311687,16.528167 10.7038748,17.2171098 C11.5320571,18.0737508 12.447539,18.8414504 13.4357511,19.5079322 C14.1542603,19.9932429 14.9155653,20.4119606 15.7165872,20.7617091 C16.53271,21.128849 17.4123727,21.3339804 18.284375,21.3653125 L18.5511121,21.3653125 C18.641624,21.3474972 18.7314331,21.3166756 18.8313275,21.2673392 C18.9078721,21.2325701 18.9767464,21.1829401 19.0519027,21.1027746 L21.3389957,18.8339624 C21.3484238,18.825131 21.3565379,18.8152175 21.3632348,18.8045185 C21.3614504,18.7965562 21.359794,18.7885039 21.358269,18.780362 Z M22.6302457,18.5176716 C22.6987386,18.9752352 22.5380396,19.4372447 22.2134098,19.7409754 L19.9572993,21.9786687 C19.7865313,22.162585 19.5809258,22.3107419 19.3725929,22.4049388 C19.1609437,22.510282 18.9342375,22.5821645 18.7005567,22.6180234 L18.605,22.6253125 L18.2620388,22.6249164 C17.2046373,22.5874033 16.1645875,22.3448707 15.2060575,21.9136251 C14.3411655,21.5360349 13.5125421,21.0802921 12.7308611,20.5523123 C11.6701942,19.836965 10.6872299,19.0126763 9.81261152,18.1075156 C9.0680114,17.386264 8.38253508,16.6063807 7.763662,15.7765493 C7.27376154,15.1228064 6.83244792,14.4340272 6.4418118,13.7130436 C6.1396926,13.1488904 5.88538491,12.5604098 5.68179471,11.9544814 C5.53039078,11.5056186 5.41333143,11.0458946 5.33308574,10.5872998 C5.27277766,10.267292 5.24528523,9.94196497 5.2509375,9.6275 L5.2509375,9.2890625 L5.25795694,9.19527963 C5.29333509,8.96026982 5.36561096,8.73232283 5.46195877,8.54110227 C5.56579556,8.31307248 5.71369503,8.10782423 5.88193737,7.95179862 L8.1472862,5.698743 C8.40751143,5.42199972 8.77004367,5.26437701 9.14660295,5.26278462 C9.42847669,5.26020153 9.70316023,5.35176271 9.92219751,5.51930443 C10.0986087,5.65151577 10.2494946,5.81471893 10.3913535,6.04195198 L12.2263699,9.48727947 C12.4032184,9.80490598 12.4553184,10.1770489 12.3774567,10.5078688 C12.3131358,10.8383172 12.1514121,11.1419617 11.9136023,11.3792273 L11.2336928,12.0570009 C11.2836571,12.2216777 11.351059,12.3818498 11.4363202,12.5375146 C11.6066348,12.8571801 11.8015045,13.1631437 12.0224828,13.4570907 C12.3599992,13.9143099 12.7344593,14.3430667 13.160298,14.7574714 C13.5578652,15.1767822 13.9890042,15.5629328 14.4480569,15.9110453 C14.7390229,16.1304521 15.0459916,16.3277892 15.3788742,16.5083517 C15.5215319,16.58989 15.6735878,16.6537535 15.7802479,16.6862698 L15.8022096,16.6905401 L16.6483784,15.8300273 C16.9626807,15.543109 17.3744106,15.3865836 17.7582334,15.3930697 C18.0317435,15.3785799 18.3041145,15.4379428 18.5752199,15.5807607 L21.8564034,17.5201552 C22.133842,17.6745836 22.351752,17.9117043 22.4830792,18.193942 C22.5574606,18.2786621 22.6107358,18.3873366 22.6302457,18.5176716 Z" id="phone"></path>
                    </g>
                </g>
            </g>
        </g>
    </g>
</svg>