<svg width="19" height="21" viewBox="0 0 19 21" fill="none" xmlns="http://www.w3.org/2000/svg">
<path fill-rule="evenodd" clip-rule="evenodd" d="M6.80218 10.9706C5.9718 10.2232 5.34258 9.23303 5.05594 8.35209C5.03936 8.34142 5.02288 8.33043 5.00605 8.3187C4.85712 8.21489 4.73411 8.0868 4.63502 7.91287C3.9865 6.76838 4.04362 5.82391 4.63909 5.21081C4.66095 5.1883 4.68288 5.16689 4.70482 5.14652C4.7088 4.62841 4.76317 4.04891 4.90022 3.47801C4.91579 3.41314 4.93234 3.34911 4.95059 3.28353C5.06467 2.87896 5.34202 2.32355 5.85607 1.77322C6.70037 0.869346 7.91074 0.328583 9.5024 0.328583C11.0944 0.328583 12.305 0.869319 13.1494 1.77318C13.6636 2.32351 13.941 2.87894 14.0558 3.28594C14.0733 3.34911 14.0899 3.41314 14.1054 3.47801C14.2405 4.04046 14.2952 4.61126 14.3006 5.12348C14.3136 5.13483 14.3265 5.14654 14.3395 5.15862C14.9615 5.73977 15.0136 6.69352 14.363 7.90694C14.2761 8.06897 14.1646 8.19865 14.0319 8.3042C14.0036 8.32673 13.9745 8.34792 13.9464 8.36726C13.6334 9.26607 13.0078 10.2393 12.1955 10.9725C12.257 11.0174 12.3418 11.0762 12.4493 11.1459C12.7567 11.3453 13.1197 11.5462 13.5347 11.7346C13.7586 11.8362 13.9919 11.9313 14.2343 12.0188C16.8914 12.9774 18.0926 15.0776 18.2965 18.2824C18.3611 19.2834 17.5297 20.2429 16.5091 20.2429H2.48997C1.45763 20.2429 0.641847 19.2705 0.703232 18.2573C0.902338 15.0445 2.07967 13.0527 4.76652 12.0835C5.03458 11.9868 5.28916 11.8797 5.53008 11.7639C5.91243 11.5802 6.24136 11.3846 6.51538 11.1909C6.6604 11.0885 6.7564 11.0113 6.80218 10.9706ZM7.93123 11.7512C7.89366 11.839 7.83744 11.9204 7.76282 11.9893C7.46558 12.264 6.92119 12.6487 6.13644 13.0258C5.85321 13.1619 5.55481 13.2875 5.24149 13.4004C3.1452 14.1566 2.26809 15.6406 2.10061 18.3429C2.08598 18.5844 2.30284 18.8429 2.48997 18.8429H16.5091C16.6949 18.8429 16.9135 18.5906 16.8994 18.3719C16.7275 15.6708 15.8165 14.0779 13.7592 13.3357C13.4812 13.2354 13.2135 13.1262 12.9561 13.0094C12.1281 12.6336 11.5397 12.252 11.2135 11.9827C11.1392 11.9214 11.0809 11.848 11.0389 11.7677C10.5553 12.004 10.0376 12.1429 9.5024 12.1429C8.95437 12.1429 8.42451 11.997 7.93123 11.7512ZM5.85936 7.20278C6.06808 7.33026 6.20789 7.46064 6.33891 7.77656C6.7198 9.03681 8.16629 10.7429 9.5024 10.7429C10.839 10.7429 12.2837 9.03898 12.6594 7.80265C12.7271 7.54257 12.8696 7.39229 13.0685 7.26549L13.1428 7.21987C13.3577 6.81305 13.4384 6.5153 13.4277 6.31998C13.4231 6.23621 13.4074 6.20376 13.3837 6.18162L13.3816 6.17971C13.3745 6.17315 13.3731 6.17191 13.3992 6.17932C13.0866 6.08926 12.8768 5.79317 12.8958 5.46661L12.8958 5.46586C12.896 5.46268 12.8962 5.45949 12.8978 5.41482C12.9129 4.93787 12.8752 4.35098 12.7441 3.80481C12.7324 3.75593 12.72 3.70801 12.7076 3.66351C12.6494 3.45686 12.4689 3.09544 12.1264 2.72893C11.5432 2.1047 10.7012 1.72858 9.5024 1.72858C8.30401 1.72858 7.46223 2.10467 6.87917 2.72888C6.5368 3.0954 6.35631 3.45684 6.29871 3.6611C6.28566 3.70801 6.27327 3.75593 6.26154 3.80481C6.13043 4.35098 6.09277 4.93787 6.10783 5.41482L6.10983 5.46586L6.10988 5.46661C6.12746 5.7697 5.94766 6.04957 5.6647 6.15958C5.67703 6.15478 5.67396 6.15756 5.66407 6.1665C5.65872 6.17134 5.65137 6.17798 5.64338 6.1862C5.51269 6.32076 5.49478 6.57949 5.8328 7.18661L5.85936 7.20278Z" fill="#138DCD"/>
</svg>
