<svg width="60" height="60" viewBox="0 0 60 60" fill="none" xmlns="http://www.w3.org/2000/svg">
<path d="M0.5 0.5H55C57.4853 0.5 59.5 2.51472 59.5 5V59.5H5C2.51472 59.5 0.5 57.4853 0.5 55V0.5Z" fill="white" stroke="#E0E0E0"/>
<circle cx="19.5" cy="21.5" r="5.5" fill="#1F4274"/>
<path fill-rule="evenodd" clip-rule="evenodd" d="M19.5003 18.5385C19.3677 18.5383 19.2601 18.6458 19.26 18.7784L19.2579 21.2578L16.7785 21.2599C16.6459 21.26 16.5385 21.3676 16.5386 21.5002C16.5387 21.6328 16.6463 21.7402 16.7789 21.7401L19.2622 21.738L19.2601 24.2212C19.26 24.3538 19.3674 24.4614 19.5 24.4615C19.6327 24.4616 19.7403 24.3542 19.7404 24.2216V21.7401H22.2219C22.3545 21.74 22.4619 21.6324 22.4618 21.4998C22.4617 21.3672 22.3541 21.2598 22.2215 21.2599L19.7382 21.2619L19.7402 18.7788C19.7403 18.6462 19.6329 18.5386 19.5003 18.5385Z" fill="white"/>
<path fill-rule="evenodd" clip-rule="evenodd" d="M30.6063 25.1667C30.6063 24.8445 30.8674 24.5834 31.1896 24.5834C31.5118 24.5834 31.7729 24.8445 31.7729 25.1667V26.6784H36.8908V25.1667C36.8908 24.8445 37.1519 24.5834 37.4741 24.5834C37.7963 24.5834 38.0574 24.8445 38.0574 25.1667V26.6784H41.0905C41.7296 26.6784 42.2469 27.1957 42.2469 27.8348V40.3043C42.2469 40.9435 41.7296 41.4608 41.0905 41.4608H27.5732C26.9341 41.4608 26.4167 40.9435 26.4167 40.3043V27.8348C26.4167 27.1957 26.9341 26.6784 27.5732 26.6784H30.6063V25.1667ZM36.8908 27.845V29.3565C36.8908 29.6786 37.1519 29.9398 37.4741 29.9398C37.7963 29.9398 38.0574 29.6786 38.0574 29.3565V27.845H41.0803V31.9151H27.5834V27.845H30.6063V29.3565C30.6063 29.6786 30.8674 29.9398 31.1896 29.9398C31.5118 29.9398 31.7729 29.6786 31.7729 29.3565V27.845H36.8908ZM41.0803 33.0818V40.2942H27.5834V33.0818H41.0803Z" fill="#1F4274"/>
</svg>
