<svg width="58" height="58" viewBox="0 0 58 58" fill="none" xmlns="http://www.w3.org/2000/svg">
<circle cx="28.7209" cy="28.7209" r="28.343" fill="white" stroke="#F79533" stroke-width="0.755814"/>
<path d="M24.5171 18.2921C25.8626 15.6265 24.7093 9.85565 28.5534 9.85565C31.4914 9.85565 30.503 15.7914 32.0955 18.3746C30.9148 16.341 33.2213 13.4006 36.5986 11.5594C35.8298 7.57478 33.2762 3.59011 28.3612 3.59011C23.8032 3.59011 20.8652 7.9595 19.8767 12.1365C23.0069 13.8403 25.2036 16.5609 24.5171 18.2921Z" fill="#00AF91"/>
<path d="M34.8713 19.3638C37.6721 18.3745 41.1043 13.7303 43.6854 16.4784C45.7172 18.6493 40.1982 22.1943 39.5117 25.1622C40.1707 22.6615 43.7403 22.7439 47.1451 24.4202C50.0282 21.0951 51.7855 15.9837 48.1335 12.054C45.1406 8.83881 40.2531 9.52582 36.5737 11.5319C37.2602 15.0494 36.5463 18.5669 34.8713 19.3638Z" fill="#148DCD"/>
<path d="M47.141 24.4204C44.9169 27.0036 42.0338 28.515 40.4687 27.5806C42.885 29.3669 48.4864 29.834 47.5254 33.4615C46.8115 36.2645 41.4846 33.7637 38.4917 34.5332C40.6334 34.0935 42.9399 37.0889 43.9284 40.7987C47.9647 41.0461 52.4129 39.5621 53.6211 34.8904C54.8292 30.3562 51.0675 26.344 47.141 24.4204Z" fill="#98A93F"/>
<path d="M36.5727 36.7584C36.4354 39.7812 41.0209 44.343 37.5612 46.349C35.0625 47.8055 32.9208 42.227 30.2848 40.6606C32.3167 41.8972 31.4381 45.2498 29.1865 48.1628C31.795 51.5978 36.3256 54.3184 40.8562 51.6528C44.563 49.4818 44.9749 44.7552 43.9315 40.798C40.0599 40.5507 36.5178 38.7644 36.5727 36.7584Z" fill="#C45827"/>
<path d="M27.6464 40.7712C25.2027 42.5574 23.7749 48.4657 20.3152 46.7345C17.6792 45.4154 21.3311 40.4414 21.0565 37.4186C21.2762 39.7819 17.8439 41.3483 13.9724 41.4307C12.7917 45.3879 13.231 50.197 17.6792 52.4229C21.8528 54.5114 26.5481 51.626 29.239 48.1635C27.0424 45.3055 26.1912 41.9804 27.6464 40.7712Z" fill="#864D90"/>
<path d="M19.3279 35.3301C16.4174 34.5881 10.9533 37.611 9.8824 33.7912C9.11358 31.0157 14.9896 30.3561 17.1862 28.2401C15.4564 29.834 12.2438 28.2676 9.82748 25.4371C5.98337 27.1684 2.52366 30.7409 3.89656 35.6324C5.07725 39.8644 9.77257 41.5132 13.9736 41.4307C15.017 37.8308 17.4059 34.9454 19.3279 35.3301Z" fill="#F89633"/>
<path d="M17.6534 25.3271C16.3629 22.6065 10.8164 20.3257 13.1229 17.2204C14.8802 14.8845 19.0812 19.2814 22.1016 19.6112C19.6853 19.3364 19.0263 15.8189 19.8775 12.164C16.1432 10.1304 11.0635 9.49837 7.98821 13.6204C5.26987 17.2753 7.02718 22.1669 9.8279 25.437C13.2052 23.8981 16.8571 23.8157 17.7633 25.5469C17.7358 25.492 17.6809 25.3821 17.6534 25.3271Z" fill="#0763A4"/>
<path d="M21.1934 53.1098C21.5778 52.2304 21.8524 51.351 21.9897 50.3892C22.127 49.3724 22.0721 48.2457 21.4955 47.3663C21.4131 47.2289 21.3032 47.119 21.2209 47.0366C20.9463 47.0091 20.6443 46.8992 20.3422 46.7618C20.1226 46.6519 19.9303 46.5145 19.7931 46.3221C19.6009 46.2946 19.3812 46.2946 19.189 46.3496C18.173 46.5145 17.4042 47.2564 16.7178 47.9709C16.0588 48.6579 15.4272 49.3449 14.9604 50.1419C15.1252 50.3892 15.3174 50.609 15.5371 50.8289C16.0039 49.9495 16.6628 49.235 17.3493 48.5205C18.0083 47.8335 18.9419 46.8992 19.9853 47.2015C21.0287 47.5037 21.3032 48.7678 21.2758 49.7022C21.2483 50.8838 20.8639 52.0655 20.3697 53.1372V53.1647C20.5893 53.1372 20.8914 53.1372 21.1934 53.1098Z" fill="#986BA1"/>
<path d="M20.0669 51.1315C20.2866 50.4719 20.5337 49.675 20.2866 48.9605C20.0669 48.3559 19.4903 47.9712 18.8588 48.1361C18.1723 48.3285 17.6781 49.0155 17.2388 49.5101C16.772 50.0597 16.3601 50.6368 15.9482 51.2139C16.0855 51.3238 16.2228 51.4612 16.3876 51.5712C16.772 50.9941 17.2113 50.417 17.6781 49.8674C17.9252 49.5926 18.1449 49.3178 18.4195 49.0704C18.6666 48.8231 19.051 48.5208 19.408 48.6857C20.1219 48.988 19.8473 50.0872 19.6825 50.6368C19.4629 51.4063 19.1883 52.1482 18.8862 52.8627C19.051 52.9177 19.2432 52.9452 19.408 53.0001C19.6276 52.3956 19.8473 51.7635 20.0669 51.1315Z" fill="#986BA1"/>
<path d="M18.3632 51.6267C18.2534 51.929 18.1161 52.2588 17.9788 52.561C18.1436 52.6435 18.3083 52.6984 18.5005 52.7534C18.6653 52.3687 18.8575 51.9839 18.9673 51.5717C19.0497 51.2969 19.1046 51.0221 19.1046 50.7198C19.1046 50.4725 19.0497 50.1153 18.8575 49.9504C18.6103 49.7306 18.2534 49.8954 18.0612 50.0878C17.869 50.2802 17.7042 50.5 17.5395 50.7198C17.2649 51.1046 17.0452 51.4893 16.853 51.929C16.9903 52.0389 17.1551 52.1213 17.3198 52.2038C17.4846 51.8465 17.6493 51.5168 17.869 51.187C17.9788 51.0221 18.1161 50.8572 18.2259 50.6924C18.2808 50.6099 18.3632 50.5275 18.4456 50.445C18.4456 50.445 18.473 50.4176 18.5005 50.4176C18.528 50.5 18.528 50.5824 18.5554 50.6649C18.5554 50.7748 18.5554 50.8847 18.5554 50.9947C18.5005 51.2145 18.4456 51.4343 18.3632 51.6267Z" fill="#986BA1"/>
<path d="M28.6052 48.8783C28.2483 48.1089 27.8364 47.3944 27.3421 46.7074C26.8479 45.9929 26.2713 45.086 25.3377 44.9486C25.0082 44.8937 24.6787 44.9486 24.3492 45.0586C23.855 45.7181 23.3607 46.2952 22.7841 46.6524C22.4821 47.5318 22.5645 48.5486 22.5095 49.4554C22.4546 50.5821 22.3722 51.7363 22.5919 52.863C22.8665 52.7806 23.1136 52.6981 23.3882 52.6157C23.196 51.5439 23.3058 50.4722 23.3333 49.4005C23.3607 48.8234 23.3607 48.2188 23.4156 47.6142C23.4706 47.0371 23.6079 46.515 24.0746 46.1303C24.4316 45.8555 24.9533 45.6356 25.3926 45.8005C25.8045 45.9654 26.1065 46.3776 26.3537 46.7349C26.9852 47.6142 27.5618 48.4936 27.9737 49.5104C28.2208 49.318 28.413 49.0982 28.6052 48.8783Z" fill="#986BA1"/>
<path d="M26.6557 48.0265C26.4361 47.4769 26.134 46.8174 25.53 46.5701C23.7177 45.8831 23.553 48.796 23.5804 49.8677C23.6079 50.7196 23.7177 51.5715 23.855 52.4234C24.0198 52.341 24.212 52.286 24.3767 52.2036C24.2394 51.4066 24.1571 50.6372 24.1296 49.8403C24.1021 49.0708 24.1021 48.0815 24.514 47.3945C24.7337 47.0372 25.173 46.9273 25.5025 47.2021C25.7496 47.3945 25.9144 47.7243 26.0517 48.0265C26.4086 48.8235 26.6832 49.6479 27.0127 50.4448C27.15 50.3074 27.3147 50.1975 27.452 50.0601C27.1774 49.3731 26.9303 48.6861 26.6557 48.0265Z" fill="#986BA1"/>
<path d="M26.5188 49.9499C26.3815 49.5377 26.1893 49.098 25.9147 48.7408C25.75 48.5209 25.4754 48.3835 25.2008 48.4935C24.9812 48.6034 24.8439 48.8232 24.7889 49.0431C24.6791 49.4553 24.7066 49.9224 24.734 50.3347C24.7615 50.8568 24.8164 51.3789 24.8713 51.9285C25.0361 51.8186 25.2283 51.7362 25.393 51.6262C25.3656 51.214 25.3107 50.8018 25.2832 50.3896C25.2557 50.1423 25.2557 49.895 25.2557 49.6476C25.2557 49.4828 25.2557 49.2629 25.3381 49.098C25.3656 49.0156 25.393 48.9881 25.4479 49.0431C25.5303 49.1255 25.5852 49.208 25.6401 49.2904C25.75 49.4828 25.8598 49.7026 25.9422 49.9499C26.0795 50.3072 26.1893 50.6644 26.2442 51.0491C26.409 50.9392 26.5737 50.8018 26.711 50.6919C26.6835 50.4171 26.6012 50.1972 26.5188 49.9499Z" fill="#986BA1"/>
<path d="M16.8284 46.7073C17.6796 46.2676 18.6406 45.8554 19.3271 45.1684C19.2722 44.3715 19.5468 43.3547 19.9037 42.3105C19.6291 41.9807 19.1898 41.8158 18.7505 41.7059C18.2013 41.5685 17.6522 41.5135 17.103 41.486C16.4989 41.4586 15.8674 41.5135 15.2633 41.6509C14.7691 41.7609 14.2748 41.8983 13.7806 42.0357C13.6982 42.3379 13.6433 42.6402 13.5884 42.9425H13.6158C14.2199 42.8051 14.7965 42.6127 15.4281 42.4753C16.0321 42.3654 16.6362 42.3105 17.2128 42.3379C17.762 42.3654 18.3935 42.4204 18.9152 42.6402C19.4644 42.8326 19.4644 43.3547 19.2722 43.8494C18.8603 44.8936 17.6796 45.3883 16.746 45.8554C15.7026 46.3776 14.6867 46.8997 13.6433 47.4218C13.6982 47.6966 13.7806 47.9714 13.8904 48.2188C14.8789 47.6966 15.8674 47.202 16.8284 46.7073Z" fill="#986BA1"/>
<path d="M17.4853 44.6463C17.9521 44.2616 18.3365 43.4922 17.7873 42.9975C17.2931 42.5578 16.4419 42.5853 15.8378 42.6403C15.0415 42.7502 14.3002 42.9975 13.5588 43.2998C13.5313 43.4922 13.5039 43.712 13.4764 43.9044C14.2453 43.6021 15.0415 43.2723 15.8653 43.1899C16.2222 43.1349 17.7873 43.0525 17.4578 43.7944C17.3206 44.1242 16.9361 44.3715 16.6341 44.5364C16.3046 44.7288 15.9477 44.9211 15.5907 45.086C14.9042 45.4433 14.1903 45.7456 13.449 45.9654C13.4764 46.1578 13.4764 46.3501 13.5039 46.515C14.1903 46.3226 14.8768 46.0204 15.5358 45.7181C16.1948 45.4433 16.9087 45.141 17.4853 44.6463Z" fill="#986BA1"/>
<path d="M14.9593 45.1957C15.124 45.1408 15.2613 45.0308 15.3711 44.9209C15.6457 44.5912 15.481 44.1515 15.0966 43.9866C14.7945 43.8492 14.4101 43.8767 14.0806 43.9591C13.861 44.0141 13.6413 44.124 13.4491 44.2614C13.4216 44.5087 13.4216 44.7286 13.4216 44.9759C13.4491 44.9759 13.504 44.9484 13.5315 44.9209C13.7511 44.7011 13.9982 44.5637 14.3003 44.5087C14.4376 44.4812 14.5474 44.4812 14.7122 44.4812C14.7396 44.4812 14.7671 44.4812 14.7671 44.4812C14.7396 44.4812 14.7396 44.4812 14.7945 44.4812C14.822 44.4812 14.9044 44.5087 14.8769 44.5087C14.9044 44.5087 14.9044 44.5362 14.9318 44.5362C14.9044 44.5087 14.9318 44.5362 14.9318 44.5362C14.9318 44.5362 14.9318 44.5362 14.9593 44.5637C14.9593 44.5637 14.9593 44.5912 14.9867 44.5912C14.9867 44.5912 14.9867 44.5912 14.9867 44.6186C14.9593 44.6461 14.9318 44.6736 14.9593 44.6736C14.9318 44.7011 14.8769 44.7286 14.8494 44.756C14.7122 44.8385 14.5749 44.8934 14.4101 44.9484C14.1081 45.0583 13.7786 45.1408 13.4491 45.2232C13.4491 45.4156 13.4491 45.6079 13.4765 45.8003C13.8335 45.7179 14.163 45.6354 14.4925 45.498C14.6023 45.3331 14.7945 45.2782 14.9593 45.1957ZM14.9593 44.5637C14.9318 44.5637 14.9318 44.5637 14.9593 44.5637V44.5637Z" fill="#986BA1"/>
<path d="M10.3203 24.5572C10.9518 23.8977 11.6383 23.2657 12.2698 22.6061C12.7366 22.084 13.1485 21.5069 13.5878 20.9298C13.3407 20.6275 13.0936 20.2978 12.9288 19.9955C12.462 20.5726 12.0501 21.1771 11.5559 21.7268C10.9793 22.3863 10.3203 22.9909 9.68876 23.5954C9.44164 23.8427 9.22198 24.0901 8.97485 24.3649C9.19452 24.6672 9.41418 24.9694 9.6613 25.2442C9.90843 25.0244 10.1006 24.7771 10.3203 24.5572Z" fill="#4D77B1"/>
<path d="M8.31758 20.3799C8.97657 20.215 9.6081 20.0501 10.2671 19.8852C11.0634 19.6929 11.8597 19.473 12.6559 19.2807C12.5736 18.9234 12.5461 18.5387 12.6559 18.154C11.7224 18.3738 10.7888 18.6211 9.85523 18.841C9.16878 19.0059 8.50978 19.1982 7.82333 19.3631C7.49384 19.4455 7.1918 19.528 6.8623 19.6104C6.94468 19.9677 7.02705 20.3249 7.13688 20.6547C7.5213 20.5448 7.90571 20.4898 8.31758 20.3799Z" fill="#4D77B1"/>
<path d="M12.7931 17.7695C12.8755 17.5772 12.9853 17.4123 13.1226 17.2199C13.2324 17.0825 13.3423 16.9451 13.4796 16.8627C11.4477 16.0657 9.36087 15.4062 7.27406 14.8566C7.10931 15.1864 6.99948 15.5436 6.88965 15.9009C8.89408 16.3955 10.8436 17.0276 12.7931 17.7695Z" fill="#4D77B1"/>
<path d="M12.8204 14.059C13.0949 14.9658 13.3695 15.8727 13.6166 16.7521C13.9461 16.5597 14.3031 16.5047 14.6875 16.5322C14.4129 15.5704 14.1383 14.5811 13.8088 13.6193C13.5068 12.63 13.1773 11.6132 12.7654 10.6514C12.4085 10.7064 12.0241 10.7888 11.6946 10.8987C12.1614 11.9155 12.4634 12.9873 12.8204 14.059Z" fill="#4D77B1"/>
<path d="M16.1677 16.9452C16.6344 16.2582 17.0738 15.5712 17.5131 14.8842C17.8975 14.3071 18.2819 13.73 18.6938 13.2079C18.886 12.9606 19.0782 12.7132 19.243 12.4109C19.3253 12.2735 19.3802 12.0812 19.4901 11.9438C19.1606 11.7789 18.8311 11.614 18.4741 11.4766C18.4741 11.5041 18.4467 11.5041 18.4467 11.5316C18.3094 11.7789 18.1995 12.0537 18.0348 12.2735C17.5955 12.8506 17.1561 13.4277 16.7443 14.0323C16.1677 14.8842 15.646 15.7636 15.0693 16.588C15.4537 16.6704 15.8107 16.7803 16.1677 16.9452Z" fill="#4D77B1"/>
<path d="M8.84001 24.1449C9.71866 23.2106 10.5973 22.2487 11.4211 21.2595C11.6956 20.9297 11.4211 20.49 11.0092 20.5724C9.77358 20.7923 8.53797 20.9846 7.2749 21.2045C7.38473 21.4793 7.46711 21.7266 7.6044 21.9739C8.42814 21.8365 9.22442 21.6991 10.0482 21.5617C9.499 22.1938 8.94984 22.8258 8.37322 23.4304C8.53797 23.6777 8.67526 23.9251 8.84001 24.1449Z" fill="#4D77B1"/>
<path d="M6.72459 19.0061C7.90529 18.7038 9.08598 18.4015 10.2941 18.3191C10.7609 18.2916 10.8433 17.6871 10.404 17.5222C9.71751 17.2474 8.97615 17.0275 8.26224 16.8352C7.90529 16.7527 7.52088 16.6978 7.16392 16.6153C7.02663 16.5878 6.88934 16.5604 6.75205 16.5329C6.69714 16.8077 6.66968 17.0825 6.66968 17.3573C6.75205 17.3848 6.83443 17.3848 6.9168 17.4122C7.30121 17.4672 7.68562 17.5222 8.07004 17.6321C8.23478 17.6596 8.37207 17.7145 8.53682 17.742C7.90529 17.8794 7.30121 18.0168 6.69714 18.1817C6.66968 18.4565 6.69714 18.7313 6.72459 19.0061Z" fill="#4D77B1"/>
<path d="M11.2289 15.0764C11.6133 15.2688 11.9703 14.8841 11.8055 14.4993C11.476 13.8398 11.2015 13.1528 10.9269 12.4658C10.7896 12.1085 10.6523 11.7513 10.4876 11.394C10.2404 11.5314 10.0208 11.6688 9.77365 11.8337C9.91094 12.136 10.0208 12.4658 10.1581 12.7681C10.2954 13.1253 10.4601 13.4826 10.5974 13.8673C9.91094 13.5375 9.22449 13.2627 8.51059 12.9604C8.31838 13.1528 8.15363 13.3726 7.98888 13.5925C7.98888 13.5925 7.98888 13.62 7.96143 13.62C9.0872 14.0871 10.1581 14.5543 11.2289 15.0764Z" fill="#4D77B1"/>
<path d="M15.1828 14.0322C15.3201 14.4169 15.8418 14.4169 15.9791 14.0322C16.1988 13.3726 16.5283 12.7956 16.8578 12.191C17.0774 11.8337 17.2696 11.449 17.4893 11.0918C17.2147 11.0093 16.9402 10.9269 16.6656 10.8719C16.4734 11.2017 16.2812 11.5315 16.089 11.8337C15.9242 12.1085 15.7595 12.4108 15.6222 12.6856C15.43 11.9986 15.2378 11.2841 15.1005 10.5696C14.8259 10.5422 14.5238 10.5147 14.2493 10.5147C14.4964 11.7238 14.7984 12.878 15.1828 14.0322Z" fill="#4D77B1"/>
<path d="M15.6742 23.4579H15.7017C15.7017 23.4579 15.7017 23.4579 15.7291 23.4579C15.7566 23.4579 15.784 23.4579 15.8115 23.4579C15.8939 23.4579 15.9488 23.4579 16.0312 23.4579C16.0861 23.4579 16.1135 23.4579 16.1685 23.4305C15.9213 23.1831 15.6468 22.9358 15.3722 22.6885C14.9328 22.7709 14.4935 22.9358 14.0816 23.0732C13.8894 23.1282 13.6972 23.2106 13.505 23.2656C13.6149 23.1282 13.7247 23.0183 13.862 22.8809C14.1366 22.6061 14.3837 22.3038 14.6583 22.0015C14.4661 21.8091 14.2464 21.6168 14.0816 21.4244C14.0267 21.4794 13.9993 21.5343 13.9444 21.5618C13.6972 21.8366 13.4501 22.1114 13.2304 22.3587C12.7911 22.8259 12.3518 23.2931 11.9399 23.8152C11.8301 23.9526 11.885 24.1724 11.9674 24.2824C12.0772 24.4198 12.242 24.4472 12.4067 24.4198C13.0382 24.3098 13.6423 24.0625 14.2464 23.8702C14.5759 23.7602 14.9054 23.6503 15.2623 23.5679C15.3447 23.5129 15.5095 23.4854 15.6742 23.4579Z" fill="#4D77B1"/>
<path d="M19.0802 18.4564C19.0253 17.2472 19.19 16.0106 19.0802 14.8015C19.0527 14.6366 18.9978 14.4992 18.8331 14.4168C18.6958 14.3618 18.5036 14.3618 18.3937 14.4992C17.7073 15.2961 17.3778 16.3404 16.8835 17.2472C17.1307 17.3572 17.3778 17.4946 17.6249 17.632C17.8171 17.2747 18.0093 16.8625 18.2015 16.5053C18.2564 16.4228 18.2839 16.3404 18.3388 16.2579C18.3114 16.835 18.2839 17.4121 18.2839 18.0167C18.531 18.1541 18.8056 18.319 19.0802 18.4564Z" fill="#4D77B1"/>
<path d="M49.7818 31.9548L51.3469 30.8556L49.0404 30.6907L50.331 28.7121L47.8872 29.4816L48.7384 27.2832L46.6241 28.2999L46.5967 28.2724L47.5303 26.3213L45.4984 27.3931C45.1963 27.1732 44.8943 26.9809 44.5923 26.7885C44.3451 26.9534 44.1255 27.0908 43.8783 27.2007C43.9058 27.2832 43.9607 27.3656 44.0705 27.4206C45.1414 28.0526 46.075 28.8495 46.9536 29.7289C47.8048 30.5808 48.7933 31.4052 49.1228 32.6144C49.2876 33.164 49.3699 33.8235 49.013 34.3181C48.6835 34.7578 48.1618 35.0326 47.6675 35.2525C46.6241 35.7196 45.4709 35.8845 44.3451 35.8021C43.1919 35.7196 42.0387 35.4448 40.9403 35.0876C40.803 35.0326 40.6932 35.0601 40.6108 35.1151C40.9953 35.3899 41.3797 35.7471 41.7366 36.1868C41.9837 36.2418 42.2309 36.3242 42.478 36.3792L43.6861 39.1272L44.6746 36.654C44.7021 36.654 44.7021 36.654 44.7295 36.654L45.6357 39.1272L46.2946 36.5166C46.3221 36.5166 46.3496 36.5166 46.377 36.4891L47.2831 38.5501L47.4204 36.2143C47.4479 36.2143 47.4753 36.1868 47.5028 36.1868L49.0679 37.5883L48.7659 35.6922L50.2211 36.4067L49.7818 34.7029L51.5391 35.0601L50.0839 33.164L52.0059 32.6693L49.7818 31.9548Z" fill="#AAB660"/>
<path d="M46.3223 39.3967L46.4321 37.8303L47.1735 39.3967L46.9538 40.2211L46.3223 39.3967Z" fill="#AAB660"/>
<path d="M48.0244 38.572V37.3354L48.8756 38.2972V39.4513L48.0244 38.572Z" fill="#AAB660"/>
<path d="M48.8738 28.5695L49.2033 27.6077L50.1918 27.2504L49.8897 28.2397L48.8738 28.5695Z" fill="#AAB660"/>
<path d="M50.0828 30.2183L50.7143 29.1191H51.6204L51.2909 29.916L50.0828 30.2183Z" fill="#AAB660"/>
<path d="M50.9893 31.7025L51.6208 31.1254L52.6367 31.4277L52.0327 32.1422L50.9893 31.7025Z" fill="#AAB660"/>
<path d="M51.156 33.4334L52.0347 33.1036L52.9682 33.7082L51.9523 34.4777L51.156 33.4334Z" fill="#AAB660"/>
<path d="M50.469 35.3849L50.7161 36.2643L51.6222 36.4292L51.5124 35.3849H50.469Z" fill="#AAB660"/>
<path d="M49.5337 37.3357L49.4238 36.4288L50.1927 37.0334L50.3025 37.8303L49.5337 37.3357Z" fill="#AAB660"/>
<path d="M44.3691 39.0124L44.6986 38.1879L45.0281 39.2047L44.6163 40.0841L44.3691 39.0124Z" fill="#AAB660"/>
<path d="M47.7209 27.2502L48.3525 26.9204L48.4623 26.2609L47.8308 26.5906L47.7209 27.2502Z" fill="#AAB660"/>
<path d="M36.5968 11.5589C33.2195 13.4001 30.913 16.3405 32.0937 18.3741C32.5331 19.0885 33.1646 19.5282 34.1256 19.5282C34.3727 19.5007 34.6199 19.4458 34.8944 19.3633C36.5419 18.5389 37.2558 15.0489 36.5968 11.5589ZM34.9768 17.687C34.7297 18.2641 34.0707 18.5664 33.4941 18.3191C32.9175 18.0718 32.6154 17.4122 32.8625 16.8351C33.1097 16.2581 33.7687 15.9558 34.3453 16.2031C34.9219 16.4504 35.2239 17.11 34.9768 17.687Z" fill="#40BC99"/>
<path d="M39.5072 25.1612C39.5072 25.1612 39.5072 25.1887 39.5072 25.1612C39.3699 25.7657 39.4248 26.3428 39.7818 26.8924C39.9465 27.1398 40.1936 27.3596 40.4682 27.5795C42.0333 28.5138 44.9164 26.9749 47.1405 24.4192C43.7082 22.7704 40.1387 22.6605 39.5072 25.1612ZM42.1157 26.6726C41.5391 26.9199 40.8526 26.6726 40.6055 26.0955C40.3584 25.5184 40.6055 24.8314 41.1821 24.5841C41.7587 24.3368 42.4452 24.5841 42.6923 25.1612C42.9669 25.7383 42.6923 26.4253 42.1157 26.6726Z" fill="#0763A4"/>
<path d="M38.5191 34.5318C38.2995 34.5868 38.1073 34.6692 37.9425 34.7516C37.8876 34.7791 37.8601 34.8066 37.8052 34.8341C37.5856 34.9715 37.4208 35.1089 37.2835 35.2463C37.0089 35.5211 36.8167 35.8783 36.6794 36.3455C36.652 36.4005 36.652 36.4829 36.6245 36.5379C36.6245 36.5928 36.6245 36.6478 36.5971 36.6753C36.5971 36.7028 36.5971 36.7302 36.5971 36.7577C36.5421 38.7638 40.0842 40.5775 43.9833 40.7973C42.9673 37.0875 40.6608 34.0921 38.5191 34.5318ZM39.0683 37.5821C38.4917 37.8294 37.8052 37.5821 37.5581 37.005C37.311 36.4279 37.5581 35.7409 38.1347 35.4936C38.7113 35.2463 39.3978 35.4936 39.6449 36.0707C39.892 36.6478 39.6449 37.3348 39.0683 37.5821Z" fill="#8B8A33"/>
<path d="M30.3086 40.6607C30.2811 40.6607 30.2811 40.6332 30.2537 40.6332C30.1988 40.6057 30.1439 40.5782 30.0615 40.5507C30.034 40.5507 30.034 40.5507 30.0066 40.5233C29.073 40.1111 28.3042 40.2759 27.6177 40.7981C26.1624 42.0072 27.0411 45.3323 29.1828 48.1903C31.4618 45.2224 32.3405 41.8698 30.3086 40.6607ZM29.073 43.7385C28.4415 43.7385 27.9198 43.2163 27.9198 42.5843C27.9198 41.9522 28.4415 41.4301 29.073 41.4301C29.7045 41.4301 30.2262 41.9522 30.2262 42.5843C30.1988 43.2163 29.7045 43.7385 29.073 43.7385Z" fill="#A8503A"/>
<path d="M21.0549 37.3909C21.0274 37.226 21 37.0886 20.9725 36.9237C20.8352 36.484 20.643 36.1268 20.3684 35.8794C20.2311 35.742 20.0664 35.6321 19.8467 35.5222C19.682 35.4398 19.5172 35.3848 19.325 35.3298C17.403 34.9451 15.0416 37.858 13.9707 41.4305C17.8423 41.3481 21.2471 39.7817 21.0549 37.3909ZM18.6935 38.6824C18.0619 38.6824 17.5402 38.1603 17.5402 37.5283C17.5402 36.8962 18.0619 36.3741 18.6935 36.3741C19.325 36.3741 19.8467 36.8962 19.8467 37.5283C19.8467 38.1878 19.325 38.6824 18.6935 38.6824Z" fill="#7B377C"/>
<path d="M19.8743 12.1356C19.0231 15.818 19.682 19.3355 22.0984 19.5828C22.1533 19.5828 22.1807 19.5828 22.2356 19.5828C22.2906 19.5828 22.3455 19.5828 22.4004 19.5828H22.4278C22.8397 19.5828 23.1967 19.5004 23.4987 19.363C23.5262 19.363 23.5536 19.3355 23.5811 19.3355C23.6085 19.3355 23.636 19.308 23.636 19.308C23.6635 19.2805 23.7184 19.2531 23.7458 19.2256L23.7733 19.1981C23.8007 19.1706 23.8282 19.1431 23.8831 19.1157C23.9106 19.1157 23.9106 19.0882 23.938 19.0882L23.9655 19.0607C24.1852 18.8409 24.3774 18.5935 24.5421 18.2913C25.2011 16.56 23.0045 13.8394 19.8743 12.1356ZM23.4438 17.1096C23.6909 17.6867 23.4438 18.3737 22.8672 18.621C22.2906 18.8683 21.6041 18.621 21.357 18.0439C21.1099 17.4668 21.357 16.7798 21.9336 16.5325C22.5102 16.2577 23.1967 16.5325 23.4438 17.1096Z" fill="#1F4375"/>
<path d="M17.1833 28.2392C17.2383 28.1843 17.3206 28.1018 17.3755 28.0469C17.403 28.0194 17.4305 27.9919 17.4579 27.9644C17.4854 27.937 17.4854 27.937 17.5128 27.9095C17.6227 27.7446 17.7325 27.5797 17.8149 27.4423C18.0345 26.9751 18.0895 26.4805 17.9247 25.8759C17.3481 23.7874 13.449 23.8149 9.85205 25.4362C12.2409 28.2392 15.4535 29.8331 17.1833 28.2392ZM14.4925 26.5629C14.4925 25.9309 15.0142 25.4088 15.6457 25.4088C16.2772 25.4088 16.7989 25.9309 16.7989 26.5629C16.7989 27.195 16.2772 27.7171 15.6457 27.7171C15.0142 27.7171 14.4925 27.195 14.4925 26.5629Z" fill="#C45827"/>
<path d="M29.071 41.4298C28.4394 41.4298 27.9177 41.9519 27.9177 42.584C27.9177 43.216 28.4394 43.7382 29.071 43.7382C29.7025 43.7382 30.2242 43.216 30.2242 42.584C30.1967 41.9519 29.7025 41.4298 29.071 41.4298Z" fill="white"/>
<path d="M18.6911 36.4011C18.0595 36.4011 17.5378 36.9233 17.5378 37.5553C17.5378 38.1874 18.0595 38.7095 18.6911 38.7095C19.3226 38.7095 19.8443 38.1874 19.8443 37.5553C19.8443 36.9233 19.3226 36.4011 18.6911 36.4011Z" fill="white"/>
<path d="M16.7723 26.563C16.7723 25.9309 16.2506 25.4088 15.6191 25.4088C14.9875 25.4088 14.4658 25.9309 14.4658 26.563C14.4658 27.195 14.9875 27.7171 15.6191 27.7171C16.2506 27.7171 16.7723 27.195 16.7723 26.563Z" fill="white"/>
<path d="M38.1327 35.4937C37.5561 35.7411 37.309 36.4281 37.5561 37.0052C37.8032 37.5822 38.4897 37.8296 39.0663 37.5822C39.6429 37.3349 39.89 36.6479 39.6429 36.0708C39.3958 35.4937 38.7094 35.2464 38.1327 35.4937Z" fill="white"/>
<path d="M41.1803 24.5842C40.6037 24.8315 40.3566 25.5185 40.6037 26.0956C40.8508 26.6727 41.5373 26.92 42.1139 26.6727C42.6905 26.4254 42.9376 25.7384 42.6905 25.1613C42.4434 24.5842 41.757 24.3369 41.1803 24.5842Z" fill="white"/>
<path d="M34.3447 16.2036C33.7681 15.9562 33.0816 16.2585 32.862 16.8356C32.6149 17.4127 32.9169 18.0997 33.4935 18.3196C34.0701 18.5669 34.7566 18.2646 34.9762 17.6875C35.1959 17.1104 34.9213 16.4509 34.3447 16.2036Z" fill="white"/>
<path d="M21.9335 16.5325C21.3569 16.7798 21.1098 17.4668 21.3569 18.0439C21.604 18.621 22.2905 18.8683 22.8671 18.621C23.4437 18.3737 23.6908 17.6867 23.4437 17.1096C23.1966 16.5325 22.5101 16.2577 21.9335 16.5325Z" fill="white"/>
<path d="M19.7639 23.926C20.4463 23.926 20.9995 23.3723 20.9995 22.6894C20.9995 22.0064 20.4463 21.4528 19.7639 21.4528C19.0815 21.4528 18.5283 22.0064 18.5283 22.6894C18.5283 23.3723 19.0815 23.926 19.7639 23.926Z" fill="#F5AE15"/>
<path d="M37.0361 23.1838C37.7186 23.1838 38.2718 22.6302 38.2718 21.9472C38.2718 21.2643 37.7186 20.7106 37.0361 20.7106C36.3537 20.7106 35.8005 21.2643 35.8005 21.9472C35.8005 22.6302 36.3537 23.1838 37.0361 23.1838Z" fill="#F5AE15"/>
<path d="M28.2505 19.1717C28.9329 19.1717 29.4861 18.618 29.4861 17.935C29.4861 17.2521 28.9329 16.6984 28.2505 16.6984C27.5681 16.6984 27.0149 17.2521 27.0149 17.935C27.0149 18.618 27.5681 19.1717 28.2505 19.1717Z" fill="#F5AE15"/>
<path d="M33.4114 40.3035C34.0938 40.3035 34.647 39.7499 34.647 39.0669C34.647 38.3839 34.0938 37.8303 33.4114 37.8303C32.729 37.8303 32.1758 38.3839 32.1758 39.0669C32.1758 39.7499 32.729 40.3035 33.4114 40.3035Z" fill="#F5AE15"/>
<path d="M24.0774 40.7722C24.7598 40.7722 25.313 40.2185 25.313 39.5356C25.313 38.8526 24.7598 38.299 24.0774 38.299C23.395 38.299 22.8418 38.8526 22.8418 39.5356C22.8418 40.2185 23.395 40.7722 24.0774 40.7722Z" fill="#F5AE15"/>
<path d="M39.3435 32.4992C40.0259 32.4992 40.5791 31.9456 40.5791 31.2626C40.5791 30.5796 40.0259 30.026 39.3435 30.026C38.6611 30.026 38.1079 30.5796 38.1079 31.2626C38.1079 31.9456 38.6611 32.4992 39.3435 32.4992Z" fill="#F5AE15"/>
<path d="M17.898 33.4614C18.5804 33.4614 19.1336 32.9077 19.1336 32.2247C19.1336 31.5418 18.5804 30.9881 17.898 30.9881C17.2156 30.9881 16.6624 31.5418 16.6624 32.2247C16.6624 32.9077 17.2156 33.4614 17.898 33.4614Z" fill="#F5AE15"/>
<path d="M28.8827 21.0949C24.1874 20.9025 20.206 24.5299 20.0138 29.2016C19.8216 33.8733 23.501 37.8304 28.1963 37.9953C32.919 38.1877 36.873 34.5328 37.0652 29.8611C37.2574 25.2169 33.6055 21.2597 28.8827 21.0949ZM35.7472 29.8886C35.5825 33.8183 32.2326 36.8961 28.2786 36.7312C24.2972 36.5663 21.2219 33.2412 21.3867 29.3115C21.5514 25.3818 24.9013 22.304 28.8553 22.4689C32.8092 22.6338 35.8845 25.9589 35.7472 29.8886Z" fill="#F89633"/>
<path d="M28.8286 22.4694C24.8472 22.3045 21.5248 25.3823 21.36 29.312C21.1953 33.2417 24.298 36.5668 28.252 36.7317C32.2334 36.8966 35.5558 33.8188 35.7206 29.8891C35.8853 25.9594 32.81 22.6343 28.8286 22.4694ZM28.3618 33.8188C25.973 33.7363 24.1333 31.7303 24.2157 29.367C24.298 27.0036 26.3299 25.1625 28.6913 25.2724C31.0527 25.3823 32.9198 27.3609 32.8375 29.7242C32.7551 32.0875 30.7507 33.9287 28.3618 33.8188Z" fill="#F5AE15"/>
<path d="M28.555 33.8461C30.9359 33.8461 32.866 31.9268 32.866 29.5592C32.866 27.1915 30.9359 25.2722 28.555 25.2722C26.1742 25.2722 24.2441 27.1915 24.2441 29.5592C24.2441 31.9268 26.1742 33.8461 28.555 33.8461Z" fill="white"/>
<path d="M3.9515 23.9531C3.89658 24.008 3.86912 24.0355 3.81421 24.0905C3.75929 24.1454 3.73183 24.2004 3.70437 24.2828C3.59454 24.5027 3.56708 24.75 3.64946 25.0248C3.89658 25.9316 5.62643 25.9316 7.19154 25.2172C6.12068 23.9805 4.72032 23.2935 3.9515 23.9531Z" fill="#C45827"/>
<path d="M37.6133 9.41583C39.0686 8.6189 40.0845 7.3548 39.5903 6.44795C39.5354 6.36551 39.4804 6.28306 39.4255 6.2281C39.2059 5.98078 38.9587 5.89834 38.6842 5.92582C38.5743 5.92582 38.4645 5.9533 38.3547 6.00826C37.6133 6.36551 37.3113 7.90441 37.6133 9.41583Z" fill="#40BC99"/>
<path d="M52.5513 23.4035C52.6337 23.1012 52.5787 22.8539 52.414 22.634C52.3865 22.5791 52.3316 22.5241 52.2767 22.4417C52.2218 22.3867 52.1669 22.3592 52.112 22.3317C51.4255 21.9195 50.1624 22.6065 49.2014 23.7332C50.7116 24.4477 52.2767 24.4752 52.5513 23.4035Z" fill="#0763A4"/>
<path d="M48.5689 45.0857C48.6787 45.0582 48.7611 45.0307 48.8709 44.9758C48.9808 44.9208 49.0632 44.8658 49.1455 44.7834C49.3377 44.6185 49.4201 44.3987 49.4476 44.1788C49.4476 44.1514 49.4476 44.1239 49.4476 44.1239C49.475 43.2445 47.9374 42.4476 46.2075 42.3651C46.6194 43.959 47.6079 45.2781 48.5689 45.0857Z" fill="#8B8A33"/>
<path d="M28.7191 53.7146C28.7465 53.7421 28.774 53.7421 28.8014 53.7695C28.8289 53.7695 28.8563 53.797 28.8838 53.797C28.9113 53.797 28.9387 53.8245 28.9387 53.8245C28.9936 53.8245 29.0211 53.852 29.076 53.852C29.1309 53.852 29.2133 53.852 29.2682 53.852C29.2957 53.852 29.2957 53.852 29.3231 53.852C29.3506 53.852 29.3781 53.852 29.3781 53.852C29.4055 53.852 29.4055 53.852 29.433 53.852C29.4604 53.852 29.4879 53.8245 29.5153 53.8245H29.5428C29.5977 53.797 29.6526 53.7695 29.7075 53.7421C29.7625 53.7146 29.7899 53.6871 29.8174 53.6596C30.4489 53.11 30.0645 51.681 29.1035 50.4444C28.2248 51.7085 27.8404 53.165 28.7191 53.7146Z" fill="#A8503A"/>
<path d="M9.27856 44.6181C9.27856 44.6181 9.27856 44.6456 9.27856 44.6181C9.30602 44.8929 9.38839 45.1128 9.5806 45.3052C9.63551 45.3601 9.71789 45.4151 9.80026 45.47C9.80026 45.47 9.82772 45.47 9.82772 45.4975C9.91009 45.525 9.96501 45.5525 10.0474 45.58C10.8711 45.7174 11.9145 44.4533 12.3813 42.8869C10.7064 42.9144 9.22364 43.5739 9.27856 44.5907C9.27856 44.5907 9.27856 44.5907 9.27856 44.6181C9.2511 44.5907 9.27856 44.6181 9.27856 44.6181Z" fill="#7B377C"/>
<path d="M19.2462 9.93802C19.6032 8.34416 19.3286 6.83273 18.3401 6.66785C18.2852 6.66785 18.2303 6.66785 18.1753 6.64037H18.1479H18.1204C18.093 6.64037 18.0381 6.64037 18.0106 6.64037C17.9282 6.64037 17.8458 6.66785 17.7909 6.69533C17.7635 6.69533 17.7086 6.72281 17.6811 6.75029C17.6536 6.75029 17.6536 6.77777 17.6262 6.77777C17.6262 6.77777 17.6262 6.77777 17.5987 6.77777C17.5713 6.77777 17.5713 6.80525 17.5438 6.80525C17.5438 6.80525 17.5438 6.80525 17.5163 6.83273C17.4889 6.83273 17.4889 6.86021 17.4614 6.86021C17.4065 6.91517 17.3516 6.97013 17.2967 7.0251C17.2418 7.08006 17.2143 7.13502 17.1869 7.18998C16.9123 8.01439 17.8733 9.19605 19.2462 9.93802Z" fill="#1F4375"/>
</svg>
