<svg width="20" height="15" viewBox="0 0 20 15" fill="none" xmlns="http://www.w3.org/2000/svg">
<path d="M7.26748 14.4772C7.48687 14.4375 7.66056 14.2739 7.72227 14.0588C7.78397 13.8391 7.71998 13.6077 7.56001 13.4534L2.21681 7.98834L19.3891 7.98834C19.4074 7.98834 19.4256 7.98834 19.4439 7.98834C19.7639 7.97431 20.0153 7.69382 19.9993 7.36657C19.9833 7.03932 19.7113 6.78453 19.3891 6.80089L2.21681 6.80089L7.56001 1.33584C7.73141 1.19091 7.8114 0.961836 7.76112 0.737437C7.71084 0.517713 7.54172 0.342401 7.32461 0.290976C7.1075 0.239552 6.88125 0.321363 6.74184 0.499012L0.399939 6.96686L0 7.39462L0.399939 7.82238L6.74184 14.2902C6.86297 14.4235 7.03666 14.4912 7.21491 14.4772C7.2332 14.4772 7.2492 14.4772 7.26748 14.4772Z" fill="white"/>
</svg>
