<svg width="375" height="252" viewBox="0 0 375 252" fill="none" xmlns="http://www.w3.org/2000/svg">
<g style="mix-blend-mode:overlay" opacity="0.1">
<path d="M2.54914 172.919C-0.174007 172.433 -2.96803 172.514 -5.65856 173.156C-8.34909 173.798 -10.8782 174.989 -13.0879 176.652C-15.3129 178.203 -17.2037 180.185 -18.648 182.48C-20.0924 184.776 -21.0608 187.338 -21.4962 190.014C-21.9315 192.691 -21.8247 195.427 -21.1822 198.062C-20.5397 200.697 -19.3745 203.175 -17.7557 205.351C-16.1805 207.589 -14.1697 209.487 -11.8438 210.93C-9.51781 212.374 -6.92469 213.333 -4.21924 213.751C-1.51119 214.245 1.26857 214.19 3.95484 213.589C6.64112 212.987 9.17927 211.852 11.4181 210.251C13.657 208.676 15.555 206.666 16.9987 204.341C18.4424 202.015 19.402 199.423 19.8201 196.718C20.3159 194.033 20.2396 191.274 19.5962 188.62C18.9527 185.967 17.7566 183.479 16.0859 181.319C14.537 179.055 12.5331 177.139 10.2024 175.693C7.87176 174.247 5.26535 173.302 2.54914 172.919Z" fill="white"/>
<path d="M62.5307 187.853C61.4353 187.111 60.1125 186.78 58.7965 186.919C58.1211 187.064 57.4825 187.346 56.9205 187.747C56.3584 188.148 55.8847 188.661 55.529 189.253C55.1368 189.781 54.8702 190.392 54.7489 191.039C54.6276 191.685 54.655 192.351 54.829 192.986C55.1449 194.215 55.8899 195.291 56.9296 196.019C57.4346 196.458 58.0359 196.771 58.6849 196.933C59.3338 197.095 60.0118 197.102 60.6638 196.953C61.3548 196.881 62.0212 196.657 62.6145 196.296C63.2078 195.935 63.713 195.445 64.0931 194.864C64.4733 194.283 64.7188 193.624 64.8119 192.936C64.9051 192.248 64.8434 191.547 64.6313 190.886C64.5457 190.251 64.3107 189.644 63.9456 189.117C63.5804 188.59 63.0956 188.157 62.5307 187.853Z" fill="white"/>
<path d="M47.3606 138.854C50.4609 136.841 53.7428 135.123 57.1631 133.721L54.5959 140.254C53.6623 142.914 54.0357 144.594 55.7628 145.387C56.9781 145.77 58.2818 145.77 59.497 145.387C60.2905 145.06 61.4575 144.547 62.9979 143.754C66.597 142.609 70.2595 141.674 73.9671 140.954C75.3674 140.954 75.9277 139.927 75.601 138.387C75.2742 136.847 74.2005 136.194 72.8001 136.521C69.869 136.983 66.9809 137.686 64.1648 138.621L59.497 140.021L63.4645 130.688C63.6371 130.278 63.6618 129.821 63.534 129.395C63.4063 128.969 63.1342 128.601 62.7645 128.354C62.5023 128.069 62.1718 127.856 61.8044 127.733C61.437 127.611 61.0447 127.584 60.664 127.654C56.779 128.919 53.0269 130.56 49.4611 132.554L52.7286 118.088C52.8451 117.798 52.8937 117.485 52.8708 117.173C52.8479 116.861 52.7543 116.559 52.5967 116.288C52.4391 116.018 52.2219 115.788 51.9617 115.615C51.7014 115.441 51.405 115.329 51.095 115.288C49.5702 114.821 48.6365 115.288 48.2942 116.688L43.8597 136.521C43.6968 136.956 43.7024 137.436 43.8751 137.868C44.0477 138.299 44.3751 138.651 44.7933 138.854C45.1344 139.193 45.596 139.383 46.0771 139.383C46.5581 139.383 47.0195 139.193 47.3606 138.854Z" fill="white"/>
<path d="M33.3567 239.882C33.8952 240.254 34.5062 240.509 35.1495 240.629C35.7929 240.75 36.4544 240.734 37.0912 240.582C37.7646 240.521 38.4132 240.298 38.982 239.932C39.5509 239.567 40.0231 239.069 40.3584 238.482C40.7506 237.954 41.0175 237.343 41.1388 236.696C41.2601 236.049 41.2327 235.383 41.0587 234.749C40.9974 234.076 40.7745 233.427 40.4088 232.858C40.0431 232.29 39.5454 231.818 38.9581 231.482C38.4295 231.09 37.8187 230.824 37.1718 230.702C36.5248 230.581 35.8587 230.608 35.2239 230.782C33.9124 231.054 32.7483 231.802 31.9564 232.882C31.5844 233.421 31.33 234.031 31.2094 234.674C31.0887 235.318 31.1047 235.979 31.2564 236.616C31.5283 237.927 32.2765 239.09 33.3567 239.882Z" fill="white"/>
<path d="M31.7233 152.854C32.2618 153.226 32.8725 153.48 33.5159 153.601C34.1592 153.721 34.8207 153.705 35.4575 153.554C36.7689 153.282 37.9331 152.534 38.725 151.454C39.1172 150.926 39.384 150.315 39.5053 149.668C39.6266 149.021 39.5993 148.355 39.4253 147.721C39.364 147.047 39.1408 146.399 38.7751 145.83C38.4094 145.262 37.912 144.79 37.3247 144.454C36.7961 144.062 36.185 143.795 35.5381 143.674C34.8911 143.553 34.2253 143.58 33.5905 143.754C32.917 143.816 32.2682 144.038 31.6993 144.404C31.1305 144.77 30.6583 145.267 30.323 145.854C29.9308 146.383 29.6639 146.993 29.5426 147.64C29.4213 148.287 29.4487 148.953 29.6227 149.587C29.8947 150.898 30.6431 152.062 31.7233 152.854Z" fill="white"/>
<path d="M347.034 213.985C349.628 215.068 352.416 215.607 355.227 215.567C358.038 215.526 360.81 214.909 363.371 213.752C365.908 212.674 368.207 211.105 370.134 209.135C372.06 207.164 373.577 204.832 374.597 202.272C375.617 199.712 376.12 196.975 376.076 194.22C376.032 191.464 375.442 188.745 374.341 186.219C373.249 183.664 371.652 181.356 369.647 179.431C367.642 177.507 365.27 176.006 362.671 175.02C360.119 173.936 357.368 173.397 354.595 173.438C351.822 173.478 349.088 174.096 346.567 175.253C344.005 176.271 341.684 177.814 339.755 179.783C337.825 181.752 336.33 184.104 335.365 186.686C333.319 191.855 333.397 197.623 335.582 202.735C337.767 207.848 341.883 211.89 347.034 213.985Z" fill="white"/>
<path d="M322.528 177.351L308.805 174.785L320.474 182.951L322.528 177.351Z" fill="white"/>
<path d="M310.859 218.651L324.862 214.685L321.875 209.318L310.859 218.651Z" fill="white"/>
<path d="M333.497 164.983L322.061 156.583L328.83 169.183C330.214 167.604 331.781 166.194 333.497 164.983Z" fill="white"/>
<path d="M348.668 158.684L341.9 145.851L342.833 160.084C346.427 159.151 348.341 158.684 348.668 158.684Z" fill="white"/>
<path d="M364.538 144.917L358.983 158.45L365.052 159.617L364.538 144.917Z" fill="white"/>
<path d="M297.789 222.15C301.177 229.795 306.124 236.649 312.313 242.274C318.502 247.898 325.797 252.17 333.731 254.816C341.545 257.687 349.867 258.921 358.178 258.439C366.49 257.957 374.613 255.771 382.043 252.016C389.702 248.463 396.552 243.38 402.172 237.08C407.791 230.78 412.061 223.396 414.718 215.384C417.667 207.564 418.982 199.224 418.581 190.876C418.179 182.529 416.07 174.352 412.384 166.852C408.995 159.207 404.048 152.354 397.859 146.729C391.671 141.104 384.376 136.832 376.441 134.186C368.627 131.315 360.306 130.082 351.994 130.563C343.683 131.045 335.56 133.231 328.13 136.986C320.494 140.513 313.658 145.56 308.04 151.819C302.421 158.077 298.139 165.416 295.455 173.385C292.555 181.255 291.268 189.627 291.669 198.005C292.07 206.382 294.151 214.593 297.789 222.15ZM298.256 196.018L318.794 190.651C318.797 188.917 319.033 187.19 319.494 185.518L302.457 173.385C301.85 173.385 301.663 172.685 301.99 171.752C302.095 171.482 302.297 171.262 302.555 171.132C302.814 171.003 303.112 170.974 303.39 171.052L323.929 175.018L326.963 170.819L316.927 152.153C316.46 151.686 316.553 151.126 316.927 150.519C317.17 150.361 317.454 150.276 317.744 150.276C318.034 150.276 318.318 150.361 318.561 150.519L335.598 163.119L340.266 161.019L338.866 139.786C338.866 138.853 339.239 138.386 340.033 138.386C340.826 138.386 341.106 138.386 341.433 139.086L351.469 157.752H356.137L364.305 137.686C364.648 136.909 365.114 136.675 365.706 136.986C365.864 136.963 366.026 136.977 366.179 137.027C366.331 137.077 366.47 137.162 366.583 137.276C366.697 137.389 366.782 137.528 366.832 137.68C366.882 137.832 366.896 137.994 366.873 138.153L367.573 160.086L368.273 160.319L371.54 161.719L387.878 147.253C388.149 147.055 388.476 146.949 388.811 146.949C389.147 146.949 389.474 147.055 389.745 147.253C389.939 147.481 390.046 147.77 390.046 148.069C390.046 148.369 389.939 148.658 389.745 148.886L380.876 169.185L383.677 172.219L404.915 166.152C405.227 166.086 405.551 166.117 405.843 166.243C406.136 166.368 406.382 166.581 406.549 166.852C406.876 167.319 406.549 167.879 406.082 168.485L389.278 182.952L390.212 186.685L412.384 190.418C412.658 190.536 412.893 190.731 413.059 190.979C413.224 191.228 413.314 191.519 413.317 191.818C413.317 192.611 412.991 192.985 412.384 192.985L390.679 198.818C390.661 200.169 390.424 201.509 389.978 202.784L408.65 215.617C409.256 216.224 409.443 216.784 409.116 217.25C408.789 217.717 407.949 218.09 407.483 217.95L385.544 213.75L383.21 217.017L394.179 236.617C394.506 237.083 394.179 237.643 393.712 238.25C393.246 238.856 392.686 238.856 392.079 238.25L374.108 225.184L370.607 227.05L372.007 249.449C372.004 249.748 371.914 250.04 371.749 250.288C371.583 250.537 371.348 250.732 371.074 250.849C370.764 250.882 370.451 250.835 370.165 250.712C369.879 250.59 369.63 250.396 369.44 250.149L358.937 230.317H355.203L346.568 250.849C346.241 251.456 345.867 251.783 345.401 251.783H345.167C344.374 251.456 344 250.989 344 250.383L343.3 228.45L341.433 227.983L339.333 227.05L322.995 241.75C322.202 242.076 321.688 242.076 321.361 241.75C321.035 241.423 320.568 240.91 320.895 240.116L329.53 220.284L326.496 216.784L305.958 222.85C305.366 223.192 304.9 222.959 304.557 222.15C304.091 221.684 304.184 221.124 304.791 220.517L320.895 206.751L319.728 202.084L298.723 198.584C297.929 198.258 297.556 197.884 297.556 197.418C297.556 196.951 297.649 196.018 298.256 196.018Z" fill="white"/>
<path d="M318.561 193.451L304.837 196.951L318.841 199.284L318.561 193.451Z" fill="white"/>
<path d="M276.363 213.049L294.334 221.215L276.13 207.915H282.852L276.13 198.349H282.852L276.363 189.249H282.852L274.496 177.583L266.327 189.249H272.862L266.327 198.349H273.049L266.327 207.915H274.029L262.36 222.848L276.363 213.049Z" fill="white"/>
<path d="M294.335 170.117L287.8 148.185L292.701 153.318L294.801 141.885L299.469 146.551L301.336 135.352L306.004 140.018L308.525 126.019L294.335 128.352L299.002 133.019L287.8 134.885L292.467 139.785L281.031 141.652L286.633 147.251L267.682 152.385L284.999 152.851L294.335 170.117Z" fill="white"/>
<path d="M385.357 153.553L374.154 163.586L379.242 167.552L385.357 153.553Z" fill="white"/>
<path d="M328.176 131.621L339.379 114.121V119.488L348.902 112.721V119.488L358.237 112.955V119.488L369.907 111.321L358.237 103.155V109.455L348.902 103.155V109.688L339.379 103.155V110.155L324.676 99.655L335.178 113.188L328.176 131.621Z" fill="white"/>
<path d="M325.842 235.684L337.045 225.651L331.677 222.151L325.842 235.684Z" fill="white"/>
<path d="M346.567 244.549L352.402 230.549C350.198 230.453 348.009 230.141 345.867 229.616L346.567 244.549Z" fill="white"/>
<path d="M361.971 229.851L369.206 243.384L368.273 227.985C366.235 228.801 364.125 229.426 361.971 229.851Z" fill="white"/>
<path d="M312.305 256.447L300.869 254.347L305.537 249.681L294.334 247.581L299.002 243.148L284.999 240.581L287.333 254.581L292 250.147L293.868 261.347L298.722 256.447L300.636 267.88L306.471 262.28L309.225 280.246L311.559 263.214L329.81 255.747L309.038 259.714L312.305 256.447Z" fill="white"/>
<path d="M752.433 320.146C752.575 319.532 752.575 318.894 752.433 318.28V318.046V318.28C752.923 317.919 753.39 317.529 753.834 317.113C757.391 314.491 760.745 311.605 763.869 308.48L768.071 304.513C768.351 304.233 768.677 303.953 769.004 303.58C772.878 298.914 776.333 294.714 779.273 290.514C787.643 294.377 794.818 300.422 800.045 308.013C808.881 319.797 815.522 333.075 819.65 347.212C820.91 351.272 822.684 357.385 825.018 365.878C826.836 371.938 829.851 377.571 833.887 382.444C838.408 387.372 844.111 391.066 850.458 393.177C854.659 394.717 861.053 396.677 869.596 399.01C885.538 404.397 900.452 412.444 913.706 422.81C913.951 423.07 914.25 423.274 914.582 423.406C914.914 423.537 915.272 423.594 915.628 423.572C915.985 423.55 916.333 423.449 916.646 423.277C916.959 423.105 917.23 422.865 917.441 422.576C918.685 421.332 918.685 420.165 917.441 419.076C905.84 410.161 893.131 402.789 879.631 397.144C875.43 395.402 868.351 393.069 858.393 390.144C851.388 388.399 844.854 385.133 839.255 380.578C834.584 375.649 831.216 369.635 829.452 363.078C827.119 354.072 825.251 347.445 823.851 343.246C819.365 329.235 812.582 316.068 803.779 304.28C798.246 296.492 790.76 290.296 782.074 286.314L781.841 286.547C794.35 265.925 799.146 241.538 795.377 217.716C792.149 193.202 780.322 170.629 762.002 154.018C756.038 148.468 749.46 143.615 742.398 139.552L745.432 133.952C747.586 130.662 750.177 127.68 753.134 125.086C755.001 123.359 757.801 120.793 762.002 117.386C772.491 108.156 779.151 95.3403 780.674 81.4539C781.597 74.3325 782.143 67.1671 782.307 59.9879C782.634 49.5816 782.914 42.3951 783.241 38.5219C783.861 31.3236 785.511 24.2516 788.142 17.5225C791.051 11.1085 794.735 5.07486 799.112 -0.443592C806.907 -10.8499 811.388 -17.1497 812.648 -19.3429C816.838 -25.9143 819.546 -33.3189 820.583 -41.0422C820.91 -42.7688 820.117 -43.6089 818.25 -43.6089C817.89 -43.6571 817.525 -43.6259 817.179 -43.5173C816.833 -43.4088 816.516 -43.2257 816.248 -42.9809C815.981 -42.736 815.771 -42.4355 815.633 -42.1005C815.495 -41.7655 815.432 -41.4042 815.449 -41.0422C814.399 -34.1205 811.85 -27.5114 807.98 -21.6762C806.238 -18.8763 802.115 -13.2764 795.611 -4.8767C786.952 5.98008 781.1 18.8017 778.573 32.4555C777.656 39.4962 777.189 46.588 777.173 53.6881C776.846 64.4211 776.566 71.5141 776.239 74.9207C774.699 91.5802 769.004 104.227 759.202 112.953C755.001 116.546 751.873 119.253 749.866 121.119C746.744 123.857 743.997 126.995 741.697 130.452C740.299 132.538 739.051 134.722 737.963 136.985C731.61 133.856 724.965 131.355 718.125 129.519C719.852 126.579 724.1 120.186 730.961 110.386C735.504 104.265 739.267 97.6031 742.164 90.5535C744.288 84.0906 745.082 77.2652 744.498 70.4876C743.705 61.4812 743.098 54.6214 742.631 49.9549C742.128 35.8166 743.621 21.6779 747.065 7.95623C748.764 0.572479 750.011 -6.90788 750.8 -14.4431C751.451 -22.0051 751.059 -29.6209 749.633 -37.0758C749.306 -38.8024 748.326 -39.3156 746.599 -38.709C744.872 -38.1023 744.265 -37.2157 744.731 -35.6758C746.767 -22.0493 745.973 -8.1496 742.398 5.15629C738.954 18.504 737.074 32.2066 736.796 45.9883C737.123 50.6549 737.87 57.6546 739.13 66.9877C740.034 74.0253 739.478 81.1737 737.496 87.987C735.642 93.1419 733.215 98.0725 730.261 102.687C729.328 104.086 726.154 108.613 720.926 116.219C717.985 120.419 715.418 124.479 713.224 128.352L716.491 129.286C706.574 126.8 696.374 125.623 686.151 125.786C682.37 125.786 678.635 126.252 674.948 126.719C677.598 115.595 679.393 104.285 680.316 92.8868C681.179 81.4421 680.153 69.9335 677.281 58.8213C674.621 47.9483 673.08 41.4151 672.614 39.2218C671.771 32.8811 671.536 26.4744 671.914 20.0891C671.914 15.5781 672.38 9.27835 673.314 1.18972C674.248 -7.67667 674.808 -13.9765 674.948 -17.4764C676.048 -30.8018 673.55 -44.1783 667.713 -56.2084C667.594 -56.545 667.395 -56.8478 667.133 -57.0901C666.871 -57.3324 666.553 -57.5071 666.209 -57.5991C665.864 -57.691 665.502 -57.6974 665.154 -57.6177C664.806 -57.538 664.482 -57.3747 664.212 -57.1418C663.901 -56.9934 663.626 -56.7794 663.406 -56.5145C663.186 -56.2495 663.026 -55.9399 662.937 -55.6072C662.848 -55.2744 662.833 -54.9264 662.892 -54.5871C662.951 -54.2478 663.082 -53.9253 663.278 -53.6419C668.422 -42.8117 670.673 -30.8345 669.813 -18.8763C669.486 -10.8032 668.506 1.18969 666.779 17.0559C665.906 29.222 667.089 41.4483 670.28 53.2214C672.265 59.9611 673.824 66.8188 674.948 73.754C675.567 80.3475 675.645 86.9806 675.181 93.5868C673.948 104.95 671.762 116.189 668.646 127.186C660.602 128.868 652.773 131.451 645.307 134.885C632.666 140.548 621.31 148.725 611.932 158.918C607.52 163.858 603.538 169.166 600.029 174.784L602.83 170.118L597.229 171.051C594.272 171.518 585.637 173.929 571.322 178.284C562.772 181.247 553.763 182.669 544.716 182.484C536.802 181.716 529.113 179.418 522.077 175.718C512.741 170.444 505.833 166.384 501.305 164.051C487.812 156.07 472.052 152.787 456.494 154.718L454.393 155.185C449.003 140.915 440.545 128.003 429.616 117.359C418.687 106.716 405.554 98.6005 391.145 93.5868C384.643 91.2597 377.916 89.6176 371.073 88.687C371.483 82.236 370.772 75.7628 368.972 69.5542C365.499 59.7236 360.104 50.682 353.102 42.9551C349.202 38.5383 346.402 33.2612 344.933 27.5555C343.946 21.3853 343.555 15.1345 343.766 8.88945C344.321 -3.10598 343.853 -15.1268 342.366 -27.0427C340.697 -38.4232 335.563 -49.0139 327.662 -57.375C326.573 -58.6195 325.406 -58.6195 324.162 -57.375C323.887 -57.1473 323.667 -56.8621 323.515 -56.5395C323.364 -56.2169 323.285 -55.8648 323.285 -55.5085C323.285 -55.1521 323.364 -54.8002 323.515 -54.4776C323.667 -54.1549 323.887 -53.8696 324.162 -53.6419C331.552 -45.6514 336.21 -35.5195 337.465 -24.7094C338.745 -13.871 339.135 -2.94591 338.632 7.95623C338.52 13.3322 338.754 18.7097 339.332 24.0556C339.729 29.3974 341.324 34.5812 344 39.2218C346.79 43.443 349.83 47.4945 353.102 51.3548C356.332 55.3357 359.147 59.6356 361.504 64.1877C364.999 71.6974 366.602 79.9486 366.172 88.2203C361.285 87.7395 356.367 87.6616 351.468 87.987H351.235C346.537 88.2298 341.859 88.7754 337.231 89.6203H336.998C332.79 84.0877 328.104 78.9347 322.995 74.2207C317.81 69.4112 313.119 64.0961 308.991 58.3546C303.349 48.4598 301.289 36.9243 303.156 25.6889C304.633 15.0792 303.918 4.27935 301.056 -6.04333C296.538 -16.7638 290.823 -26.9392 284.018 -36.3757C283.847 -36.6984 283.606 -36.9785 283.312 -37.195C283.018 -37.4115 282.679 -37.5589 282.32 -37.6262C281.961 -37.6935 281.591 -37.6789 281.239 -37.5836C280.886 -37.4883 280.56 -37.3147 280.284 -37.0758C278.744 -36.2825 278.417 -35.2091 279.35 -33.8092C285.399 -25.4612 290.635 -16.5542 294.988 -7.20996C298.312 3.01759 299.348 13.8504 298.022 24.5223C296.626 34.7308 297.666 45.1245 301.056 54.8547C305.613 63.7652 311.878 71.6931 319.494 78.1873C323.86 82.1499 327.917 86.44 331.63 91.0202C325.873 92.7624 320.972 94.3179 316.926 95.6868L302.689 102.687V102.92C298.984 95.3714 293.921 88.5694 287.752 82.8538C283.374 79.3284 279.241 75.5085 275.383 71.4208C271.378 66.7638 268.93 60.9716 268.381 54.8547C268.039 49.1823 268.039 43.4944 268.381 37.8219C268.744 32.0642 268.587 26.2855 267.914 20.5557C266.417 9.70294 263.02 -0.801498 257.879 -10.4766C252.071 -21.2905 244.132 -30.8154 234.539 -38.4757C234.312 -38.7498 234.026 -38.9704 233.704 -39.1218C233.381 -39.2732 233.029 -39.3518 232.672 -39.3518C232.316 -39.3518 231.964 -39.2732 231.641 -39.1218C231.318 -38.9704 231.033 -38.7498 230.805 -38.4757C229.56 -37.2002 229.56 -36.0336 230.805 -34.9758C239.328 -28.1543 246.46 -19.7577 251.81 -10.2433C256.9 -0.897476 260.222 9.30598 261.613 19.8558C262.286 25.5068 262.52 31.2014 262.313 36.8886C261.986 45.2883 261.94 50.8881 262.313 53.9213C262.703 59.2331 264.214 64.402 266.747 69.0875C269.613 73.6433 273.245 77.6693 277.483 80.9872C285.654 87.729 292.466 95.9642 297.555 105.253C295.345 106.655 293.239 108.214 291.253 109.92L278.65 121.119L277.95 122.053L273.049 127.652L269.781 132.319L263.713 141.419V141.885L262.78 143.519L256.245 158.451L255.778 159.151L253.911 164.751C249.605 161.98 244.875 159.931 239.907 158.685C233.261 157.673 226.464 158.563 220.303 161.251C214.132 163.937 208.199 167.137 202.565 170.818C193.696 176.418 187.783 179.995 184.827 181.551C178.654 184.748 171.647 185.97 164.756 185.051C160.122 184.152 155.692 182.412 151.686 179.917C146.411 176.511 142.35 173.991 139.549 172.451C131.978 168.051 123.677 165.048 115.043 163.585C109.418 162.624 103.702 162.311 98.0059 162.651L96.1387 157.285L87.27 139.552L76.0671 124.852L66.9648 115.986L55.7622 108.52L52.728 106.42L42.9257 101.287C43.3849 101.329 43.8467 101.242 44.2591 101.036C44.6714 100.83 45.018 100.513 45.2596 100.12C45.8575 99.5025 46.2108 98.6889 46.2537 97.8306C46.2966 96.9723 46.0262 96.1275 45.493 95.4535C45.3039 95.0317 45.0262 94.6555 44.6787 94.3505C44.3313 94.0456 43.9222 93.819 43.4793 93.6862C43.0364 93.5533 42.5701 93.5174 42.1121 93.5808C41.6541 93.6441 41.2153 93.8053 40.8251 94.0534L39.4249 94.7534C39.2305 95.1644 38.9958 95.5551 38.7246 95.92L38.2579 97.7867V98.72L38.9579 99.6533L25.6548 95.4535C24.7212 94.2091 23.7875 93.9756 22.8539 94.7534H22.6205C7.81238 91.3244 -7.58417 91.329 -22.3903 94.7666C-37.1965 98.2043 -51.0194 104.984 -62.8004 114.586L-72.136 122.986C-73.9483 119.313 -75.4323 115.487 -76.5705 111.553C-77.504 107.68 -78.7643 99.56 -80.3047 87.2871C-81.2266 79.183 -83.0266 71.2031 -85.6728 63.4878C-88.0131 56.8719 -91.8463 50.8839 -96.8754 45.9883C-102.084 41.5299 -108.108 38.1227 -114.613 35.9554C-123.949 33.2954 -130.624 31.2888 -135.151 29.6555C-141.929 27.2205 -148.128 23.407 -153.356 18.4559C-159.004 12.7684 -163.728 6.23428 -167.36 -0.910275C-170.02 -5.57679 -173.334 -12.9499 -177.395 -22.6096C-177.504 -22.9565 -177.683 -23.2771 -177.923 -23.5508C-178.162 -23.8244 -178.455 -24.045 -178.785 -24.1987C-179.114 -24.3524 -179.472 -24.4358 -179.836 -24.4434C-180.199 -24.451 -180.56 -24.3827 -180.896 -24.2429C-182.623 -23.7762 -183.137 -22.7495 -182.53 -21.2095C-177.564 -7.72215 -170.729 5.00148 -162.225 16.5892C-157.869 21.8509 -152.662 26.3463 -146.821 29.8888C-140.464 33.3081 -133.727 35.9707 -126.749 37.8219C-119.435 39.5507 -112.375 42.217 -105.744 45.7549C-99.3689 49.9894 -94.4737 56.1067 -91.7409 63.2544C-88.7886 71.0673 -86.8284 79.2196 -85.9061 87.5203C-84.1635 100.275 -82.8407 108.52 -81.9383 112.253C-80.5611 117.326 -78.6851 122.25 -76.3372 126.952H-76.1035H-76.3372L-89.8736 146.785L-96.1754 160.785C-100.764 157.414 -105.129 153.751 -109.245 149.818C-115.414 144.009 -120.896 137.512 -125.583 130.452C-127.45 127.512 -131.417 119.393 -137.485 106.186C-144.16 91.0512 -155.428 78.3988 -169.693 70.0209C-172.167 68.6209 -175.855 66.8477 -180.663 64.6544C-185.471 62.4612 -189.998 60.5945 -191.866 59.5212C-199.695 55.8775 -206.155 49.8278 -210.303 42.255C-212.846 37.3644 -215.03 32.2957 -216.838 27.0889C-219.312 20.0891 -221.179 14.8627 -222.44 11.4561L-232.942 -16.543V-17.943C-232.327 -17.955 -231.74 -18.2046 -231.305 -18.6396C-230.87 -19.0746 -230.62 -19.6612 -230.608 -20.2763C-230.478 -20.9242 -230.598 -21.5973 -230.945 -22.1601C-231.291 -22.7229 -231.838 -23.1336 -232.475 -23.3095C-233.12 -23.5419 -233.82 -23.5772 -234.485 -23.411C-235.15 -23.2449 -235.75 -22.8846 -236.21 -22.3761C-237.207 -21.4516 -237.864 -20.2191 -238.077 -18.8763C-238.125 -16.5441 -237.647 -14.2312 -236.676 -12.1099C-235.939 -9.81124 -235.082 -7.55262 -234.109 -5.34338L-222.44 26.1556C-221.179 29.0955 -219.499 33.622 -217.305 39.6885C-215.522 44.1472 -213.083 48.3152 -210.07 52.0548C-204.128 58.4217 -196.884 63.4351 -188.831 66.7543L-176.462 72.3541C-172.464 74.3703 -168.639 76.7115 -165.026 79.3539C-157.503 84.8942 -151.156 91.8735 -146.354 99.8866C-141.659 108.43 -137.451 117.233 -133.751 126.252C-129.425 134.285 -124.092 141.734 -117.881 148.418C-111.629 154.895 -104.836 160.828 -97.5757 166.151L-99.2093 172.684V172.918L-100.61 179.684C-107.71 177.407 -114.406 174.021 -120.448 169.651C-129.16 162.286 -135.831 152.805 -139.819 142.119C-143.576 132.045 -148.849 122.603 -155.456 114.12C-162.237 106.358 -170.486 100.014 -179.729 95.4535C-184.909 93.1534 -190.206 91.1284 -195.6 89.3869C-200.993 87.5562 -206.29 85.4535 -211.47 83.0871C-220.791 78.119 -228.245 70.2581 -232.709 60.6879C-237.278 51.1712 -241.177 41.3478 -244.378 31.2888C-247.49 20.9766 -252.048 11.1572 -257.915 2.12308C-263.57 -7.04101 -272.361 -13.8401 -282.654 -17.0097C-284.195 -17.6163 -285.222 -17.0097 -285.689 -15.3764C-286.155 -13.7431 -285.689 -12.5765 -284.055 -12.1099C-274.693 -8.96392 -266.753 -2.59697 -261.649 5.85624C-256.359 14.2151 -252.199 23.2377 -249.28 32.6887C-246.422 42.3263 -242.913 51.7587 -238.777 60.9211C-234.593 70.0663 -228.171 78.0106 -220.106 84.0204C-215.531 87.1052 -210.592 89.6131 -205.402 91.4869C-201.995 92.8869 -196.767 94.7534 -189.765 97.0866C-179.503 100.763 -170.179 106.659 -162.458 114.353C-154.993 122.652 -149.207 132.319 -145.421 142.819C-141.554 153.039 -135.592 162.338 -127.916 170.118C-120.081 176.802 -111.054 181.948 -101.31 185.284V204.417L-100.143 212.583V213.283C-113.82 223.876 -124.276 231.482 -131.417 236.149C-137.41 240.176 -144.305 242.661 -151.489 243.382C-158.977 243.539 -166.447 242.596 -173.661 240.582L-193.733 234.982C-200.478 233.289 -207.345 232.119 -214.271 231.482C-226.902 230.669 -239.572 232.252 -251.614 236.149C-258.362 238.324 -264.856 241.218 -270.985 244.782L-271.452 243.615L-278.453 234.516L-286.855 223.316L-291.523 219.116L-292.457 217.95L-307.16 206.983L-321.164 199.75C-323.467 198.559 -325.893 197.62 -328.399 196.95L-335.868 194.617L-337.034 194.384L-345.436 192.75L-354.772 191.35L-369.242 191.117L-384.646 193.217L-385.58 193.45C-388.606 185.213 -393.384 177.73 -399.583 171.518C-407.845 163.725 -413.913 157.845 -417.788 153.785C-423.718 147.792 -428.609 140.853 -432.258 133.252L-436.926 122.286C-438.514 118.57 -440.387 114.981 -442.527 111.553C-446.324 104.974 -451.698 99.4414 -458.164 95.4535C-464.898 91.3945 -472.22 88.4035 -479.87 86.587C-482.204 85.9959 -489.983 84.3627 -503.209 81.6872C-511.56 80.2563 -519.709 77.828 -527.481 74.4541C-535.386 71.2398 -542.194 65.8113 -547.086 58.8213C-547.257 58.4986 -547.498 58.2185 -547.792 58.002C-548.086 57.7855 -548.425 57.6382 -548.784 57.5709C-549.143 57.5036 -549.513 57.5182 -549.865 57.6135C-550.218 57.7088 -550.544 57.8824 -550.82 58.1213C-552.361 59.0546 -552.687 60.2213 -551.754 61.6212C-544.628 72.3542 -532.414 79.9762 -515.112 84.4871C-505.434 86.8204 -491.041 90.1647 -471.934 94.5201C-464.743 97.0022 -458.203 101.069 -452.796 106.42C-447.698 112.756 -443.605 119.839 -440.66 127.419C-434.979 142.61 -425.205 155.935 -412.42 165.918C-406.678 171.518 -402.477 175.858 -399.817 178.984C-395.842 183.629 -392.685 188.915 -390.481 194.617L-408.685 201.383L-411.486 202.783L-417.321 206.05L-418.021 206.283L-434.358 218.416L-435.759 219.816C-437.829 221.555 -439.707 223.51 -441.36 225.649L-442.294 226.583C-444.349 228.759 -446.222 231.1 -447.895 233.582L-449.295 235.216L-454.43 243.149C-461.463 254.952 -466.066 268.041 -467.967 281.648C-468.49 284.969 -468.802 288.32 -468.9 291.681C-469.356 301.975 -468.254 312.28 -465.633 322.246L-462.132 332.979L-456.297 345.579L-445.328 361.912L-443.461 363.778L-437.626 369.611L-432.958 374.278C-436.096 383.904 -440.161 393.202 -445.094 402.044C-449.417 408.684 -455.256 414.203 -462.132 418.143C-469.972 421.829 -477.47 426.201 -484.537 431.209C-488.355 434.266 -491.596 437.979 -494.106 442.176C-495.647 444.649 -497.934 448.942 -500.875 455.009C-504.836 463.34 -509.772 471.172 -515.578 478.341C-528.947 494.885 -546.639 507.403 -566.691 514.507C-567.038 514.615 -567.359 514.795 -567.632 515.034C-567.906 515.273 -568.127 515.567 -568.281 515.896C-568.434 516.226 -568.518 516.584 -568.525 516.947C-568.533 517.31 -568.464 517.671 -568.325 518.007C-567.858 519.733 -566.831 520.247 -565.291 519.64C-547.909 513.389 -532.183 503.255 -519.313 490.008C-512.955 483.622 -507.391 476.493 -502.742 468.775C-501.342 466.442 -499.101 462.009 -495.973 455.475C-493.99 450.897 -491.567 446.521 -488.738 442.409C-485.924 438.838 -482.532 435.762 -478.703 433.309C-476.369 431.77 -472.401 429.483 -466.8 426.543C-459.186 422.931 -452.303 417.948 -446.495 411.843C-438.63 401.737 -432.696 390.268 -428.99 378.011H-428.757L-418.255 385.011L-415.454 386.878L-409.386 389.677L-400.984 393.411L-398.65 394.344L-388.147 397.377L-369.476 399.944C-370.119 413.613 -373.702 426.982 -379.978 439.143C-384.643 448.471 -390.791 456.982 -398.183 464.342C-402.178 468.009 -406.387 471.437 -410.786 474.608C-418.254 479.741 -422.689 482.868 -424.089 483.941C-432.296 490.949 -438.429 500.066 -441.827 510.307C-443.087 513.9 -444.861 519.173 -447.195 526.173C-448.958 531.584 -451.224 536.818 -453.963 541.806C-459.408 551.752 -467.174 560.237 -476.602 566.539C-484.379 571.73 -492.669 576.108 -501.342 579.605C-510.718 583.716 -519.837 588.391 -528.648 593.604C-537.533 598.717 -544.871 606.133 -549.887 615.07C-550.206 615.724 -550.263 616.475 -550.046 617.169C-549.829 617.863 -549.355 618.448 -548.72 618.804C-548.449 619.036 -548.126 619.2 -547.778 619.28C-547.43 619.359 -547.068 619.353 -546.723 619.261C-546.378 619.169 -546.061 618.994 -545.799 618.752C-545.537 618.509 -545.338 618.207 -545.219 617.87C-540.611 609.677 -533.931 602.838 -525.848 598.038C-517.727 593.229 -509.307 588.943 -500.641 585.205C-491.959 581.412 -483.538 577.047 -475.435 572.138C-466.344 566.333 -458.556 558.706 -452.563 549.739C-446.868 539.982 -442.4 529.559 -439.26 518.707C-436.185 507.493 -430.231 497.278 -421.989 489.074C-417.742 485.56 -413.301 482.288 -408.685 479.275C-404.101 476.153 -399.734 472.722 -395.615 469.008C-388.122 461.892 -381.818 453.621 -376.944 444.509C-369.535 430.851 -365.306 415.697 -364.575 400.177L-350.571 399.244C-344.643 398.31 -340.162 397.471 -337.034 396.677L-327.699 393.644L-326.765 393.411L-317.43 389.211L-300.859 379.178L-299.692 378.011L-297.591 376.611V376.845C-296.9 377.288 -296.066 377.455 -295.257 377.311C-294.779 377.305 -294.312 377.172 -293.902 376.926C-293.492 376.68 -293.154 376.33 -292.924 375.911C-292.473 375.405 -292.205 374.762 -292.163 374.085C-292.121 373.408 -292.306 372.737 -292.69 372.178L-284.988 364.478V364.012C-283.385 369.447 -281.028 374.63 -277.986 379.411C-274.778 384.083 -269.958 387.406 -264.45 388.744C-260.389 389.677 -254.087 390.751 -245.779 392.011C-240.107 393.461 -234.68 395.741 -229.675 398.777C-225.798 401.727 -222.411 405.271 -219.639 409.277C-222.972 417.658 -225.17 426.446 -226.174 435.409C-227.918 449.15 -226.967 463.098 -223.373 476.475C-219.815 489.779 -213.625 502.235 -205.169 513.107C-201.774 517.452 -198.027 521.51 -193.966 525.24C-193.62 530.454 -193.777 535.689 -194.433 540.873C-195.059 547.291 -196.632 553.581 -199.101 559.539C-200.968 563.739 -203.768 569.339 -207.736 576.338C-213.525 587.018 -217.693 598.499 -220.106 610.404C-222.01 622.517 -222.48 634.813 -221.506 647.036C-220.884 656.369 -219.017 670.213 -215.905 688.568C-215.902 688.924 -215.809 689.274 -215.634 689.584C-215.459 689.895 -215.209 690.155 -214.905 690.342C-214.602 690.529 -214.256 690.635 -213.9 690.651C-213.544 690.668 -213.19 690.593 -212.871 690.435C-212.502 690.39 -212.148 690.265 -211.834 690.068C-211.519 689.871 -211.252 689.607 -211.052 689.295C-210.851 688.983 -210.722 688.631 -210.673 688.263C-210.624 687.896 -210.658 687.522 -210.77 687.168C-213.571 670.369 -215.36 657.847 -216.138 649.603C-217.436 637.007 -217.044 624.295 -214.971 611.804C-212.531 599.583 -208.116 587.841 -201.901 577.038C-195.789 566.628 -191.451 555.273 -189.065 543.439C-188.599 539.099 -188.365 534.738 -188.365 530.373C-183.251 534.612 -177.695 538.289 -171.794 541.339L-172.261 541.806L-173.194 542.973L-173.661 544.606L-173.428 545.773C-173.133 546.576 -172.551 547.241 -171.794 547.639C-171.167 548.052 -170.443 548.293 -169.693 548.339C-169.2 548.399 -168.699 548.322 -168.246 548.116C-167.793 547.911 -167.405 547.584 -167.126 547.172C-166.47 546.302 -166.14 545.228 -166.193 544.139C-159.946 547.156 -153.366 549.427 -146.588 550.906L-135.385 553.006C-131.2 553.471 -126.992 553.705 -122.782 553.706L-112.046 553.239C-110.524 565.625 -110.29 578.136 -111.346 590.571C-111.973 596.218 -112.908 601.826 -114.146 607.371C-114.94 610.964 -116.153 616.377 -117.881 623.703C-120.296 633.701 -121.006 644.035 -119.981 654.269C-118.863 665.468 -115.531 676.334 -110.179 686.235C-110.06 686.571 -109.861 686.874 -109.599 687.116C-109.337 687.359 -109.02 687.533 -108.675 687.625C-108.33 687.717 -107.968 687.724 -107.62 687.644C-107.272 687.564 -106.948 687.401 -106.678 687.168C-106.342 687.05 -106.037 686.857 -105.787 686.603C-105.537 686.35 -105.349 686.042 -105.236 685.704C-105.123 685.366 -105.09 685.007 -105.137 684.654C-105.185 684.301 -105.313 683.964 -105.511 683.668C-115.213 665.159 -117.708 643.711 -112.513 623.47C-109.839 613.093 -107.735 602.578 -106.211 591.971C-105.132 580.719 -105.132 569.391 -106.211 558.139L-106.678 552.539C-87.6696 549.724 -69.8581 541.549 -55.332 528.973C-40.707 516.637 -29.7986 500.481 -23.8242 482.308C0.265442 475.257 26.0431 476.657 49.2272 486.274C53.895 488.266 61.2079 491.999 71.166 497.474C78.2717 501.679 85.6832 505.345 93.3381 508.44L99.4062 526.64L106.875 540.873L112.243 547.872L119.011 556.272L120.178 557.672L127.646 564.672C124.014 566.027 120.564 567.83 117.377 570.038C109.832 574.927 103.585 581.572 99.1729 589.404C94.8331 597.238 91.3883 605.534 88.9036 614.137C83.6134 631.061 80.8127 639.927 80.5016 640.736C77.5052 649.44 73.1748 657.627 67.6651 665.002C65.938 667.195 58.8896 673.868 46.4266 685.068C38.8434 691.304 33.0457 699.434 29.6223 708.634C29.4542 708.95 29.364 709.301 29.3593 709.658C29.3547 710.016 29.4359 710.369 29.5958 710.689C29.7557 711.009 29.9899 711.286 30.2787 711.496C30.5676 711.707 30.9028 711.846 31.2562 711.901C31.591 712.049 31.9561 712.117 32.322 712.099C32.688 712.081 33.0446 711.976 33.3627 711.795C33.6809 711.613 33.9517 711.359 34.1534 711.053C34.355 710.747 34.4818 710.398 34.5234 710.034C37.714 701.925 42.9384 694.774 49.6938 689.268C61.6901 678.395 68.0385 672.469 68.832 671.535C74.7985 664.744 79.6081 657.019 83.0688 648.669C86.3799 640.345 89.2621 631.856 91.7042 623.237C94.1638 614.231 97.2841 605.418 101.04 596.871C105.148 588.198 111.417 580.726 119.244 575.172C123.522 572.41 128.055 570.065 132.781 568.172L133.248 568.405L149.119 578.438H149.352L150.052 578.905L160.321 582.871L167.556 585.438L168.256 585.671L176.658 587.538C179.428 588.127 182.235 588.517 185.06 588.705L186.928 588.938C190.662 589.265 193.556 589.404 195.563 589.404H199.997V591.738C199.856 601.206 197.198 610.467 192.296 618.57C188.916 623.998 185.007 629.078 180.626 633.736L167.323 647.736C162.627 652.674 158.335 657.979 154.486 663.602C148.885 672.344 146.629 679.577 147.718 685.302C147.72 685.658 147.813 686.007 147.988 686.318C148.163 686.628 148.414 686.889 148.718 687.075C149.021 687.262 149.367 687.368 149.723 687.385C150.079 687.401 150.433 687.326 150.752 687.168C151.121 687.124 151.474 686.999 151.789 686.802C152.103 686.605 152.371 686.341 152.571 686.029C152.772 685.717 152.901 685.364 152.95 684.997C152.999 684.629 152.965 684.255 152.853 683.901C151.919 679.359 154.409 672.826 160.321 664.302C163.916 659.191 167.979 654.426 172.458 650.069L184.827 637.003C188.83 632.536 192.497 627.779 195.797 622.77C201.303 614.673 204.527 605.243 205.132 595.471V588.938L207.7 588.705L213.067 587.771H213.301L223.57 585.438L238.507 580.071L247.843 574.938V575.172C248.464 575.86 249.277 576.347 250.177 576.572C251.229 576.579 252.268 576.339 253.211 575.872C253.943 575.372 254.482 574.635 254.737 573.786C254.992 572.937 254.947 572.026 254.611 571.205L254.378 570.972L254.611 570.738C259.15 567.483 263.44 563.896 267.448 560.005L274.916 552.072L282.385 541.806L284.718 537.606L285.185 537.14L287.752 532.006L294.521 514.974L298.722 492.808C302.773 491.003 307.128 489.974 311.558 489.774C319.409 489.467 327.264 490.252 334.897 492.108C347.641 494.581 355.436 495.981 358.237 496.307C365.576 497.497 373.093 496.937 380.175 494.674C385.023 492.628 389.705 490.21 394.179 487.441L396.513 486.274C401.289 500.062 409.015 512.642 419.151 523.14C437.314 542.738 462.471 554.391 489.169 555.572H489.402L490.569 556.739L493.37 557.206C494.192 556.955 494.922 556.468 495.47 555.806C500.636 555.803 505.792 555.334 510.874 554.406C512.235 564.317 516.829 573.503 523.944 580.538C529.032 585.696 534.579 590.382 540.515 594.538C548.917 600.76 554.596 605.193 557.552 607.837C566.888 616.579 573.267 629.49 576.69 646.569C577.624 651.236 578.884 657.862 580.424 666.869C581.805 673.583 583.837 680.148 586.492 686.468C592.561 701.261 601.663 710.407 613.799 714.001C615.34 714.607 616.366 714.001 616.833 712.367C616.981 712.049 617.056 711.701 617.051 711.35C617.046 710.999 616.962 710.654 616.804 710.34C616.647 710.026 616.422 709.752 616.144 709.537C615.866 709.322 615.543 709.173 615.2 709.101C604.121 705.523 595.953 696.89 590.694 683.202C586.919 671.299 584.033 659.132 582.058 646.803C580.182 633.546 575.05 620.961 567.121 610.171C563.015 605.193 558.4 600.657 553.351 596.638C546.209 591.504 540.888 587.305 537.48 584.738C524.551 574.332 517.736 563.879 516.942 553.472C525.561 551.64 533.941 548.821 541.915 545.073C542.642 548.701 543.578 552.284 544.716 555.806C547.132 563.975 551.636 571.374 557.786 577.272C560.12 579.48 566.81 584.614 577.857 592.671C584.864 597.36 590.955 603.291 595.828 610.171C600.416 617.948 603.577 626.481 605.164 635.37C606.424 641.436 607.871 650.443 609.832 662.436C614.375 684.835 623.088 699.846 635.971 707.467C636.278 707.636 636.615 707.742 636.962 707.781C637.31 707.819 637.662 707.789 637.998 707.691C638.334 707.594 638.647 707.431 638.92 707.213C639.193 706.994 639.42 706.724 639.589 706.417C639.757 706.111 639.864 705.774 639.903 705.427C639.941 705.079 639.911 704.728 639.813 704.392C639.716 704.056 639.553 703.743 639.334 703.47C639.115 703.197 638.845 702.969 638.539 702.801C627.336 695.957 619.556 682.268 615.2 661.735C613.333 650.069 611.777 641.281 610.532 635.37C609.012 626.67 606.179 618.253 602.13 610.404C597.938 603.188 592.39 596.85 585.792 591.738C576.924 585.345 570.295 580.398 565.954 576.805C558.968 571.319 553.57 564.07 550.317 555.806C548.876 551.291 547.707 546.694 546.816 542.039C557.168 536.529 566.486 529.266 574.356 520.573C577.365 517.389 580.098 513.954 582.525 510.307L591.861 525.473C594.297 529.96 597.191 534.182 600.496 538.073C604.063 541.569 608.159 544.482 612.632 546.706C615.573 548.246 619.961 550.579 625.702 553.706C632.472 557.668 638.038 563.394 641.806 570.272C644.918 575.405 650.442 590.027 658.377 614.137C664.445 632.492 672.458 645.558 682.416 653.336C683.49 654.129 688.344 657.396 696.886 663.136C701.799 666.356 706.34 670.112 710.423 674.335C717.854 682.982 722.849 693.452 724.893 704.668C724.896 705.024 724.989 705.373 725.164 705.684C725.339 705.994 725.59 706.255 725.893 706.441C726.196 706.628 726.542 706.734 726.898 706.751C727.254 706.767 727.608 706.692 727.927 706.534C728.296 706.49 728.65 706.365 728.964 706.168C729.279 705.971 729.546 705.707 729.746 705.395C729.947 705.083 730.076 704.731 730.125 704.363C730.174 703.995 730.14 703.621 730.028 703.268C728.221 693.636 724.404 684.493 718.825 676.435C712.9 668.584 705.534 661.932 697.12 656.836C688.812 651.981 681.458 645.656 675.415 638.17C671.098 631.726 667.645 624.745 665.145 617.404C664.554 615.537 662.142 608.071 657.91 595.004C655.746 587.465 652.935 580.127 649.508 573.072C646.366 566.219 641.928 560.039 636.438 554.872C632.971 551.937 629.219 549.357 625.236 547.172C619.774 544.513 615.9 542.506 613.099 540.873C607.644 537.614 603.012 533.143 599.563 527.806L589.527 511.474L585.792 505.174C595.49 489.763 600.888 472.04 601.43 453.842C602.186 435.97 598.072 418.227 589.527 402.51C586.767 397.218 583.483 392.215 579.724 387.577C588.298 371.401 602.748 359.126 620.101 353.279C629.692 350.317 638.809 345.995 647.174 340.446C650.855 337.889 654.292 334.999 657.443 331.813C668.404 335.589 679.925 337.482 691.518 337.412C711.831 337.663 731.752 331.811 748.699 320.613L746.365 322.246C747.015 322.681 747.77 322.932 748.55 322.973C749.331 323.014 750.108 322.843 750.8 322.48C751.228 322.237 751.598 321.901 751.88 321.497C752.163 321.094 752.352 320.632 752.433 320.146ZM477.966 160.318C485.198 162.062 492.123 164.894 498.504 168.718L517.642 179.217C524.032 182.688 530.863 185.278 537.947 186.917C546.339 188.289 554.924 187.891 563.153 185.751C568.599 184.475 576.768 182.142 587.659 178.751C591.394 177.527 595.218 176.591 599.096 175.951H599.329C592.958 186.175 588.527 197.486 586.259 209.317C577.54 212.922 568.57 215.885 559.419 218.183C546.694 220.142 533.676 217.932 522.31 211.883C514.702 207.823 508.914 204.79 505.039 202.783C499.396 199.636 493.454 197.057 487.301 195.084C479.047 192.284 470.331 191.096 461.628 191.584C461.476 180.87 459.666 170.244 456.261 160.085C463.42 158.514 470.842 158.594 477.966 160.318ZM437.122 301.714C436.524 291.359 433.312 281.326 427.787 272.548L441.324 257.382C451.687 266.721 458.111 279.649 459.295 293.547C459.761 297.607 460.088 303.673 460.228 311.747C460.368 319.82 460.602 325.746 460.928 329.946L463.729 353.279C455.491 355.971 447.644 359.736 440.39 364.478C436.652 357.217 435.034 349.05 435.722 340.912C437.399 327.917 437.868 314.795 437.122 301.714ZM452.76 262.282C450.231 258.864 447.42 255.664 444.358 252.715L452.06 238.249L458.128 221.216C459.466 215.916 460.479 210.54 461.162 205.117L461.628 196.95C469.266 196.494 476.926 197.362 484.268 199.517C490.644 201.589 496.817 204.244 502.705 207.45L520.21 216.55C531.094 222.563 543.536 225.164 555.918 224.016C565.975 222.411 575.782 219.509 585.092 215.383L585.326 214.683C584.271 221.395 583.958 228.202 584.392 234.982C584.972 248.876 588.303 262.517 594.194 275.114C600.16 287.765 608.476 299.167 618.701 308.713C621.968 311.653 624.442 313.753 626.169 315.013L624.769 314.08C619.914 321.106 613.825 327.193 606.798 332.046C602.47 335.065 597.761 337.497 592.794 339.279C584.859 341.612 578.791 343.479 575.057 344.879C565.489 348.33 557.08 354.392 550.784 362.378C530.356 349.79 506.133 344.831 482.4 348.379C477.653 348.861 472.964 349.798 468.397 351.179C467.463 346.512 466.452 337.257 465.363 323.413C465.036 320.473 464.803 314.453 464.663 305.447C464.652 299.509 464.183 293.58 463.262 287.714C461.869 278.584 458.263 269.933 452.76 262.515V262.282ZM255.311 190.884V190.184C255.409 187.055 255.721 183.937 256.245 180.851V179.917L260.912 161.251C262.574 156.699 264.523 152.257 266.747 147.952L267.681 146.085L278.65 129.986L287.052 120.653L304.557 107.586C313.741 102.017 323.743 97.9231 334.197 95.4535L339.799 94.5201C345.273 93.5851 350.816 93.1168 356.369 93.1202L365.705 93.3535L379.708 95.6868L389.511 98.72C391.933 99.4171 394.278 100.355 396.513 101.52H396.746C412.394 108.222 425.94 119.024 435.955 132.786L440.623 139.785C443.784 144.999 446.516 150.462 448.792 156.118L450.659 161.251C454.035 171.097 455.846 181.411 456.027 191.817L455.327 204.883C454.863 209.861 453.926 214.783 452.526 219.583L450.193 227.516L449.726 228.216C449.726 228.683 448.652 231.109 446.925 235.449L442.257 244.782L440.857 246.649C439.588 248.983 438.186 251.242 436.656 253.415L430.588 261.115L415.417 275.114L408.182 280.014L389.277 289.347L370.606 294.247H370.139C360.705 295.714 351.1 295.714 341.666 294.247H340.265C339.939 294.247 337.325 293.78 332.33 292.847L322.061 289.814C315.866 287.753 309.917 285.014 304.323 281.648L295.921 276.514L295.454 276.048C290.358 272.349 285.665 268.126 281.451 263.448L280.984 262.748C276.791 258.132 273.04 253.132 269.781 247.815L269.315 246.882C267.641 244.19 266.159 241.383 264.88 238.482C263.443 235.452 262.196 232.335 261.146 229.149L258.345 219.816V219.116L256.478 210.016V209.55C255.458 203.383 255.067 197.129 255.311 190.884ZM316.226 315.246C315.768 308.256 315.69 301.246 315.993 294.247L319.727 295.647L336.298 300.08L348.901 301.48C347.918 310.235 347.761 319.062 348.434 327.846C349.25 336.61 349.562 345.413 349.368 354.212C348.651 367.416 342.785 379.813 333.03 388.744C328.369 392.854 323.459 396.672 318.327 400.177C309.925 405.917 304.883 409.51 303.156 410.677C295.975 415.987 289.808 422.547 284.952 430.043L271.882 412.31V411.843C274.442 404.864 277.81 398.208 281.918 392.011C286.279 385.889 291.202 380.187 296.621 374.978C301.961 369.834 306.521 363.939 310.158 357.479C313.497 350.943 315.482 343.8 315.993 336.479C316.5 329.413 316.578 322.322 316.226 315.246ZM111.542 168.484C120.485 169.756 129.113 172.683 136.982 177.118C139.643 178.658 143.517 181.084 148.652 184.351C152.592 186.698 156.831 188.503 161.255 189.717C167.87 191.093 174.737 190.608 181.093 188.317C187.457 185.82 193.555 182.693 199.297 178.984C209.1 172.762 214.935 169.184 216.802 168.251C222.697 164.92 229.407 163.304 236.173 163.585C241.999 164.398 247.532 166.642 252.277 170.118C251.429 173.258 250.805 176.455 250.41 179.684L250.177 180.617L249.477 188.55L242.475 189.017C236.49 190.048 230.727 192.1 225.437 195.084C222.636 196.484 217.362 199.75 209.566 204.65C204.16 208.103 198.459 211.07 192.529 213.516C186.619 215.924 180.198 216.807 173.858 216.083C166.509 214.83 159.414 212.387 152.853 208.85C140.856 202.923 134.181 199.517 132.314 199.05C122.899 194.999 112.445 194.019 102.44 196.25V187.617L99.4062 167.785C103.461 167.798 107.513 168.031 111.542 168.484ZM99.8729 217.016L102.207 201.85C111.922 199.15 122.287 200.062 131.381 204.417C133.714 205.35 140.25 208.461 150.985 213.75C157.313 217.068 164.067 219.502 171.057 220.983C182.866 222.574 194.857 219.929 204.899 213.516C208.306 211.65 213.394 208.523 220.069 204.183C225.087 200.82 230.494 198.078 236.173 196.017C240.368 194.538 244.796 193.827 249.243 193.917C249.112 199.618 249.503 205.32 250.41 210.95L252.277 220.983V221.449C253.086 224.716 254.02 227.983 255.078 231.249H255.311C256.456 234.585 257.78 237.856 259.279 241.049L263.947 250.382L264.413 250.849C267.812 256.744 271.885 262.225 276.55 267.181V267.415C278.673 270.021 281.015 272.441 283.552 274.648L284.018 274.881C286.59 277.313 289.318 279.574 292.187 281.648L297.555 285.381L299.889 286.547L301.056 287.481L310.625 292.38C310.298 297.047 310.251 302.507 310.391 309.18C310.391 312.913 310.391 318.186 310.625 325.046C310.796 332.917 309.853 340.772 307.824 348.379C305.181 355.805 300.961 362.571 295.454 368.211C286.119 377.544 281.078 383.284 279.817 385.011C275.218 391.095 271.45 397.764 268.614 404.844L267.214 408.11V407.877L259.279 400.877H259.045L254.378 397.144V396.444C253.994 395.798 253.446 395.264 252.791 394.895C252.136 394.527 251.395 394.337 250.643 394.344L233.839 385.944L224.737 382.678L202.098 378.478L182.727 378.945L166.389 382.211L161.255 384.078H160.788C157.347 379.484 153.436 375.261 149.119 371.478L136.282 359.578C131.198 354.787 126.939 349.19 123.679 343.012C120.596 335.874 118.553 328.331 117.611 320.613C116.21 310.813 114.95 303.72 113.876 299.38C112.232 292.338 109.559 285.577 105.941 279.314C100.404 269.411 92.4567 261.065 82.8355 255.048L86.3364 249.915C89.1215 245.412 91.616 240.736 93.8047 235.916C96.4937 229.849 98.5279 223.514 99.8729 217.016ZM228.238 404.844L229.405 405.777C233.163 409.28 236.318 413.379 238.74 417.91C240.279 422.128 242.761 425.939 245.997 429.052C249.233 432.166 253.137 434.5 257.412 435.876C262.113 437.766 266.455 440.449 270.248 443.809L270.948 444.509C257.287 443.731 249.741 447.776 248.31 456.642C248.098 458.217 248.216 459.819 248.658 461.346C249.1 462.872 249.856 464.29 250.877 465.508L254.844 468.542C261.068 471.342 268.848 468.231 278.183 459.209C278.468 462.779 277.476 466.334 275.383 469.242C273.136 473.009 271.11 476.905 269.315 480.908C268.537 486.173 269.099 491.55 270.948 496.541C273.233 503.617 273.793 511.137 272.582 518.473C269.478 513.936 265.513 510.051 260.912 507.04C259.192 505.863 257.232 505.085 255.172 504.762C253.113 504.439 251.008 504.58 249.01 505.174L246.209 506.574L245.509 507.04L242.941 509.607C241.699 511.443 240.827 513.504 240.374 515.674V517.773C240.715 519.803 241.526 521.725 242.741 523.386C243.957 525.047 245.544 526.401 247.376 527.34C252.232 530.13 257.515 532.101 263.013 533.173C260.155 534.84 257.193 536.321 254.144 537.606C245.911 540.411 238.068 544.253 230.805 549.039C228.333 550.979 225.993 553.084 223.804 555.339C220.536 558.605 218.295 560.799 217.035 561.872C218.902 551.606 216.568 544.995 210.033 542.039L209.1 541.573C206.981 540.848 204.702 540.727 202.518 541.221C200.334 541.715 198.33 542.806 196.73 544.373C192.529 549.039 192.996 556.272 198.131 566.072C194.254 564.982 190.5 563.497 186.928 561.639C183.508 559.741 179.913 558.178 176.192 556.972C168.293 555.286 160.228 554.503 152.152 554.639C148.723 554.618 145.324 553.986 142.117 552.772C147.579 550.899 152.532 547.784 156.587 543.673C158.23 542.208 159.461 540.339 160.157 538.251C160.853 536.164 160.99 533.93 160.554 531.773L159.854 529.44C159.081 527.431 157.794 525.661 156.12 524.307L153.319 522.907C152.34 522.553 151.321 522.318 150.285 522.207C148.103 522.292 145.967 522.86 144.03 523.868C142.093 524.877 140.404 526.301 139.083 528.04C134.901 532.711 131.723 538.19 129.747 544.139L128.113 541.573C126.452 536.781 125.816 531.693 126.246 526.64C126.711 521.546 125.909 516.416 123.912 511.707C121.78 508.537 119.184 505.706 116.21 503.307C113.287 500.9 110.834 497.973 108.975 494.674C107.222 491.112 106.267 487.21 106.175 483.241C111.53 487.091 117.664 489.719 124.146 490.941C126.569 491.582 129.123 491.528 131.517 490.785C133.911 490.042 136.048 488.641 137.682 486.741L138.616 485.574L139.083 485.108V484.874L140.483 482.075C141.258 479.378 141.094 476.498 140.016 473.908C139.122 472.008 137.702 470.404 135.922 469.287C134.143 468.17 132.081 467.588 129.98 467.608C124.217 467.109 118.413 467.825 112.943 469.708C118.537 465.594 123.291 460.446 126.946 454.542C129.185 450.151 130.684 445.421 131.381 440.543C132.143 435.425 133.719 430.463 136.048 425.843L140.016 420.477C140.594 425.521 142.44 430.338 145.384 434.476C146.544 436.196 148.108 437.606 149.938 438.583C151.769 439.559 153.812 440.072 155.887 440.076H156.587L157.287 439.843H157.521C159.446 439.721 161.302 439.075 162.888 437.976V437.743L163.355 437.509L163.822 437.043L164.522 436.576V436.343C165.656 434.957 166.526 433.375 167.089 431.676C168.801 425.143 164.289 418.066 153.553 410.444C155.74 409.644 158.01 409.096 160.321 408.81C165.327 408.918 170.319 409.386 175.258 410.21C180.108 411.082 185.051 411.317 189.962 410.91C195.19 409.977 200.284 408.409 205.132 406.244L207.933 405.077C202.191 414.083 201.398 421.27 205.599 426.543C206.844 428.289 208.553 429.652 210.533 430.477C212.513 431.302 214.685 431.555 216.802 431.209L220.536 429.81C226.449 426.107 229.016 417.785 228.238 404.844ZM262.78 460.842C263.049 460.905 263.301 461.024 263.521 461.191C263.74 461.358 263.922 461.57 264.054 461.812C264.187 462.054 264.266 462.322 264.288 462.597C264.31 462.872 264.273 463.148 264.18 463.408C264.157 463.673 264.072 463.928 263.931 464.154C263.79 464.379 263.598 464.567 263.371 464.704C263.143 464.841 262.886 464.921 262.621 464.939C262.356 464.958 262.09 464.913 261.846 464.808L254.611 462.242L253.211 461.542C252.92 461.287 252.718 460.946 252.634 460.568C252.55 460.191 252.588 459.796 252.744 459.442C253.811 456.793 255.059 454.22 256.478 451.742C256.605 451.497 256.787 451.286 257.01 451.124C257.232 450.962 257.49 450.854 257.762 450.808C258.034 450.763 258.312 450.782 258.575 450.863C258.839 450.944 259.08 451.085 259.279 451.276C260.539 451.882 260.773 452.769 259.979 453.842L258.112 456.875L276.783 450.576C277.027 450.471 277.293 450.426 277.558 450.445C277.823 450.463 278.08 450.543 278.307 450.68C278.535 450.817 278.727 451.005 278.868 451.23C279.009 451.456 279.094 451.711 279.117 451.976C279.21 452.236 279.246 452.512 279.225 452.787C279.203 453.062 279.124 453.33 278.991 453.572C278.859 453.814 278.677 454.026 278.458 454.193C278.238 454.36 277.986 454.479 277.717 454.542L260.679 460.142L262.78 460.842ZM249.943 520.573C250.047 520.818 250.092 521.083 250.074 521.348C250.056 521.613 249.975 521.87 249.839 522.097C249.702 522.325 249.513 522.517 249.288 522.658C249.063 522.798 248.807 522.884 248.543 522.907C247.283 523.373 246.536 522.907 246.209 521.74L245.042 513.807C245.021 513.554 245.051 513.3 245.131 513.059C245.211 512.818 245.34 512.596 245.509 512.407C245.509 511.816 245.975 511.349 246.909 511.007C249.555 510.035 252.291 509.331 255.078 508.907C256.478 508.907 257.272 509.374 257.412 510.307C257.552 511.24 257.412 512.547 256.011 512.874L251.81 513.573L259.045 517.773C262.153 520.23 265.518 522.342 269.081 524.073C270.341 524.4 270.808 525.24 270.482 526.64C270.155 528.04 269.408 528.273 268.148 527.806C264.569 526.294 261.197 524.334 258.112 521.973L249.477 516.84L249.943 520.573ZM208.4 567.238C208.492 567.453 208.541 567.683 208.544 567.917C208.547 568.15 208.505 568.382 208.418 568.599C208.331 568.816 208.202 569.013 208.039 569.18C207.876 569.347 207.681 569.48 207.466 569.572C207.021 569.752 206.528 569.782 206.064 569.655C205.6 569.529 205.191 569.254 204.899 568.872L204.432 568.172C204.339 568.081 204.265 567.972 204.214 567.852C204.164 567.731 204.138 567.602 204.138 567.472C204.138 567.341 204.164 567.212 204.214 567.092C204.265 566.972 204.339 566.863 204.432 566.772C203.113 561.034 202.486 555.159 202.565 549.273L199.064 552.072C198.88 552.256 198.662 552.402 198.421 552.502C198.181 552.601 197.924 552.652 197.664 552.652C197.404 552.652 197.146 552.601 196.906 552.502C196.666 552.402 196.447 552.256 196.263 552.072C196.079 551.888 195.933 551.67 195.834 551.43C195.734 551.19 195.683 550.932 195.683 550.672C195.683 550.412 195.734 550.155 195.834 549.915C195.933 549.675 196.079 549.456 196.263 549.273C198.257 547.24 200.537 545.511 203.032 544.139L203.732 543.906C204.665 543.299 205.459 543.206 206.066 543.673C208.402 545.346 210.589 547.22 212.601 549.273C212.787 549.455 212.935 549.673 213.036 549.913C213.137 550.153 213.189 550.412 213.189 550.672C213.189 550.933 213.137 551.191 213.036 551.432C212.935 551.672 212.787 551.89 212.601 552.072L211.434 552.772C211.179 552.915 210.892 552.991 210.6 552.992C210.307 552.994 210.02 552.921 209.763 552.781C209.507 552.642 209.29 552.439 209.133 552.193C208.976 551.946 208.885 551.664 208.866 551.372L206.533 549.039C206.335 555.162 206.963 561.283 208.4 567.238ZM144.917 531.54C143.844 531.866 143.284 531.54 143.284 529.906C143.234 529.387 143.371 528.866 143.67 528.439C143.97 528.011 144.412 527.704 144.917 527.573L154.253 526.64C155.513 526.313 156.12 526.64 156.12 528.273V528.973L157.521 536.44C157.847 537.7 157.287 538.539 155.887 539.006C154.486 539.473 153.926 539.006 153.786 537.606L152.853 532.94C149.725 536.346 147.858 538.399 147.251 539.006C143.931 541.395 140.809 544.048 137.916 546.939C137.122 548.013 136.282 548.013 135.348 546.939C135.134 546.781 134.956 546.579 134.826 546.347C134.697 546.115 134.618 545.857 134.596 545.592C134.574 545.327 134.609 545.06 134.699 544.81C134.788 544.559 134.93 544.331 135.115 544.139C138.008 541.248 141.13 538.595 144.451 536.206L149.352 531.073L144.917 531.54ZM126.946 474.141C125.873 474.141 125.173 473.768 124.846 472.508C124.783 472.263 124.769 472.008 124.806 471.757C124.842 471.507 124.928 471.266 125.059 471.049C125.189 470.832 125.361 470.643 125.565 470.493C125.769 470.343 126 470.235 126.246 470.175C127.008 470.042 127.79 470.101 128.523 470.345C129.257 470.589 129.918 471.012 130.447 471.575C131.543 472.594 132.713 473.53 133.948 474.375C134.217 474.438 134.469 474.557 134.689 474.724C134.909 474.891 135.091 475.102 135.223 475.345C135.355 475.587 135.434 475.855 135.456 476.13C135.478 476.405 135.441 476.681 135.348 476.941C135.402 477.268 135.388 477.602 135.308 477.923C135.228 478.244 135.082 478.545 134.881 478.808L129.747 483.941C129.376 484.312 128.872 484.521 128.347 484.521C127.821 484.521 127.318 484.312 126.946 483.941C126.575 483.57 126.366 483.066 126.366 482.541C126.366 482.016 126.575 481.513 126.946 481.141L129.047 479.041C121.761 478.058 114.371 478.137 107.108 479.275C105.848 479.601 105.007 479.041 104.541 477.641C104.436 477.397 104.392 477.132 104.41 476.867C104.428 476.602 104.509 476.345 104.645 476.117C104.782 475.89 104.971 475.698 105.196 475.557C105.421 475.416 105.677 475.331 105.941 475.308C113.212 474.306 120.573 474.15 127.88 474.841L126.946 474.141ZM143.517 411.843C142.724 410.77 142.957 409.884 144.217 409.277C144.439 409.112 144.694 408.999 144.965 408.945C145.236 408.891 145.515 408.898 145.783 408.965C146.051 409.032 146.301 409.157 146.514 409.332C146.728 409.507 146.9 409.727 147.018 409.977C149.196 413.555 152.23 419.154 156.12 426.776L157.054 423.743C157.38 422.483 158.221 422.11 159.621 422.576C161.021 423.043 161.255 423.65 160.788 424.91L158.454 431.909C158.374 432.214 158.228 432.497 158.026 432.739C157.825 432.981 157.573 433.176 157.287 433.309H156.12L147.952 431.909C147.158 432.236 146.458 431.909 145.851 430.976C145.683 430.832 145.548 430.653 145.456 430.451C145.364 430.25 145.316 430.031 145.316 429.81C145.316 429.588 145.364 429.369 145.456 429.168C145.548 428.967 145.683 428.788 145.851 428.643C146.785 427.85 148.418 427.803 150.519 428.41L151.919 428.643C148.652 420.803 145.711 415.203 143.517 411.843ZM218.202 420.477C219.602 419.543 220.536 419.683 221.003 420.943V421.176C221.17 421.567 221.215 421.999 221.132 422.416C221.048 422.832 220.841 423.214 220.536 423.51L217.268 425.143L213.534 426.31C212.274 427.243 211.34 426.916 210.733 425.376L210.267 424.676C209.357 422.572 208.653 420.384 208.166 418.143C208.017 417.993 207.915 417.803 207.873 417.595C207.831 417.388 207.852 417.172 207.933 416.977V416.51C208.031 416.095 208.271 415.727 208.613 415.471C208.954 415.216 209.374 415.088 209.8 415.11C210.874 415.11 211.527 415.577 211.667 416.51L212.601 419.777C214.806 415.119 216.602 410.279 217.969 405.31C218.296 404.05 219.042 403.677 220.303 404.144C220.567 404.167 220.822 404.252 221.048 404.393C221.273 404.533 221.462 404.725 221.598 404.953C221.735 405.181 221.816 405.438 221.834 405.702C221.852 405.967 221.807 406.233 221.703 406.477C220.342 411.523 218.546 416.441 216.335 421.176L218.202 420.477ZM27.2884 223.083C30.1534 220.292 32.6621 217.157 34.7571 213.75L69.999 261.115L59.0295 271.381L44.326 280.714L33.5901 285.847L27.9886 287.714C29.6334 266.117 29.4771 244.421 27.5217 222.849L27.2884 223.083ZM-259.549 279.081L-260.949 271.848C-248.699 265.935 -235.337 262.675 -221.739 262.282C-212.134 261.839 -202.521 262.942 -193.266 265.548C-191.072 266.155 -186.124 267.741 -178.329 270.215C-173.516 271.907 -168.606 273.309 -163.625 274.414C-156.296 276.135 -148.695 276.36 -141.276 275.077C-133.857 273.794 -126.773 271.03 -120.448 266.948C-114.879 263.625 -109.574 259.881 -104.577 255.748C-101.31 252.948 -96.4086 248.655 -89.8736 242.915L-85.6728 250.149V250.382L-73.5363 266.015L-65.3676 273.714L-51.3642 283.981L-48.3303 285.614L-48.5636 287.714C-48.8903 292.38 -49.6372 298.82 -50.8975 307.08C-51.3669 312.547 -53.302 317.786 -56.499 322.246C-58.452 324.095 -60.6509 325.665 -63.0337 326.913L-70.2688 330.879C-74.4308 333.445 -78.2702 336.5 -81.705 339.979C-84.3549 342.565 -86.7756 345.375 -88.94 348.379C-95.6135 346.143 -102.494 344.58 -109.479 343.712C-113.663 343.246 -117.871 343.013 -122.082 343.012C-138.92 342.94 -155.516 347.028 -170.393 354.912C-184.947 362.648 -197.495 373.674 -207.036 387.111C-212.737 382.933 -219.03 379.63 -225.707 377.311C-230.789 375.914 -235.777 374.2 -240.644 372.178C-245.66 370.202 -249.857 366.582 -252.547 361.912C-254.653 357.528 -256.22 352.906 -257.215 348.145C-258.332 343.322 -259.734 338.569 -261.416 333.913L-264.217 329.246L-261.649 320.613L-258.615 300.08L-259.549 279.081ZM-76.3372 342.312C-72.6086 338.842 -68.4515 335.863 -63.9673 333.446C-62.4269 332.653 -60.1396 331.439 -57.1989 329.713C-54.9541 328.376 -52.9759 326.635 -51.3642 324.579C-48.5974 320.349 -46.7673 315.576 -45.9963 310.58C-45.2028 306.707 -44.3624 300.687 -43.4288 292.614L-42.9622 288.181L-41.7952 288.881L-40.1616 289.347L-32.2263 292.614L-31.0593 292.847L-22.1903 295.414L-17.5225 296.347C-17.3596 304.003 -18.3832 311.637 -20.5567 318.98C-22.1801 323.291 -24.7293 327.193 -28.0251 330.413C-31.5346 333.361 -35.2817 336.014 -39.228 338.346C-46.8768 343.166 -53.7272 349.149 -59.5328 356.078L-63.267 361.212C-69.6735 356.787 -76.5643 353.108 -83.8055 350.245C-81.4232 347.355 -78.8501 344.626 -76.1035 342.079L-76.3372 342.312ZM-30.8259 286.781L-37.1274 284.214C-35.7271 284.541 -34.9335 283.981 -34.7935 282.581L-21.957 228.449C-18.914 230.162 -15.7087 231.569 -12.3881 232.649L-11.9211 233.816C0.526428 252.482 12.0402 270.915 22.6205 289.114L0.681763 291.914L-11.4544 291.214L-30.8259 286.781ZM-6.55328 233.816C-3.85687 234.296 -1.10406 234.375 1.61542 234.049C5.47412 241.515 9.51978 248.593 13.7519 255.282C14.017 255.699 14.4124 256.016 14.8767 256.185C15.341 256.354 15.8481 256.364 16.3192 256.215C16.8348 256.157 17.3109 255.911 17.6556 255.523C18.0004 255.135 18.1893 254.634 18.1861 254.115L18.8864 229.149L23.0875 226.583C24.5111 244.749 24.667 262.993 23.5542 281.181C14.9654 266.217 5.00732 250.351 -6.31995 233.582L-6.55328 233.816ZM6.51654 233.582C9.14392 233.125 11.7227 232.422 14.2186 231.482L13.7519 246.182L6.51654 233.582ZM17.9528 223.083C14.0543 225.596 9.68317 227.285 5.10773 228.047C0.532288 228.81 -4.15088 228.629 -8.65381 227.516C-13.2127 226.618 -17.5362 224.787 -21.3522 222.136C-25.1681 219.486 -28.3937 216.074 -30.8259 212.116C-33.3376 208.261 -35.0456 203.939 -35.8476 199.409C-36.6497 194.879 -36.5293 190.233 -35.4938 185.751C-34.454 181.245 -32.5359 176.989 -29.8496 173.225C-27.1633 169.461 -23.7612 166.263 -19.8379 163.815C-15.9146 161.366 -11.5471 159.714 -6.98486 158.954C-2.42273 158.194 2.24463 158.34 6.75018 159.385C11.2825 160.354 15.5765 162.215 19.3829 164.859C23.1894 167.502 26.4321 170.876 28.9223 174.784C31.5193 178.6 33.2778 182.923 34.0824 187.467C34.887 192.012 34.7193 196.675 33.5901 201.15C32.6229 205.62 30.759 209.848 28.1115 213.577C25.4639 217.307 22.0874 220.461 18.1861 222.849L17.9528 223.083ZM-37.1274 146.319C-37.4829 145.941 -37.9658 145.708 -38.483 145.665C-39.0001 145.621 -39.5148 145.771 -39.928 146.085C-40.4063 146.292 -40.7906 146.669 -41.0063 147.143C-41.222 147.618 -41.2535 148.155 -41.0949 148.652C-39.2278 152.992 -36.6606 159.618 -33.3932 168.484C-35.3236 170.805 -36.8969 173.4 -38.061 176.184L-53.4647 125.552C-49.7305 128.959 -44.129 133.812 -36.1938 140.019L-17.9894 156.352L-22.6573 158.918L-37.1274 146.319ZM-26.6248 161.718C-27.8138 162.616 -28.9086 163.632 -29.8923 164.751L-33.1599 155.885L-26.6248 161.718ZM56.6956 168.251C57.0098 167.912 57.2206 167.491 57.3033 167.036C57.3859 166.581 57.3372 166.112 57.1625 165.685C56.9937 165.267 56.703 164.91 56.3283 164.661C55.9536 164.411 55.5123 164.28 55.062 164.285C50.3778 164.261 45.698 164.573 41.0585 165.218C34.8503 166.011 31.0226 166.384 29.6223 166.384L25.8881 162.885C44.5992 159.344 63.5653 157.315 82.6022 156.818C76.251 163.091 69.2929 168.718 61.8303 173.618C51.8879 180.151 44.4661 185.144 39.6582 188.55L38.7246 183.884C47.0333 176.791 53.0549 171.611 56.9292 168.018L56.6956 168.251ZM37.3243 179.217C36.1562 176.219 34.5859 173.393 32.6565 170.818L49.2272 169.184L37.3243 179.217ZM63.4639 275.581V275.348L71.166 268.581L73.0329 266.715C75.9736 263.308 77.7009 261.208 78.401 260.415L79.568 259.482C87.4041 264.649 94.1452 271.309 99.4062 279.081C103.175 285.072 106.008 291.602 107.808 298.447C109.584 305.196 110.91 312.055 111.776 318.98C114.25 335.919 119.104 348.612 126.246 357.012C130.595 361.987 135.273 366.664 140.25 371.011C145.315 375.262 150.001 379.946 154.253 385.011L155.42 386.178H155.887L155.42 386.411L154.486 386.644L144.917 391.311L143.984 392.011C140.856 393.737 137.542 395.837 133.948 398.311H133.714C127.668 385.922 118.697 375.192 107.575 367.045C103.234 364.245 100.013 362.145 98.2392 360.745C94.8852 358.753 91.7553 356.406 88.9036 353.745C85.9988 350.743 83.91 347.049 82.8355 343.012C81.793 338.956 81.0904 334.819 80.7349 330.646C78.9323 313.709 73.6059 297.337 65.0978 282.581L61.597 276.981L63.4639 275.581ZM78.1677 251.315C75.0086 245.208 71.502 239.288 67.6651 233.582C65.7717 230.281 63.5844 227.158 61.1301 224.249C70.5891 225.653 79.9451 227.679 89.1369 230.316L83.5355 242.215L78.401 250.382L78.1677 251.315ZM88.6703 157.051L92.6378 168.251V168.484C92.949 169.293 93.6492 172.093 94.7383 176.884L96.1387 188.55L95.672 205.817L94.0381 215.85C93.494 219.038 92.6341 222.164 91.4708 225.183V226.116C79.5736 222.628 67.3891 220.208 55.062 218.883C54.8167 218.82 54.5615 218.807 54.3109 218.843C54.0604 218.88 53.8198 218.966 53.6027 219.096C53.3856 219.226 53.1964 219.398 53.0463 219.602C52.8961 219.805 52.788 220.037 52.728 220.283C52.537 220.786 52.5257 221.339 52.6959 221.849C52.866 222.359 53.2071 222.795 53.6617 223.083C58.4388 227.268 62.4645 232.24 65.5645 237.782C68.832 243.055 72.0061 248.655 74.9001 254.582L75.3668 255.282L73.2665 257.615L39.8915 212.35C57.4457 210.95 75.0836 210.95 92.6378 212.35C94.1782 212.35 94.9717 211.79 94.9717 210.25C95.0044 209.924 94.9683 209.596 94.8657 209.285C94.7632 208.974 94.5966 208.689 94.3765 208.447C94.1564 208.205 93.888 208.012 93.5885 207.88C93.289 207.749 92.965 207.682 92.6378 207.683C74.301 206.289 55.882 206.367 37.5576 207.916L38.9579 203.95C39.7833 200.671 40.1756 197.298 40.1249 193.917C45.7263 189.842 54.2062 184.086 65.5645 176.651C74.0419 170.907 81.8679 164.257 88.9036 156.818L88.6703 157.051ZM39.8915 106.653L40.5919 106.886L47.3599 110.386L49.2272 111.553C51.6525 112.755 53.9249 114.243 55.9955 115.986L64.1642 122.286L70.9326 129.052L81.2016 142.352L86.103 151.452L86.5697 152.152C64.6161 152.447 42.7381 154.79 21.2203 159.151C17.9935 157.255 14.5441 155.766 10.951 154.718C19.5087 138.976 28.8443 122.722 38.9579 105.953L39.8915 106.653ZM20.0533 100.12L13.285 115.053C12.4914 111.786 11.4178 106.326 10.0174 98.72L20.0533 100.12ZM5.34961 98.2533C6.56451 106.421 8.20068 114.52 10.251 122.519C10.3884 122.958 10.6299 123.357 10.955 123.682C11.2802 124.007 11.6791 124.249 12.118 124.386C12.582 124.492 13.0684 124.433 13.4941 124.221C13.9197 124.008 14.2584 123.654 14.4519 123.219L24.7211 101.287L31.9562 103.386L33.1232 103.853C32.959 104.179 32.8736 104.538 32.8736 104.903C32.8736 105.268 32.959 105.627 33.1232 105.953C27.5218 115.286 19.4308 129.441 8.85046 148.418C5.42743 139.085 2.78253 130.919 0.915405 123.919L-2.35211 109.453C-3.61243 103.387 -4.45258 99.7466 -4.91937 98.4867L5.34961 98.2533ZM-55.332 116.919L-52.998 115.286C-50.9748 113.659 -48.7841 112.251 -46.463 111.086L-45.5294 110.386L-29.1921 103.153L-10.9877 98.9534H-9.58716C-8.51031 100.908 -7.79877 103.043 -7.48688 105.253C-7.16016 106.793 -6.78668 109.08 -6.31995 112.02L-3.05243 126.486C-0.376221 135.819 2.73566 144.841 6.2832 153.552C-0.178284 152.456 -6.80481 152.855 -13.088 154.718L-32.4596 136.985C-37.7342 132.786 -41.7952 129.612 -44.3624 127.419C-48.3105 124.237 -51.9804 120.724 -55.332 116.919ZM-84.7392 151.452L-78.6711 141.185L-69.5688 129.519L-60.2331 120.653L-59.5328 120.186C-56.8878 130.452 -53.4646 142.196 -49.2636 155.418L-43.6625 172.684C-42.7437 176.034 -41.5734 179.31 -40.1616 182.484L-40.3949 182.951C-41.2969 186.299 -41.7674 189.749 -41.7952 193.217L-91.5075 169.184L-84.7392 151.452ZM-92.9078 174.318L-92.6745 174.084V173.618C-74.6256 182.951 -57.8213 191.039 -42.2619 197.883L-88.7067 218.65C-89.9825 219.241 -90.2161 220.174 -89.407 221.449C-88.6134 222.849 -87.6331 223.223 -86.3728 222.616L-60.6998 210.95C-50.2906 206.283 -43.569 203.39 -40.6282 202.317C-38.8595 210.767 -34.3466 218.396 -27.7917 224.016C-44.214 231.209 -60.2607 239.23 -75.8702 248.049C-76.1562 248.193 -76.4061 248.4 -76.6018 248.653C-76.7975 248.907 -76.9341 249.201 -77.0013 249.515C-77.0684 249.828 -77.0644 250.152 -76.9898 250.464C-76.9153 250.775 -76.7721 251.066 -76.5705 251.315C-76.4536 251.596 -76.2714 251.845 -76.0388 252.042C-75.8063 252.239 -75.5302 252.377 -75.2334 252.445C-74.9367 252.514 -74.6281 252.51 -74.3329 252.436C-74.0377 252.361 -73.7645 252.217 -73.5363 252.015C-58.4372 243.28 -42.8526 235.412 -26.8582 228.449L-38.9946 281.181C-39.1575 281.616 -39.1519 282.097 -38.9792 282.528C-38.8066 282.96 -38.4792 283.311 -38.061 283.514L-39.6946 282.814L-46.6964 279.081C-46.1848 279.089 -45.6836 278.936 -45.2645 278.643C-44.8453 278.349 -44.5297 277.931 -44.3624 277.448L-34.7935 242.449C-34.7388 242.068 -34.7735 241.68 -34.8949 241.316C-35.0163 240.951 -35.2211 240.62 -35.4929 240.348C-35.7647 240.076 -36.0963 239.872 -36.461 239.75C-36.8257 239.629 -37.2136 239.594 -37.5941 239.649C-48.9634 244.176 -59.5853 250.39 -69.1018 258.082C-69.3521 258.248 -69.5577 258.473 -69.6998 258.738C-69.8419 259.002 -69.916 259.298 -69.916 259.598C-69.916 259.899 -69.8419 260.194 -69.6998 260.459C-69.5577 260.723 -69.3521 260.949 -69.1018 261.115C-68.9177 261.366 -68.6812 261.575 -68.4084 261.726C-68.1356 261.876 -67.8333 261.966 -67.5223 261.988C-67.2114 262.01 -66.8993 261.965 -66.6078 261.854C-66.3163 261.743 -66.0526 261.571 -65.8346 261.348C-58.1444 255.012 -49.5752 249.825 -40.3949 245.949L-48.7969 276.514C-48.9061 276.773 -48.9622 277.05 -48.9622 277.331C-48.9622 277.611 -48.9061 277.889 -48.7969 278.148L-63.267 267.415C-65.2986 265.72 -67.1733 263.846 -68.8685 261.815H-69.1018C-71.002 259.731 -72.7938 257.55 -74.4699 255.282L-80.7713 246.415C-79.371 247.022 -78.3442 246.789 -77.7374 245.715C-75.9018 243.365 -74.2626 240.868 -72.8363 238.249C-71.2606 236.203 -70.2178 233.798 -69.8021 231.249C-70.1288 229.709 -71.7626 228.916 -74.4699 228.916H-85.2058C-85.8248 228.916 -86.4185 229.162 -86.8563 229.599C-87.2939 230.037 -87.5397 230.63 -87.5397 231.249C-87.5397 231.868 -87.2939 232.461 -86.8563 232.899C-86.4185 233.337 -85.8248 233.582 -85.2058 233.582H-75.1702L-76.1035 234.749L-82.1719 244.082L-84.9725 239.182V238.949L-89.6403 227.283L-94.3081 208.617C-91.0406 208.01 -84.9725 206.657 -76.8038 204.65C-69.4753 202.923 -63.7339 201.757 -59.5328 201.15C-59.3017 201.138 -59.0753 201.08 -58.867 200.979C-58.6588 200.878 -58.473 200.737 -58.3206 200.563C-58.1682 200.389 -58.0522 200.186 -57.9799 199.966C-57.9074 199.746 -57.8802 199.514 -57.8992 199.284C-57.8569 198.825 -57.9437 198.363 -58.1499 197.951C-58.3561 197.538 -58.6735 197.192 -59.0662 196.95C-64.6563 193.86 -70.515 191.283 -76.5705 189.25C-82.5824 187.2 -88.3694 184.542 -93.8415 181.317H-94.0748L-92.9078 174.318ZM-94.5414 186.217C-90.1835 188.567 -85.6593 190.595 -81.005 192.284C-74.0032 194.944 -69.4287 196.95 -67.2349 197.883C-79.3712 200.823 -88.5666 202.877 -94.7748 203.95V203.483V202.55L-94.5414 186.217ZM-213.804 237.082C-213.462 237.082 -199.77 240.193 -172.727 246.415C-156.266 249.993 -142.729 248.826 -132.117 242.915C-125.183 238.525 -118.483 233.774 -112.046 228.683L-98.5093 218.65L-93.1412 235.449L-91.9742 238.016C-105.2 249.371 -113.446 256.215 -116.714 258.548C-131.308 268.659 -145.623 272.47 -159.658 269.981C-163.532 269.188 -168.526 267.881 -174.595 266.015L-189.298 261.115C-198.532 258.329 -208.126 256.913 -217.772 256.915C-233.072 256.853 -248.203 260.117 -262.116 266.481L-267.951 251.082L-268.651 249.682C-252.102 239.92 -232.967 235.443 -213.804 236.849V237.082ZM-283.121 353.045L-286.389 357.712L-297.825 369.378C-301.275 372.537 -305.028 375.351 -309.028 377.778L-309.961 378.478C-311.894 379.793 -313.923 380.963 -316.029 381.978L-316.963 382.678L-323.731 385.944L-338.201 390.844H-338.435L-344.97 392.244L-345.436 392.477L-351.271 393.411H-352.438C-356.311 393.876 -360.207 394.11 -364.108 394.111L-378.578 392.944L-389.314 390.844L-402.851 386.178L-419.188 377.544L-430.624 368.678L-440.893 357.945L-449.762 345.346L-456.531 330.879L-457.464 328.313L-461.432 314.08L-462.832 303.347V300.547L-463.065 298.447L-461.898 280.714L-458.398 266.248L-450.462 248.049L-449.529 246.649L-447.895 243.615L-446.961 242.682L-436.926 229.383L-436.226 228.916L-429.691 222.383L-428.99 221.916L-421.755 216.083L-421.055 215.616C-418.541 213.711 -415.889 211.995 -413.12 210.483L-412.42 210.016L-408.452 207.916L-407.752 207.45L-398.883 203.717L-389.547 200.683H-389.081L-388.847 200.45L-380.912 198.817L-363.874 197.184L-345.67 198.817L-331.2 202.55L-324.431 205.117L-322.798 206.05L-317.663 208.383L-302.726 217.716L-290.123 229.383L-276.82 247.815L-270.518 261.581L-267.718 270.448V270.681L-266.551 274.881L-265.617 280.714L-265.384 281.414L-264.683 288.181L-264.917 305.447L-268.651 323.646V324.113L-270.285 329.013L-270.751 329.946C-271.262 331.729 -271.967 333.45 -272.852 335.079V336.012L-275.653 341.612L-282.888 353.045H-283.121ZM-221.273 397.844C-228.741 391.171 -239.944 386.784 -254.881 384.778C-258.288 384.412 -261.649 383.708 -264.917 382.678C-268.117 381.757 -270.913 379.784 -272.852 377.078C-274.603 374.468 -276.015 371.645 -277.053 368.678C-278.313 364.805 -279.294 361.818 -280.087 359.812L-280.32 359.345L-272.619 348.145C-271.011 345.535 -269.606 342.805 -268.418 339.979L-266.084 335.313L-265.617 336.479C-263.995 340.897 -262.669 345.418 -261.649 350.012C-260.537 354.664 -258.973 359.196 -256.981 363.545C-253.247 370.545 -245.934 375.833 -235.043 379.411C-226.017 382.088 -217.443 386.099 -209.603 391.311C-211.993 395.237 -214.175 399.287 -216.138 403.444L-221.273 397.844ZM-24.2909 460.142C-26.8257 481.805 -36.5175 502.004 -51.8311 517.54C-66.4233 532.923 -85.7177 543.019 -106.678 546.239L-122.082 547.639C-126.063 547.534 -130.036 547.222 -133.985 546.706L-146.588 544.373C-153.774 542.474 -160.737 539.814 -167.36 536.44L-173.894 532.706C-178.923 529.625 -183.616 526.028 -187.898 521.973L-193.499 516.14C-202.896 506 -210.053 493.995 -214.504 480.908C-219.294 467.378 -220.969 452.943 -219.405 438.676L-218.472 430.976C-217.577 425.742 -216.25 420.591 -214.504 415.577L-211.937 409.043C-209.831 404.225 -207.415 399.549 -204.702 395.044L-201.668 390.611C-192.692 377.872 -180.864 367.406 -167.126 360.045C-153.065 352.494 -137.343 348.565 -121.381 348.612C-117.403 348.607 -113.429 348.841 -109.479 349.312C-103.393 350.16 -97.3844 351.487 -91.5075 353.279L-86.6061 355.145C-79.188 357.941 -72.1352 361.624 -65.601 366.112L-61.4001 369.378C-57.02 372.732 -52.9573 376.481 -49.2636 380.578L-44.1291 386.644C-30.2535 404.139 -22.9085 425.92 -23.3573 448.242L-24.2909 460.142ZM81.2016 496.541C74.3399 492.668 69.1588 489.774 65.5645 487.908C60.374 485.053 54.9933 482.558 49.4605 480.441C38.3391 476.085 26.6066 473.487 14.6852 472.741C2.52051 472.138 -9.66711 473.317 -21.4904 476.241C-19.954 471.226 -18.9373 466.065 -18.4561 460.842C-17.9911 457.909 -17.7568 454.945 -17.7559 451.976C-0.0181274 447.153 15.3077 446.998 28.222 451.509C33.5889 453.582 38.7466 456.16 43.6257 459.209C47.0333 461.215 51.9346 464.342 58.3295 468.542C68.035 474.919 79.0353 479.063 90.5372 480.675L91.0042 480.908V481.141C90.8639 483.317 90.8639 485.499 91.0042 487.674V489.308L92.4045 501.907C89.137 500.507 85.4026 498.734 81.2016 496.541ZM91.2375 475.308C79.4603 473.617 68.2578 469.137 58.5628 462.242C52.0278 458.042 47.1265 454.931 43.8591 452.909C38.9264 449.872 33.6846 447.37 28.222 445.442C16.1001 441.785 3.24139 441.303 -9.12048 444.042C-12.0516 444.505 -14.9397 445.207 -17.7559 446.142C-17.7579 423.09 -25.5736 400.719 -39.928 382.678C-45.3383 375.4 -51.7863 368.954 -59.0662 363.545C-55.5618 358.718 -51.5735 354.262 -47.1633 350.245C-42.7144 346.677 -38.0366 343.403 -33.1599 340.446C-28.325 337.496 -23.9917 333.794 -20.3234 329.479C-14.6301 320.66 -11.7039 310.341 -11.9211 299.847V296.814H-11.4544L-6.78662 297.28L-5.61963 297.514H1.84875L1.61542 298.214V300.314L2.31567 301.48C2.53394 301.883 2.83307 302.236 3.19464 302.517C3.55615 302.798 3.97229 303.001 4.41626 303.114C5.31958 303.45 6.31354 303.45 7.21686 303.114C7.78204 302.995 8.31042 302.743 8.75732 302.377C9.20416 302.012 9.55634 301.544 9.78406 301.014C10.0755 300.393 10.2268 299.716 10.2268 299.03C10.2268 298.345 10.0755 297.668 9.78406 297.047L24.2545 294.714L34.0568 291.681L50.3941 284.214L56.9292 280.014L57.3959 279.781C58.8027 281.571 59.9789 283.531 60.8967 285.614C69.2407 300.071 74.4119 316.137 76.0671 332.746C76.3936 340.16 78.5589 347.376 82.3685 353.745C86.8314 358.862 92.1164 363.199 98.0059 366.578C110.044 374.254 120.115 384.642 127.413 396.911L129.747 401.344L122.279 408.11L121.345 409.277L115.277 415.81L107.108 427.476L105.241 430.043L98.9395 442.876L94.9717 454.075C93.0992 461.028 91.8496 468.134 91.2375 475.308ZM121.812 550.906C118.697 547.36 115.813 543.62 113.176 539.706L112.476 538.773L108.975 532.706L108.275 531.773L105.008 525.007L99.6395 510.307L98.4725 504.707L98.0059 503.307L96.8389 495.841L96.372 475.775C97.0793 468.997 98.3282 462.287 100.106 455.709L103.14 446.376H103.374L107.575 437.043L118.544 420.477L124.379 413.71L125.312 413.01L135.348 403.91L136.982 402.977L141.183 399.944H141.65L146.785 396.677L157.987 391.311L158.688 390.844L163.355 389.211C166.409 388.092 169.526 387.157 172.691 386.411H172.924L182.727 384.778C186.678 384.317 190.652 384.084 194.63 384.078L204.665 384.544L217.268 386.644L224.037 388.744C221.101 390.91 218.295 393.247 215.635 395.744C211.112 396.677 206.722 398.166 202.565 400.177C198.365 402.026 193.985 403.433 189.495 404.377C184.034 404.923 178.521 404.608 173.158 403.444C167.851 402.449 162.439 402.136 157.054 402.51C153.396 403.262 149.862 404.518 146.551 406.244L139.083 402.744C138.713 405.84 138.557 408.959 138.616 412.077C131.605 418.109 126.835 426.33 125.079 435.409C124.346 440.701 122.934 445.877 120.878 450.809C118.748 454.663 115.987 458.134 112.709 461.075C109.592 463.361 106.701 465.939 104.074 468.775C102.532 470.644 101.345 472.779 100.573 475.075L97.5389 476.708L99.4062 478.575V479.741C98.7911 484.318 99.3533 488.975 101.04 493.274C102.594 497.62 105.153 501.537 108.508 504.707C109.582 505.78 111.216 507.367 113.41 509.374C115.081 510.844 116.501 512.578 117.611 514.507C118.964 516.924 119.611 519.673 119.478 522.44C119.478 524.307 119.478 527.106 119.478 530.84C119.445 538.508 122.274 545.913 127.413 551.606L126.479 556.272L121.812 550.906ZM280.751 534.573L280.517 535.273L276.316 541.573V541.806L266.281 553.939L265.347 554.639C263.664 556.457 261.871 558.172 259.979 559.772V560.005L254.144 564.672L253.211 565.139L247.376 569.339L232.439 576.805L216.335 581.938L200.931 584.038H193.229C191.986 584.14 190.738 584.14 189.495 584.038H187.861L182.727 583.571H182.493L171.757 581.471L156.12 576.105L144.451 570.038L143.284 569.105L138.616 566.072L127.413 556.739L133.014 555.572C137.164 558.496 141.977 560.34 147.018 560.939C152.135 561.46 157.283 561.616 162.422 561.405C166.361 561.667 170.267 562.292 174.091 563.272C176.258 563.856 178.368 564.637 180.393 565.605L186.461 568.872C190.784 570.727 195.229 572.286 199.764 573.538L203.265 574.238C205.158 576.895 207.265 579.392 209.566 581.705C211.9 577.365 213.394 574.378 214.001 572.838C215.877 571.934 217.608 570.754 219.136 569.339C222.187 566.972 225.072 564.399 227.771 561.639L234.773 554.639C238.706 551.599 243.022 549.089 247.609 547.172L259.045 542.973C262.903 541.49 266.521 539.445 269.781 536.906L272.582 534.106C275.373 534.433 278.193 534.433 280.984 534.106L280.751 534.573ZM290.553 511.94L290.32 512.174L287.752 520.107L281.218 533.873L277.483 525.94C279.17 521.303 280.038 516.408 280.051 511.474C280.167 506.6 279.617 501.733 278.417 497.007C276.876 491.548 276.083 488.748 276.083 488.608C275.401 485.708 275.73 482.662 277.016 479.975C279.685 476.133 282.028 472.075 284.018 467.842C285.48 462.982 285.561 457.812 284.252 452.909L287.752 448.009L281.451 446.142C279.976 443.863 278.166 441.818 276.083 440.076C272.248 436.354 267.834 433.281 263.013 430.976C260.212 429.903 258.345 429.016 256.712 428.41C254.639 427.505 252.743 426.241 251.11 424.676C249.261 422.724 247.69 420.525 246.442 418.143C244.715 414.877 243.408 412.45 242.475 410.91C238.851 404.839 233.594 399.908 227.304 396.677L225.204 388.278L225.67 388.511L228.004 389.211L236.173 392.477L250.643 400.877L263.013 410.91L264.413 412.31C266.429 414.19 268.302 416.217 270.015 418.377C274.672 423.54 278.67 429.261 281.918 435.409C283.306 437.904 284.553 440.474 285.652 443.109L287.752 448.009L289.153 451.742L289.386 452.909L292.187 463.175C293.12 468.635 293.587 471.482 293.587 471.808V472.975L294.054 489.774L290.553 511.94ZM382.509 488.141C375.382 491.205 367.529 492.176 359.87 490.941C356.743 490.614 348.667 489.168 335.597 486.508C327.646 484.657 319.484 483.873 311.325 484.174C307.367 484.684 303.462 485.543 299.656 486.741V480.208L298.255 466.442C308.057 455.584 325.328 452.551 350.068 457.342L366.872 460.842C372.41 461.981 378.028 462.683 383.676 462.942L391.845 462.708C392.651 468.839 393.82 474.916 395.346 480.908C389.978 484.314 385.31 486.741 382.509 488.141ZM391.378 445.442C391.378 449.518 391.378 453.484 391.378 457.342L383.676 457.575C380.098 457.575 368.506 455.631 348.901 451.742C337.391 449.086 325.436 449.007 313.892 451.509C307.7 453.174 301.958 456.204 297.088 460.375L290.787 441.709V441.242L287.986 435.409C293.106 426.103 300.491 418.239 309.458 412.543L335.831 393.877C345.187 385.823 351.456 374.773 353.569 362.612C354.559 356.05 354.871 349.404 354.502 342.779C354.036 334.053 353.662 327.473 353.335 322.946C352.93 315.933 353.242 308.897 354.269 301.947H354.736C370.765 302.01 386.588 298.335 400.947 291.214L410.983 285.614C413.701 284.052 416.278 282.257 418.685 280.248L423.819 276.281C429.877 286.577 432.797 298.416 432.221 310.347C432.221 316.553 431.661 326.306 430.588 339.512C429.711 349.064 431.488 358.672 435.722 367.278C423.127 376.292 412.619 387.91 404.915 401.344C397.159 414.846 392.533 429.916 391.378 445.442ZM586.026 419.543L542.382 440.076L590.46 442.876L543.315 452.209L589.06 466.675L540.981 463.642L581.825 489.308L536.08 474.608L568.988 509.374L528.378 483.708L551.718 525.706L519.043 490.708L531.412 537.14L508.073 495.141V542.973L496.17 496.541L484.501 543.206V495.141L461.628 537.373L473.532 490.708L440.857 525.94L463.962 483.941L423.586 509.84L456.494 474.841L410.749 490.008L451.359 464.109L403.281 467.375L449.026 452.675L401.88 443.809L449.726 440.776L406.315 420.477L453.46 429.576L416.351 399.01L459.761 419.543L431.288 380.811L468.63 411.377L450.659 366.812L478.899 405.544L472.831 357.945L490.336 402.51L496.17 354.912L502.239 402.51L519.743 357.945L513.908 405.544L541.915 366.578L524.177 411.143L561.053 380.344L533.046 419.31L576.457 398.544L539.581 429.343L586.026 419.543ZM651.842 329.713L642.973 337.179C639.006 339.708 634.873 341.969 630.603 343.946C623.135 346.419 617.627 348.612 614.033 349.779C603.941 353.704 594.909 359.937 587.659 367.978C583.302 372.683 579.467 377.846 576.224 383.378C570.202 376.419 563.206 370.368 555.452 365.411C562.66 356.988 572.268 350.965 582.992 348.145C593.453 345.549 603.345 341.04 612.165 334.846C618.716 330.021 624.466 324.194 629.203 317.58C636.395 322.787 644.242 327.024 652.542 330.179L651.842 329.713ZM730.728 323.413C706.704 333.572 679.67 333.99 655.343 324.579C643.215 320.15 632.103 313.325 622.668 304.513C612.899 295.606 604.984 284.858 599.377 272.886C593.77 260.915 590.581 247.955 589.993 234.749C589.326 221.654 591.311 208.56 595.828 196.25C600.274 183.941 607.183 172.668 616.133 163.118C624.861 153.32 635.529 145.441 647.46 139.979C659.392 134.517 672.328 131.59 685.45 131.386H688.951C714.992 131.395 740.028 141.44 758.85 159.431C777.672 177.423 788.832 201.975 790.009 227.983C790.894 241.082 789.072 254.222 784.655 266.586C780.238 278.95 773.321 290.272 764.336 299.847C754.914 309.975 743.462 318.005 730.728 323.413Z" fill="white"/>
<path d="M165.223 12.6217C175.492 14.1461 183.116 6.44631 188.095 -10.4776C188.562 -12.0176 188.095 -13.0442 186.228 -13.5108C185.91 -13.6588 185.562 -13.7331 185.211 -13.7281C184.86 -13.7231 184.514 -13.639 184.2 -13.482C183.886 -13.3251 183.612 -13.0992 183.397 -12.8214C183.182 -12.5436 183.033 -12.2209 182.961 -11.8775C181.734 -7.31189 179.93 -2.9212 177.593 1.18869C176.514 3.28216 174.812 4.98977 172.722 6.07623C170.632 7.1627 168.257 7.5745 165.923 7.25511C160.322 6.4618 157.288 0.255333 156.587 -11.411C156.604 -11.7729 156.542 -12.1341 156.403 -12.4691C156.265 -12.8041 156.055 -13.1046 155.788 -13.3495C155.521 -13.5943 155.203 -13.7774 154.857 -13.8859C154.511 -13.9945 154.146 -14.0257 153.787 -13.9775C151.92 -13.9775 151.079 -13.1376 151.219 -11.411C152.246 3.3819 156.821 11.3618 165.223 12.6217Z" fill="white"/>
<path d="M74.9009 57.888C75.293 57.1363 75.3907 56.2656 75.1749 55.4458C74.9591 54.626 74.4453 53.9162 73.7339 53.4549C73.0681 52.9326 72.2463 52.6487 71.4 52.6487C70.5537 52.6487 69.7319 52.9326 69.0661 53.4549C68.6441 53.7405 68.3185 54.1472 68.1324 54.6215L67.6658 56.0214V57.888L68.1324 58.8213C68.7382 59.36 69.4555 59.7584 70.233 59.9879C71.0831 60.1281 71.9502 60.1281 72.8003 59.9879C73.3121 59.8701 73.7807 59.6106 74.1521 59.2393C74.5236 58.868 74.7829 58.3997 74.9009 57.888Z" fill="white"/>
<path d="M158.221 35.7238C161.629 37.6383 165.457 38.6825 169.366 38.764C173.274 38.8454 177.142 37.9614 180.627 36.1904C187.743 33.1123 193.418 27.4386 196.497 20.3243C200.3 11.084 201.116 0.885773 198.831 -8.84144C198.829 -9.1976 198.736 -9.54736 198.561 -9.85768C198.386 -10.168 198.135 -10.4288 197.832 -10.6154C197.528 -10.8021 197.182 -10.9086 196.826 -10.9248C196.47 -10.941 196.116 -10.8663 195.797 -10.708C195.429 -10.6637 195.075 -10.5387 194.76 -10.3417C194.446 -10.1448 194.179 -9.8809 193.978 -9.56887C193.778 -9.25684 193.648 -8.90442 193.6 -8.53668C193.551 -8.16894 193.584 -7.79499 193.697 -7.44154C196.303 2.06235 195.044 12.211 190.196 20.791C187.965 24.6732 184.744 27.8939 180.86 30.124C177.069 32.4005 172.67 33.4592 168.257 33.1572C165.857 33.0396 163.506 32.4422 161.341 31.4002C159.176 30.3582 157.242 28.8927 155.654 27.0907C152.435 23.5377 149.761 19.5276 147.719 15.1911C142.868 5.57937 139.56 -4.73518 137.916 -15.3745C137.916 -16.9145 136.843 -17.4745 135.116 -17.0078C134.761 -16.9678 134.417 -16.8568 134.106 -16.6813C133.795 -16.5058 133.522 -16.2695 133.305 -15.9865C133.087 -15.7034 132.928 -15.3794 132.838 -15.0337C132.749 -14.6881 132.729 -14.3279 132.782 -13.9746C134.337 -4.20905 137.243 5.29276 141.417 14.2577C146.707 25.333 152.309 32.4883 158.221 35.7238Z" fill="white"/>
<path d="M67.899 21.4896H66.2654L65.3318 22.4229L64.3982 23.8229V24.9895C64.3876 25.7485 64.6345 26.4886 65.0984 27.0894C65.6567 27.7401 66.3832 28.2245 67.1987 28.4894C67.6313 28.6342 68.0935 28.6673 68.5423 28.5857C68.9912 28.5041 69.4123 28.3105 69.7663 28.0227C70.4769 27.614 71.0264 26.9746 71.3236 26.2107C71.6207 25.4468 71.6476 24.6042 71.3999 23.8229C70.5597 22.0496 69.3927 21.163 67.899 21.4896Z" fill="white"/>
<path d="M69.0658 30.591C68.739 30.591 68.2723 30.9177 67.6655 31.5243C67.0587 32.131 66.7319 32.2243 66.7319 32.691C66.3487 33.2331 66.1823 33.8989 66.2652 34.5575L66.4985 35.7242C66.7667 36.601 67.3481 37.3485 68.1322 37.8242C68.9079 38.2875 69.7958 38.5295 70.6994 38.5241C71.4312 38.5268 72.1489 38.3223 72.7692 37.9342C73.3896 37.5462 73.8871 36.9903 74.2046 36.3311C74.522 35.672 74.6463 34.9365 74.563 34.2096C74.4796 33.4828 74.1921 32.7945 73.7336 32.2243C73.544 31.8023 73.2705 31.4233 72.9296 31.1105C72.5887 30.7976 72.1878 30.5574 71.751 30.4046C71.3142 30.2517 70.8508 30.1895 70.3892 30.2216C69.9275 30.2536 69.4772 30.3793 69.0658 30.591Z" fill="white"/>
<path d="M65.3317 62.7873L64.3981 64.1872L63.9314 65.5871C63.8486 66.2457 64.015 66.9117 64.3981 67.4538L64.8648 68.6205C65.542 69.1847 66.3409 69.5841 67.1987 69.7871C67.614 69.9566 68.0642 70.0238 68.511 69.9832C68.9577 69.9426 69.3883 69.7953 69.7662 69.5537C71.011 68.9626 71.711 68.2627 71.8665 67.4538C72.2976 66.6489 72.3925 65.706 72.1301 64.8315C71.8677 63.957 71.2693 63.2221 70.4663 62.7873C69.7492 62.179 68.8394 61.845 67.899 61.845C66.9586 61.845 66.0488 62.179 65.3317 62.7873Z" fill="white"/>
<path d="M44.7931 91.4868C45.5107 91.8615 46.3205 92.0235 47.127 91.9535C47.612 91.9448 48.09 91.8367 48.5316 91.636C48.9732 91.4354 49.3688 91.1464 49.6943 90.7868C50.1481 90.1367 50.3914 89.363 50.3914 88.5702C50.3914 87.7774 50.1481 87.0037 49.6943 86.3536C49.2566 85.6785 48.6027 85.1722 47.8393 84.9178C47.0759 84.6634 46.2487 84.6761 45.4934 84.9537L43.3928 86.8203V88.6869V89.6202C43.717 90.3376 44.195 90.9748 44.7931 91.4868Z" fill="white"/>
<path d="M70.2328 42.0215L69.0659 43.1881L68.3656 44.588V46.2213L68.8325 47.388C69.3171 48.0146 69.9621 48.4984 70.6995 48.788C71.1109 48.9997 71.5612 49.1254 72.0228 49.1574C72.4845 49.1895 72.9479 49.1272 73.3847 48.9744C73.8214 48.8216 74.2224 48.5813 74.5633 48.2685C74.9042 47.9556 75.1777 47.5767 75.3673 47.1547C75.8148 46.4178 75.9898 45.5473 75.8618 44.6947C75.7339 43.8421 75.3113 43.0614 74.6673 42.4882C74.073 41.9506 73.3233 41.6156 72.5263 41.5318C71.7292 41.4479 70.926 41.6194 70.2328 42.0215Z" fill="white"/>
<path d="M143.518 63.0201C148.971 67.2321 155.515 69.7993 162.378 70.4193C169.242 71.0393 176.14 69.6864 182.26 66.5199C188.948 63.3927 195.094 59.2181 200.465 54.1537C205.986 49.2325 210.504 43.2903 213.768 36.6542C217.222 29.0156 219.126 20.7677 219.37 12.3883C219.376 4.04652 218.909 -4.28889 217.969 -12.5776C217.969 -14.1176 216.896 -14.9109 215.168 -14.9109C213.441 -14.9109 212.461 -14.1176 212.601 -12.5776C213.535 -3.71124 214.001 3.05524 214.001 7.72176C214.26 14.4906 213.473 21.2589 211.668 27.7879C208.276 39.3297 199.718 49.5182 185.995 58.3535C180.375 62.3918 173.756 64.8128 166.857 65.3533C160.494 65.4281 154.248 63.644 148.885 60.2201C137.977 53.2366 129.498 43.0484 124.613 31.0544C118.214 17.878 115.936 3.07901 118.078 -11.411C118.078 -12.951 117.471 -13.7443 115.744 -13.7443C115.034 -13.8245 114.321 -13.626 113.755 -13.1907C113.189 -12.7554 112.814 -12.1173 112.71 -11.411C110.977 2.6842 112.906 16.9882 118.311 30.1211C123.222 43.3668 132.005 54.8295 143.518 63.0201Z" fill="white"/>
<path d="M52.4954 85.8889C52.9812 86.1875 53.5317 86.3646 54.1005 86.4052C54.6693 86.4458 55.2396 86.3489 55.7629 86.1223C56.6886 85.8241 57.4887 85.2267 58.0379 84.4242C58.5871 83.6218 58.8541 82.6597 58.7968 81.6891C58.8412 80.6789 58.507 79.6886 57.8595 78.9118C57.212 78.135 56.2979 77.6278 55.296 77.4893H53.429L52.0284 78.1892C51.6957 78.3513 51.4 78.5799 51.1592 78.8608C50.9183 79.1417 50.7375 79.469 50.6281 79.8225L50.1615 80.9891C49.9498 81.9105 49.9498 82.8678 50.1615 83.7891C50.6735 84.7375 51.4982 85.4794 52.4954 85.8889Z" fill="white"/>
<path d="M60.6639 77.9554C60.9577 78.1857 61.3099 78.3296 61.681 78.3708C62.052 78.412 62.4273 78.3489 62.7645 78.1886C63.6415 77.9206 64.3889 77.3392 64.8647 76.5553C65.2641 75.9261 65.414 75.1703 65.2844 74.4364C65.1549 73.7025 64.7554 73.0434 64.1647 72.5888C63.6499 71.9997 62.9328 71.6251 62.1551 71.5387C61.3773 71.4523 60.5953 71.6605 59.9636 72.1223L59.03 73.0555L58.5633 74.2221C58.4229 74.7575 58.4229 75.32 58.5633 75.8554V76.7888L60.6639 77.9554Z" fill="white"/>
<path d="M64.8647 11.9234L63.4644 12.39L62.2974 13.3234L61.5974 14.9567V15.8899C61.757 16.6947 62.1651 17.4293 62.7644 17.9899C62.9675 18.3637 63.2727 18.672 63.6447 18.8786C64.0167 19.0852 64.4399 19.1816 64.8647 19.1565C65.7487 19.3105 66.659 19.1451 67.4322 18.6899C68.1436 18.2285 68.6572 17.5186 68.873 16.6988C69.0888 15.879 68.9913 15.0082 68.5992 14.2566C68.5376 13.8426 68.3867 13.4471 68.1573 13.097C67.9279 12.7469 67.6254 12.4506 67.2704 12.2288C66.9154 12.007 66.5165 11.8649 66.1012 11.8121C65.6858 11.7594 65.2639 11.7973 64.8647 11.9234Z" fill="white"/>
<path d="M63.4645 8.42327C64.007 8.47936 64.5551 8.42569 65.0764 8.26534C65.5977 8.10499 66.0815 7.84133 66.4986 7.49005C67.148 6.8247 67.5836 5.98064 67.7499 5.06608C67.9163 4.15153 67.8057 3.20813 67.4323 2.35687C67.0938 1.44975 66.4238 0.704667 65.5576 0.27169C64.6914 -0.161287 63.6934 -0.249966 62.7645 0.0236111L61.1306 0.723559C60.7086 1.00915 60.383 1.41591 60.1969 1.89019C59.812 2.44454 59.5715 3.08605 59.4969 3.75676V5.1568C59.8368 6.05942 60.3986 6.86187 61.1306 7.49005C61.8085 8.00866 62.6158 8.33138 63.4645 8.42327Z" fill="white"/>
</g>
</svg>
