<svg width="23" height="20" viewBox="0 0 23 20" fill="none" xmlns="http://www.w3.org/2000/svg">
<path d="M9.9637 7.5089C9.9637 11.1151 9.113 13.9383 7.41159 15.9786C5.68688 18.019 3.27461 19.3594 0.174788 20L0.174788 16.2989C2.52879 15.5635 4.11366 14.2349 4.9294 12.3132C5.39554 11.293 5.582 10.3084 5.48877 9.35943L-1.43286e-05 9.35943L-1.35103e-05 -2.00558e-06L9.9637 -1.13453e-06L9.9637 7.5089ZM22.9412 7.5089C22.9412 11.0676 22.1138 13.879 20.459 15.9431C18.7809 18.0071 16.3453 19.3594 13.1523 20L13.1523 16.2989C15.5296 15.5397 17.1261 14.2349 17.9418 12.3843C18.3613 11.4116 18.5362 10.4033 18.4662 9.35943L12.9774 9.35943L12.9774 -8.71056e-07L22.9412 0L22.9412 7.5089Z" fill="#C45726"/>
</svg>
