<svg width="24" height="20" viewBox="0 0 24 20" fill="none" xmlns="http://www.w3.org/2000/svg">
    <path d="M13.0693 12.4911C13.0693 8.88493 13.926 6.06168 15.6394 4.02135C17.3763 1.98102 19.8057 0.640569 22.9274 0V3.70107C20.5568 4.43654 18.9607 5.76513 18.1392 7.68683C17.6697 8.707 17.482 9.69158 17.5758 10.6406H23.1034V20H13.0693V12.4911ZM0 12.4911C0 8.93238 0.833249 6.121 2.49975 4.05694C4.18972 1.99288 6.64252 0.640569 9.85815 0V3.70107C7.46403 4.46026 5.85621 5.76513 5.0347 7.61566C4.61221 8.58838 4.43617 9.59668 4.50658 10.6406H10.0342V20H0V12.4911Z" fill="#fff"/>
</svg>
