<svg width="19" height="15" viewBox="0 0 19 15" fill="none" xmlns="http://www.w3.org/2000/svg">
<path fill-rule="evenodd" clip-rule="evenodd" d="M1.50326 1.97756C1.18109 1.97756 0.919922 1.7164 0.919922 1.39423C0.919922 1.07206 1.18109 0.810898 1.50326 0.810898H18.3302C18.6523 0.810898 18.9135 1.07206 18.9135 1.39423C18.9135 1.7164 18.6523 1.97756 18.3302 1.97756H1.50326ZM1.50326 14.3173C1.18109 14.3173 0.919922 14.0561 0.919922 13.734C0.919922 13.4118 1.18109 13.1506 1.50326 13.1506H18.3302C18.6523 13.1506 18.9135 13.4118 18.9135 13.734C18.9135 14.0561 18.6523 14.3173 18.3302 14.3173H1.50326ZM0.919922 7.5641C0.919922 7.88627 1.18109 8.14744 1.50326 8.14744H18.3302C18.6523 8.14744 18.9135 7.88627 18.9135 7.5641C18.9135 7.24194 18.6523 6.98077 18.3302 6.98077H1.50326C1.18109 6.98077 0.919922 7.24194 0.919922 7.5641Z" fill="white"/>
</svg>
