<svg width="15" height="16" viewBox="0 0 15 16" fill="none" xmlns="http://www.w3.org/2000/svg">
<path fill-rule="evenodd" clip-rule="evenodd" d="M4.57351 0.666654C4.57351 0.383147 4.80334 0.15332 5.08684 0.15332C5.37035 0.15332 5.60018 0.383147 5.60018 0.666654V1.99691H10.1038V0.666654C10.1038 0.383147 10.3337 0.15332 10.6172 0.15332C10.9007 0.15332 11.1305 0.383147 11.1305 0.666654V1.99691H13.7996C14.362 1.99691 14.8173 2.45219 14.8173 3.01462V13.9878C14.8173 14.5502 14.362 15.0055 13.7996 15.0055H1.90443C1.342 15.0055 0.886719 14.5502 0.886719 13.9878V3.01462C0.886719 2.45219 1.342 1.99691 1.90443 1.99691H4.57351V0.666654ZM10.1038 3.02358V4.35363C10.1038 4.63713 10.3337 4.86696 10.6172 4.86696C10.9007 4.86696 11.1305 4.63713 11.1305 4.35363V3.02358H13.7907V6.60527H1.91341V3.02358H4.57351V4.35363C4.57351 4.63713 4.80334 4.86696 5.08684 4.86696C5.37035 4.86696 5.60018 4.63713 5.60018 4.35363V3.02358H10.1038ZM13.7907 7.63194V13.9788H1.91341V7.63194H13.7907Z" fill="#fff"/>
</svg>
