<svg width="192" height="121" viewBox="0 0 192 121" fill="none" xmlns="http://www.w3.org/2000/svg">
<path d="M34.3184 31.0332C35.4017 28.4772 35.4694 25.862 34.5215 23.1875C34.1829 22.2734 33.7259 21.3001 33.1504 20.2676C32.5241 19.1504 31.7624 17.8301 30.8652 16.3066L28.5801 12.3711C27.9707 11.3385 27.6914 10.2467 27.7422 9.0957C27.793 7.92773 28.1569 6.92057 28.834 6.07422C29.3249 5.48177 29.9596 5.2194 30.7383 5.28711C31.9909 5.4056 32.8796 6.13346 33.4043 7.4707L33.6836 8.23242L33.9629 9.01953C34.0983 9.39193 34.3099 9.56966 34.5977 9.55273C35.5794 9.48503 36.4173 9.30729 37.1113 9.01953L37.0605 8.15625L37.0098 7.29297C36.9759 6.61589 36.9251 6.04883 36.8574 5.5918C36.7389 4.83008 36.502 4.01758 36.1465 3.1543C35.7233 2.13867 34.9785 1.44466 33.9121 1.07227C32.4902 0.58138 30.7721 0.429036 28.7578 0.615234C28.0977 0.666016 27.5391 0.953776 27.082 1.47852L26.0918 2.62109C25.7194 3.04427 25.3893 3.43359 25.1016 3.78906C24.8984 4.04297 24.7122 4.4069 24.543 4.88086C24.069 6.13346 23.8997 8.04622 24.0352 10.6191C24.1367 12.498 24.6868 14.2161 25.6855 15.7734C26.0749 16.3659 26.5488 17.026 27.1074 17.7539L27.8438 18.7188L28.6055 19.6836C30.0951 21.5456 30.9753 23.1198 31.2461 24.4062C31.6693 26.4036 31.4577 28.2572 30.6113 29.9668C30.1374 30.9147 29.4941 31.4648 28.6816 31.6172C27.9368 31.7695 27.3952 31.6003 27.0566 31.1094C26.2103 29.8737 25.7194 28.7734 25.584 27.8086C25.5501 27.5378 25.474 27.2161 25.3555 26.8438L25.2285 26.3613L25.0762 25.8535C24.0436 25.9551 23.0872 26.0482 22.207 26.1328C22.1224 26.2682 22.0801 26.3359 22.0801 26.3359C22.0632 26.4375 22.0547 26.5221 22.0547 26.5898C22.1901 29.4844 22.5625 31.651 23.1719 33.0898C23.7812 34.5625 24.7799 35.6966 26.168 36.4922C26.8451 36.8984 27.6152 37.0592 28.4785 36.9746C29.4264 36.9069 30.222 36.5599 30.8652 35.9336C32.4225 34.4271 33.5736 32.7936 34.3184 31.0332ZM41.8281 1.22461C41.7266 1.56315 41.7096 2.41797 41.7773 3.78906C41.8281 5.1263 41.9297 6.07422 42.082 6.63281C42.8099 6.81901 43.7917 6.91211 45.0273 6.91211H45.7891L46.5254 6.88672C47.1178 6.90365 47.6257 6.92904 48.0488 6.96289L48.0996 7.29297L48.125 7.57227C48.1589 7.79232 48.1758 7.97852 48.1758 8.13086L48.0996 15.0625C48.0658 17.7708 48.0234 20.0814 47.9727 21.9941L47.7441 29.4844L47.4902 37H51.5527L51.5273 36.3145L51.502 35.6035L51.4512 28.6719C51.4342 25.9466 51.4342 23.6361 51.4512 21.7402C51.485 19.7936 51.5443 17.4831 51.6289 14.8086L51.8574 7.90234C51.8574 7.42839 51.9082 7.14062 52.0098 7.03906C52.0944 6.97135 52.3737 6.92057 52.8477 6.88672C54.2865 6.76823 55.8945 6.60742 57.6719 6.4043C58.0781 6.35352 58.3236 6.27734 58.4082 6.17578C58.4928 6.07422 58.5352 5.82031 58.5352 5.41406L58.5605 1.17383C58.5605 1.1569 58.5182 0.98763 58.4336 0.666016C56.2161 0.953776 53.4486 1.11458 50.1309 1.14844L48.0488 1.17383H45.9668C44.291 1.17383 42.9115 1.19076 41.8281 1.22461ZM80.7715 26.793C80.873 26.319 81.0085 25.6842 81.1777 24.8887L81.4062 23.9238L81.6348 22.959C81.9733 21.3678 82.1934 19.9375 82.2949 18.668C82.3288 17.6354 82.3034 16.696 82.2188 15.8496C82.1172 14.6986 81.9056 13.6491 81.584 12.7012C81.1608 11.4147 80.5091 9.69661 79.6289 7.54688C79.2734 6.68359 78.901 5.98958 78.5117 5.46484C77.1068 3.63672 75.4479 2.22331 73.5352 1.22461C72.0286 0.445964 70.7083 0.412109 69.5742 1.12305L69.1934 1.35156L68.8125 1.58008C68.5247 1.74935 68.2962 1.93555 68.127 2.13867C65.6895 5.23633 64.1999 8.67253 63.6582 12.4473C63.3027 14.9186 63.1673 17.3984 63.252 19.8867C63.3874 23.4922 63.8867 26.3952 64.75 28.5957C65.5964 30.7285 66.5443 32.4974 67.5938 33.9023C69.0495 35.8659 71.1146 36.8984 73.7891 37C74.6354 37.0339 75.3379 36.7207 75.8965 36.0605L76.4297 35.4258L77.0137 34.791C78.8079 32.709 79.9251 30.5846 80.3652 28.418L80.5684 27.6055L80.7715 26.793ZM87.3164 8.41016C87.3672 9.93359 87.401 11.6602 87.418 13.5898L87.4434 21.6133L87.4688 29.6113C87.4857 31.3717 87.5111 33.5384 87.5449 36.1113C87.5449 36.3822 87.5957 36.6191 87.6973 36.8223H91.8105V36.6191V36.2637L91.6328 31.8965L91.4551 27.5293L91.3535 25.8281L91.252 24.1523L91.2773 23.8984L91.3027 23.6191C91.472 23.89 91.6328 24.2031 91.7852 24.5586L92.1406 25.4727C92.5638 26.556 93.1139 27.7663 93.791 29.1035L94.7305 30.8555L95.6699 32.6074C96.3132 33.8262 97.0495 34.901 97.8789 35.832C97.8958 35.849 97.9128 35.8659 97.9297 35.8828C97.9635 35.9167 97.9974 35.9505 98.0312 35.9844L98.1582 36.0859C98.2936 36.1875 98.4375 36.2806 98.5898 36.3652C99.013 36.6022 99.4785 36.7715 99.9863 36.873C101.527 37.1947 103.245 36.8646 105.141 35.8828L105.293 35.8066L105.42 35.7559L105.953 35.4766L105.801 34.791L105.42 33.3691L105.242 32.6328L105.064 31.9219L105.014 31.9473L104.836 30.7793L104.43 31.1855C103.448 31.7949 102.534 32.0658 101.688 31.998C101.01 31.9473 100.384 31.6934 99.8086 31.2363C99.1654 30.7116 98.6999 30.0684 98.4121 29.3066L93.0293 19.0996C94.0957 17.7962 94.8913 16.7129 95.416 15.8496C96.4147 14.2246 97.0664 12.9466 97.3711 12.0156C97.9297 10.3398 98.1074 8.16471 97.9043 5.49023C97.8366 4.66081 97.4642 3.89909 96.7871 3.20508C96.11 2.51107 95.2129 1.95247 94.0957 1.5293C92.4538 0.902995 90.2448 0.496745 87.4688 0.310547C87.401 0.310547 87.3164 0.31901 87.2148 0.335938L87.0879 0.386719L86.9102 0.412109L86.9355 0.970703L86.9609 1.47852L87.1387 4.93164L87.3164 8.41016ZM128.596 37C128.934 37.0169 129.154 36.9831 129.256 36.8984C129.357 36.8138 129.417 36.5938 129.434 36.2383L129.586 34.0039C129.603 33.75 129.637 33.3607 129.688 32.8359H128.723L126.184 32.7598L123.619 32.6582C123.162 32.6413 122.883 32.5736 122.781 32.4551C122.68 32.3535 122.646 32.0742 122.68 31.6172L122.857 27.0723L123.111 22.5273L123.391 18.0078L123.695 13.4629C123.746 12.735 123.788 11.8125 123.822 10.6953L123.898 7.92773C123.915 7.4707 124 7.16602 124.152 7.01367C124.288 6.86133 124.584 6.77669 125.041 6.75977C125.396 6.74284 125.837 6.7513 126.361 6.78516L127.707 6.83594L128.545 6.86133L129.357 6.88672C129.814 6.88672 130.128 6.70898 130.297 6.35352L130.449 6.02344L130.602 5.64258C130.703 5.37174 130.762 5.1263 130.779 4.90625C130.83 4.48307 130.872 3.9668 130.906 3.35742L130.957 1.96094C130.957 1.89323 130.94 1.73242 130.906 1.47852V0.513672L114.098 0.488281L113.971 1.22461L113.844 1.93555C113.759 2.47721 113.691 2.93424 113.641 3.30664C113.624 3.49284 113.615 3.65365 113.615 3.78906C113.615 3.99219 113.632 4.15299 113.666 4.27148L113.768 5.0332L117.398 5.46484L117.906 5.56641C118.431 5.6849 118.761 5.8457 118.896 6.04883C119.015 6.23503 119.057 6.59896 119.023 7.14062L118.643 11.1777C118.507 12.735 118.397 14.0892 118.312 15.2402C118.228 16.5944 118.126 18.3971 118.008 20.6484L117.729 26.0566C117.644 27.5124 117.508 29.3236 117.322 31.4902C117.271 32.0319 117.178 32.362 117.043 32.4805C116.924 32.582 116.586 32.6159 116.027 32.582L114.25 32.4551L112.473 32.3027L111.965 32.2773H111.686L111.381 32.252L111.152 33.3184L110.949 34.3848C110.78 35.2142 110.628 35.9421 110.492 36.5684L110.797 36.6191L111.102 36.6699C111.305 36.7038 111.482 36.7207 111.635 36.7207L113.107 36.6699L114.58 36.6191C117.932 36.6191 120.843 36.6445 123.314 36.6953C123.839 36.6953 124.474 36.7207 125.219 36.7715L127.123 36.873L127.859 36.9238L128.596 37ZM150.299 5.05859C150.248 3.80599 150.189 2.62109 150.121 1.50391C150.104 1.38542 150.079 1.22461 150.045 1.02148L149.969 0.742188L149.918 0.462891C148.868 0.530599 147.675 0.572917 146.338 0.589844H144.535H142.758C139.626 0.55599 137.223 0.598307 135.547 0.716797V1.68164L135.699 6.15039L135.801 10.6191L135.928 15.8496C135.979 17.8809 136.012 19.6243 136.029 21.0801C136.046 25.041 135.953 28.5365 135.75 31.5664L135.598 34.0039L135.496 36.416C135.496 36.7038 135.513 36.8984 135.547 37L148.953 36.873L148.979 36.5176L148.826 34.3594L148.699 32.2012C148.682 31.7441 148.462 31.5072 148.039 31.4902L146.947 31.4395L145.855 31.3633C144.975 31.3294 144.239 31.3548 143.646 31.4395C143.342 31.4902 142.91 31.5241 142.352 31.541C141.658 31.541 141.226 31.4648 141.057 31.3125C140.904 31.1432 140.828 30.7031 140.828 29.9922L140.803 22.8828C140.803 22.7982 140.811 22.6882 140.828 22.5527L140.854 22.3496L140.879 22.1211L141.006 21.8672L147.252 22.0703C147.32 21.901 147.354 21.6641 147.354 21.3594C147.354 20.1745 147.345 19.2181 147.328 18.4902L147.277 18.0332L147.201 17.5508H141.844V17.1191C141.844 16.9499 141.835 16.7637 141.818 16.5605V16.5352C141.785 16.4336 141.768 16.2812 141.768 16.0781L141.717 15.291C141.717 15.2233 141.717 15.1725 141.717 15.1387C141.717 15.0879 141.717 15.0625 141.717 15.0625C141.649 13.8099 141.59 12.5573 141.539 11.3047C141.488 10.2214 141.446 8.80794 141.412 7.06445C141.412 6.69206 141.454 6.44661 141.539 6.32812C141.641 6.22656 141.869 6.15885 142.225 6.125C142.58 6.07422 142.986 6.04883 143.443 6.04883L146.465 5.99805L149.486 5.94727C149.859 5.94727 150.096 5.89648 150.197 5.79492C150.282 5.69336 150.316 5.44792 150.299 5.05859ZM167.127 31.0332C168.21 28.4772 168.278 25.862 167.33 23.1875C166.992 22.2734 166.535 21.3001 165.959 20.2676C165.333 19.1504 164.571 17.8301 163.674 16.3066L161.389 12.3711C160.779 11.3385 160.5 10.2467 160.551 9.0957C160.602 7.92773 160.965 6.92057 161.643 6.07422C162.133 5.48177 162.768 5.2194 163.547 5.28711C164.799 5.4056 165.688 6.13346 166.213 7.4707L166.492 8.23242L166.771 9.01953C166.907 9.39193 167.118 9.56966 167.406 9.55273C168.388 9.48503 169.226 9.30729 169.92 9.01953L169.869 8.15625L169.818 7.29297C169.785 6.61589 169.734 6.04883 169.666 5.5918C169.548 4.83008 169.311 4.01758 168.955 3.1543C168.532 2.13867 167.787 1.44466 166.721 1.07227C165.299 0.58138 163.581 0.429036 161.566 0.615234C160.906 0.666016 160.348 0.953776 159.891 1.47852L158.9 2.62109C158.528 3.04427 158.198 3.43359 157.91 3.78906C157.707 4.04297 157.521 4.4069 157.352 4.88086C156.878 6.13346 156.708 8.04622 156.844 10.6191C156.945 12.498 157.495 14.2161 158.494 15.7734C158.883 16.3659 159.357 17.026 159.916 17.7539L160.652 18.7188L161.414 19.6836C162.904 21.5456 163.784 23.1198 164.055 24.4062C164.478 26.4036 164.266 28.2572 163.42 29.9668C162.946 30.9147 162.303 31.4648 161.49 31.6172C160.745 31.7695 160.204 31.6003 159.865 31.1094C159.019 29.8737 158.528 28.7734 158.393 27.8086C158.359 27.5378 158.283 27.2161 158.164 26.8438L158.037 26.3613L157.885 25.8535C156.852 25.9551 155.896 26.0482 155.016 26.1328C154.931 26.2682 154.889 26.3359 154.889 26.3359C154.872 26.4375 154.863 26.5221 154.863 26.5898C154.999 29.4844 155.371 31.651 155.98 33.0898C156.59 34.5625 157.589 35.6966 158.977 36.4922C159.654 36.8984 160.424 37.0592 161.287 36.9746C162.235 36.9069 163.031 36.5599 163.674 35.9336C165.231 34.4271 166.382 32.7936 167.127 31.0332ZM17.6836 109.793C17.7852 109.319 17.9206 108.684 18.0898 107.889L18.3184 106.924L18.5469 105.959C18.8854 104.368 19.1055 102.938 19.207 101.668C19.2409 100.635 19.2155 99.696 19.1309 98.8496C19.0293 97.6986 18.8177 96.6491 18.4961 95.7012C18.0729 94.4147 17.4212 92.6966 16.541 90.5469C16.1855 89.6836 15.8132 88.9896 15.4238 88.4648C14.0189 86.6367 12.36 85.2233 10.4473 84.2246C8.94076 83.446 7.62044 83.4121 6.48633 84.123L6.10547 84.3516L5.72461 84.5801C5.43685 84.7493 5.20833 84.9355 5.03906 85.1387C2.60156 88.2363 1.11198 91.6725 0.570312 95.4473C0.214844 97.9186 0.0794271 100.398 0.164062 102.887C0.299479 106.492 0.798828 109.395 1.66211 111.596C2.50846 113.729 3.45638 115.497 4.50586 116.902C5.96159 118.866 8.02669 119.898 10.7012 120C11.5475 120.034 12.25 119.721 12.8086 119.061L13.3418 118.426L13.9258 117.791C15.7201 115.709 16.8372 113.585 17.2773 111.418L17.4805 110.605L17.6836 109.793ZM37.8887 84.8848C37.8887 84.6986 37.8717 84.4616 37.8379 84.1738L37.7871 83.793L37.7109 83.3867L34.7656 83.4883L31.8457 83.5898L26.082 83.793L25.2188 83.8691L24.3301 83.9453C24.0085 83.9792 23.8392 84.1569 23.8223 84.4785V85.0625L24 103.572L24.1016 117.486V120H29.332L29.2559 117.029L29.1797 112.789L29.1289 110.479L29.0781 108.143C29.0781 107.821 29.1289 107.601 29.2305 107.482C29.332 107.347 29.5436 107.262 29.8652 107.229C30.0514 107.212 30.2715 107.203 30.5254 107.203L31.7441 107.254L32.9375 107.279C34.2578 107.296 35.2565 107.296 35.9336 107.279C36.3568 107.279 36.5599 107.093 36.543 106.721L36.3906 103.648L36.3398 103.318L36.2891 102.988L35.8828 102.938L35.5273 102.887L33.0391 102.734L30.5508 102.557C30.0768 102.523 29.7891 102.447 29.6875 102.328C29.569 102.193 29.5098 101.896 29.5098 101.439L29.5605 99.5352L29.6367 97.6309L29.8398 91.2324C29.8568 90.7246 29.9245 90.4115 30.043 90.293C30.1784 90.1745 30.5085 90.1152 31.0332 90.1152H31.9473L32.8359 90.1406H34.7148L36.5938 90.1152C37.1354 90.0983 37.4993 89.9967 37.6855 89.8105C37.8717 89.6074 37.9648 89.2435 37.9648 88.7188C37.9648 87.6016 37.9395 86.3236 37.8887 84.8848ZM69.6914 114.033C70.7747 111.477 70.8424 108.862 69.8945 106.188C69.556 105.273 69.099 104.3 68.5234 103.268C67.8971 102.15 67.1354 100.83 66.2383 99.3066L63.9531 95.3711C63.3438 94.3385 63.0645 93.2467 63.1152 92.0957C63.166 90.9277 63.5299 89.9206 64.207 89.0742C64.6979 88.4818 65.3327 88.2194 66.1113 88.2871C67.3639 88.4056 68.2526 89.1335 68.7773 90.4707L69.0566 91.2324L69.3359 92.0195C69.4714 92.3919 69.6829 92.5697 69.9707 92.5527C70.9525 92.485 71.7904 92.3073 72.4844 92.0195L72.4336 91.1562L72.3828 90.293C72.349 89.6159 72.2982 89.0488 72.2305 88.5918C72.112 87.8301 71.875 87.0176 71.5195 86.1543C71.0964 85.1387 70.3516 84.4447 69.2852 84.0723C67.8633 83.5814 66.1452 83.429 64.1309 83.6152C63.4707 83.666 62.9121 83.9538 62.4551 84.4785L61.4648 85.6211C61.0924 86.0443 60.7624 86.4336 60.4746 86.7891C60.2715 87.043 60.0853 87.4069 59.916 87.8809C59.4421 89.1335 59.2728 91.0462 59.4082 93.6191C59.5098 95.498 60.0599 97.2161 61.0586 98.7734C61.4479 99.3659 61.9219 100.026 62.4805 100.754L63.2168 101.719L63.9785 102.684C65.4681 104.546 66.3483 106.12 66.6191 107.406C67.0423 109.404 66.8307 111.257 65.9844 112.967C65.5104 113.915 64.8672 114.465 64.0547 114.617C63.3099 114.77 62.7682 114.6 62.4297 114.109C61.5833 112.874 61.0924 111.773 60.957 110.809C60.9232 110.538 60.847 110.216 60.7285 109.844L60.6016 109.361L60.4492 108.854C59.4167 108.955 58.4603 109.048 57.5801 109.133C57.4954 109.268 57.4531 109.336 57.4531 109.336C57.4362 109.438 57.4277 109.522 57.4277 109.59C57.5632 112.484 57.9355 114.651 58.5449 116.09C59.1543 117.562 60.153 118.697 61.541 119.492C62.2181 119.898 62.9883 120.059 63.8516 119.975C64.7995 119.907 65.5951 119.56 66.2383 118.934C67.7956 117.427 68.9466 115.794 69.6914 114.033ZM83.7266 119.67C85.707 120.347 87.3997 119.975 88.8047 118.553C89.5326 117.791 90.1842 117.072 90.7598 116.395C91.9447 114.99 92.8333 113.618 93.4258 112.281C94.9831 108.777 95.8633 104.808 96.0664 100.373C96.168 98.3418 96.2103 95.9382 96.1934 93.1621L96.1426 89.5566L96.1172 85.9258V84.0977C96.1172 83.6745 95.9141 83.4629 95.5078 83.4629H92.5879C92.1986 83.4629 92.0124 83.6829 92.0293 84.123L92.0547 85.4434L92.207 89.0996L92.334 92.7559C92.4017 95.515 92.4102 97.944 92.3594 100.043C92.2917 102.853 91.7669 105.4 90.7852 107.686C90.125 109.209 89.1263 110.25 87.7891 110.809C86.638 111.299 85.5208 111.367 84.4375 111.012C83.2865 110.639 82.4486 109.878 81.9238 108.727C81.4837 107.762 81.2467 106.822 81.2129 105.908L81.1875 104.943L81.1621 104.004C80.9928 100.466 80.9844 95.8704 81.1367 90.2168L81.2129 87.3477L81.2383 84.4531C81.2383 84.0977 81.1875 83.8776 81.0859 83.793C81.0013 83.7083 80.7728 83.6745 80.4004 83.6914L79.2832 83.7676L78.166 83.8691C77.7428 83.903 77.4889 83.9707 77.4043 84.0723C77.3197 84.1569 77.2689 84.4108 77.252 84.834C77.2181 86.3574 77.1842 88.194 77.1504 90.3438L77.0996 93.0605L77.0488 95.7266C77.0658 96.5391 77.0742 97.7155 77.0742 99.2559L77.0996 100.982V102.709C77.1504 105.383 77.2858 107.66 77.5059 109.539C77.8275 112.146 78.4368 114.27 79.334 115.912C80.3327 117.757 81.7969 119.01 83.7266 119.67ZM112.641 104.258L111.955 104.232L111.27 104.207L111.143 104.994L110.99 105.781C110.939 106.069 110.88 106.458 110.812 106.949L110.66 108.143C110.525 109.074 110.305 109.844 110 110.453C109.763 110.944 109.255 111.452 108.477 111.977L108.35 112.002C108.299 112.019 108.265 112.019 108.248 112.002L107.867 111.85L107.461 111.697C107.156 111.579 106.928 111.418 106.775 111.215C106.183 110.487 105.802 109.429 105.633 108.041C105.531 107.262 105.404 106.179 105.252 104.791L104.896 101.566C104.558 98.7227 104.795 96.0312 105.607 93.4922L105.836 92.7812C105.938 92.5104 106.022 92.2734 106.09 92.0703C106.327 91.5456 106.606 91.1224 106.928 90.8008C107.469 90.276 107.969 90.0729 108.426 90.1914C108.866 90.293 109.188 90.7077 109.391 91.4355L109.619 92.2988L109.797 93.1621C109.898 93.5684 110.161 93.763 110.584 93.7461L111.6 93.7207L112.59 93.6699C112.861 93.6361 113.03 93.5768 113.098 93.4922C113.165 93.4076 113.191 93.2298 113.174 92.959L113.123 92.5781L113.098 92.1973C113.064 90.5892 112.522 88.7695 111.473 86.7383C110.914 85.638 109.865 84.6732 108.324 83.8438C108.138 83.7422 107.893 83.6745 107.588 83.6406C106.081 83.4375 104.829 83.9622 103.83 85.2148C103.187 86.0104 102.628 87.1699 102.154 88.6934C101.41 91.097 101.003 93.9831 100.936 97.3516C100.834 101.905 101.105 107.068 101.748 112.84C101.816 113.331 101.926 113.729 102.078 114.033C102.823 115.404 103.475 116.521 104.033 117.385C104.575 118.248 105.294 118.942 106.191 119.467C107.207 120.042 108.35 120.152 109.619 119.797C110.787 119.475 111.718 118.883 112.412 118.02C113.174 117.122 113.682 115.98 113.936 114.592C114.41 111.9 114.672 109.818 114.723 108.346L114.773 106.771V105.172C114.773 104.816 114.723 104.588 114.621 104.486C114.52 104.402 114.299 104.351 113.961 104.334L112.641 104.258ZM131.195 104.258L130.51 104.232L129.824 104.207L129.697 104.994L129.545 105.781C129.494 106.069 129.435 106.458 129.367 106.949L129.215 108.143C129.079 109.074 128.859 109.844 128.555 110.453C128.318 110.944 127.81 111.452 127.031 111.977L126.904 112.002C126.854 112.019 126.82 112.019 126.803 112.002L126.422 111.85L126.016 111.697C125.711 111.579 125.482 111.418 125.33 111.215C124.738 110.487 124.357 109.429 124.188 108.041C124.086 107.262 123.959 106.179 123.807 104.791L123.451 101.566C123.113 98.7227 123.35 96.0312 124.162 93.4922L124.391 92.7812C124.492 92.5104 124.577 92.2734 124.645 92.0703C124.882 91.5456 125.161 91.1224 125.482 90.8008C126.024 90.276 126.523 90.0729 126.98 90.1914C127.421 90.293 127.742 90.7077 127.945 91.4355L128.174 92.2988L128.352 93.1621C128.453 93.5684 128.715 93.763 129.139 93.7461L130.154 93.7207L131.145 93.6699C131.415 93.6361 131.585 93.5768 131.652 93.4922C131.72 93.4076 131.745 93.2298 131.729 92.959L131.678 92.5781L131.652 92.1973C131.618 90.5892 131.077 88.7695 130.027 86.7383C129.469 85.638 128.419 84.6732 126.879 83.8438C126.693 83.7422 126.447 83.6745 126.143 83.6406C124.636 83.4375 123.383 83.9622 122.385 85.2148C121.742 86.0104 121.183 87.1699 120.709 88.6934C119.964 91.097 119.558 93.9831 119.49 97.3516C119.389 101.905 119.66 107.068 120.303 112.84C120.37 113.331 120.48 113.729 120.633 114.033C121.378 115.404 122.029 116.521 122.588 117.385C123.13 118.248 123.849 118.942 124.746 119.467C125.762 120.042 126.904 120.152 128.174 119.797C129.342 119.475 130.273 118.883 130.967 118.02C131.729 117.122 132.236 115.98 132.49 114.592C132.964 111.9 133.227 109.818 133.277 108.346L133.328 106.771V105.172C133.328 104.816 133.277 104.588 133.176 104.486C133.074 104.402 132.854 104.351 132.516 104.334L131.195 104.258ZM152.695 88.0586C152.645 86.806 152.585 85.6211 152.518 84.5039C152.501 84.3854 152.475 84.2246 152.441 84.0215L152.365 83.7422L152.314 83.4629C151.265 83.5306 150.072 83.5729 148.734 83.5898H146.932H145.154C142.023 83.556 139.619 83.5983 137.943 83.7168V84.6816L138.096 89.1504L138.197 93.6191L138.324 98.8496C138.375 100.881 138.409 102.624 138.426 104.08C138.443 108.041 138.35 111.536 138.146 114.566L137.994 117.004L137.893 119.416C137.893 119.704 137.91 119.898 137.943 120L151.35 119.873L151.375 119.518L151.223 117.359L151.096 115.201C151.079 114.744 150.859 114.507 150.436 114.49L149.344 114.439L148.252 114.363C147.372 114.329 146.635 114.355 146.043 114.439C145.738 114.49 145.307 114.524 144.748 114.541C144.054 114.541 143.622 114.465 143.453 114.312C143.301 114.143 143.225 113.703 143.225 112.992L143.199 105.883C143.199 105.798 143.208 105.688 143.225 105.553L143.25 105.35L143.275 105.121L143.402 104.867L149.648 105.07C149.716 104.901 149.75 104.664 149.75 104.359C149.75 103.174 149.742 102.218 149.725 101.49L149.674 101.033L149.598 100.551H144.24V100.119C144.24 99.9499 144.232 99.7637 144.215 99.5605V99.5352C144.181 99.4336 144.164 99.2812 144.164 99.0781L144.113 98.291C144.113 98.2233 144.113 98.1725 144.113 98.1387C144.113 98.0879 144.113 98.0625 144.113 98.0625C144.046 96.8099 143.986 95.5573 143.936 94.3047C143.885 93.2214 143.842 91.8079 143.809 90.0645C143.809 89.6921 143.851 89.4466 143.936 89.3281C144.037 89.2266 144.266 89.1589 144.621 89.125C144.977 89.0742 145.383 89.0488 145.84 89.0488L148.861 88.998L151.883 88.9473C152.255 88.9473 152.492 88.8965 152.594 88.7949C152.678 88.6934 152.712 88.4479 152.695 88.0586ZM169.523 114.033C170.607 111.477 170.674 108.862 169.727 106.188C169.388 105.273 168.931 104.3 168.355 103.268C167.729 102.15 166.967 100.83 166.07 99.3066L163.785 95.3711C163.176 94.3385 162.896 93.2467 162.947 92.0957C162.998 90.9277 163.362 89.9206 164.039 89.0742C164.53 88.4818 165.165 88.2194 165.943 88.2871C167.196 88.4056 168.085 89.1335 168.609 90.4707L168.889 91.2324L169.168 92.0195C169.303 92.3919 169.515 92.5697 169.803 92.5527C170.785 92.485 171.622 92.3073 172.316 92.0195L172.266 91.1562L172.215 90.293C172.181 89.6159 172.13 89.0488 172.062 88.5918C171.944 87.8301 171.707 87.0176 171.352 86.1543C170.928 85.1387 170.184 84.4447 169.117 84.0723C167.695 83.5814 165.977 83.429 163.963 83.6152C163.303 83.666 162.744 83.9538 162.287 84.4785L161.297 85.6211C160.924 86.0443 160.594 86.4336 160.307 86.7891C160.104 87.043 159.917 87.4069 159.748 87.8809C159.274 89.1335 159.105 91.0462 159.24 93.6191C159.342 95.498 159.892 97.2161 160.891 98.7734C161.28 99.3659 161.754 100.026 162.312 100.754L163.049 101.719L163.811 102.684C165.3 104.546 166.18 106.12 166.451 107.406C166.874 109.404 166.663 111.257 165.816 112.967C165.342 113.915 164.699 114.465 163.887 114.617C163.142 114.77 162.6 114.6 162.262 114.109C161.415 112.874 160.924 111.773 160.789 110.809C160.755 110.538 160.679 110.216 160.561 109.844L160.434 109.361L160.281 108.854C159.249 108.955 158.292 109.048 157.412 109.133C157.327 109.268 157.285 109.336 157.285 109.336C157.268 109.438 157.26 109.522 157.26 109.59C157.395 112.484 157.768 114.651 158.377 116.09C158.986 117.562 159.985 118.697 161.373 119.492C162.05 119.898 162.82 120.059 163.684 119.975C164.632 119.907 165.427 119.56 166.07 118.934C167.628 117.427 168.779 115.794 169.523 114.033ZM189.145 114.033C190.228 111.477 190.296 108.862 189.348 106.188C189.009 105.273 188.552 104.3 187.977 103.268C187.35 102.15 186.589 100.83 185.691 99.3066L183.406 95.3711C182.797 94.3385 182.518 93.2467 182.568 92.0957C182.619 90.9277 182.983 89.9206 183.66 89.0742C184.151 88.4818 184.786 88.2194 185.564 88.2871C186.817 88.4056 187.706 89.1335 188.23 90.4707L188.51 91.2324L188.789 92.0195C188.924 92.3919 189.136 92.5697 189.424 92.5527C190.406 92.485 191.243 92.3073 191.938 92.0195L191.887 91.1562L191.836 90.293C191.802 89.6159 191.751 89.0488 191.684 88.5918C191.565 87.8301 191.328 87.0176 190.973 86.1543C190.549 85.1387 189.805 84.4447 188.738 84.0723C187.316 83.5814 185.598 83.429 183.584 83.6152C182.924 83.666 182.365 83.9538 181.908 84.4785L180.918 85.6211C180.546 86.0443 180.215 86.4336 179.928 86.7891C179.725 87.043 179.538 87.4069 179.369 87.8809C178.895 89.1335 178.726 91.0462 178.861 93.6191C178.963 95.498 179.513 97.2161 180.512 98.7734C180.901 99.3659 181.375 100.026 181.934 100.754L182.67 101.719L183.432 102.684C184.921 104.546 185.801 106.12 186.072 107.406C186.495 109.404 186.284 111.257 185.438 112.967C184.964 113.915 184.32 114.465 183.508 114.617C182.763 114.77 182.221 114.6 181.883 114.109C181.036 112.874 180.546 111.773 180.41 110.809C180.376 110.538 180.3 110.216 180.182 109.844L180.055 109.361L179.902 108.854C178.87 108.955 177.913 109.048 177.033 109.133C176.949 109.268 176.906 109.336 176.906 109.336C176.889 109.438 176.881 109.522 176.881 109.59C177.016 112.484 177.389 114.651 177.998 116.09C178.607 117.562 179.606 118.697 180.994 119.492C181.671 119.898 182.441 120.059 183.305 119.975C184.253 119.907 185.048 119.56 185.691 118.934C187.249 117.427 188.4 115.794 189.145 114.033Z" fill="white"/>
</svg>
