<svg width="16" height="16" viewBox="0 0 16 16" fill="none" xmlns="http://www.w3.org/2000/svg">
<path fill-rule="evenodd" clip-rule="evenodd" d="M8.15809 15.5513C3.98764 15.5513 0.606812 12.1705 0.606812 8.00001C0.606812 3.82955 3.98764 0.44873 8.15809 0.44873C12.3286 0.44873 15.7094 3.82955 15.7094 8.00001C15.7094 12.1705 12.3286 15.5513 8.15809 15.5513ZM8.15809 14.5513C11.7763 14.5513 14.7094 11.6182 14.7094 8.00001C14.7094 4.38184 11.7763 1.44873 8.15809 1.44873C4.53992 1.44873 1.60681 4.38184 1.60681 8.00001C1.60681 11.6182 4.53992 14.5513 8.15809 14.5513ZM11.4073 10.5422L8.65802 7.79291V2.73036C8.65802 2.45422 8.43416 2.23036 8.15802 2.23036C7.88188 2.23036 7.65802 2.45422 7.65802 2.73036V8.00002C7.65802 8.13263 7.7107 8.2598 7.80446 8.35357L10.7002 11.2493C10.8955 11.4446 11.212 11.4446 11.4073 11.2493C11.6026 11.054 11.6026 10.7375 11.4073 10.5422Z" fill="#1F4274"/>
</svg>
