<svg width="16" height="17" viewBox="0 0 16 17" fill="none" xmlns="http://www.w3.org/2000/svg">
<path fill-rule="evenodd" clip-rule="evenodd" d="M6.69859 8.5L0.230288 1.87478C-0.0765584 1.56049 -0.0767924 1.05068 0.229765 0.736097C0.536323 0.421511 1.03358 0.421271 1.34043 0.735561L7.94647 7.50186C7.98211 7.49938 8.01789 7.49938 8.05353 7.50186L14.6596 0.735561C14.9664 0.421271 15.4637 0.421511 15.7702 0.736097C16.0768 1.05068 16.0766 1.56049 15.7697 1.87478L9.30141 8.5L15.7697 15.1252C16.0766 15.4395 16.0768 15.9493 15.7702 16.2639C15.4637 16.5785 14.9664 16.5787 14.6596 16.2644L8.05353 9.49814C8.01789 9.50062 7.98211 9.50062 7.94647 9.49814L1.34043 16.2644C1.03358 16.5787 0.536323 16.5785 0.229765 16.2639C-0.0767924 15.9493 -0.0765584 15.4395 0.230288 15.1252L6.69859 8.5Z" fill="white"/>
</svg>
