<svg width="17" height="17" viewBox="0 0 17 17" fill="none" xmlns="http://www.w3.org/2000/svg">
<path fill-rule="evenodd" clip-rule="evenodd" d="M7.08112 8.4L0.526571 1.68644C0.215634 1.36796 0.215397 0.85136 0.526042 0.532579C0.836687 0.213799 1.34058 0.213556 1.65152 0.532036L8.34564 7.38855C8.38175 7.38604 8.418 7.38604 8.45412 7.38855L15.1482 0.532036C15.4592 0.213556 15.9631 0.213799 16.2737 0.532579C16.5844 0.85136 16.5841 1.36796 16.2732 1.68644L9.71864 8.4L16.2732 15.1136C16.5841 15.432 16.5844 15.9486 16.2737 16.2674C15.9631 16.5862 15.4592 16.5864 15.1482 16.268L8.45412 9.41145C8.418 9.41397 8.38175 9.41397 8.34564 9.41145L1.65152 16.268C1.34058 16.5864 0.836687 16.5862 0.526042 16.2674C0.215397 15.9486 0.215634 15.432 0.526571 15.1136L7.08112 8.4Z" fill="#1F4274"/>
</svg>
