<svg width="136" height="136" viewBox="0 0 136 136" fill="none" xmlns="http://www.w3.org/2000/svg">
<path fill-rule="evenodd" clip-rule="evenodd" d="M38.5334 55.2892C38.5334 38.5242 51.7262 24.9332 68.0001 24.9332C84.2739 24.9332 97.4667 38.5242 97.4667 55.2892C97.4667 69.2276 77.0977 99.9252 70.2299 109.879C69.6845 110.671 68.8416 111.067 68.0001 111.067C67.1585 111.067 66.3157 110.671 65.7702 109.879C58.9024 99.9252 38.5334 69.2276 38.5334 55.2892ZM54.2164 55.2897C54.2164 47.4466 60.388 41.0902 68 41.0902C75.612 41.0902 81.7835 47.4466 81.7835 55.2897C81.7835 63.1315 75.612 69.4879 68 69.4879C60.388 69.4879 54.2164 63.1315 54.2164 55.2897Z" fill="white"/>
<circle cx="68.1194" cy="56.3699" r="26.0229" fill="white" stroke="#F79533" stroke-width="0.693944"/>
<path d="M64.2601 46.7948C65.4954 44.3474 64.4365 39.0489 67.966 39.0489C70.6635 39.0489 69.7559 44.4988 71.2181 46.8705C70.1341 45.0034 72.2517 42.3037 75.3526 40.6132C74.6467 36.9547 72.3022 33.2963 67.7895 33.2963C63.6046 33.2963 60.9071 37.308 59.9995 41.1431C62.8735 42.7074 64.8903 45.2053 64.2601 46.7948Z" fill="#00AF91"/>
<path d="M73.7664 47.7787C76.3378 46.8704 79.4891 42.6064 81.8589 45.1294C83.7244 47.1227 78.6572 50.3775 78.0269 53.1024C78.632 50.8064 81.9093 50.8821 85.0354 52.4212C87.6825 49.3682 89.2959 44.6753 85.9429 41.0673C83.195 38.1152 78.7076 38.746 75.3294 40.5879C75.9597 43.8174 75.3042 47.047 73.7664 47.7787Z" fill="#148DCD"/>
<path d="M85.032 52.4214C82.9899 54.7931 80.3428 56.1808 78.9058 55.3229C81.1244 56.963 86.2673 57.3919 85.3849 60.7224C84.7294 63.2959 79.8386 60.9999 77.0907 61.7064C79.0571 61.3027 81.1748 64.0528 82.0823 67.459C85.7883 67.6861 89.8723 66.3236 90.9816 62.0344C92.0908 57.8713 88.637 54.1876 85.032 52.4214Z" fill="#98A93F"/>
<path d="M75.3283 63.7495C75.2022 66.5249 79.4123 70.7132 76.2358 72.5551C73.9417 73.8923 71.9753 68.7705 69.5551 67.3323C71.4207 68.4677 70.6139 71.5459 68.5467 74.2203C70.9417 77.3742 75.1014 79.8721 79.2611 77.4247C82.6645 75.4314 83.0426 71.0917 82.0846 67.4585C78.53 67.2314 75.2778 65.5914 75.3283 63.7495Z" fill="#C45827"/>
<path d="M67.1333 67.4336C64.8896 69.0737 63.5786 74.4983 60.4021 72.9088C57.9819 71.6977 61.3349 67.1309 61.0828 64.3555C61.2845 66.5253 58.1332 67.9635 54.5786 68.0392C53.4945 71.6724 53.8979 76.0878 57.9819 78.1316C61.8139 80.0491 66.1249 77.3999 68.5955 74.2208C66.5787 71.5967 65.7971 68.5438 67.1333 67.4336Z" fill="#864D90"/>
<path d="M59.4956 62.438C56.8233 61.7568 51.8064 64.5322 50.8232 61.0251C50.1173 58.4767 55.5124 57.8712 57.5292 55.9284C55.9409 57.3918 52.9913 55.9536 50.7728 53.3549C47.2434 54.9444 44.0669 58.2244 45.3274 62.7155C46.4114 66.6011 50.7224 68.115 54.5796 68.0393C55.5376 64.734 57.7309 62.0848 59.4956 62.438Z" fill="#F89633"/>
<path d="M57.9578 53.2538C56.7729 50.7559 51.6804 48.6617 53.7981 45.8107C55.4116 43.666 59.2687 47.703 62.0419 48.0057C59.8234 47.7534 59.2183 44.5239 59.9998 41.1682C56.5712 39.3011 51.9073 38.7208 49.0838 42.5054C46.5879 45.8611 48.2014 50.3522 50.7729 53.3547C53.8737 51.9418 57.2267 51.8661 58.0586 53.4556C58.0334 53.4052 57.983 53.3042 57.9578 53.2538Z" fill="#0763A4"/>
<path d="M61.2086 78.7624C61.5616 77.955 61.8137 77.1476 61.9397 76.2645C62.0658 75.331 62.0154 74.2965 61.486 73.4891C61.4103 73.363 61.3095 73.2621 61.2339 73.1864C60.9818 73.1611 60.7044 73.0602 60.4271 72.9341C60.2254 72.8331 60.049 72.707 59.9229 72.5304C59.7464 72.5051 59.5448 72.5051 59.3683 72.5556C58.4355 72.707 57.7296 73.3882 57.0994 74.0442C56.4943 74.675 55.9145 75.3058 55.4859 76.0375C55.6372 76.2645 55.8136 76.4664 56.0153 76.6682C56.4439 75.8608 57.0489 75.2048 57.6792 74.5488C58.2842 73.9181 59.1414 73.0602 60.0994 73.3378C61.0574 73.6153 61.3095 74.7759 61.2843 75.6338C61.2591 76.7187 60.9061 77.8036 60.4523 78.7876V78.8129C60.654 78.7876 60.9313 78.7876 61.2086 78.7624Z" fill="#986BA1"/>
<path d="M60.1735 76.9459C60.3752 76.3403 60.6021 75.6086 60.3752 74.9526C60.1735 74.3975 59.6441 74.0443 59.0643 74.1957C58.434 74.3723 57.9802 75.0031 57.5769 75.4572C57.1483 75.9618 56.7701 76.4917 56.392 77.0215C56.518 77.1225 56.6441 77.2486 56.7953 77.3495C57.1483 76.8197 57.5516 76.2898 57.9802 75.7852C58.2071 75.5329 58.4088 75.2806 58.6609 75.0535C58.8878 74.8265 59.2407 74.5489 59.5685 74.7003C60.2239 74.9778 59.9718 75.9871 59.8206 76.4917C59.6189 77.1982 59.3668 77.8794 59.0895 78.5354C59.2407 78.5859 59.4172 78.6111 59.5685 78.6616C59.7702 78.1065 59.9718 77.5262 60.1735 76.9459Z" fill="#986BA1"/>
<path d="M58.6098 77.4006C58.509 77.6782 58.3829 77.9809 58.2569 78.2585C58.4082 78.3342 58.5594 78.3846 58.7359 78.4351C58.8871 78.0819 59.0636 77.7286 59.1645 77.3502C59.2401 77.0979 59.2905 76.8455 59.2905 76.568C59.2905 76.3409 59.2401 76.0129 59.0636 75.8615C58.8367 75.6597 58.509 75.8111 58.3325 75.9877C58.156 76.1643 58.0048 76.3662 57.8535 76.568C57.6014 76.9212 57.3997 77.2745 57.2233 77.6782C57.3493 77.7791 57.5006 77.8548 57.6518 77.9305C57.8031 77.6025 57.9544 77.2997 58.156 76.9969C58.2569 76.8455 58.3829 76.6942 58.4838 76.5428C58.5342 76.4671 58.6098 76.3914 58.6855 76.3157C58.6855 76.3157 58.7107 76.2905 58.7359 76.2905C58.7611 76.3662 58.7611 76.4418 58.7863 76.5175C58.7863 76.6185 58.7863 76.7194 58.7863 76.8203C58.7359 77.0222 58.6855 77.224 58.6098 77.4006Z" fill="#986BA1"/>
<path d="M68.0133 74.8772C67.6856 74.1707 67.3075 73.5147 66.8537 72.884C66.3999 72.228 65.8705 71.3953 65.0133 71.2692C64.7108 71.2187 64.4083 71.2692 64.1057 71.3701C63.652 71.9757 63.1982 72.5055 62.6688 72.8335C62.3914 73.6409 62.4671 74.5744 62.4166 75.4071C62.3662 76.4415 62.2906 77.5012 62.4923 78.5357C62.7444 78.46 62.9713 78.3843 63.2234 78.3086C63.0469 77.3246 63.1477 76.3406 63.173 75.3566C63.1982 74.8267 63.1982 74.2717 63.2486 73.7166C63.299 73.1867 63.4251 72.7073 63.8536 72.3541C64.1814 72.1018 64.6604 71.9 65.0637 72.0513C65.4419 72.2027 65.7192 72.5812 65.9461 72.9092C66.5259 73.7166 67.0553 74.524 67.4335 75.4575C67.6604 75.2809 67.8369 75.0791 68.0133 74.8772Z" fill="#986BA1"/>
<path d="M66.2232 74.095C66.0215 73.5904 65.7442 72.9848 65.1896 72.7578C63.5257 72.127 63.3744 74.8015 63.3996 75.7855C63.4248 76.5676 63.5257 77.3498 63.6517 78.132C63.803 78.0563 63.9795 78.0058 64.1307 77.9301C64.0047 77.1984 63.929 76.492 63.9038 75.7603C63.8786 75.0538 63.8786 74.1455 64.2568 73.5147C64.4585 73.1867 64.8618 73.0858 65.1643 73.3381C65.3912 73.5147 65.5425 73.8175 65.6686 74.095C65.9963 74.8267 66.2484 75.5836 66.5509 76.3153C66.677 76.1892 66.8282 76.0883 66.9543 75.9621C66.7022 75.3313 66.4753 74.7006 66.2232 74.095Z" fill="#986BA1"/>
<path d="M66.0974 75.861C65.9713 75.4826 65.7949 75.0789 65.5428 74.7509C65.3915 74.549 65.1394 74.4229 64.8873 74.5238C64.6856 74.6247 64.5595 74.8266 64.5091 75.0284C64.4083 75.4069 64.4335 75.8358 64.4587 76.2143C64.4839 76.6937 64.5343 77.173 64.5848 77.6777C64.736 77.5767 64.9125 77.5011 65.0638 77.4001C65.0385 77.0217 64.9881 76.6432 64.9629 76.2647C64.9377 76.0377 64.9377 75.8106 64.9377 75.5835C64.9377 75.4321 64.9377 75.2303 65.0133 75.0789C65.0385 75.0032 65.0638 74.978 65.1142 75.0284C65.1898 75.1041 65.2402 75.1798 65.2906 75.2555C65.3915 75.4321 65.4923 75.634 65.568 75.861C65.694 76.189 65.7949 76.517 65.8453 76.8703C65.9965 76.7694 66.1478 76.6432 66.2738 76.5423C66.2486 76.29 66.173 76.0881 66.0974 75.861Z" fill="#986BA1"/>
<path d="M57.2004 72.8839C57.9819 72.4802 58.8643 72.1018 59.4945 71.471C59.4441 70.7393 59.6962 69.8058 60.024 68.847C59.7719 68.5442 59.3685 68.3928 58.9651 68.2919C58.4609 68.1657 57.9567 68.1153 57.4525 68.09C56.8979 68.0648 56.318 68.1153 55.7634 68.2414C55.3096 68.3424 54.8558 68.4685 54.4021 68.5947C54.3264 68.8722 54.276 69.1497 54.2256 69.4273H54.2508C54.8054 69.3011 55.3348 69.1245 55.9147 68.9984C56.4693 68.8974 57.0239 68.847 57.5533 68.8722C58.0576 68.8974 58.6374 68.9479 59.1164 69.1497C59.6206 69.3264 59.6206 69.8058 59.4441 70.2599C59.066 71.2187 57.9819 71.6728 57.1248 72.1018C56.1668 72.5812 55.234 73.0605 54.276 73.5399C54.3264 73.7922 54.4021 74.0445 54.5029 74.2716C55.4105 73.7922 56.318 73.3381 57.2004 72.8839Z" fill="#986BA1"/>
<path d="M57.8036 70.9916C58.2321 70.6384 58.5851 69.9319 58.0809 69.4778C57.6271 69.0741 56.8456 69.0993 56.291 69.1498C55.5599 69.2507 54.8792 69.4778 54.1985 69.7553C54.1733 69.9319 54.1481 70.1338 54.1229 70.3104C54.8288 70.0329 55.5599 69.7301 56.3162 69.6544C56.6439 69.6039 58.0809 69.5282 57.7784 70.2095C57.6523 70.5122 57.2994 70.7393 57.0221 70.8907C56.7195 71.0673 56.3918 71.2439 56.0641 71.3953C55.4338 71.7233 54.7783 72.0009 54.0977 72.2027C54.1229 72.3793 54.1229 72.556 54.1481 72.7073C54.7783 72.5307 55.4086 72.2532 56.0136 71.9756C56.6187 71.7233 57.2742 71.4458 57.8036 70.9916Z" fill="#986BA1"/>
<path d="M55.4845 71.4961C55.6358 71.4456 55.7618 71.3447 55.8627 71.2438C56.1148 70.941 55.9635 70.5373 55.6106 70.3859C55.3333 70.2598 54.9803 70.285 54.6778 70.3607C54.4761 70.4111 54.2744 70.5121 54.098 70.6382C54.0728 70.8653 54.0728 71.0672 54.0728 71.2942C54.098 71.2942 54.1484 71.269 54.1736 71.2438C54.3753 71.0419 54.6022 70.9158 54.8795 70.8653C55.0055 70.8401 55.1064 70.8401 55.2576 70.8401C55.2828 70.8401 55.3081 70.8401 55.3081 70.8401C55.2829 70.8401 55.2828 70.8401 55.3333 70.8401C55.3585 70.8401 55.4341 70.8653 55.4089 70.8653C55.4341 70.8653 55.4341 70.8905 55.4593 70.8905C55.4341 70.8653 55.4593 70.8905 55.4593 70.8905C55.4593 70.8905 55.4593 70.8905 55.4845 70.9158C55.4845 70.9158 55.4845 70.941 55.5097 70.941C55.5097 70.941 55.5097 70.941 55.5097 70.9662C55.4845 70.9915 55.4593 71.0167 55.4845 71.0167C55.4593 71.0419 55.4089 71.0672 55.3837 71.0924C55.2576 71.1681 55.1316 71.2185 54.9803 71.269C54.703 71.3699 54.4005 71.4456 54.098 71.5213C54.098 71.6979 54.098 71.8745 54.1232 72.0512C54.4509 71.9755 54.7534 71.8998 55.056 71.7736C55.1568 71.6222 55.3333 71.5718 55.4845 71.4961ZM55.4845 70.9158C55.4593 70.9158 55.4593 70.9158 55.4845 70.9158V70.9158Z" fill="#986BA1"/>
<path d="M51.2253 52.547C51.8051 51.9414 52.4354 51.3611 53.0152 50.7556C53.4438 50.2762 53.822 49.7463 54.2253 49.2165C53.9984 48.939 53.7715 48.6362 53.6203 48.3586C53.1917 48.8885 52.8135 49.4436 52.3598 49.9482C51.8303 50.5537 51.2253 51.1088 50.6455 51.6639C50.4186 51.891 50.2169 52.118 49.99 52.3704C50.1917 52.6479 50.3934 52.9254 50.6202 53.1777C50.8471 52.9759 51.0236 52.7488 51.2253 52.547Z" fill="#4D77B1"/>
<path d="M49.3867 48.7116C49.9918 48.5602 50.5716 48.4088 51.1767 48.2574C51.9078 48.0808 52.6389 47.8789 53.37 47.7023C53.2943 47.3743 53.2691 47.0211 53.37 46.6678C52.5128 46.8697 51.6557 47.0968 50.7985 47.2986C50.1683 47.45 49.5632 47.6266 48.933 47.778C48.6304 47.8537 48.3531 47.9294 48.0506 48.0051C48.1262 48.3331 48.2019 48.6611 48.3027 48.9639C48.6556 48.8629 49.0086 48.8125 49.3867 48.7116Z" fill="#4D77B1"/>
<path d="M53.4957 46.3149C53.5714 46.1382 53.6722 45.9869 53.7982 45.8102C53.8991 45.6841 53.9999 45.5579 54.126 45.4822C52.2604 44.7505 50.3444 44.145 48.4284 43.6404C48.2772 43.9432 48.1763 44.2712 48.0755 44.5992C49.9159 45.0533 51.7058 45.6336 53.4957 46.3149Z" fill="#4D77B1"/>
<path d="M53.5208 42.9081C53.7729 43.7407 54.025 44.5733 54.2519 45.3807C54.5544 45.2041 54.8822 45.1536 55.2351 45.1788C54.983 44.2958 54.7309 43.3874 54.4284 42.5044C54.1511 41.596 53.8485 40.6625 53.4704 39.7794C53.1427 39.8299 52.7897 39.9056 52.4872 40.0065C52.9158 40.94 53.1931 41.924 53.5208 42.9081Z" fill="#4D77B1"/>
<path d="M56.5938 45.5581C57.0224 44.9273 57.4257 44.2965 57.8291 43.6657C58.1821 43.1359 58.535 42.606 58.9132 42.1267C59.0896 41.8996 59.2661 41.6725 59.4174 41.395C59.493 41.2688 59.5434 41.0922 59.6443 40.966C59.3417 40.8146 59.0392 40.6633 58.7115 40.5371C58.7115 40.5623 58.6863 40.5623 58.6863 40.5876C58.5602 40.8146 58.4594 41.067 58.3081 41.2688C57.9047 41.7987 57.5014 42.3285 57.1232 42.8836C56.5938 43.6657 56.1148 44.4731 55.5854 45.2301C55.9383 45.3058 56.2661 45.4067 56.5938 45.5581Z" fill="#4D77B1"/>
<path d="M49.8666 52.1684C50.6733 51.3106 51.48 50.4275 52.2363 49.5192C52.4884 49.2164 52.2363 48.8127 51.8582 48.8884C50.7237 49.0903 49.5892 49.2669 48.4296 49.4687C48.5304 49.721 48.606 49.9481 48.7321 50.1752C49.4884 50.049 50.2195 49.9229 50.9758 49.7967C50.4716 50.377 49.9674 50.9574 49.438 51.5124C49.5892 51.7395 49.7153 51.9666 49.8666 52.1684Z" fill="#4D77B1"/>
<path d="M47.924 47.4503C49.008 47.1728 50.092 46.8953 51.2013 46.8196C51.6299 46.7943 51.7055 46.2393 51.3021 46.0879C50.6719 45.8356 49.9912 45.6337 49.3357 45.4571C49.008 45.3814 48.6551 45.331 48.3273 45.2553C48.2013 45.23 48.0752 45.2048 47.9492 45.1796C47.8987 45.4319 47.8735 45.6842 47.8735 45.9365C47.9492 45.9617 48.0248 45.9617 48.1004 45.987C48.4534 46.0374 48.8063 46.0879 49.1593 46.1888C49.3105 46.214 49.4366 46.2645 49.5878 46.2897C49.008 46.4159 48.4534 46.542 47.8987 46.6934C47.8735 46.9457 47.8987 47.198 47.924 47.4503Z" fill="#4D77B1"/>
<path d="M52.0598 43.8422C52.4127 44.0189 52.7405 43.6656 52.5892 43.3124C52.2867 42.7069 52.0346 42.0761 51.7825 41.4453C51.6564 41.1173 51.5304 40.7893 51.3791 40.4613C51.1522 40.5875 50.9505 40.7136 50.7236 40.865C50.8497 41.1425 50.9505 41.4453 51.0766 41.7229C51.2026 42.0509 51.3539 42.3789 51.4799 42.7321C50.8497 42.4293 50.2194 42.177 49.564 41.8995C49.3875 42.0761 49.2362 42.2779 49.085 42.4798C49.085 42.4798 49.085 42.505 49.0598 42.505C50.0934 42.9339 51.0766 43.3629 52.0598 43.8422Z" fill="#4D77B1"/>
<path d="M55.6901 42.8835C55.8161 43.2367 56.2951 43.2367 56.4212 42.8835C56.6229 42.2779 56.9254 41.7481 57.2279 41.193C57.4296 40.865 57.6061 40.5118 57.8078 40.1838C57.5557 40.1081 57.3036 40.0324 57.0515 39.9819C56.875 40.2847 56.6985 40.5875 56.522 40.865C56.3708 41.1173 56.2195 41.3949 56.0935 41.6472C55.917 41.0164 55.7405 40.3604 55.6145 39.7044C55.3624 39.6792 55.0851 39.6539 54.8329 39.6539C55.0598 40.7641 55.3372 41.8238 55.6901 42.8835Z" fill="#4D77B1"/>
<path d="M56.1411 51.5376H56.1664C56.1664 51.5376 56.1664 51.5376 56.1916 51.5376C56.2168 51.5376 56.242 51.5376 56.2672 51.5376C56.3428 51.5376 56.3932 51.5376 56.4689 51.5376C56.5193 51.5376 56.5445 51.5376 56.5949 51.5124C56.368 51.2853 56.1159 51.0582 55.8638 50.8312C55.4605 50.9068 55.0571 51.0582 54.6789 51.1844C54.5025 51.2348 54.326 51.3105 54.1495 51.361C54.2504 51.2348 54.3512 51.1339 54.4773 51.0078C54.7294 50.7555 54.9563 50.4779 55.2084 50.2004C55.0319 50.0238 54.8302 49.8471 54.6789 49.6705C54.6285 49.721 54.6033 49.7715 54.5529 49.7967C54.326 50.049 54.0991 50.3013 53.8974 50.5284C53.4941 50.9573 53.0907 51.3862 52.7125 51.8656C52.6117 51.9918 52.6621 52.1936 52.7377 52.2945C52.8386 52.4207 52.9899 52.4459 53.1411 52.4207C53.721 52.3198 54.2756 52.0927 54.8302 51.9161C55.1327 51.8152 55.4353 51.7142 55.763 51.6385C55.8386 51.5881 55.9899 51.5629 56.1411 51.5376Z" fill="#4D77B1"/>
<path d="M59.2681 46.9455C59.2177 45.8354 59.3689 44.7 59.2681 43.5898C59.2429 43.4385 59.1925 43.3123 59.0412 43.2366C58.9152 43.1861 58.7387 43.1861 58.6378 43.3123C58.0076 44.044 57.7051 45.0028 57.2513 45.8354C57.4782 45.9363 57.7051 46.0625 57.932 46.1886C58.1084 45.8606 58.2849 45.4822 58.4614 45.1542C58.5118 45.0785 58.537 45.0028 58.5874 44.9271C58.5622 45.4569 58.537 45.9868 58.537 46.5419C58.7639 46.668 59.016 46.8194 59.2681 46.9455Z" fill="#4D77B1"/>
<path d="M87.4563 59.3391L88.8933 58.3299L86.7756 58.1785L87.9605 56.3618L85.7168 57.0683L86.4983 55.0498L84.5571 55.9834L84.5319 55.9581L85.3891 54.1667L83.5235 55.1508C83.2462 54.9489 82.9689 54.7723 82.6916 54.5957C82.4647 54.7471 82.263 54.8732 82.0361 54.9741C82.0613 55.0498 82.1117 55.1255 82.2126 55.176C83.1958 55.7563 84.0529 56.488 84.8597 57.2954C85.6412 58.0775 86.5487 58.8345 86.8513 59.9446C87.0025 60.4492 87.0782 61.0548 86.7504 61.5089C86.4479 61.9126 85.9689 62.165 85.5151 62.3668C84.5571 62.7957 83.4983 62.9471 82.4647 62.8714C81.4058 62.7957 80.347 62.5434 79.3386 62.2154C79.2125 62.165 79.1117 62.1902 79.0361 62.2406C79.389 62.493 79.742 62.821 80.0697 63.2247C80.2966 63.2751 80.5235 63.3508 80.7504 63.4013L81.8596 65.9244L82.7672 63.6536C82.7924 63.6536 82.7924 63.6536 82.8176 63.6536L83.6496 65.9244L84.2546 63.5274C84.2798 63.5274 84.305 63.5274 84.3302 63.5022L85.1622 65.3945L85.2882 63.2499C85.3134 63.2499 85.3387 63.2247 85.3639 63.2247L86.8009 64.5114L86.5235 62.7705L87.8597 63.4265L87.4563 61.8622L89.0698 62.1902L87.7336 60.4492L89.4984 59.9951L87.4563 59.3391Z" fill="#AAB660"/>
<path d="M84.2798 66.1718L84.3806 64.7336L85.0613 66.1718L84.8596 66.9287L84.2798 66.1718Z" fill="#AAB660"/>
<path d="M85.8426 65.4144V64.2791L86.6241 65.1621V66.2218L85.8426 65.4144Z" fill="#AAB660"/>
<path d="M86.6224 56.2309L86.925 55.3478L87.8325 55.0198L87.5552 55.9281L86.6224 56.2309Z" fill="#AAB660"/>
<path d="M87.733 57.7447L88.3128 56.7355H89.1447L88.8422 57.4672L87.733 57.7447Z" fill="#AAB660"/>
<path d="M88.565 59.1072L89.1448 58.5774L90.0776 58.8549L89.523 59.5109L88.565 59.1072Z" fill="#AAB660"/>
<path d="M88.718 60.6966L89.5247 60.3938L90.3818 60.9489L89.4491 61.6553L88.718 60.6966Z" fill="#AAB660"/>
<path d="M88.087 62.4883L88.3139 63.2957L89.1459 63.4471L89.045 62.4883H88.087Z" fill="#AAB660"/>
<path d="M87.2287 64.2795L87.1278 63.4469L87.8337 64.002L87.9345 64.7337L87.2287 64.2795Z" fill="#AAB660"/>
<path d="M82.4868 65.8189L82.7893 65.062L83.0919 65.9956L82.7137 66.8029L82.4868 65.8189Z" fill="#AAB660"/>
<path d="M85.5641 55.0195L86.144 54.7167L86.2448 54.1112L85.665 54.414L85.5641 55.0195Z" fill="#AAB660"/>
<path d="M75.351 40.6128C72.2501 42.3033 70.1325 45.003 71.2165 46.8701C71.6199 47.5261 72.1997 47.9298 73.0821 47.9298C73.309 47.9045 73.5359 47.8541 73.788 47.7784C75.3006 47.0214 75.956 43.8171 75.351 40.6128ZM73.8636 46.2393C73.6367 46.7691 73.0316 47.0467 72.5022 46.8196C71.9728 46.5925 71.6955 45.987 71.9224 45.4571C72.1493 44.9273 72.7543 44.6497 73.2837 44.8768C73.8132 45.1039 74.0905 45.7094 73.8636 46.2393Z" fill="#40BC99"/>
<path d="M78.0232 53.1015C78.0232 53.1015 78.0232 53.1267 78.0232 53.1015C77.8971 53.6566 77.9475 54.1864 78.2753 54.6911C78.4265 54.9181 78.6534 55.12 78.9055 55.3218C80.3425 56.1797 82.9896 54.7668 85.0316 52.4203C81.8804 50.9064 78.603 50.8055 78.0232 53.1015ZM80.4182 54.4892C79.8887 54.7163 79.2585 54.4892 79.0316 53.9594C78.8047 53.4295 79.0316 52.7987 79.561 52.5717C80.0904 52.3446 80.7207 52.5717 80.9476 53.1015C81.1997 53.6314 80.9476 54.2621 80.4182 54.4892Z" fill="#0763A4"/>
<path d="M77.1159 61.7052C76.9142 61.7557 76.7377 61.8314 76.5865 61.9071C76.5361 61.9323 76.5108 61.9575 76.4604 61.9827C76.2587 62.1089 76.1075 62.2351 75.9814 62.3612C75.7293 62.6135 75.5528 62.9415 75.4268 63.3704C75.4016 63.4209 75.4016 63.4966 75.3764 63.5471C75.3764 63.5975 75.3764 63.648 75.3512 63.6732C75.3512 63.6985 75.3512 63.7237 75.3512 63.7489C75.3007 65.5908 78.5529 67.256 82.1327 67.4579C81.2 64.0517 79.0823 61.3015 77.1159 61.7052ZM77.6201 64.5058C77.0907 64.7329 76.4604 64.5058 76.2335 63.976C76.0066 63.4461 76.2335 62.8154 76.7629 62.5883C77.2924 62.3612 77.9226 62.5883 78.1495 63.1181C78.3764 63.648 78.1495 64.2788 77.6201 64.5058Z" fill="#8B8A33"/>
<path d="M69.5775 67.3324C69.5523 67.3324 69.5523 67.3071 69.5271 67.3071C69.4767 67.2819 69.4263 67.2567 69.3507 67.2314C69.3254 67.2314 69.3254 67.2314 69.3002 67.2062C68.4431 66.8277 67.7372 66.9791 67.1069 67.4585C65.7708 68.5687 66.5775 71.6216 68.5439 74.2456C70.6364 71.5207 71.4431 68.4425 69.5775 67.3324ZM68.4431 70.1582C67.8632 70.1582 67.3842 69.6788 67.3842 69.0985C67.3842 68.5182 67.8632 68.0388 68.4431 68.0388C69.0229 68.0388 69.5019 68.5182 69.5019 69.0985C69.4767 69.6788 69.0229 70.1582 68.4431 70.1582Z" fill="#A8503A"/>
<path d="M61.0812 64.3302C61.056 64.1788 61.0308 64.0527 61.0056 63.9013C60.8795 63.4976 60.7031 63.1696 60.451 62.9425C60.3249 62.8164 60.1737 62.7154 59.972 62.6145C59.8207 62.5388 59.6695 62.4884 59.493 62.4379C57.7283 62.0847 55.5602 64.7591 54.577 68.0392C58.1316 67.9635 61.2577 66.5253 61.0812 64.3302ZM58.9131 65.5161C58.3333 65.5161 57.8543 65.0367 57.8543 64.4564C57.8543 63.8761 58.3333 63.3967 58.9131 63.3967C59.493 63.3967 59.972 63.8761 59.972 64.4564C59.972 65.0619 59.493 65.5161 58.9131 65.5161Z" fill="#7B377C"/>
<path d="M59.9972 41.1425C59.2157 44.5234 59.8207 47.753 62.0392 47.98C62.0897 47.98 62.1149 47.98 62.1653 47.98C62.2157 47.98 62.2661 47.98 62.3166 47.98H62.3418C62.7199 47.98 63.0477 47.9043 63.325 47.7782C63.3502 47.7782 63.3754 47.753 63.4006 47.753C63.4258 47.753 63.451 47.7277 63.451 47.7277C63.4762 47.7025 63.5267 47.6773 63.5519 47.652L63.5771 47.6268C63.6023 47.6016 63.6275 47.5763 63.6779 47.5511C63.7031 47.5511 63.7031 47.5259 63.7283 47.5259L63.7536 47.5006C63.9552 47.2988 64.1317 47.0717 64.283 46.7942C64.888 45.2046 62.8712 42.7068 59.9972 41.1425ZM63.2746 45.7093C63.5014 46.2391 63.2746 46.8699 62.7451 47.097C62.2157 47.324 61.5855 47.097 61.3586 46.5671C61.1317 46.0373 61.3586 45.4065 61.888 45.1794C62.4174 44.9271 63.0477 45.1794 63.2746 45.7093Z" fill="#1F4375"/>
<path d="M57.5266 55.9278C57.577 55.8773 57.6526 55.8016 57.703 55.7511C57.7282 55.7259 57.7535 55.7007 57.7787 55.6754C57.8039 55.6502 57.8039 55.6502 57.8291 55.625C57.9299 55.4736 58.0308 55.3222 58.1064 55.1961C58.3081 54.7671 58.3585 54.313 58.2072 53.7579C57.6778 51.8403 54.098 51.8656 50.7954 53.3542C52.9887 55.9278 55.9383 57.3911 57.5266 55.9278ZM55.056 54.3887C55.056 53.8084 55.535 53.329 56.1148 53.329C56.6946 53.329 57.1736 53.8084 57.1736 54.3887C57.1736 54.969 56.6946 55.4484 56.1148 55.4484C55.535 55.4484 55.056 54.969 55.056 54.3887Z" fill="#C45827"/>
<path d="M68.4409 68.0385C67.8611 68.0385 67.3821 68.5178 67.3821 69.0982C67.3821 69.6785 67.8611 70.1579 68.4409 70.1579C69.0208 70.1579 69.4997 69.6785 69.4997 69.0982C69.4745 68.5178 69.0208 68.0385 68.4409 68.0385Z" fill="white"/>
<path d="M58.911 63.4215C58.3312 63.4215 57.8522 63.9009 57.8522 64.4812C57.8522 65.0615 58.3312 65.5409 58.911 65.5409C59.4908 65.5409 59.9698 65.0615 59.9698 64.4812C59.9698 63.9009 59.4908 63.4215 58.911 63.4215Z" fill="white"/>
<path d="M57.1493 54.3887C57.1493 53.8084 56.6703 53.329 56.0905 53.329C55.5106 53.329 55.0316 53.8084 55.0316 54.3887C55.0316 54.969 55.5106 55.4484 56.0905 55.4484C56.6703 55.4484 57.1493 54.969 57.1493 54.3887Z" fill="white"/>
<path d="M76.7612 62.5884C76.2318 62.8155 76.0049 63.4463 76.2318 63.9761C76.4587 64.506 77.0889 64.733 77.6183 64.506C78.1478 64.2789 78.3747 63.6481 78.1478 63.1183C77.9209 62.5884 77.2906 62.3613 76.7612 62.5884Z" fill="white"/>
<path d="M79.5592 52.5719C79.0298 52.799 78.8029 53.4298 79.0298 53.9596C79.2567 54.4895 79.887 54.7166 80.4164 54.4895C80.9458 54.2624 81.1727 53.6316 80.9458 53.1018C80.7189 52.5719 80.0886 52.3449 79.5592 52.5719Z" fill="white"/>
<path d="M73.2829 44.8773C72.7535 44.6502 72.1233 44.9277 71.9216 45.4576C71.6947 45.9874 71.972 46.6182 72.5014 46.8201C73.0308 47.0471 73.6611 46.7696 73.8628 46.2397C74.0645 45.7099 73.8124 45.1044 73.2829 44.8773Z" fill="white"/>
<path d="M61.8878 45.1792C61.3584 45.4063 61.1315 46.037 61.3584 46.5669C61.5853 47.0967 62.2155 47.3238 62.7449 47.0967C63.2743 46.8697 63.5012 46.2389 63.2743 45.709C63.0475 45.1792 62.4172 44.9269 61.8878 45.1792Z" fill="white"/>
<path d="M59.8958 51.9674C60.5223 51.9674 61.0302 51.4591 61.0302 50.832C61.0302 50.205 60.5223 49.6967 59.8958 49.6967C59.2692 49.6967 58.7613 50.205 58.7613 50.832C58.7613 51.4591 59.2692 51.9674 59.8958 51.9674Z" fill="#F5AE15"/>
<path d="M75.754 51.2859C76.3805 51.2859 76.8884 50.7776 76.8884 50.1505C76.8884 49.5235 76.3805 49.0151 75.754 49.0151C75.1274 49.0151 74.6195 49.5235 74.6195 50.1505C74.6195 50.7776 75.1274 51.2859 75.754 51.2859Z" fill="#F5AE15"/>
<path d="M67.6873 47.6023C68.3138 47.6023 68.8217 47.094 68.8217 46.4669C68.8217 45.8399 68.3138 45.3315 67.6873 45.3315C67.0607 45.3315 66.5528 45.8399 66.5528 46.4669C66.5528 47.094 67.0607 47.6023 67.6873 47.6023Z" fill="#F5AE15"/>
<path d="M72.4255 67.0043C73.0521 67.0043 73.56 66.496 73.56 65.8689C73.56 65.2419 73.0521 64.7335 72.4255 64.7335C71.799 64.7335 71.2911 65.2419 71.2911 65.8689C71.2911 66.496 71.799 67.0043 72.4255 67.0043Z" fill="#F5AE15"/>
<path d="M63.8559 67.4346C64.4824 67.4346 64.9904 66.9263 64.9904 66.2992C64.9904 65.6722 64.4824 65.1638 63.8559 65.1638C63.2294 65.1638 62.7214 65.6722 62.7214 66.2992C62.7214 66.9263 63.2294 67.4346 63.8559 67.4346Z" fill="#F5AE15"/>
<path d="M77.8721 59.8388C78.4986 59.8388 79.0065 59.3304 79.0065 58.7034C79.0065 58.0763 78.4986 57.568 77.8721 57.568C77.2455 57.568 76.7376 58.0763 76.7376 58.7034C76.7376 59.3304 77.2455 59.8388 77.8721 59.8388Z" fill="#F5AE15"/>
<path d="M58.1824 60.7222C58.809 60.7222 59.3169 60.2139 59.3169 59.5868C59.3169 58.9597 58.809 58.4514 58.1824 58.4514C57.5559 58.4514 57.048 58.9597 57.048 59.5868C57.048 60.2139 57.5559 60.7222 58.1824 60.7222Z" fill="#F5AE15"/>
<path d="M68.2681 49.368C63.9572 49.1914 60.3017 52.5219 60.1252 56.8112C59.9487 61.1004 63.3269 64.7337 67.6379 64.8851C71.9741 65.0617 75.6043 61.706 75.7808 57.4167C75.9573 53.1527 72.6043 49.5194 68.2681 49.368ZM74.5707 57.4419C74.4195 61.05 71.3438 63.8758 67.7135 63.7244C64.058 63.5731 61.2345 60.5201 61.3857 56.9121C61.537 53.3041 64.6126 50.4782 68.2429 50.6296C71.8732 50.781 74.6968 53.8339 74.5707 57.4419Z" fill="#F89633"/>
<path d="M68.2184 50.63C64.5629 50.4786 61.5125 53.3044 61.3612 56.9125C61.21 60.5205 64.0587 63.5734 67.689 63.7248C71.3445 63.8762 74.395 61.0503 74.5462 57.4423C74.6975 53.8343 71.8739 50.7813 68.2184 50.63ZM67.7899 61.0503C65.5966 60.9746 63.9075 59.1328 63.9831 56.9629C64.0587 54.7931 65.9243 53.1026 68.0924 53.2035C70.2605 53.3044 71.9748 55.1211 71.8991 57.2909C71.8235 59.4608 69.9832 61.1513 67.7899 61.0503Z" fill="#F5AE15"/>
<path d="M67.9675 61.0754C70.1534 61.0754 71.9255 59.3132 71.9255 57.1394C71.9255 54.9656 70.1534 53.2034 67.9675 53.2034C65.7815 53.2034 64.0095 54.9656 64.0095 57.1394C64.0095 59.3132 65.7815 61.0754 67.9675 61.0754Z" fill="white"/>
<path d="M45.3778 51.9921C45.3274 52.0426 45.3022 52.0678 45.2518 52.1183C45.2013 52.1687 45.1761 52.2192 45.1509 52.2949C45.0501 52.4968 45.0249 52.7238 45.1005 52.9761C45.3274 53.8088 46.9156 53.8088 48.3526 53.1528C47.3694 52.0174 46.0837 51.3866 45.3778 51.9921Z" fill="#C45827"/>
<path d="M76.2841 38.645C77.6202 37.9133 78.553 36.7527 78.0992 35.9201C78.0488 35.8444 77.9984 35.7687 77.948 35.7182C77.7463 35.4911 77.5194 35.4154 77.2673 35.4407C77.1665 35.4407 77.0656 35.4659 76.9648 35.5164C76.2841 35.8444 76.0068 37.2573 76.2841 38.645Z" fill="#40BC99"/>
<path d="M89.999 51.4875C90.0746 51.21 90.0242 50.9829 89.8729 50.7811C89.8477 50.7306 89.7973 50.6801 89.7469 50.6044C89.6965 50.554 89.6461 50.5287 89.5956 50.5035C88.9654 50.1251 87.8057 50.7558 86.9233 51.7903C88.3099 52.4463 89.7469 52.4715 89.999 51.4875Z" fill="#0763A4"/>
<path d="M86.3433 71.395C86.4441 71.3697 86.5197 71.3445 86.6206 71.294C86.7214 71.2436 86.797 71.1931 86.8727 71.1174C87.0491 70.966 87.1248 70.7642 87.15 70.5623C87.15 70.5371 87.15 70.5119 87.15 70.5119C87.1752 69.7045 85.7634 68.9728 84.1752 68.8971C84.5533 70.3605 85.4609 71.5716 86.3433 71.395Z" fill="#8B8A33"/>
<path d="M68.1176 79.3175C68.1428 79.3428 68.168 79.3428 68.1932 79.368C68.2185 79.368 68.2437 79.3932 68.2689 79.3932C68.2941 79.3932 68.3193 79.4185 68.3193 79.4185C68.3697 79.4185 68.3949 79.4437 68.4453 79.4437C68.4958 79.4437 68.5714 79.4437 68.6218 79.4437C68.647 79.4437 68.647 79.4437 68.6722 79.4437C68.6975 79.4437 68.7227 79.4437 68.7227 79.4437C68.7479 79.4437 68.7479 79.4437 68.7731 79.4437C68.7983 79.4437 68.8235 79.4185 68.8487 79.4185H68.8739C68.9243 79.3932 68.9748 79.368 69.0252 79.3428C69.0756 79.3175 69.1008 79.2923 69.126 79.2671C69.7059 78.7625 69.3529 77.4505 68.4706 76.3151C67.6638 77.4757 67.3109 78.8129 68.1176 79.3175Z" fill="#A8503A"/>
<path d="M50.2688 70.9656C50.2688 70.9656 50.2688 70.9909 50.2688 70.9656C50.294 71.218 50.3697 71.4198 50.5461 71.5964C50.5966 71.6469 50.6722 71.6973 50.7478 71.7478C50.7478 71.7478 50.773 71.7478 50.773 71.773C50.8487 71.7983 50.8991 71.8235 50.9747 71.8487C51.731 71.9749 52.689 70.8143 53.1176 69.3761C51.5798 69.4013 50.2184 70.0069 50.2688 70.9404C50.2688 70.9404 50.2688 70.9404 50.2688 70.9656C50.2688 70.9656 50.2436 70.9404 50.2688 70.9656Z" fill="#7B377C"/>
<path d="M59.4205 39.1245C59.7482 37.6611 59.4961 36.2734 58.5885 36.122C58.5381 36.122 58.4877 36.122 58.4373 36.0968H58.4121H58.3868C58.3616 36.0968 58.3112 36.0968 58.286 36.0968C58.2104 36.0968 58.1347 36.122 58.0843 36.1473C58.0591 36.1473 58.0087 36.1725 57.9835 36.1977C57.9583 36.1977 57.9583 36.223 57.9331 36.223C57.9331 36.223 57.9331 36.223 57.9078 36.223C57.8826 36.223 57.8826 36.2482 57.8574 36.2482C57.8574 36.2482 57.8574 36.2482 57.8322 36.2734C57.807 36.2734 57.807 36.2986 57.7818 36.2986C57.7314 36.3491 57.681 36.3996 57.6305 36.45C57.5801 36.5005 57.5549 36.551 57.5297 36.6014C57.2776 37.3583 58.1599 38.4433 59.4205 39.1245Z" fill="#1F4375"/>
</svg>
