<svg width="30" height="30" viewBox="0 0 30 30" fill="none" xmlns="http://www.w3.org/2000/svg">
<path fill-rule="evenodd" clip-rule="evenodd" d="M14.8267 5.3958C14.8267 5.0092 15.1401 4.6958 15.5267 4.6958C15.9133 4.6958 16.2267 5.0092 16.2267 5.3958V19.4931L20.3441 15.514C20.6221 15.2453 21.0652 15.2529 21.3339 15.5309C21.6026 15.8089 21.595 16.252 21.317 16.5207L16.0249 21.6351C15.8979 21.7637 15.7216 21.8434 15.5267 21.8434C15.4655 21.8434 15.4062 21.8355 15.3496 21.8208C15.2365 21.7914 15.1294 21.7333 15.0396 21.6464L9.74205 16.5204C9.46422 16.2515 9.45693 15.8084 9.72576 15.5306C9.99459 15.2527 10.4377 15.2454 10.7156 15.5143L14.8267 19.4923V5.3958ZM24.7362 20.4434C24.3496 20.4434 24.0362 20.7568 24.0362 21.1434V24.4875H6.96396V21.1434C6.96396 20.7568 6.65056 20.4434 6.26396 20.4434C5.87737 20.4434 5.56396 20.7568 5.56396 21.1434V25.1875C5.56396 25.5741 5.87737 25.8875 6.26396 25.8875H24.7362C25.1228 25.8875 25.4362 25.5741 25.4362 25.1875V21.1434C25.4362 20.7568 25.1228 20.4434 24.7362 20.4434Z" fill="#1F4274"/>
</svg>
