<svg width="14" height="15" viewBox="0 0 14 15" fill="none" xmlns="http://www.w3.org/2000/svg">
<path fill-rule="evenodd" clip-rule="evenodd" d="M6.8846 0.597282C6.8846 0.339549 7.09354 0.130615 7.35127 0.130615C7.609 0.130615 7.81794 0.339549 7.81794 0.597282V9.99551L10.5629 7.34273C10.7482 7.16362 11.0437 7.16867 11.2228 7.354C11.4019 7.53933 11.3968 7.83476 11.2115 8.01387L7.68343 11.4235C7.59882 11.5092 7.48125 11.5623 7.35127 11.5623C7.33516 11.5623 7.31924 11.5615 7.30356 11.5599C7.28039 11.5576 7.25772 11.5535 7.23568 11.5479C7.1594 11.5285 7.08705 11.4895 7.02657 11.431L3.49486 8.01367C3.30964 7.83445 3.30478 7.53901 3.484 7.35379C3.66322 7.16857 3.95866 7.16371 4.14388 7.34293L6.8846 9.99492V0.597282ZM13.491 10.629C13.2332 10.629 13.0243 10.8379 13.0243 11.0957V13.3251H1.64281V11.0957C1.64281 10.8379 1.43387 10.629 1.17614 10.629C0.918406 10.629 0.709473 10.8379 0.709473 11.0957V13.7917C0.709473 14.0495 0.918406 14.2584 1.17614 14.2584H13.491C13.7487 14.2584 13.9576 14.0495 13.9576 13.7917V11.0957C13.9576 10.8379 13.7487 10.629 13.491 10.629Z" fill="#1F4274"/>
</svg>
