<svg width="90" height="90" viewBox="0 0 90 90" fill="none" xmlns="http://www.w3.org/2000/svg">
<g clip-path="url(#clip0_5850_6330)">
<path d="M71.0542 -4.02292C92.8705 16.092 94.3632 50.0001 74.4989 71.4943C54.6346 93.1035 20.762 94.2529 -1.05432 74.0231C-22.8706 53.9081 -24.3633 20.0001 -4.499 -1.49419C15.3653 -23.1034 49.238 -24.2528 71.0542 -4.02292Z" fill="#60B1E3"/>
<path d="M35.5742 90.0001C22.14 90.0001 8.59094 85.0576 -2.08756 75.1725C-12.8809 65.1725 -19.3109 51.4944 -19.9999 36.8967C-20.6888 22.184 -15.6366 8.16104 -5.64706 -2.52862C4.22768 -13.3332 17.7767 -19.4252 32.474 -19.9999C47.1713 -20.4597 61.1797 -15.2872 72.0878 -5.17229C94.4782 15.5174 96.0857 50.4599 75.6473 72.5289C64.9688 84.138 50.3864 90.0001 35.5742 90.0001ZM34.426 -16.8964C33.8519 -16.8964 33.2778 -16.8964 32.5889 -16.8964C18.8101 -16.4367 5.95002 -10.5746 -3.35061 -0.45965C-12.6512 9.65529 -17.4738 22.8737 -16.8997 36.7817C-16.2107 50.6898 -10.24 63.4484 -0.0207558 72.9886C10.0836 82.299 22.9438 86.8967 35.5742 86.8967C49.4678 86.8967 63.2465 81.3794 73.3509 70.4599C92.6411 49.5403 91.1484 16.6668 70.021 -2.87344C60.1463 -11.9539 47.6306 -16.8964 34.426 -16.8964Z" fill="white"/>
<path d="M8.70564 9.08045C-5.762 23.5632 -5.87682 46.8965 8.47599 61.1494C22.714 75.5172 46.023 75.4023 60.4906 61.0345C74.9582 46.5517 75.0731 23.2184 60.7202 8.96551C46.3674 -5.4023 23.0585 -5.28736 8.70564 9.08045Z" fill="#AADDF9"/>
<path d="M17.3173 17.5862C7.55742 27.3563 7.55742 42.9885 17.2025 52.6437C26.8476 62.2989 42.4635 62.1839 52.2234 52.5287C61.9833 42.7586 61.9833 27.1264 52.3382 17.4713C42.6931 7.8161 26.9624 7.93105 17.3173 17.5862ZM50.2714 49.4253C42.2338 58.1609 28.7996 58.7356 20.1879 50.8046C11.5762 42.7586 11.0021 29.3104 19.0397 20.5747C27.0772 11.8391 40.5115 11.2644 49.1232 19.1954C57.7349 27.1264 58.1942 40.6897 50.2714 49.4253Z" fill="#F6B100"/>
<path d="M19.3841 19.8851C10.8872 28.3908 10.8872 42.069 19.2693 50.4598C27.6513 58.8506 41.3152 58.8506 49.8121 50.3448C58.309 41.8391 58.309 28.1609 49.9269 19.7701C41.5449 11.3793 27.881 11.4942 19.3841 19.8851Z" fill="white"/>
<path d="M26.6179 27.0116C22.1398 31.4943 22.1398 38.7357 26.5031 43.2185C30.9812 47.7012 38.215 47.5863 42.6931 43.1035C47.1711 38.6208 47.1712 31.3794 42.8079 26.8966C38.3298 22.5288 31.096 22.5288 26.6179 27.0116Z" fill="#60B1E3"/>
<path d="M24.5511 24.9426C18.9248 30.5748 18.9248 39.6552 24.4363 45.2874C30.0626 50.9196 39.1336 50.8047 44.7599 45.1725C50.3862 39.5403 50.3862 30.4598 44.8747 24.8277C39.2484 19.3104 30.1774 19.3104 24.5511 24.9426ZM42.3486 42.184C38.3298 46.5518 31.6701 46.7817 27.4217 42.8736C23.1733 38.9656 22.9436 32.184 26.8476 27.9311C30.8664 23.5633 37.5261 23.3334 41.7745 27.2414C46.1378 31.1495 46.3674 37.8162 42.3486 42.184Z" fill="#AADDF9"/>
<path d="M70.8246 68.2759C70.2505 65.8621 69.6764 63.4483 69.1023 61.0346C68.4133 61.7242 67.7244 62.4139 67.0355 63.1035C69.4467 63.4484 71.858 63.7932 74.2693 64.138C76.4509 64.4828 77.3695 61.1495 75.1878 60.8047C72.7766 60.4598 70.3653 60.115 67.954 59.7702C66.691 59.5403 65.5428 60.4598 65.8872 61.8392C66.4613 64.2529 67.0355 66.6667 67.6096 69.0805C68.0689 71.2644 71.2839 70.3449 70.8246 68.2759Z" fill="#AADDF9"/>
<path d="M80.929 52.5288C79.4363 50.4598 78.0585 48.3908 76.5658 46.4368C76.2213 47.2414 75.8768 48.161 75.5324 48.9656C77.9436 48.3908 80.2401 47.9311 82.6514 47.3564C84.833 46.8966 83.9144 43.5633 81.7328 44.023C79.3215 44.5977 77.0251 45.0575 74.6138 45.6322C73.5804 45.8621 73.0063 47.2414 73.5804 48.161C75.0731 50.2299 76.4509 52.2989 77.9436 54.2529C79.2067 56.092 82.1921 54.3679 80.929 52.5288Z" fill="#AADDF9"/>
<path d="M83.7996 31.6092C81.6179 30.2299 79.5511 28.8506 77.3695 27.5862V30.5747C79.3215 29.1954 81.3883 27.8161 83.3403 26.4368C85.1774 25.1724 83.4551 22.1839 81.6179 23.4483C79.666 24.8276 77.5991 26.2069 75.6472 27.5862C74.6138 28.2759 74.4989 29.7701 75.6472 30.5747C77.8288 31.9541 79.8956 33.3334 82.0772 34.5977C84.0292 35.7472 85.7515 32.7587 83.7996 31.6092Z" fill="#AADDF9"/>
<path d="M77.4844 11.2645C74.9583 10.9196 72.4322 10.4599 70.0209 10.115C70.3654 10.9196 70.7098 11.8392 71.0543 12.6438C72.3173 10.5748 73.5804 8.50584 74.7286 6.43687C75.8768 4.59779 72.8915 2.75871 71.7432 4.71274C70.4802 6.7817 69.2171 8.85067 68.0689 10.9196C67.4948 11.8392 67.9541 13.2185 69.1023 13.4484C71.6284 13.7932 74.1545 14.253 76.5658 14.5978C78.7474 14.8277 79.666 11.4943 77.4844 11.2645Z" fill="#AADDF9"/>
<path d="M62.0981 -5.97696C59.6868 -5.17236 57.3904 -4.25282 54.9791 -3.44822C55.6681 -2.87351 56.4718 -2.2988 57.1607 -1.83903C57.2756 -4.25282 57.2756 -6.55167 57.3904 -8.96546C57.5052 -11.1494 54.0605 -11.1494 53.9457 -8.96546C53.8309 -6.55167 53.8309 -4.25282 53.7161 -1.83903C53.7161 -0.804543 54.8643 0.22994 55.8977 -0.22983C58.309 -1.03443 60.6054 -1.95397 63.0167 -2.75857C65.0835 -3.33328 64.1649 -6.66661 62.0981 -5.97696Z" fill="#AADDF9"/>
<path d="M-1.39875 0.574776C-0.709818 2.98857 -0.135707 5.40236 0.553228 7.81616C1.12734 7.1265 1.70145 6.3219 2.16074 5.63225C-0.25053 5.28742 -2.6618 5.05754 -5.07308 4.71271C-7.2547 4.48282 -7.2547 7.9311 -5.07308 8.16098C-2.6618 8.50581 -0.25053 8.73569 2.16074 9.08052C3.30897 9.19547 4.11273 7.9311 3.76826 6.89662C3.07933 4.48282 2.50521 2.06903 1.81628 -0.344763C1.35699 -2.52867 -1.97287 -1.60913 -1.39875 0.574776Z" fill="#AADDF9"/>
<path d="M-5.07308 63.5633C-2.54699 63.1035 -0.135713 62.6438 2.39038 62.069C1.70145 61.3794 1.01251 60.6897 0.323578 60.0001C-0.135712 62.2989 -0.595003 64.7127 -1.05429 67.0116C-1.51358 69.1955 1.81627 70.115 2.27556 67.9311C2.73485 65.6323 3.19414 63.2185 3.65343 60.9196C3.88308 59.5403 2.84967 58.5058 1.58663 58.8506C-0.939472 59.3104 -3.35074 59.7702 -5.87684 60.3449C-8.05847 60.6897 -7.13989 64.0231 -5.07308 63.5633Z" fill="#AADDF9"/>
<path d="M10.3132 76.4369C12.4948 75.0575 14.5616 73.6782 16.7432 72.4139C15.9395 72.069 15.0209 71.7242 14.2171 71.3794C14.6764 73.6782 15.1357 76.092 15.595 78.3909C16.0543 80.5748 19.3841 79.6553 18.9249 77.4713C18.4656 75.1725 18.0063 72.7587 17.547 70.4598C17.3173 69.4254 15.9395 68.8506 15.0209 69.4254C12.8393 70.8047 10.7725 72.184 8.59082 73.4484C6.75366 74.5978 8.476 77.5863 10.3132 76.4369Z" fill="#AADDF9"/>
<path d="M31.4405 82.8736C32.9332 80.9196 34.4259 78.8506 35.9186 76.8966H32.9332C34.1962 78.9655 35.4593 80.9196 36.8372 82.9885C37.9854 84.8276 40.9708 83.1035 39.8225 81.2644C38.5595 79.1954 37.2965 77.2414 35.9186 75.1724C35.1148 74.023 33.737 74.138 32.9332 75.1724C31.4405 77.1265 29.9478 79.1954 28.4551 81.1494C27.0773 82.8736 30.0626 84.5977 31.4405 82.8736Z" fill="#AADDF9"/>
<path d="M52.1086 80.6897C52.7975 78.2759 53.3716 75.8621 54.0605 73.4483C53.2568 73.7931 52.3382 74.138 51.5345 74.4828C53.4864 75.8621 55.4384 77.2414 57.3904 78.7357C59.2276 80 60.9499 77.0115 59.1127 75.7472C57.1608 74.3678 55.2088 72.9885 53.2568 71.4943C52.3382 70.8046 50.9603 71.4943 50.7307 72.5288C50.0418 74.9426 49.4677 77.3563 48.7787 79.7701C48.2046 81.8391 51.5345 82.7586 52.1086 80.6897Z" fill="#AADDF9"/>
<path d="M58.8831 57.8161C58.5386 56.0919 58.0793 54.4827 57.7349 52.7586C57.0459 53.4483 56.357 54.1379 55.6681 54.8276C57.2756 55.0575 58.8831 55.2873 60.3758 55.5172C61.2944 55.6322 62.2129 55.2873 62.4426 54.3678C62.6722 53.5632 62.2129 52.4138 61.2944 52.2988C59.6869 52.069 58.0793 51.8391 56.5866 51.6092C55.3236 51.3793 54.1754 52.2988 54.5198 53.6781C54.8643 55.4023 55.3236 57.0115 55.6681 58.7356C56.0125 60.9195 59.3424 60 58.8831 57.8161Z" fill="white"/>
<path d="M65.428 46.8966C64.5094 45.5172 63.5908 44.023 62.5574 42.6437C62.2129 43.4483 61.8685 44.3678 61.524 45.1724C63.1315 44.8276 64.6242 44.4828 66.2317 44.023C68.4134 43.5632 67.4948 40.2299 65.3131 40.6897C63.7056 41.0345 62.2129 41.3793 60.6054 41.8391C59.572 42.069 58.9979 43.4483 59.572 44.3678C60.4906 45.7471 61.4092 47.2414 62.4426 48.6207C63.7056 50.4598 66.691 48.7356 65.428 46.8966Z" fill="white"/>
<path d="M67.1504 32.1839C65.7725 31.2644 64.3946 30.3449 62.9019 29.4253V32.4138C64.165 31.4943 65.5428 30.4598 66.8059 29.5403C67.6096 28.9655 67.9541 28.046 67.38 27.2414C66.9207 26.5517 65.7725 26.092 65.0835 26.6667C63.8205 27.5862 62.4426 28.6207 61.1796 29.5403C60.1462 30.3449 60.0314 31.7242 61.1796 32.5288C62.5574 33.4483 63.9353 34.3678 65.428 35.2874C67.2652 36.4368 68.9875 33.4483 67.1504 32.1839Z" fill="white"/>
<path d="M62.7871 18.046C61.1796 17.8161 59.4572 17.4713 57.8497 17.2414C58.1942 18.046 58.5387 18.9656 58.8831 19.7702C59.6869 18.3909 60.4906 16.8966 61.2944 15.5173C62.4426 13.5633 59.4572 11.8391 58.309 13.7932C57.5052 15.1725 56.7015 16.6667 55.8977 18.046C55.4384 18.9656 55.7829 20.3449 56.9311 20.5748C58.5387 20.8047 60.261 21.1495 61.8685 21.3794C62.7871 21.4943 63.7057 21.1495 63.9353 20.2299C64.2798 19.3104 63.8205 18.161 62.7871 18.046Z" fill="white"/>
<path d="M52.453 6.20697C50.8455 6.78168 49.3528 7.35639 47.7453 7.9311C48.4342 8.50582 49.238 9.08053 49.9269 9.5403C49.9269 7.93111 50.0418 6.20697 50.0418 4.59777C50.1566 2.41386 46.7119 2.41386 46.5971 4.59777C46.5971 6.20697 46.4823 7.93111 46.4823 9.5403C46.4823 10.5748 47.6305 11.6093 48.6639 11.1495C50.2714 10.5748 51.7641 10.0001 53.3716 9.42536C54.2902 9.08053 54.8643 8.27593 54.5198 7.35639C54.2902 6.55179 53.2568 5.86214 52.453 6.20697Z" fill="white"/>
<path d="M40.167 1.95405C38.904 3.10348 37.6409 4.2529 36.4927 5.40233C37.4113 5.63221 38.4447 5.8621 39.3633 6.20692C38.7892 4.71267 38.215 3.10348 37.6409 1.60922C36.952 -0.459743 33.6221 0.459799 34.3111 2.52876C34.8852 4.02302 35.4593 5.63221 36.0334 7.12647C36.4927 8.39083 37.8706 8.8506 38.904 7.93106C40.167 6.78164 41.4301 5.63221 42.5783 4.48279C44.1858 2.87359 41.7745 0.459799 40.167 1.95405Z" fill="white"/>
<path d="M22.2547 3.56325C22.0251 5.28739 21.7954 7.01153 21.6806 8.73567C22.4843 8.2759 23.4029 7.70118 24.2067 7.24141C22.8288 6.43682 21.4509 5.63222 19.9582 4.82762C18.0063 3.67819 16.2839 6.6667 18.2359 7.81613C19.6138 8.62072 20.9916 9.42532 22.4843 10.2299C23.7474 10.9196 24.8956 10 25.0104 8.73567C25.2401 7.01153 25.4697 5.28739 25.6994 3.56325C25.8142 2.64371 24.7808 1.83911 23.977 1.83911C22.9436 1.83911 22.3695 2.64371 22.2547 3.56325Z" fill="white"/>
<path d="M10.0835 11.3793C10.5428 12.9885 10.8872 14.7127 11.3465 16.3219C11.9206 15.6322 12.4948 14.8276 12.954 14.138C11.3465 13.9081 9.73901 13.6782 8.13149 13.5633C7.21291 13.4483 6.40916 14.4828 6.40916 15.2874C6.40916 16.3219 7.21291 16.8966 8.13149 17.0115C9.73901 17.2414 11.3465 17.4713 12.954 17.5862C14.1023 17.7012 14.906 16.3219 14.5616 15.4023C14.1023 13.7931 13.7578 12.069 13.2985 10.4598C12.8392 8.27589 9.50937 9.19543 10.0835 11.3793Z" fill="white"/>
<path d="M2.62001 25.0576C3.88306 26.207 5.03128 27.4713 6.29433 28.6208C6.40915 27.7012 6.52398 26.7817 6.6388 25.9771C5.14611 26.6667 3.76823 27.3564 2.27554 28.0461C0.32356 28.9656 2.0459 31.9541 3.99788 31.0346C5.49057 30.3449 6.86844 29.6553 8.36114 28.9656C9.39454 28.5058 9.39454 27.0116 8.7056 26.3219C7.44256 25.1725 6.29433 23.9081 5.03128 22.7587C3.42377 21.1495 1.0125 23.5633 2.62001 25.0576Z" fill="white"/>
<path d="M2.96447 40C4.57199 40.6897 6.06468 41.2644 7.6722 41.9541C7.44255 41.0345 7.21291 40 6.86844 39.0805C5.72021 40.2299 4.68681 41.4943 3.53859 42.6437C2.04589 44.2529 4.45717 46.6667 5.94986 45.0575C7.09809 43.9081 8.13149 42.6437 9.27971 41.4943C10.1983 40.4598 9.739 39.0805 8.47595 38.6207C6.86844 37.9311 5.37575 37.3564 3.76823 36.6667C2.96447 36.3219 1.93107 37.0115 1.70143 37.8161C1.47178 38.8506 2.04589 39.6552 2.96447 40Z" fill="white"/>
<path d="M8.47599 55.2874C10.0835 54.9425 11.8058 54.5977 13.4134 54.2529C12.7244 53.5632 12.0355 52.8736 11.3465 52.1839C11.0021 53.7931 10.7724 55.4023 10.428 57.0115C10.3131 57.931 10.6576 58.8506 11.5762 59.0805C12.38 59.3104 13.5282 58.8506 13.643 57.931C13.9875 56.3218 14.2171 54.7126 14.5616 53.1035C14.7912 51.7241 13.7578 50.6897 12.4948 51.0345C10.8873 51.3793 9.16492 51.7241 7.55741 52.069C5.37578 52.4138 6.29436 55.7471 8.47599 55.2874Z" fill="white"/>
<path d="M18.6952 64.1379C20.073 63.2184 21.4509 62.2989 22.9436 61.3793C22.1398 61.0345 21.2213 60.6897 20.4175 60.3448C20.762 61.954 20.9916 63.5632 21.3361 65.1724C21.7954 67.3563 25.0104 66.4368 24.6659 64.2529C24.3215 62.6437 24.0918 61.0345 23.7474 59.4253C23.5177 58.3908 22.1398 57.8161 21.2213 58.3908C19.8434 59.3104 18.4655 60.2299 16.9728 61.1494C15.1357 62.4138 16.858 65.2874 18.6952 64.1379Z" fill="white"/>
<path d="M32.8184 68.3908C33.8518 67.0115 34.7704 65.6322 35.8038 64.2529H32.8184C33.6221 65.6322 34.5407 67.0115 35.3445 68.5058C36.4927 70.3448 39.4781 68.6207 38.3299 66.7816C37.5261 65.4023 36.6075 64.023 35.8038 62.5288C35.1148 61.3793 33.6221 61.4943 32.8184 62.5288C31.785 63.9081 30.8664 65.2874 29.833 66.6667C29.2589 67.4713 29.7182 68.6207 30.4071 68.9655C31.3257 69.4253 32.2443 69.0805 32.8184 68.3908Z" fill="white"/>
<path d="M46.4822 66.6666C46.9415 65.0574 47.286 63.3333 47.7453 61.7241C46.9415 62.0689 46.0229 62.4138 45.2192 62.7586C46.4822 63.6781 47.8601 64.7126 49.1232 65.6322C49.8121 66.2069 51.0751 65.7471 51.4196 65.0574C51.8789 64.1379 51.5344 63.2184 50.8455 62.7586L46.9415 59.885C46.0229 59.1954 44.6451 59.885 44.4154 60.9195C43.9561 62.5287 43.6117 64.2528 43.1524 65.862C42.6931 67.931 45.9081 68.8505 46.4822 66.6666Z" fill="white"/>
</g>
<defs>
<clipPath id="clip0_5850_6330">
<rect width="110" height="110" fill="white" transform="translate(-20 -20)"/>
</clipPath>
</defs>
</svg>
