<svg width="90" height="91" viewBox="0 0 90 91" fill="none" xmlns="http://www.w3.org/2000/svg">
<path d="M88.3261 29.582C91.9316 59.0258 70.9966 85.7094 41.5712 89.1598C12.1459 92.6103 -14.6044 71.6775 -18.0936 42.2336C-21.6991 12.9047 -0.764044 -13.7788 28.545 -17.3442C57.9704 -20.7947 84.7207 0.253078 88.3261 29.582Z" fill="#D05418"/>
<path d="M35.1745 91C7.72631 91 -16.1164 70.4123 -19.6055 42.4636C-23.211 12.3296 -1.69445 -15.044 28.3124 -18.6095C42.8506 -20.3347 57.2725 -16.3092 68.9031 -7.22296C80.4174 1.86324 87.8609 14.86 89.6055 29.4669C93.211 59.6009 71.6945 86.9745 41.6876 90.5399C39.4778 90.885 37.3843 91 35.1745 91ZM35.0582 -16.3092C32.9646 -16.3092 30.8711 -16.1941 28.7776 -15.9641C0.166439 -12.5137 -20.3034 13.4798 -16.8142 42.1186C-13.325 70.7573 12.7275 91.23 41.3387 87.8946C69.9499 84.4441 90.3034 58.4507 86.9305 29.8119C85.1859 15.8951 78.2076 3.58847 67.2748 -5.15269C57.9704 -12.3986 46.6887 -16.3092 35.0582 -16.3092Z" fill="white"/>
<path d="M9.58721 -0.437105C11.6807 -2.04732 14.2394 -3.08246 16.9145 -3.31249C19.5895 -3.54252 22.2645 -2.96744 24.8233 -2.62239C27.382 -2.27735 29.9407 -1.9323 32.4994 -2.27735C35.2908 -2.62239 37.9658 -3.65753 40.5245 -4.69267C42.8506 -5.61279 45.2931 -6.76294 47.7355 -6.87796C49.829 -6.99297 51.5736 -6.07285 52.9692 -4.80768C55.0627 -2.96744 56.691 -0.782151 57.9704 1.63317C59.1334 3.93347 60.4128 6.23377 62.39 7.959C64.0183 9.33918 65.8792 10.1443 67.8564 10.9494C70.4151 11.9845 72.6249 13.2497 74.6021 15.0899C76.5793 16.8152 77.975 18.4254 78.5565 21.0707C79.138 23.8311 78.9054 26.0164 77.3934 28.4317C76.2304 30.387 74.7184 32.2272 74.1369 34.5275C73.439 37.2879 74.2532 40.0482 75.0673 42.6936C76.3467 47.1792 76.8119 52.2399 75.0673 56.6104C73.439 60.636 70.0662 62.4762 66.2281 63.9714C61.9248 65.5816 57.6215 67.0768 54.016 69.9522C51.2246 72.1375 48.8985 74.8978 46.2235 77.1981C45.1768 78.1183 43.7811 79.2684 42.3854 79.7285C41.2224 80.0735 38.8962 79.4985 37.5006 79.1534C35.1745 78.5783 32.8484 77.5432 30.6385 76.508C28.7776 75.5879 27.0331 74.5528 25.0559 74.0927C20.8689 73.0576 16.6819 72.8276 12.3785 72.9426C7.49371 72.9426 2.14364 70.5273 -0.066165 66.0417C-2.50858 61.211 0.282752 55.3453 -2.39228 50.5146C-4.25317 46.9492 -8.44018 45.1089 -10.1848 41.5434C-12.162 37.6329 -12.6272 32.6873 -9.02171 29.4668C-5.99776 26.7065 -2.62489 24.4062 -0.647694 20.6107C0.515364 18.1954 1.3295 15.8951 1.79473 13.2497C2.25995 10.4893 2.60887 7.959 4.12084 5.54368C5.40021 3.12836 7.3774 1.17311 9.58721 -0.437105C11.3318 -1.70227 9.58721 -4.80768 7.84262 -3.4275C3.07409 0.13797 -0.531389 4.62356 -1.46183 10.4893C-1.92706 13.3647 -2.39228 15.8951 -3.67164 18.5404C-4.71839 20.6107 -6.23037 22.3359 -7.97495 23.8311C-9.48693 25.2113 -11.2315 26.2464 -12.5109 27.8566C-13.9065 29.4668 -14.7207 31.5371 -15.0696 33.6074C-15.7674 38.323 -13.6739 43.2687 -10.3011 46.6041C-8.67279 48.2143 -6.69559 49.7095 -5.53253 51.6648C-4.02056 54.1951 -4.60209 57.4155 -4.60209 60.1759C-4.60209 65.6966 -2.39228 70.1822 2.25995 73.1726C4.46976 74.6678 7.14479 75.7029 9.81982 76.048C12.4949 76.393 15.1699 75.933 17.9612 76.278C20.0547 76.5081 22.1482 76.7381 24.1254 77.1981C26.5678 77.7732 28.545 79.0384 30.7548 80.0735C32.9647 81.1087 35.2908 82.0288 37.7332 82.4888C39.4778 82.8339 41.8039 83.409 43.5485 82.9489C45.1768 82.4888 46.5724 81.4537 47.8518 80.4186C49.4801 79.1534 50.992 77.7732 52.504 76.393C53.7834 75.2429 54.8301 73.8627 56.2258 72.7126C58.203 71.1023 60.5291 69.9522 62.9715 68.9171C66.9259 67.3068 71.3455 66.2717 74.7184 63.5113C78.5565 60.2909 80.0685 55.1152 80.1848 50.2846C80.1848 47.7543 79.8359 45.2239 79.2543 42.8086C78.4402 39.8182 77.0445 36.8278 78.5565 33.8374C79.7195 31.6521 81.3478 29.8119 82.162 27.5116C83.2087 24.8662 82.8598 21.8758 82.162 19.1155C81.2315 16.8152 79.6032 14.8599 77.7424 13.1347C75.6488 11.1794 73.439 9.56921 70.764 8.41906C68.6705 7.49894 66.2281 6.80885 64.4835 5.19864C62.39 3.24338 61.4595 0.368 59.8313 -2.04732C57.3889 -5.84282 53.3182 -10.0984 48.4333 -10.3284C42.7343 -10.5584 37.7332 -6.53291 32.2668 -5.7278C26.5678 -4.80768 20.8689 -7.56805 15.1699 -6.64793C12.4949 -6.18787 9.81982 -5.03771 7.72632 -3.4275C5.98173 -2.16233 7.72632 0.943077 9.58721 -0.437105Z" fill="#F18500"/>
<path d="M40.6409 5.88884C42.0365 7.61407 43.8974 8.6492 46.5724 8.30415C47.2703 8.18914 47.8518 7.95911 48.5496 7.61407C52.853 4.96872 53.6671 -4.80758 50.6431 -14.0088C42.1528 -7.91298 36.8028 0.713155 40.6409 5.88884Z" fill="#F6B100"/>
<path d="M63.2042 21.7609C62.9716 23.4861 63.4368 24.9813 64.4835 26.3615C65.0651 26.9366 65.7629 27.5116 66.577 27.9717C71.113 29.927 78.5565 24.9813 83.674 17.2753C73.9043 13.9398 64.1346 14.86 63.2042 21.7609Z" fill="#F6B100"/>
<path d="M63.5531 47.0641C62.9715 47.2941 62.5063 47.5242 62.0411 47.8692C61.9248 47.9842 61.8085 47.9842 61.6922 48.0993C61.1106 48.5593 60.7617 48.9044 60.4128 49.3644C59.715 50.1695 59.3661 51.2047 59.1335 52.5848C59.1335 52.8149 59.1335 52.9299 59.1335 53.1599C59.1335 53.2749 59.1335 53.3899 59.1335 53.505C59.1335 53.62 59.1335 53.62 59.1335 53.735C59.5987 59.1407 69.8336 62.9362 80.5337 62.2461C76.463 52.5848 69.2521 45.2239 63.5531 47.0641Z" fill="#F6B100"/>
<path d="M43.1995 66.2717C43.0832 66.2717 43.0832 66.2717 42.9669 66.1567C42.8506 66.0417 42.618 66.0417 42.3854 65.9267H42.2691C39.5941 65.1216 37.6169 65.8117 35.8723 67.4219C32.2668 71.2174 35.756 79.8435 42.618 86.8595C47.8518 78.2333 49.0148 68.9171 43.1995 66.2717Z" fill="#F6B100"/>
<path d="M16.7982 60.751C16.6819 60.2909 16.5656 59.8309 16.3329 59.3708C15.8677 58.2207 15.1699 57.4156 14.3557 56.7255C13.8905 56.3804 13.4253 56.1504 12.8438 55.9204C12.3786 55.8053 11.9133 55.6903 11.3318 55.5753C5.98174 55.2303 0.399062 63.7414 -1.22922 73.7477C9.3546 72.4825 18.1938 67.0768 16.7982 60.751Z" fill="#F6B100"/>
<path d="M14.3557 12.9046C14.4721 12.9046 14.5884 12.9046 14.7047 12.9046C14.821 12.9046 14.9373 12.9046 15.1699 12.9046C15.1699 12.9046 15.1699 12.9046 15.2862 12.9046C16.4492 12.7896 17.3797 12.4445 18.0775 11.9845C18.1938 11.9845 18.1938 11.8694 18.3101 11.8694L18.4264 11.7544C18.5428 11.6394 18.6591 11.6394 18.6591 11.5244C18.6591 11.5244 18.6591 11.5244 18.7754 11.4094C18.8917 11.2944 18.8917 11.2944 19.008 11.1794L19.1243 11.0643L19.2406 10.9493C19.8221 10.2592 20.171 9.56914 20.5199 8.64902C21.9156 3.70337 15.0536 -2.8525 5.86543 -6.41797C4.70238 3.70337 7.61002 12.9046 14.3557 12.9046Z" fill="#F6B100"/>
<path d="M4.93495 37.1729C5.05126 36.9428 5.28387 36.8278 5.40018 36.5978C5.40018 36.4828 5.51648 36.4828 5.51648 36.3677L5.63279 36.2527C5.8654 35.7927 6.09801 35.3326 6.33062 34.8726C6.79585 33.6074 6.79585 32.1122 6.09801 30.617C3.8882 25.2113 -6.81192 26.4764 -16.0001 31.9972C-8.55651 38.8981 0.747948 42.1185 4.93495 37.1729Z" fill="#F6B100"/>
<path d="M32.0342 10.6043C17.7286 11.7544 7.1448 23.946 8.30785 37.9779C9.47091 52.0098 21.9156 62.3611 36.1049 61.211C50.4105 60.0608 60.9943 47.8692 59.8313 33.8374C58.7845 19.9205 46.3398 9.56915 32.0342 10.6043Z" fill="#F18500"/>
<path d="M32.4995 15.4349C20.9852 16.355 12.3786 26.2463 13.1927 37.6328C14.1232 48.9043 24.2418 57.4154 35.756 56.4953C47.2703 55.5752 55.8769 45.6839 55.0628 34.2974C54.1323 22.9109 44.0137 14.5148 32.4995 15.4349Z" fill="#D05418"/>
<path d="M33.1973 24.4061C26.6842 24.8662 21.7993 30.5019 22.2646 36.9428C22.7298 43.3836 28.4288 48.0992 35.0582 47.6392C41.5713 47.1791 46.4561 41.5434 45.9909 35.1025C45.4094 28.5466 39.7104 23.831 33.1973 24.4061Z" fill="white"/>
<path d="M3.88819 15.435C5.74908 14.5149 7.95889 15.32 8.88933 17.1603C9.81978 19.0005 9.00564 21.1858 7.14475 22.1059C5.28386 23.026 3.07405 22.2209 2.1436 20.3807C1.21316 18.5405 2.0273 16.3552 3.88819 15.435Z" fill="white"/>
<path d="M61.4596 11.7546C61.2269 13.8249 59.3661 15.2051 57.3889 14.9751C55.2954 14.745 53.8997 12.9048 54.1323 10.9495C54.3649 8.87925 56.2258 7.49906 58.203 7.72909C60.1802 7.84411 61.6922 9.68435 61.4596 11.7546Z" fill="white"/>
<path d="M33.4299 2.89842C33.1973 4.9687 31.3364 6.34888 29.3592 6.11885C27.2657 5.88882 25.87 4.04857 26.1026 2.09332C26.3352 0.0230436 28.1961 -1.35714 30.1733 -1.12711C32.2668 -0.897077 33.6625 0.943166 33.4299 2.89842Z" fill="white"/>
<path d="M56.691 63.9714C56.4584 66.0417 54.5975 67.4219 52.6203 67.1919C50.5268 66.9618 49.1312 65.1216 49.3638 63.1663C49.5964 61.096 51.4573 59.7159 53.4345 59.9459C55.528 60.1759 56.9237 62.0162 56.691 63.9714Z" fill="white"/>
<path d="M28.6613 68.802C28.4287 70.8723 26.5678 72.2524 24.5906 72.0224C22.4971 71.7924 21.1015 69.9521 21.3341 67.9969C21.5667 65.9266 23.4276 64.5464 25.4048 64.7765C27.4983 65.0065 29.0102 66.7317 28.6613 68.802Z" fill="white"/>
<path d="M71.8107 38.6682C71.5781 40.7385 69.7172 42.1186 67.7401 41.8886C65.6466 41.6586 64.2509 39.8183 64.4835 37.8631C64.7161 35.7928 66.577 34.4126 68.5542 34.6427C70.5314 34.7577 72.0434 36.5979 71.8107 38.6682Z" fill="white"/>
<path d="M7.49369 49.1345C7.26107 51.2048 5.40018 52.585 3.42299 52.3549C1.32948 52.1249 -0.0661875 50.2847 0.166424 48.3294C0.399035 46.2591 2.25993 44.8789 4.23712 45.109C6.21432 45.339 7.7263 47.1792 7.49369 49.1345Z" fill="white"/>
<path d="M45.1768 5.54362C46.8051 2.32319 48.0844 -1.01225 49.1312 -4.57772C49.4801 -5.84288 47.5029 -6.41796 47.154 -5.15279C46.1072 -1.81735 44.9442 1.28806 43.3159 4.39347C42.7344 5.65863 44.5953 6.69377 45.1768 5.54362Z" fill="#F18500"/>
<path d="M44.9441 3.93355C44.4789 2.89841 44.13 1.86327 43.8974 0.71312C43.6648 -0.322017 42.0365 -0.322017 41.9202 0.71312V0.828134C41.6876 2.0933 43.6648 2.66838 43.8974 1.40321V1.2882H41.9202C42.1528 2.55336 42.618 3.81853 43.0833 4.96868C43.6648 6.23385 45.4094 5.19871 44.9441 3.93355Z" fill="#F18500"/>
<path d="M44.9441 5.88888C45.642 5.65885 46.2235 5.42882 46.9213 5.19879C47.5028 4.96876 48.317 4.85374 48.6659 4.39368C49.0148 4.04863 49.0148 3.58857 48.7822 3.12851C48.2007 1.97836 46.3398 3.0135 46.9213 4.16365C46.9213 3.70359 47.0376 3.35854 47.0376 2.89848C47.1539 2.78347 47.3865 2.66845 47.5028 2.66845C46.4561 3.12851 45.293 3.47356 44.2463 3.8186C43.0832 4.27866 43.5484 6.34894 44.9441 5.88888Z" fill="#F18500"/>
<path d="M66.6933 24.6363C70.6477 23.3711 74.6021 21.9909 78.5565 20.7257C79.8358 20.2657 79.2543 18.3104 77.9749 18.7705C74.0205 20.1507 70.0661 21.4158 66.1118 22.681C64.8324 23.026 65.4139 24.9813 66.6933 24.6363Z" fill="#F18500"/>
<path d="M67.3911 23.8311C67.8563 22.566 68.5542 21.5308 69.252 20.3807C69.9498 19.2305 68.089 18.1954 67.3911 19.3456C66.577 20.6107 65.8791 21.8759 65.4139 23.2561C64.8324 24.5212 66.9259 25.0963 67.3911 23.8311Z" fill="#F18500"/>
<path d="M66.3444 24.6363C67.6238 25.0964 68.9031 25.5564 70.1825 26.0165C71.4619 26.4766 72.0434 24.4063 70.764 24.0612C69.4847 23.6012 68.2053 23.1411 66.9259 22.6811C66.3444 22.451 65.7629 22.9111 65.6466 23.3712C65.414 23.9462 65.7629 24.4063 66.3444 24.6363Z" fill="#F18500"/>
<path d="M61.9248 52.47C64.0183 53.5051 66.1118 54.5402 68.089 55.8054C69.8336 56.9556 71.4619 58.1057 73.439 58.9108C74.7184 59.3709 75.2999 57.4156 74.0206 56.9556C72.0434 56.2655 70.4151 54.8853 68.6705 53.7351C66.9259 52.47 64.9487 51.5498 62.9715 50.6297C61.8085 50.0546 60.7617 51.8949 61.9248 52.47Z" fill="#F18500"/>
<path d="M61.227 51.5498C61.3433 52.93 61.5759 54.3102 61.8085 55.6903C62.0411 56.9555 64.1346 56.4954 63.7857 55.1153C63.5531 53.9651 63.3205 52.815 63.2042 51.5498C63.0879 50.9747 62.7389 50.5146 62.1574 50.5146C61.8085 50.5146 61.227 51.0897 61.227 51.5498Z" fill="#F18500"/>
<path d="M62.7389 52.1249C64.1346 51.6648 65.6466 51.3197 67.0422 51.0897C67.6238 50.9747 67.8564 50.2846 67.7401 49.8246C67.6238 49.2495 67.0422 49.0195 66.4607 49.1345C64.9487 49.3645 63.5531 49.7095 62.1574 50.1696C60.9943 50.5146 61.4596 52.5849 62.7389 52.1249Z" fill="#F18500"/>
<path d="M38.7799 68.227C38.7799 72.1375 38.8962 76.2781 40.0593 80.0736C40.6408 79.8436 41.3387 79.4985 41.9202 79.2685C41.8039 79.1535 41.8039 79.0385 41.6876 79.0385C40.8734 78.0033 39.1289 79.0384 39.8267 80.0736C39.943 80.1886 39.943 80.3036 40.0593 80.3036C40.7571 81.2237 42.2691 80.6487 41.9202 79.4985C40.8734 75.818 40.7571 72.0225 40.7571 68.227C40.8734 66.8468 38.7799 66.8468 38.7799 68.227Z" fill="#F18500"/>
<path d="M39.4778 68.917C40.5245 69.7221 41.5713 70.5272 42.5017 71.5623V70.0671C42.5017 70.0671 42.5017 70.0671 42.3854 70.1822C42.5017 70.0671 42.7344 69.9521 42.8507 69.9521H42.7344C42.1528 70.1822 41.8039 70.6422 42.0365 71.2173C42.1528 71.6774 42.8507 72.1374 43.3159 71.9074C43.5485 71.7924 43.7811 71.6774 43.8974 71.5623C44.2463 71.1023 44.3626 70.5272 43.8974 70.0671C42.8507 69.032 41.6876 67.9969 40.4082 67.1918C39.943 66.8467 39.2452 67.0768 39.0126 67.5368C38.78 68.1119 39.0126 68.687 39.4778 68.917Z" fill="#F18500"/>
<path d="M39.3615 67.3068C37.9658 67.9969 36.6865 68.917 35.5234 70.0672C34.593 70.9873 35.9886 72.4825 37.0354 71.5624C38.0821 70.5272 39.1289 69.7221 40.4082 69.147C41.5713 68.4569 40.5246 66.6167 39.3615 67.3068Z" fill="#F18500"/>
<path d="M4.93499 68.917C6.33066 67.3067 8.19156 66.1566 9.81984 64.7764C11.3318 63.5112 12.4949 61.901 13.8905 60.5208C14.821 59.4857 13.309 58.1055 12.3786 59.0256C11.0992 60.5208 9.81984 62.016 8.30786 63.2812C6.67958 64.6614 4.81869 65.8115 3.42302 67.4218C2.49257 68.4569 4.00455 69.8371 4.93499 68.917Z" fill="#F18500"/>
<path d="M12.4949 60.061C12.7275 61.3261 12.9601 62.7063 13.1927 63.9715C13.4253 65.2366 15.4025 64.7766 15.1699 63.3964C14.9373 62.1312 14.7047 60.751 14.4721 59.4859C14.2395 58.2207 12.2623 58.7958 12.4949 60.061Z" fill="#F18500"/>
<path d="M13.309 58.2207C11.6807 58.4507 10.1688 58.5657 8.54048 58.7958C7.26111 58.9108 7.26111 60.9811 8.54048 60.866C10.1688 60.636 11.6807 60.521 13.309 60.291C14.5884 60.176 14.5884 58.1057 13.309 58.2207Z" fill="#F18500"/>
<path d="M-11.4642 33.6074C-7.04453 32.6873 -2.04339 33.2624 2.49254 33.6074C2.25992 33.0323 2.02732 32.4572 1.7947 31.8822C0.864258 32.8023 0.0501156 33.7224 -0.88033 34.6425C-1.81078 35.5627 -0.2988 37.0579 0.631646 36.1377C1.56209 35.2176 2.37623 34.2975 3.30668 33.3774C4.00451 32.6873 3.42298 31.6521 2.60884 31.6521C-2.04339 31.3071 -7.16084 30.732 -11.8131 31.6521C-13.325 31.8822 -12.7435 33.8374 -11.4642 33.6074Z" fill="#F18500"/>
<path d="M2.84148 31.0771C1.56212 30.6171 0.282756 28.4318 -1.22922 28.8919C-2.50858 29.2369 -1.92705 31.1922 -0.647691 30.8471H-0.531384H-1.11291C-0.531384 31.0771 -0.0661616 31.6522 0.515368 31.9973C1.0969 32.4573 1.67843 32.8024 2.37626 33.0324C3.53932 33.4925 4.00454 31.5372 2.84148 31.0771Z" fill="#F18500"/>
<path d="M7.84261 -1.70236C10.0524 1.7481 11.5644 5.65862 13.7742 8.99406C14.2394 9.79916 15.4025 9.56913 15.6351 8.76403C16.1003 7.49886 16.4492 6.23369 16.9145 5.08354C17.3797 3.81837 15.2862 3.2433 14.9373 4.50846C14.472 5.77363 14.1231 7.0388 13.6579 8.18895C14.2394 8.07394 14.9373 8.07393 15.5188 7.95892C13.1927 4.50846 11.6807 0.712963 9.5872 -2.73749C8.88937 -3.77263 7.02847 -2.73749 7.84261 -1.70236Z" fill="#F18500"/>
<path d="M14.9372 7.49905C13.8905 7.26902 12.8437 7.03899 11.6807 6.92397C10.7502 6.80896 9.81977 6.46391 9.12194 7.03899C8.07519 7.8441 9.58716 9.33929 10.6339 8.53419L10.7502 8.41917C10.4013 8.53419 10.0524 8.6492 9.70347 8.6492C11.2154 8.87923 12.8437 9.10926 14.3557 9.45431C15.7514 9.79935 16.2166 7.84409 14.9372 7.49905Z" fill="#F18500"/>
</svg>
