<svg width="90" height="91" viewBox="0 0 90 91" fill="none" xmlns="http://www.w3.org/2000/svg">
<g clip-path="url(#clip0_6741_6922)">
<path d="M19.969 -14.9775C48.2091 -23.4832 77.8158 -7.62116 86.2422 20.5398C94.5549 48.7007 78.499 78.4708 50.2588 86.9765C22.0186 95.4823 -7.70185 79.6202 -16.0145 51.4593C-24.441 23.2984 -8.27121 -6.47174 19.969 -14.9775Z" fill="#9E9922"/>
<path d="M20.4244 -13.253C40.8075 -19.3449 63.5818 -12.3334 76.4493 5.02291C89.4307 22.3792 89.8861 46.4022 77.9296 64.4482C65.8592 82.6091 43.0849 91.3448 22.1325 85.9425C1.40788 80.77 -14.4203 62.4942 -16.3561 40.885C-18.178 19.5057 -6.22152 -1.06905 12.795 -10.3794C15.3002 -11.5288 17.8054 -12.4484 20.4244 -13.253C22.588 -13.9426 21.677 -17.2759 19.5135 -16.5863C-2.34988 -10.0346 -18.4058 9.73555 -19.8861 32.839C-21.3664 56.0574 -7.58798 77.8965 13.4783 86.7471C34.7723 95.7126 60.2795 89.9654 75.7661 72.7241C91.1387 55.7126 94.441 30.3103 83.7371 9.85049C73.147 -10.2645 50.2588 -21.6438 27.8261 -18.5403C24.9793 -18.1955 22.2464 -17.5058 19.3996 -16.7012C17.3499 -16.0116 18.2609 -12.6782 20.4244 -13.253Z" fill="white"/>
<path d="M73.147 66.6322L51.853 52.9541L64.0373 75.138L46.8427 56.6322L53.2195 81.2299L41.0352 59.046L41.1491 84.4483L34.8862 59.7357L28.7371 84.4483V59.046L16.6667 81.3449L22.9296 56.7472L5.84888 75.3679L17.9193 53.069L-3.26085 66.7472L13.9338 48.2414L-9.97927 56.1725L11.3147 42.6093L-13.8509 44.2185L10.0621 36.4024L-14.648 31.8047L10.5176 30.1955L-12.3706 19.3909L12.3396 24.2184L-7.13248 8.01155L15.7557 18.8162L0.838531 -1.64362L20.1967 14.5633L10.8592 -8.99994L25.6625 11.5748L22.3603 -13.7126L31.6977 9.96558L34.7723 -15.3218L37.8468 9.96558L47.0704 -13.7126L43.882 11.4598L58.5715 -9.11488L49.3479 14.4483L68.706 -1.75856L53.9027 18.8162L76.677 7.89661L57.205 24.1035L81.9151 19.161L59.1408 30.0805L84.3064 31.4598L59.5963 36.2874L83.5093 43.9886L58.4576 42.4943L79.7516 55.9426L55.8385 48.1265L73.147 66.6322Z" fill="#928C21"/>
<path d="M13.5921 40.6552C16.5528 52.4943 28.3954 59.6208 40.0103 56.6323C51.6252 53.6438 58.5714 41.5748 55.6108 29.8506C52.6501 18.0116 40.8074 10.8851 29.1925 13.8736C17.5776 16.7472 10.5176 28.8162 13.5921 40.6552ZM52.4223 29.8506C55.383 39.9656 49.8033 50.4254 39.8965 53.4139C29.9896 56.4024 19.6273 50.6552 16.5528 40.6552C13.5921 30.5403 19.1718 20.0805 29.0787 17.092C38.9855 13.9886 49.4617 19.7357 52.4223 29.8506Z" fill="white"/>
<path d="M15.8696 40.3105C18.4886 50.7703 29.0787 57.2071 39.441 54.5634C49.8033 51.9197 55.9524 41.2301 53.3334 30.6553C50.6004 20.0806 40.1243 13.7588 29.7619 16.4025C19.3996 19.0462 13.2505 29.7358 15.8696 40.3105Z" fill="#F6B100"/>
<path d="M8.24016 33.7588C9.49275 32.2646 10.0621 30.5404 9.49275 28.3565C9.26501 27.7818 8.92339 27.322 8.58178 26.7473C5.62112 23.414 -2.69151 24.2186 -10.0932 28.1266C-3.60249 34.5634 4.4824 37.8968 8.24016 33.7588Z" fill="#D5CD4F"/>
<path d="M18.6025 12.3795C20.0828 12.2645 21.3354 11.8048 22.3603 10.5404C22.8157 9.96567 23.1574 9.27601 23.3851 8.47142C24.4099 4.33348 19.058 -1.18376 11.7702 -4.51709C10.2899 4.44843 12.5673 12.6093 18.6025 12.3795Z" fill="#D5CD4F"/>
<path d="M40.2381 8.24137C40.4658 8.70114 40.8074 9.04597 41.149 9.3908C41.2629 9.50574 41.3768 9.62068 41.3768 9.62068C41.8323 9.96551 42.1739 10.3103 42.6294 10.5402C43.4265 11 44.3374 11.2299 45.4762 11.1149C45.59 11.1149 45.8178 11.1149 45.9317 11.1149C46.0455 11.1149 46.1594 11.1149 46.2733 11H46.3871C50.942 9.73562 52.6501 0.540222 50.4865 -8.42529C42.971 -3.59771 37.8468 3.64367 40.2381 8.24137Z" fill="#D5CD4F"/>
<path d="M59.4824 22.7242V22.8392C59.4824 22.9541 59.3685 23.184 59.3685 23.2989V23.4139C59.0269 25.8277 59.9379 27.4369 61.5321 28.5863C65.2898 31.115 72.1221 26.8622 77.0186 19.9656C68.9337 16.9771 60.8488 17.3219 59.4824 22.7242Z" fill="#D5CD4F"/>
<path d="M58.4575 45.9424C58.4575 45.9424 58.3436 45.9424 58.4575 45.9424C58.1159 46.0574 57.7743 46.2873 57.4327 46.5172C56.5217 47.0919 55.9523 47.7815 55.4968 48.5861C55.2691 49.0459 55.1552 49.5057 55.0414 49.9654C54.9275 50.4252 54.9275 50.885 54.9275 51.2298C55.383 55.8275 63.4679 59.2758 72.236 59.2758C69.3892 50.5401 63.5817 43.7585 58.4575 45.9424Z" fill="#D5CD4F"/>
<path d="M17.8054 55.5979C17.8054 55.4829 17.8053 55.368 17.6915 55.253C17.6915 55.1381 17.6915 55.0232 17.5776 54.9082C17.5776 54.9082 17.5776 54.9082 17.5776 54.7933C17.3499 53.8737 16.8944 53.0691 16.325 52.4944L16.2111 52.3795L16.0973 52.2645C15.9834 52.1496 15.9834 52.1496 15.8695 52.0346C15.8695 52.0346 15.8695 52.0346 15.7557 52.0346C15.6418 51.9197 15.6418 51.9197 15.5279 51.8048C15.5279 51.8048 15.414 51.8048 15.414 51.6898C15.414 51.6898 15.3002 51.6898 15.3002 51.5749C14.6169 51.23 13.9337 51.0002 13.1366 50.7703C8.80949 50.3105 4.14075 57.2071 2.43268 65.368C11.3147 65.1381 18.8302 61.23 17.8054 55.5979Z" fill="#D5CD4F"/>
<path d="M40.4659 60.8849C40.2381 60.77 40.1243 60.655 39.8965 60.5401C39.7826 60.5401 39.7827 60.4251 39.6688 60.4251C39.6688 60.4251 39.5549 60.4251 39.5549 60.3102C39.0994 60.1952 38.6439 60.0803 38.3023 59.9653C37.1636 59.7355 35.911 59.9654 34.6584 60.77C30.3313 63.5286 33.0642 72.3791 39.0994 79.3906C43.7682 72.0343 45.2485 63.7585 40.4659 60.8849Z" fill="#D5CD4F"/>
<path d="M49.5756 47.5516L41.6045 42.3792L46.1594 50.77L39.6687 43.7585L42.06 53.0688L37.5052 44.678V54.2182L35.1139 44.9079L32.8364 54.3332V44.678L28.2816 53.0688L30.6729 43.7585L24.1822 50.8849L28.737 42.3792L20.6522 47.5516L27.2567 40.5401L18.147 43.6435L26.2319 38.4711L16.6666 39.0458L25.7764 36.0573L16.4389 34.3332L25.8903 33.7585L17.236 29.7355L26.5735 31.4596L19.2857 25.3677L27.8261 29.5056L22.2464 21.6895L29.5341 27.8964L26.0041 18.9309L31.6977 26.747L30.4451 17.2067L33.9751 26.0573L35.1139 16.5171L36.2526 26.0573L39.7826 17.0918L38.53 26.632L44.1097 18.9309L40.5797 27.7815L47.8675 21.6895L42.2878 29.3906L50.942 25.2527L43.5404 31.4596L52.9917 29.6205L44.3375 33.6435L53.7888 34.2182L44.4513 36.0573L53.5611 39.0458L43.9958 38.3562L52.0807 43.5286L43.0849 40.5401L49.5756 47.5516Z" fill="#FED600"/>
<path d="M31.47 36.5172C32.0393 38.5861 33.9751 39.7356 36.0248 39.2758C38.0745 38.816 39.2132 36.7471 38.7578 34.6781C38.1884 32.6091 36.2526 31.4597 34.2029 31.9195C32.1532 32.3792 30.9006 34.4482 31.47 36.5172Z" fill="white"/>
<path d="M21.9047 -6.12664L31.3561 5.82739L37.9606 -8.31055L30.9006 0.540029L21.9047 -6.12664Z" fill="white"/>
<path d="M56.6356 -1.75879L54.9275 13.4136L69.5031 8.12627L58.2298 9.39064L56.6356 -1.75879Z" fill="white"/>
<path d="M78.9545 35.5977L63.9234 36.862L72.0083 50.3103L68.4783 39.3908L78.9545 35.5977Z" fill="white"/>
<path d="M64.7205 67.3217L51.3975 59.9653L50.7143 75.5975L53.9027 64.678L64.7205 67.3217Z" fill="white"/>
<path d="M27.4845 77.4368L23.6128 62.7241L11.9979 73.0689L22.0186 67.6667L27.4845 77.4368Z" fill="white"/>
<path d="M-4.7412 54.6781L7.55694 45.8275L-6.22153 38.4712L2.31885 46.0574L-4.7412 54.6781Z" fill="white"/>
<path d="M-6.22153 18.3562L8.9234 18.1263L1.74949 4.21826L4.48241 15.2527L-6.22153 18.3562Z" fill="white"/>
</g>
<defs>
<clipPath id="clip0_6741_6922">
<rect width="110" height="110" fill="white" transform="translate(-20 -19)"/>
</clipPath>
</defs>
</svg>
