<svg width="21" height="20" viewBox="0 0 21 20" fill="none" xmlns="http://www.w3.org/2000/svg">
<path fill-rule="evenodd" clip-rule="evenodd" d="M15.7813 6.74879L10.7762 10.5431L5.77113 6.74879H15.7813ZM17.163 5.81547H4.38941C4.38541 5.81542 4.38141 5.81542 4.37741 5.81547H4.3659C4.10816 5.81547 3.89923 6.0244 3.89923 6.28213V14.7437C3.89923 15.0014 4.10816 15.2103 4.3659 15.2103H17.1864C17.4441 15.2103 17.6531 15.0014 17.6531 14.7437V6.28213C17.6531 6.0244 17.4441 5.81547 17.1864 5.81547H17.175C17.171 5.81542 17.167 5.81542 17.163 5.81547ZM16.7198 7.20857L11.0581 11.5006C10.8914 11.627 10.661 11.627 10.4943 11.5006L4.8326 7.20851V14.277H16.7198V7.20857Z" fill="white"/>
</svg>
