<svg width="22" height="15" viewBox="0 0 22 15" fill="none" xmlns="http://www.w3.org/2000/svg">
<path fill-rule="evenodd" clip-rule="evenodd" d="M18.5077 2.12306L11 7.81452L3.49236 2.12306H18.5077ZM20.5819 0.723061H1.41815C1.41325 0.72301 1.40834 0.72301 1.40344 0.723061H1.38463C0.998032 0.723061 0.684631 1.03646 0.684631 1.42306V14.1154C0.684631 14.502 0.998032 14.8154 1.38463 14.8154H20.6154C21.002 14.8154 21.3154 14.502 21.3154 14.1154V1.42306C21.3154 1.03646 21.002 0.723061 20.6154 0.723061H20.5966C20.5917 0.72301 20.5868 0.72301 20.5819 0.723061ZM19.9154 2.81269L11.4229 9.25076C11.1728 9.44032 10.8272 9.44032 10.5771 9.25076L2.08463 2.81269V13.4154H19.9154V2.81269Z" fill="#1F4274"/>
</svg>
