<svg width="22" height="22" viewBox="0 0 22 22" fill="none" xmlns="http://www.w3.org/2000/svg">
<path d="M16.5979 5.40222H12.5646C12.2811 5.40222 12.0513 5.17239 12.0513 4.88888C12.0513 4.60538 12.2811 4.37555 12.5646 4.37555H17.1113C17.3948 4.37555 17.6246 4.60538 17.6246 4.88888V9.43555C17.6246 9.71906 17.3948 9.94888 17.1113 9.94888C16.8278 9.94888 16.5979 9.71906 16.5979 9.43555V5.40222Z" fill="white"/>
<path d="M16.598 12.3607C16.598 12.0772 16.8278 11.8474 17.1113 11.8474C17.3948 11.8474 17.6246 12.0772 17.6246 12.3607V17.1111C17.6246 17.3946 17.3948 17.6244 17.1113 17.6244H4.88907C4.60556 17.6244 4.37573 17.3946 4.37573 17.1111V4.88888C4.37573 4.60538 4.60556 4.37555 4.88907 4.37555H9.64758C9.93109 4.37555 10.1609 4.60538 10.1609 4.88888C10.1609 5.17239 9.93109 5.40222 9.64758 5.40222H5.4024V16.5978H16.598V12.3607Z" fill="white"/>
<path d="M10.6095 12.1167C10.409 12.3171 10.084 12.3171 9.88351 12.1167C9.68304 11.9162 9.68304 11.5912 9.88351 11.3907L16.7483 4.5259C16.9488 4.32543 17.2738 4.32543 17.4743 4.5259C17.6748 4.72637 17.6748 5.05139 17.4743 5.25186L10.6095 12.1167Z" fill="white"/>
</svg>
