<svg width="21" height="20" viewBox="0 0 21 20" fill="none" xmlns="http://www.w3.org/2000/svg">
<path d="M11.4529 3.3373C12.1911 3.33066 12.929 3.33467 13.6672 3.33496C13.6702 4.11372 13.6704 4.89276 13.667 5.67149C13.1899 5.67064 12.7124 5.67265 12.2354 5.67064C11.9328 5.6518 11.6222 5.88111 11.5672 6.18101C11.56 6.70209 11.5646 7.22346 11.5649 7.74457C12.2646 7.74745 12.9644 7.7437 13.664 7.74632C13.6128 8.50014 13.5193 9.25053 13.4096 9.99801C12.7915 10.0038 12.1731 9.99742 11.5551 10.0012C11.5496 12.2245 11.558 14.4479 11.5508 16.6712C10.6328 16.6749 9.71418 16.6694 8.7962 16.6738C8.77881 14.4502 8.79762 12.2254 8.78665 10.0015C8.33878 9.99684 7.89065 10.0047 7.44281 9.99775C7.44453 9.25027 7.44339 8.50283 7.44365 7.75561C7.8912 7.75014 8.33907 7.75678 8.78665 7.75244C8.80025 7.02578 8.77302 6.29828 8.80083 5.57224C8.84571 4.99725 9.06485 4.41795 9.49475 4.02079C10.015 3.52545 10.7549 3.35815 11.4529 3.3373Z" fill="white"/>
</svg>
