<svg width="23" height="25" viewBox="0 0 23 25" fill="none" xmlns="http://www.w3.org/2000/svg">
<path fill-rule="evenodd" clip-rule="evenodd" d="M2.17586 6.52266H0.140747V11.792H2.17586V23.5396C2.17586 23.9314 2.49344 24.249 2.88519 24.249C3.27695 24.249 3.59452 23.9314 3.59452 23.5396V11.792H5.20741V6.52266H3.59452V1.09147C3.59452 0.69972 3.27695 0.382141 2.88519 0.382141C2.49344 0.382141 2.17586 0.69972 2.17586 1.09147V6.52266ZM12.1093 14.4267H14.0347V19.696H12.0112C12.0735 19.8016 12.1093 19.9248 12.1093 20.0563V23.5396C12.1093 23.9314 11.7918 24.249 11.4 24.249C11.0083 24.249 10.6907 23.9314 10.6907 23.5396V20.0563C10.6907 19.9248 10.7265 19.8016 10.7889 19.696H8.968V14.4267H10.6907V1.09147C10.6907 0.699721 11.0083 0.382141 11.4 0.382141C11.7918 0.382141 12.1093 0.699721 12.1093 1.09147V14.4267ZM1.55941 7.94133V10.3733H3.78875V7.94133H1.55941ZM22.4341 6.52266H20.6242V1.09147C20.6242 0.69972 20.3066 0.382141 19.9148 0.382141C19.5231 0.382141 19.2055 0.69972 19.2055 1.09147V6.52266H17.3674V11.792H19.2055V23.5396C19.2055 23.9314 19.5231 24.249 19.9148 24.249C20.3066 24.249 20.6242 23.9314 20.6242 23.5396V11.792H22.4341V6.52266ZM21.0154 10.3733H18.7861V7.94133H21.0154V10.3733ZM10.3867 18.2773H12.616V15.8453H10.3867V18.2773Z" fill="#131032"/>
</svg>
