<svg width="781" height="50" viewBox="0 0 781 50" fill="none" xmlns="http://www.w3.org/2000/svg">
<path d="M761.992 5.48586C752.26 5.25905 742.075 6.16632 733.701 11.6099C726.459 16.1462 721.028 23.8578 721.254 32.7036C721.48 41.3226 727.138 49.2611 734.154 54.0242C742.302 59.6946 752.26 62.1895 761.992 61.9627C764.934 61.9627 764.934 66.499 761.992 66.499C745.696 66.9526 727.591 59.9214 719.896 44.7248C712.427 30.4355 719.443 14.3316 733.023 6.84676C741.849 1.85684 752.26 0.72277 762.218 1.1764C764.934 0.949585 764.934 5.48586 761.992 5.48586Z" fill="#1F4375"/>
<path d="M760.408 22.0433C753.392 20.6824 745.47 25.6723 744.112 32.9304C742.754 40.1885 747.96 47.6733 754.976 49.261C757.918 49.9415 756.56 54.4778 753.844 53.7973C744.339 51.5292 737.775 41.3225 739.812 31.7963C741.849 22.0433 752.26 15.9193 761.765 17.7338C764.481 18.1875 763.35 22.7237 760.408 22.0433Z" fill="#1F4375"/>
<path d="M322.477 18.6411C322.703 15.6925 327.23 15.6925 327.003 18.6411C326.551 27.7137 326.551 36.5595 327.003 45.632C325.645 46.5393 324.061 47.2198 322.477 48.127C321.798 38.374 321.798 28.621 322.477 18.6411Z" fill="#0763A4"/>
<path d="M296.224 30.2085C296.224 27.2599 300.976 27.2599 300.75 30.2085C300.75 38.6006 300.524 46.9928 300.524 55.3849C298.939 55.6117 297.355 55.8386 295.771 56.0654C295.771 47.6732 295.997 38.8275 296.224 30.2085Z" fill="#0763A4"/>
<path d="M640.91 -9.25757C635.931 -2.90676 632.763 4.57813 630.952 12.5166C630.273 15.4652 625.973 14.1043 626.426 11.3826C628.689 0.949095 633.668 -8.80393 640.91 -16.5156C642.268 -15.8352 643.852 -14.9279 645.21 -14.2475C643.852 -12.6598 642.268 -11.0721 640.91 -9.25757Z" fill="#0763A4"/>
<path d="M219.275 92.8093C218.596 99.1601 217.69 105.738 213.617 111.181C209.995 115.944 205.016 119.347 200.037 122.522C189.4 129.326 180.574 137.945 174.237 149.059C173.558 150.42 172.879 151.554 172.2 152.915C171.068 152.008 169.71 150.874 168.579 149.967C174.01 139.306 181.705 129.78 191.437 122.522C196.869 118.666 202.979 115.718 207.732 110.728C213.164 105.284 213.843 98.0261 214.748 90.768C216.332 76.025 220.859 61.5089 228.554 48.8073C229.459 47.2196 230.591 45.6319 231.722 43.8174C232.854 44.7246 234.212 45.6319 235.343 46.5392C234.212 48.1269 233.306 49.9414 232.175 51.5291C225.159 64.2307 221.085 78.2932 219.275 92.8093Z" fill="#148DCD"/>
<path d="M261.597 23.6309C264.539 23.6309 264.539 28.1672 261.597 28.1672C251.865 28.394 244.396 34.7448 238.512 42.2296C237.154 41.3224 236.022 40.4151 234.891 39.5079C241.454 31.1157 250.281 23.8577 261.597 23.6309Z" fill="#0763A4"/>
<path d="M225.159 23.6304C223.575 24.3108 222.217 24.9912 220.633 25.8985C219.727 24.7644 218.596 23.4035 217.69 22.2695C219.275 21.3622 221.085 20.455 222.669 19.7745C225.385 18.4136 227.875 22.4963 225.159 23.6304Z" fill="#0763A4"/>
<path d="M198.679 45.8589C191.663 56.5191 189.626 68.3135 187.816 80.5615C186.005 92.8095 183.29 104.15 175.368 113.903C167.9 122.749 158.168 129.327 150.926 138.399C150.699 138.853 150.247 139.08 150.02 139.533C148.662 138.853 147.078 138.399 145.494 137.946C151.378 129.78 159.526 123.656 166.768 116.625C171.068 112.316 175.142 107.779 177.858 102.109C180.8 95.9849 181.932 89.1804 183.063 82.6028C185.1 69.9012 186.684 57.6532 193.248 46.3125C198.227 37.9204 205.243 30.4355 213.39 25.2188C214.296 26.5796 215.201 27.7137 216.106 28.8478C209.316 32.9304 203.206 38.8276 198.679 45.8589Z" fill="#0763A4"/>
<path d="M-6.36723 25.8985C-9.08308 24.5377 -6.59355 20.455 -4.10403 21.8159C7.66465 28.3935 12.1911 39.5074 13.7753 51.7554C12.4174 52.4359 10.8331 53.1163 9.47522 53.5699C8.1173 42.6828 3.8172 31.3421 -6.36723 25.8985Z" fill="#0763A4"/>
<path d="M472.075 9.11427C448.085 10.702 424.095 27.2594 400.784 14.1042C394.673 10.702 389.015 5.93885 383.357 1.85619C379.51 -1.0924 375.436 -4.04099 371.589 -6.98958C372.041 -8.57728 372.268 -10.165 372.494 -11.9795C381.547 -5.17506 390.373 1.8562 399.652 7.9802C405.084 11.6092 411.195 14.1042 417.758 14.5578C424.321 15.0114 430.658 13.6505 436.995 12.0628C448.764 9.11426 460.08 5.03159 472.301 4.35115C483.165 3.6707 494.481 5.0316 504.891 8.43382C510.776 10.2483 516.434 12.7433 521.639 15.9187C520.96 17.2796 520.281 18.6405 519.602 20.0014C505.344 11.6092 488.596 7.9802 472.075 9.11427Z" fill="#0763A4"/>
<path d="M533.408 30.6616C530.466 27.713 527.297 25.218 523.902 22.9499C524.581 21.589 525.26 20.2281 525.939 18.8672C529.787 21.3621 533.181 24.3107 536.576 27.4861C538.839 29.5275 535.671 32.7029 533.408 30.6616Z" fill="#0763A4"/>
<path d="M453.743 33.8373C445.143 36.1054 436.769 39.7344 427.716 41.7758C414.363 44.7244 401.689 42.2294 390.147 35.1982C380.415 29.301 372.041 21.5893 363.441 14.1044C364.12 12.7435 364.799 11.1558 365.478 9.79492C372.72 15.9189 379.736 22.4965 386.978 27.7133C398.068 35.6518 410.516 40.1881 424.321 37.6931C433.148 36.1054 441.521 32.4764 450.348 29.9814C458.269 27.7133 466.643 26.3524 475.017 26.3524C488.37 26.3524 501.723 29.301 513.718 34.7445C513.491 35.425 513.265 36.1054 513.039 36.7859C512.813 37.6931 512.586 38.3736 512.36 39.2808C501.723 34.0641 489.954 31.3423 478.185 30.8887C470.264 30.6619 461.89 31.5691 453.743 33.8373Z" fill="#148DCD"/>
<path d="M325.419 -11.526C339.677 -9.93825 350.993 -2.45337 361.63 6.39241C360.951 7.7533 360.272 9.341 359.593 10.7019C349.635 2.53656 338.546 -5.40195 325.419 -6.76283C322.477 -7.21646 322.477 -11.7528 325.419 -11.526Z" fill="#148DCD"/>
<path d="M524.808 46.3121C522.544 44.7244 520.055 43.1367 517.565 41.7758C517.792 40.6417 518.018 39.2808 518.471 38.1468C518.471 37.6931 518.697 37.4663 518.697 37.0127C521.639 38.6004 524.355 40.1881 527.071 42.2294C529.56 44.0439 527.297 47.8998 524.808 46.3121Z" fill="#148DCD"/>
<path d="M666.937 15.4648C667.39 15.4648 667.842 15.4648 668.295 15.6917C668.748 15.6917 669.2 15.9185 669.427 16.3721C669.879 16.8257 670.332 17.2794 670.558 17.733C670.784 17.9598 670.784 18.4134 670.784 18.8671C670.784 19.7743 670.558 20.4548 670.105 21.1352C669.653 21.8157 668.974 22.2693 668.295 22.7229C667.39 23.1766 666.484 23.1766 665.579 22.7229C663.995 22.0425 663.316 20.4548 663.542 18.6403C663.995 17.0526 665.353 15.6917 666.937 15.4648Z" fill="#1F4375"/>
<path d="M673.727 15.6921C673.048 15.919 671.916 15.919 671.237 15.4653C669.879 14.7849 669.2 13.1972 669.427 11.6095C669.653 10.2486 670.784 9.34132 671.916 8.8877C673.274 10.4754 674.406 12.2899 675.537 14.1044C675.085 14.7849 674.406 15.2385 673.727 15.6921Z" fill="#1F4375"/>
<path d="M681.874 9.34107C680.969 9.56788 679.837 9.56788 679.158 9.11426C677.574 8.207 676.895 6.61929 677.121 5.0316C677.348 3.4439 678.932 2.08301 680.516 2.08301C680.969 2.08301 681.422 2.08302 681.874 2.30984C682.327 2.30984 682.779 2.53664 683.006 2.99027C683.458 3.4439 683.685 3.89753 683.911 4.57798C684.137 4.80479 684.137 5.25842 684.137 5.71205C684.137 6.6193 683.911 7.29974 683.458 7.98019C683.232 8.43381 682.779 8.88744 681.874 9.34107Z" fill="#1F4375"/>
<path d="M690.701 2.53695C690.022 2.99058 689.343 2.99057 688.664 2.99057C687.758 2.99057 687.079 2.31013 686.627 1.8565C685.722 0.722423 685.948 -0.86527 686.853 -2.22616C687.759 -3.36023 689.343 -3.81387 690.701 -3.13342C691.153 -2.90661 691.38 -2.67979 691.606 -2.22616C691.832 -1.99934 692.285 -1.54573 692.285 -1.31891C692.511 -0.865284 692.511 -0.411644 692.511 0.2688C692.511 0.495615 692.285 0.949248 692.285 1.17606C691.832 1.85651 691.38 2.31013 690.701 2.53695Z" fill="#1F4375"/>
<path d="M24.8649 45.4051C25.3176 44.9514 25.7702 44.7246 26.2229 44.7246C25.5439 45.1782 24.8649 45.6319 24.186 46.0855C24.4123 45.8587 24.6386 45.6319 24.8649 45.4051Z" fill="#1F4375"/>
<path d="M29.8441 49.9415C29.3914 50.6219 28.7124 51.0755 28.0335 51.3024C27.3545 51.5292 26.4492 51.5292 25.7703 51.3024C27.3545 50.3951 28.9387 49.261 30.523 48.127C30.523 48.5806 30.523 48.8074 30.2967 49.261C30.0704 49.4878 30.0704 49.7147 29.8441 49.9415Z" fill="#1F4375"/>
<path d="M285.36 59.4675C291.697 59.4675 297.808 58.7871 303.919 57.4262C326.324 52.4363 345.562 38.8274 357.783 19.0945C370.004 -0.638351 374.078 -23.7734 368.873 -46.6817C364.573 -66.1878 353.709 -83.6525 338.093 -96.1273C322.929 -108.375 303.692 -115.18 284.455 -115.18C278.118 -115.18 272.007 -114.499 265.897 -113.138C243.491 -108.148 224.254 -94.5396 212.032 -74.8067C199.811 -55.0738 195.737 -31.9388 200.943 -9.03048C205.243 10.4756 216.106 27.9403 231.722 40.4151C247.112 52.6631 266.123 59.4675 285.36 59.4675Z" fill="#1F4375"/>
<path d="M220.406 28.6203C231.269 14.1041 241.907 -0.411987 252.77 -15.1549C253.449 -14.2477 253.901 -13.1136 254.58 -12.2063C238.059 -13.794 221.311 -14.0208 204.79 -12.4331C202.3 -12.2063 202.3 -16.289 204.79 -16.5158C221.311 -17.8767 238.059 -17.8767 254.58 -16.289C255.938 -16.0622 257.296 -14.7013 256.391 -13.3404C245.528 1.17572 234.891 15.6918 224.027 30.4348C222.443 32.7029 218.822 30.6616 220.406 28.6203Z" fill="#0763A4"/>
<path d="M216.785 22.27C219.727 16.5996 222.896 11.1561 226.29 5.93933C229.233 1.40304 232.401 -3.58687 236.928 -6.53546C237.38 -5.17458 237.607 -4.04051 238.059 -2.67962C227.196 -1.54555 216.559 0.722597 206.148 3.898C203.658 4.57844 202.527 0.722605 205.016 0.042161C215.88 -3.13324 226.969 -5.40139 238.059 -6.53546C240.322 -6.76228 240.549 -3.8137 239.191 -2.67962C234.664 0.49578 231.722 5.71252 229.006 10.2488C226.064 15.0119 223.122 19.775 220.632 24.7649C219.048 26.5794 215.653 24.5381 216.785 22.27Z" fill="#0763A4"/>
<path d="M295.771 6.16598C284.907 22.2698 274.723 38.6004 264.991 55.3847C263.86 57.1992 261.37 56.292 261.144 54.2506C260.238 34.9714 259.333 15.6922 261.37 -3.36023C261.596 -5.85519 265.67 -5.85519 265.444 -3.36023C263.181 15.6922 264.086 34.9714 265.218 54.2506C263.86 54.0238 262.728 53.5702 261.37 53.3434C271.102 36.5591 281.286 20.2285 292.15 4.12464C293.734 2.08331 297.129 4.12465 295.771 6.16598Z" fill="#0763A4"/>
<path d="M285.134 3.89753C281.513 11.1556 277.665 17.96 273.365 24.7645C272.234 26.3522 269.744 25.8985 269.518 23.6304C269.291 15.2383 269.065 7.07293 268.839 -1.31921C268.839 -3.81417 272.913 -3.81417 272.913 -1.31921C273.139 7.07293 273.365 15.2383 273.592 23.6304C272.234 23.4036 271.102 22.95 269.744 22.4963C274.044 15.6919 278.118 8.88745 281.513 1.62939C282.871 -0.411944 286.266 1.62939 285.134 3.89753Z" fill="#0763A4"/>
<path d="M349.635 22.2701C335.151 13.8779 320.214 6.39305 304.824 0.0422442C305.729 -0.638199 306.861 -1.54546 307.766 -2.2259C311.613 14.5584 315.687 31.1158 319.535 47.9001C320.214 50.395 316.14 51.5291 315.687 49.0342C311.84 32.2499 307.766 15.6924 303.918 -1.09183C303.466 -2.90634 305.276 -4.04042 306.861 -3.35997C322.25 3.21765 337.188 10.7025 351.672 18.8678C353.935 20.0019 351.898 23.4041 349.635 22.2701Z" fill="#0763A4"/>
<path d="M343.072 30.4352C335.377 24.0844 326.777 19.0945 317.271 15.4655C318.177 14.5582 318.856 13.8778 319.761 12.9705C322.477 23.1772 325.419 33.3838 328.135 43.3637C328.814 45.8586 324.966 46.9927 324.287 44.4977C321.572 34.2911 318.629 24.0844 315.914 14.1046C315.461 12.7437 316.819 10.9292 318.403 11.6097C328.361 15.4655 337.64 20.909 345.788 27.7135C348.051 29.0744 345.109 32.0229 343.072 30.4352Z" fill="#0763A4"/>
<path d="M276.986 -63.2397C295.997 -68.2296 315.687 -57.1157 320.666 -38.0633C325.645 -19.0109 314.329 0.495171 295.318 5.48509C276.307 10.475 256.618 -0.638897 251.638 -19.6913C246.659 -38.7437 257.975 -58.2498 276.986 -63.2397ZM292.829 0.721992C309.35 -2.90704 319.761 -19.4645 316.14 -35.7951C312.519 -52.3526 295.997 -62.5593 279.476 -58.9302C262.954 -55.3012 252.544 -38.7437 256.165 -22.4131C259.786 -5.85563 276.307 4.35102 292.829 0.721992Z" fill="white"/>
<path d="M277.665 -60.518C295.092 -65.0543 312.971 -54.8476 317.724 -37.6097C322.25 -20.3718 311.84 -2.45344 294.413 2.30967C276.986 6.84595 259.107 -3.36071 254.354 -20.5986C249.828 -37.8365 260.239 -55.7549 277.665 -60.518Z" fill="#148DCD"/>
<path d="M290.566 23.6302C291.018 25.8984 293.508 27.4861 295.771 27.0325C298.034 26.5788 299.618 24.0839 299.166 21.8157C298.713 19.5476 296.224 17.9599 293.96 18.4135C291.471 18.8672 289.887 21.1353 290.566 23.6302Z" fill="#F5AE15"/>
<path d="M255.033 3.67133C252.77 3.21771 250.281 4.8054 249.828 7.07354C249.375 9.34168 250.96 11.8366 253.223 12.2902C255.486 12.7439 257.976 11.1562 258.428 8.88804C258.881 6.6199 257.297 4.12496 255.033 3.67133Z" fill="#F5AE15"/>
<path d="M284.681 -112.232C278.797 -112.232 272.686 -111.551 266.576 -110.19C221.538 -100.21 193.474 -54.8474 203.658 -9.25773C212.485 30.208 247.112 57.1989 285.36 57.1989C291.244 57.1989 297.355 56.5185 303.466 55.1576C348.504 45.1778 376.567 -0.185143 366.383 -45.7749C357.556 -85.4674 322.929 -112.232 284.681 -112.232ZM284.681 -117.448C304.597 -117.448 324.061 -110.417 339.903 -97.9422C347.825 -91.5914 354.388 -84.1065 359.82 -75.7144C365.251 -66.8686 369.325 -57.3424 371.588 -47.1357C376.794 -23.7738 372.72 0.268494 360.046 20.455C347.372 40.6415 327.682 54.704 304.597 59.9207C298.26 61.2816 291.697 61.9621 285.36 61.9621C265.444 61.9621 245.98 54.9308 230.138 42.456C222.217 36.1052 215.653 28.6203 210.222 20.2282C204.79 11.3824 200.716 1.85619 198.453 -8.35046C193.248 -31.7124 197.321 -55.7547 209.995 -75.9412C222.669 -96.1277 242.359 -110.19 265.444 -115.407C271.781 -116.768 278.118 -117.448 284.681 -117.448Z" fill="white"/>
<path d="M251.186 45.6314C251.186 40.1879 250.96 34.7443 250.733 29.074C251.865 29.5276 252.996 29.9812 254.128 30.4349C250.281 33.3834 246.886 36.7857 243.491 40.4147C242.133 42.0024 239.87 40.1879 240.096 38.3734C240.549 36.1052 240.775 33.8371 241.001 31.5689C241.001 30.4349 241.454 26.579 240.775 25.8986C241.228 26.1254 241.68 26.3522 242.133 26.579C241.907 26.579 240.096 28.1667 239.87 28.3935C239.191 29.074 238.512 29.5276 237.607 30.208C236.022 31.5689 234.438 32.703 232.854 34.0639C230.817 35.6516 227.875 32.9298 229.912 31.1153C232.628 28.8472 235.343 26.579 238.286 24.5377C239.644 23.4036 241.68 21.5891 243.491 23.1768C245.075 24.5377 244.849 27.7131 244.849 29.7544C244.849 33.1566 244.396 36.5589 243.717 39.7343C242.586 39.0538 241.454 38.3734 240.322 37.6929C243.491 34.0639 247.112 30.6617 250.959 27.7131C252.317 26.579 254.354 27.2595 254.354 29.074C254.581 34.5175 254.807 39.961 254.807 45.6314C255.26 48.1264 251.412 48.1264 251.186 45.6314Z" fill="#148DCD"/>
<path d="M306.861 50.3944C304.597 45.1777 301.882 40.4146 298.487 36.1051C299.618 35.8783 300.976 35.8783 302.108 35.6515C300.071 41.5487 297.808 47.4459 295.771 53.343C295.092 55.1575 292.602 55.1575 291.923 53.343C291.018 50.8481 290.113 48.1263 288.981 45.6313C288.302 43.8168 287.397 39.961 285.36 39.0537C286.265 38.8269 287.171 38.6001 288.076 38.3733C286.039 43.1364 284.002 47.8995 281.965 52.8894C281.06 55.3844 277.439 53.1162 278.571 50.8481C280.607 46.085 282.644 41.3219 284.681 36.332C285.134 35.1979 286.492 35.1979 287.397 35.6515C289.887 36.7856 291.018 39.961 291.923 42.2291C293.281 45.4045 294.639 48.8067 295.771 52.209H291.923C293.96 46.3118 296.224 40.4146 298.26 34.5174C298.939 32.7029 300.976 32.7029 301.882 34.0638C305.276 38.6001 307.992 43.3632 310.255 48.3531C311.387 50.6213 307.766 52.8894 306.861 50.3944Z" fill="#148DCD"/>
<path d="M359.82 5.93858C358.009 5.93858 356.199 5.93858 354.388 5.93858C352.804 5.93858 350.767 5.71177 349.183 5.93858C349.635 5.48495 350.088 5.03133 350.541 4.5777C350.541 4.80451 351.672 6.61903 351.899 7.07265C352.351 7.97991 352.804 8.66035 353.483 9.56761C354.614 11.3821 355.746 12.9698 356.878 14.5575C358.462 16.5989 354.841 18.6402 353.483 16.5989C351.899 14.5575 350.541 12.2894 349.183 10.0212C348.277 8.43353 346.241 5.93858 346.693 3.89725C347.146 1.6291 349.409 1.85591 350.993 1.85591C353.935 1.85591 357.104 1.85591 360.046 1.85591C362.309 1.85591 362.309 5.93858 359.82 5.93858Z" fill="#148DCD"/>
<path d="M603.114 149.059C643.626 149.059 678.932 121.841 689.117 83.0556C695.001 60.1474 691.832 36.3318 679.611 15.6917C667.39 -4.72158 648.152 -19.4645 625.068 -25.5885C617.599 -27.6298 609.678 -28.5371 601.983 -28.5371C561.471 -28.5371 526.165 -1.31935 515.981 37.4659C503.533 84.6434 532.276 133.408 580.03 145.883C587.725 147.925 595.42 149.059 603.114 149.059Z" fill="#A8503A"/>
<path d="M601.983 -25.8145C563.508 -25.8145 528.655 -0.411287 518.471 38.1472C506.476 84.1905 534.313 131.368 580.709 143.389C588.177 145.43 595.646 146.338 603.114 146.338C641.589 146.338 676.442 120.935 686.627 82.376C698.622 36.3327 670.784 -10.8448 624.389 -22.8659C616.92 -24.9073 609.225 -25.8145 601.983 -25.8145ZM601.983 -31.0312V-25.8145V-31.0312C609.904 -31.0312 617.825 -29.8972 625.747 -27.8558C649.51 -21.505 669.426 -6.53528 681.874 14.5585C694.322 35.6522 697.717 60.1482 691.606 83.7369C681.195 123.656 644.757 151.554 603.114 151.554C595.193 151.554 587.272 150.42 579.351 148.379C555.587 142.028 535.671 127.058 523.223 105.965C510.776 84.871 507.381 60.1482 513.491 36.7863C523.902 -3.13306 560.34 -31.0312 601.983 -31.0312Z" fill="white"/>
<path d="M590.893 53.3432C594.288 46.312 602.662 43.3634 609.452 46.7656C616.241 50.1678 619.183 58.5599 615.789 65.3644C612.394 72.3956 604.02 75.3442 597.23 71.942C590.214 68.7666 587.498 60.3744 590.893 53.3432Z" fill="#F89633"/>
<path d="M587.725 51.7559C592.025 42.9101 602.436 39.2811 611.036 43.5905C619.636 47.9 623.257 58.3335 618.957 66.9524C614.657 75.7982 604.246 79.4272 595.646 75.1177C587.046 70.8082 583.425 60.6016 587.725 51.7559ZM614.431 65.5915C617.825 59.2407 615.562 51.3022 609.225 47.9C602.888 44.4978 595.193 46.9928 591.798 53.3436C588.404 59.6944 590.667 67.6329 597.004 71.0351C603.341 74.2105 611.036 71.9423 614.431 65.5915Z" fill="white"/>
<path d="M559.208 39.0539C571.203 14.5579 600.625 4.12444 624.841 16.1456C649.058 27.94 659.242 57.4259 647.247 82.1486C635.252 106.871 605.83 117.078 581.614 105.057C557.398 93.0358 547.44 63.5499 559.208 39.0539ZM634.799 77.6124C644.305 59.9208 637.742 37.693 620.315 28.1668C602.662 18.6406 580.709 25.445 571.203 43.1366C561.698 60.8281 568.261 83.0559 585.688 92.5821C603.341 102.108 625.294 95.3039 634.799 77.6124Z" fill="#F5AE15"/>
<path d="M561.245 106.417C547.213 109.593 530.013 106.644 524.355 90.3136C519.828 76.7048 529.334 63.7763 540.65 56.2914C551.061 49.487 563.056 47.4457 567.129 53.7965C568.487 56.0646 568.714 58.5596 567.356 61.2814C566.903 61.9618 566.45 62.6423 565.772 63.0959C558.529 69.6735 539.971 72.1685 544.045 83.9628C547.213 93.2622 565.772 82.8287 575.277 85.3237C577.314 85.7773 578.898 86.9114 579.803 88.7259C580.256 89.6331 580.482 90.5404 580.709 91.6745C582.067 101.428 574.824 118.212 586.593 120.934C595.646 123.202 596.777 104.149 603.567 96.6644C604.02 96.2108 604.472 95.7572 605.151 95.3035C605.378 95.3035 605.378 95.0767 605.604 95.0767C606.283 94.6231 606.962 94.3963 607.641 94.1695C608.772 93.7158 610.13 93.7158 611.715 94.1695C611.941 94.1695 612.167 94.1694 612.394 94.3962C612.62 94.3962 612.62 94.6231 612.846 94.6231H613.073C621.899 98.9326 627.783 119.119 638.873 112.315C646.794 107.325 634.573 93.0354 633.894 83.0555V82.8287V82.6019C633.894 82.3751 633.894 82.1483 633.894 81.9215C633.894 81.9215 633.894 81.9215 633.894 81.6947C634.12 78.2924 635.931 76.4779 638.42 75.3438C647.247 71.2612 666.258 76.0243 666.711 63.5495C666.937 54.0233 647.247 56.745 638.873 51.3015C638.421 51.0747 637.968 50.6211 637.742 50.3943C636.61 49.2602 635.931 48.1261 635.705 46.992C635.478 46.3116 635.478 45.6312 635.478 44.9507C635.478 44.2703 635.478 43.8166 635.705 43.1362C637.968 33.61 655.168 22.7229 645.889 13.6503C639.099 7.07269 628.236 22.9497 618.731 25.8983C618.504 25.8983 618.052 26.1251 617.825 26.1251C617.825 26.1251 617.599 26.1251 617.373 26.1251H617.146C616.467 26.1251 616.015 26.3519 615.336 26.3519C614.204 26.3519 613.299 26.1251 612.394 25.4447C613.299 25.8983 614.43 26.3519 615.336 26.3519C602.435 25.8983 608.772 -4.94848 593.383 -2.68034C583.877 -1.31945 589.988 17.5062 586.367 26.8055C586.367 27.0324 586.367 27.0324 586.14 27.2592C586.14 27.486 585.914 27.486 585.914 27.7128C585.235 28.8469 584.556 29.7541 583.651 30.4346C583.651 30.4346 583.425 30.4346 583.425 30.6614C583.425 30.6614 583.198 30.6614 583.198 30.8882C582.972 30.8882 582.972 31.115 582.746 31.115C582.519 31.115 582.519 31.115 582.293 31.3418H582.067C582.067 31.3418 582.067 31.3418 581.84 31.3418C580.935 31.5686 579.803 31.7955 578.672 31.7955C568.94 31.5687 554.229 19.3207 548.345 30.4346C543.818 38.8267 562.377 45.1775 567.129 53.7965C563.056 47.2188 551.061 49.487 540.65 56.2914C530.465 47.8993 522.997 34.5172 530.465 20.4548C537.481 7.29951 554.455 5.7118 568.035 9.34084C568.035 -4.49485 573.919 -20.145 590.44 -22.4132C604.925 -24.6813 616.467 -11.9797 621.446 0.948689C624.615 9.11401 625.294 17.2793 622.804 22.2693C625.294 17.2793 624.615 9.11401 621.446 0.948689C632.31 -7.44345 647.926 -11.7529 659.695 -0.185383C669.879 9.79445 667.39 25.6715 660.826 37.6926C673.953 40.4144 687.079 49.0334 686.627 65.1372C686.174 80.3338 670.784 89.4063 656.752 91.6745C653.358 84.4164 648.605 78.5192 644.079 76.2511C648.605 78.5192 653.584 84.4164 656.752 91.6745C649.284 92.8086 642.268 92.3549 637.968 89.86C642.268 92.3549 649.284 93.0354 656.752 91.6745C662.637 104.376 663.316 121.614 648.831 130.46C637.063 137.718 622.804 131.594 613.073 122.521C607.415 134.542 596.551 144.976 581.161 141.12C566.451 137.491 560.792 120.707 561.245 106.417Z" fill="#F89633"/>
<path d="M640.91 48.3537C642.721 49.261 644.984 48.5805 645.889 46.766C646.795 44.9515 646.116 42.6833 644.305 41.7761C642.494 40.8688 640.231 41.5493 639.326 43.3638C638.421 45.1783 639.1 47.4465 640.91 48.3537Z" fill="white"/>
<path d="M614.204 22.7238C616.015 23.6311 618.278 22.9506 619.183 21.1361C620.089 19.3216 619.41 17.0535 617.599 16.1462C615.788 15.2389 613.525 15.9194 612.62 17.7339C611.715 19.5484 612.394 21.8166 614.204 22.7238Z" fill="white"/>
<path d="M577.54 22.0431C575.956 23.404 575.503 25.6722 576.861 27.2599C578.219 28.8476 580.483 29.3012 582.067 27.9403C583.651 26.5794 583.877 24.3113 582.746 22.7236C581.614 21.1359 579.125 20.6822 577.54 22.0431Z" fill="white"/>
<path d="M614.431 12.29C612.167 1.62969 608.32 -14.2473 594.741 -14.7009C579.804 -15.1546 579.125 6.3928 579.577 16.5995C579.577 18.414 576.861 18.414 576.635 16.5995C576.183 4.57828 577.54 -17.1959 593.835 -17.6495C609.452 -18.1032 614.657 -0.638443 617.147 11.3827C617.599 13.4241 614.883 14.1045 614.431 12.29Z" fill="#F5AE15"/>
<path d="M570.524 20.6822C565.998 17.0532 560.34 15.2387 554.456 15.6923C548.345 15.9191 541.555 18.6409 539.292 24.9917C537.255 30.6621 537.934 37.9201 541.329 42.91C544.498 47.6731 549.477 50.8485 554.229 53.5703C555.814 54.4776 554.456 56.9725 552.871 56.0653C547.213 52.6631 541.329 48.8072 537.934 42.91C534.766 37.0129 534.313 28.1671 537.482 22.2699C540.424 16.3727 547.44 13.651 553.55 13.1973C560.34 12.5169 567.13 14.785 572.561 19.0945C573.919 19.7749 571.882 21.8163 570.524 20.6822Z" fill="#F5AE15"/>
<path d="M652 81.4686C661.053 81.4686 671.237 72.8496 672.821 63.777C674.632 52.4363 661.958 48.5805 653.131 47.2196C651.321 46.9928 652 44.271 653.81 44.4978C659.468 45.405 666.032 46.9928 670.785 50.8486C674.858 54.024 676.443 59.2408 675.537 64.2307C673.953 74.6642 662.411 84.4172 651.774 84.4172C649.963 84.4172 649.963 81.4686 652 81.4686Z" fill="#F5AE15"/>
<path d="M648.379 35.1983C653.358 27.7134 659.469 13.6509 650.868 6.61961C646.795 3.44421 641.589 3.2174 636.836 4.8051C632.084 6.61962 628.463 10.2487 625.294 14.1045C624.162 15.4654 622.125 13.4241 623.257 12.0632C627.105 7.52687 631.405 3.44421 637.063 1.6297C642.268 0.0419937 648.379 0.722431 652.679 4.35146C662.637 12.29 656.753 27.9402 650.868 36.786C649.963 38.1468 647.474 36.786 648.379 35.1983Z" fill="#F5AE15"/>
<path d="M620.541 47.2198C622.352 45.4053 626.878 40.1886 623.936 37.6936C620.994 35.4254 617.599 41.0958 616.015 43.1371C614.883 44.498 612.846 42.4567 613.978 41.0958C616.467 37.9204 621.673 31.116 626.199 35.6523C630.273 39.9617 625.746 46.0857 622.578 49.2611C621.22 50.622 619.183 48.5807 620.541 47.2198Z" fill="#F5AE15"/>
<path d="M602.436 36.7862C602.209 35.4254 601.983 33.8377 601.53 32.4768C600.851 30.8891 599.267 28.8477 597.683 30.4354C595.872 32.2499 597.004 36.7862 597.456 39.0544C597.909 40.8689 595.193 41.5494 594.741 39.7348C593.835 35.879 592.704 28.6209 597.683 27.0332C603.114 25.4455 604.925 32.9304 605.378 36.7862C605.604 38.6008 602.662 38.6008 602.436 36.7862Z" fill="#F5AE15"/>
<path d="M585.235 46.0858C582.972 44.7249 578.219 44.4981 577.767 48.1271C577.54 51.0757 580.935 52.8902 583.198 53.7975C584.783 54.4779 583.425 56.9729 581.84 56.2924C577.993 54.4779 573.467 50.8489 575.503 46.0858C577.314 41.7763 583.198 41.0958 586.82 43.364C588.177 44.7249 586.82 47.2199 585.235 46.0858Z" fill="#F5AE15"/>
<path d="M563.961 -7.8963C564.414 -5.17453 565.998 0.949464 562.377 2.53717C559.208 3.89805 555.135 0.722639 553.098 -1.31869C551.74 -2.67958 553.777 -4.7209 555.135 -3.36001C556.266 -2.22594 558.529 -0.184619 560.34 -0.184619C561.924 -0.184619 561.698 -1.99913 561.472 -3.1332C561.472 -4.49409 561.245 -5.85498 561.019 -7.21587C560.793 -8.80357 563.735 -9.71082 563.961 -7.8963Z" fill="#F89633"/>
<path d="M526.165 49.2605C529.108 49.9409 531.823 52.2091 531.371 55.6113C530.918 58.7867 527.976 60.3744 525.26 61.5084C523.45 62.1889 522.771 59.4671 524.581 58.7867C525.939 58.333 527.75 57.6526 528.429 56.0649C529.334 54.0236 527.071 52.6627 525.486 52.2091C523.45 51.7554 524.355 49.0337 526.165 49.2605Z" fill="#F89633"/>
<path d="M680.29 37.2396C676.669 38.8273 672.595 37.2396 670.332 33.8374C668.069 30.2083 668.748 25.8989 671.237 22.4966C672.369 21.1358 674.406 23.1771 673.274 24.538C671.69 26.5793 671.237 29.3011 672.369 31.7961C673.5 34.0642 676.216 35.8787 678.706 34.7446C680.516 34.0642 682.1 36.5591 680.29 37.2396Z" fill="#F89633"/>
<path d="M-108.89 1.85617C-92.1427 49.2604 -40.7679 74.4368 6.08048 57.8794C52.9289 41.3219 77.3715 -10.6186 60.6238 -58.0229C43.876 -105.427 -7.49879 -130.603 -54.3472 -114.046C-101.196 -97.4886 -125.638 -45.548 -108.89 1.85617Z" fill="#00AF91"/>
<path d="M-23.5677 65.591C-13.3832 65.591 -2.97247 63.7765 6.98566 60.3742C30.2967 52.2089 48.855 35.1978 59.4921 12.7432C70.1291 -9.71143 71.2608 -35.1147 63.1132 -58.7034C45.9128 -107.468 -7.04624 -133.325 -55.2526 -116.314C-103.233 -99.3032 -128.581 -45.7749 -111.38 2.99017C-103.006 26.5789 -86.2585 45.6313 -63.8528 56.5184C-51.1788 62.6424 -37.3732 65.591 -23.5677 65.591ZM-24.9256 -116.541C11.2857 -116.541 45.2339 -93.6328 58.1342 -57.1157C66.0554 -34.8879 64.6975 -10.8455 54.7393 10.4751C44.7812 31.7956 27.1282 47.6726 5.17508 55.3843C-16.778 63.096 -40.5417 61.7351 -61.5896 51.5285C-82.6374 41.3218 -98.7062 23.4035 -106.401 0.948837L-108.891 1.8561L-106.401 0.948837C-122.696 -45.0945 -98.9325 -95.6742 -53.442 -111.551C-44.1628 -114.953 -34.4311 -116.541 -24.9256 -116.541Z" fill="white"/>
<path d="M-75.6214 -9.71085C-65.4369 19.3214 -33.752 34.7448 -5.23558 24.5381C23.5072 14.3315 38.4443 -17.4225 28.2599 -46.4548C18.0754 -75.4871 -13.6095 -90.9105 -42.1259 -80.7038C-70.8686 -70.4972 -85.8058 -38.7431 -75.6214 -9.71085Z" fill="#40BC99"/>
<path d="M-35.3363 -57.3419C-19.0412 -63.9195 -0.709278 -55.981 5.85402 -39.8772C12.191 -23.7733 4.26979 -5.40136 -12.0253 1.17627C-28.3204 7.75389 -46.6524 -0.184631 -53.2157 -16.2885C-59.779 -32.6191 -51.6314 -50.9911 -35.3363 -57.3419Z" fill="#77CAB7"/>
<path d="M23.5071 36.3322L13.3227 26.1256L25.7703 23.8574L23.5071 36.3322Z" fill="#77CAB7"/>
<path d="M29.3914 30.4348L19.207 20.2281L31.6546 17.96L29.3914 30.4348Z" fill="#77CAB7"/>
<path d="M35.0494 24.538L25.0913 14.5582L37.3126 12.29L35.0494 24.538Z" fill="#77CAB7"/>
<path d="M16.2647 46.9927L18.7542 29.528L-1.84094 25.4453L14.0015 32.2498L16.2647 46.9927Z" fill="#77CAB7"/>
<path d="M-15.4201 22.2698C-15.4201 22.2698 -15.1938 22.2698 -15.4201 22.2698C-14.7411 22.043 -14.2885 21.5893 -14.2885 21.1357L-13.3832 -2.45299L4.2698 13.1972C4.72244 13.6508 5.17506 13.6508 5.6277 13.1972C6.08035 12.9704 6.30669 12.29 6.08038 11.8363L-3.42513 -9.71104L19.2069 -3.13342C19.6596 -2.9066 20.3386 -3.13343 20.5649 -3.58706C20.7912 -4.04069 20.7912 -4.72113 20.3385 -4.94794L2.45923 -20.3713L25.7703 -24.2272C26.2229 -24.2272 26.6755 -24.6808 26.6755 -25.3612C26.6755 -25.8149 26.4492 -26.4953 25.7703 -26.4953L2.91187 -32.6193L22.1491 -46.2282C22.6018 -46.455 22.8281 -47.1354 22.6018 -47.5891C22.3754 -48.0427 21.9228 -48.2695 21.2439 -48.2695L-1.84085 -43.7332L9.47518 -64.3733C9.7015 -64.827 9.70149 -65.5074 9.24885 -65.7342C8.7962 -66.1878 8.34355 -66.1878 7.89091 -65.7342L-11.12 -51.6717L-9.76208 -75.2604C-9.76208 -75.7141 -9.98842 -76.3945 -10.6674 -76.3945C-11.12 -76.6213 -11.799 -76.3945 -12.0253 -75.714L-22.8887 -54.8471L-31.9415 -76.6213C-32.1678 -77.0749 -32.6205 -77.3018 -33.2994 -77.3018C-33.7521 -77.3018 -34.2047 -76.8481 -34.2047 -76.1677L-35.11 -52.579L-52.763 -68.2292C-53.2157 -68.6828 -53.6683 -68.6828 -54.1209 -68.2292C-54.5736 -68.0024 -54.7999 -67.3219 -54.5736 -66.8683L-45.0681 -45.3209L-67.7002 -51.8985C-68.1528 -52.1253 -68.8318 -51.8985 -69.0581 -51.4449C-69.2844 -50.9913 -69.2844 -50.3108 -68.8318 -50.084L-50.9525 -34.6606L-74.0372 -31.2584C-74.4898 -31.2584 -74.9424 -30.8048 -74.9424 -30.1243C-74.9424 -29.6707 -74.7161 -28.9903 -74.0372 -28.9903L-51.1788 -22.8663L-70.416 -9.25742C-70.8687 -9.0306 -71.095 -8.35015 -70.8687 -7.89652C-70.6423 -7.44289 -70.1897 -7.21609 -69.5108 -7.21609L-46.4261 -11.7524L-57.7421 8.88774C-57.9684 9.34137 -57.9684 10.0218 -57.5158 10.2486C-57.0631 10.7023 -56.6105 10.7023 -56.1578 10.2486L-37.1469 -3.81387L-38.5048 19.7748C-38.5048 20.2285 -38.2785 20.9089 -37.5995 20.9089C-37.1469 21.1357 -36.4679 20.9089 -36.2416 20.2285L-25.3782 -0.638466L-16.3254 21.1357C-16.3254 22.043 -15.8727 22.2698 -15.4201 22.2698ZM-14.5148 -6.08202C-14.7411 -6.08202 -14.7411 -6.08202 -14.9675 -6.08202C-15.4201 -5.8552 -15.6464 -5.40157 -15.6464 -4.94794L-16.3254 15.6922L-24.2466 -3.36023C-24.4729 -3.81386 -24.6992 -4.04068 -25.1519 -4.04068C-25.6045 -4.04068 -26.0572 -3.81386 -26.2835 -3.36023L-36.0153 15.0117L-34.8837 -5.62837C-34.8837 -6.082 -35.11 -6.53563 -35.5627 -6.76244C-36.0153 -6.98926 -36.4679 -6.98926 -36.6943 -6.76244L-53.2157 5.48552L-43.2575 -12.6596C-43.0312 -13.1133 -43.0312 -13.5669 -43.2575 -13.7937C-43.4839 -14.2473 -43.9365 -14.2473 -44.3892 -14.2473L-64.758 -10.3915L-47.784 -22.4126C-47.3313 -22.6395 -47.3313 -23.0931 -47.3313 -23.5467C-47.3313 -24.0004 -47.784 -24.454 -48.2366 -24.454L-68.1528 -29.6707L-47.784 -33.0729C-47.3313 -33.0729 -46.8787 -33.5266 -46.8787 -33.9802C-46.6524 -34.4338 -46.8787 -34.8874 -47.3313 -35.1143L-62.9474 -48.4963L-43.0312 -42.826C-42.5786 -42.5991 -42.126 -42.826 -41.8996 -43.2796C-41.6733 -43.5064 -41.447 -44.1868 -41.6733 -44.4137L-50.0472 -63.4661L-34.6574 -49.6304C-34.431 -49.4036 -33.7521 -49.1768 -33.5257 -49.4036C-33.0731 -49.6304 -32.8468 -50.084 -32.8468 -50.5376L-32.1678 -71.1778L-24.2466 -52.1253C-24.0203 -51.6717 -23.794 -51.4449 -23.3413 -51.4449C-22.8887 -51.4449 -22.436 -51.6717 -22.2097 -52.1253L-12.478 -70.4973L-13.6096 -49.8572C-13.6096 -49.4036 -13.3832 -48.9499 -12.9306 -48.7231C-12.4779 -48.4963 -12.0253 -48.4963 -11.799 -48.7231L4.72243 -60.9711L-5.23566 -42.826C-5.46198 -42.3723 -5.46198 -41.9187 -5.23566 -41.6919C-5.00934 -41.2382 -4.5567 -41.2383 -4.10406 -41.2383L16.2648 -45.0941L-0.709251 -33.0729C-1.16189 -32.8461 -1.16192 -32.3925 -1.16192 -31.9389C-1.16192 -31.4852 -0.709259 -31.0316 -0.256615 -31.0316L19.6596 -25.8149L-0.709251 -22.4126C-1.16189 -22.4126 -1.61456 -21.959 -1.61456 -21.5054C-1.84087 -21.0518 -1.61456 -20.5981 -1.16192 -20.3713L14.4542 -6.98927L-5.462 -12.6596C-5.91463 -12.8865 -6.36728 -12.6596 -6.5936 -12.206C-6.81992 -11.9792 -7.04626 -11.2987 -6.81994 -11.0719L1.55396 7.98049L-13.8359 -5.8552C-13.8359 -6.08202 -14.2885 -6.08202 -14.5148 -6.08202Z" fill="white"/>
</svg>
