<svg width="26" height="26" viewBox="0 0 26 26" fill="none" xmlns="http://www.w3.org/2000/svg">
<g clip-path="url(#clip0_2504_8763)">
<path d="M7.87729 0.00138651C7.61948 0.0365428 7.3812 0.169356 7.22104 0.376387L3.81479 4.65764L1.56479 3.15764C1.09995 2.84514 0.471042 2.97404 0.158542 3.43889C-0.153958 3.90373 -0.025052 4.53264 0.439792 4.84514L3.43979 6.84514C3.87729 7.1342 4.46323 7.04045 4.78354 6.62639L8.78354 1.62639C9.04526 1.30998 9.08432 0.864668 8.8851 0.505293C8.68198 0.145918 8.28354 -0.053301 7.87729 0.00138651ZM12.0023 3.00139V5.00139H26.0023V3.00139H12.0023ZM7.87729 9.00139C7.61948 9.03654 7.3812 9.16936 7.22104 9.37639L3.81479 13.6576L1.56479 12.1576C1.09995 11.8451 0.471042 11.974 0.158542 12.4389C-0.153958 12.9037 -0.025052 13.5326 0.439792 13.8451L3.43979 15.8451C3.87729 16.1342 4.46323 16.0405 4.78354 15.6264L8.78354 10.6264C9.04526 10.31 9.08432 9.86467 8.8851 9.50529C8.68198 9.14592 8.28354 8.9467 7.87729 9.00139ZM12.0023 12.0014V14.0014H26.0023V12.0014H12.0023ZM7.87729 18.0014C7.61948 18.0365 7.3812 18.1694 7.22104 18.3764L3.81479 22.6576L1.56479 21.1576C1.09995 20.8451 0.471042 20.974 0.158542 21.4389C-0.153958 21.9037 -0.025052 22.5326 0.439792 22.8451L3.43979 24.8451C3.87729 25.1342 4.46323 25.0405 4.78354 24.6264L8.78354 19.6264C9.04526 19.31 9.08432 18.8647 8.8851 18.5053C8.68198 18.1459 8.28354 17.9467 7.87729 18.0014ZM12.0023 21.0014V23.0014H26.0023V21.0014H12.0023Z" fill="white"/>
</g>
<defs>
<clipPath id="clip0_2504_8763">
<rect width="26" height="26" fill="white"/>
</clipPath>
</defs>
</svg>
