<svg width="32" height="32" viewBox="0 0 32 32" fill="none" xmlns="http://www.w3.org/2000/svg">
<path d="M3.71251 3.19995C2.73038 3.19995 1.92001 4.01032 1.92001 4.99245V28.16C1.92003 28.3297 1.98746 28.4925 2.10748 28.6125C2.2275 28.7325 2.39028 28.7999 2.56001 28.7999H29.44C29.6097 28.7999 29.7725 28.7325 29.8925 28.6125C30.0126 28.4925 30.08 28.3297 30.08 28.16V4.99245C30.08 4.01032 29.2696 3.19995 28.2875 3.19995H3.71251ZM3.71251 4.47995H28.2875C28.5777 4.47995 28.8 4.70226 28.8 4.99245V7.67995H3.20001V4.99245C3.20001 4.70226 3.42232 4.47995 3.71251 4.47995ZM3.20001 8.95995H28.8V27.52H3.20001V8.95995ZM7.04001 12.16V15.36H5.76001C5.59028 15.36 5.4275 15.4274 5.30748 15.5474C5.18746 15.6674 5.12003 15.8302 5.12001 16V18.56C5.12003 18.7297 5.18746 18.8925 5.30748 19.0125C5.4275 19.1325 5.59028 19.1999 5.76001 19.2H7.04001V24.32H8.32001V19.2H9.60001C9.76975 19.1999 9.93252 19.1325 10.0525 19.0125C10.1726 18.8925 10.24 18.7297 10.24 18.56V16C10.24 15.8302 10.1726 15.6674 10.0525 15.5474C9.93252 15.4274 9.76975 15.36 9.60001 15.36H8.32001V12.16H7.04001ZM15.36 12.16V18.56H14.08C13.9103 18.56 13.7475 18.6274 13.6275 18.7474C13.5075 18.8674 13.44 19.0302 13.44 19.2V21.76C13.44 21.9297 13.5075 22.0925 13.6275 22.2125C13.7475 22.3325 13.9103 22.3999 14.08 22.4H15.36V24.32H16.64V22.4H17.92C18.0897 22.3999 18.2525 22.3325 18.3725 22.2125C18.4926 22.0925 18.56 21.9297 18.56 21.76V19.2C18.56 19.0302 18.4926 18.8674 18.3725 18.7474C18.2525 18.6274 18.0897 18.56 17.92 18.56H16.64V12.16H15.36ZM23.68 12.16V15.36H22.4C22.2303 15.36 22.0675 15.4274 21.9475 15.5474C21.8275 15.6674 21.76 15.8302 21.76 16V18.56C21.76 18.7297 21.8275 18.8925 21.9475 19.0125C22.0675 19.1325 22.2303 19.1999 22.4 19.2H23.68V24.32H24.96V19.2H26.24C26.4097 19.1999 26.5725 19.1325 26.6925 19.0125C26.8126 18.8925 26.88 18.7297 26.88 18.56V16C26.88 15.8302 26.8126 15.6674 26.6925 15.5474C26.5725 15.4274 26.4097 15.36 26.24 15.36H24.96V12.16H23.68ZM6.40001 16.64H8.96001V17.92H6.40001V16.64ZM23.04 16.64H25.6V17.92H23.04V16.64ZM14.72 19.84H17.28V21.12H14.72V19.84Z" fill="white"/>
</svg>
