<svg width="32" height="32" viewBox="0 0 32 32" fill="none" xmlns="http://www.w3.org/2000/svg">
<path d="M6.26087 0V9.04348H2.08696C0.94263 9.04348 0 9.98611 0 11.1304V23.6522C0 24.7965 0.94263 25.7391 2.08696 25.7391H6.26087V32H25.7391V25.7391H29.913C31.0574 25.7391 32 24.7965 32 23.6522V11.1304C32 9.98611 31.0574 9.04348 29.913 9.04348H25.7391V0H6.26087ZM7.65217 1.3913H24.3478V9.04348H7.65217V1.3913ZM2.08696 10.4348H6.83967C6.9148 10.4472 6.99145 10.4472 7.06658 10.4348H24.9266C25.0018 10.4472 25.0784 10.4472 25.1535 10.4348H29.913C30.3061 10.4348 30.6087 10.7374 30.6087 11.1304V23.6522C30.6087 24.0452 30.3061 24.3478 29.913 24.3478H25.7391V18.087H25.0435H6.26087V24.3478H2.08696C1.69389 24.3478 1.3913 24.0452 1.3913 23.6522V11.1304C1.3913 10.7374 1.69389 10.4348 2.08696 10.4348ZM27.1304 12.5217C26.7614 12.5217 26.4076 12.6683 26.1466 12.9292C25.8857 13.1902 25.7391 13.544 25.7391 13.913C25.7391 14.282 25.8857 14.6359 26.1466 14.8968C26.4076 15.1578 26.7614 15.3043 27.1304 15.3043C27.4994 15.3043 27.8533 15.1578 28.1142 14.8968C28.3752 14.6359 28.5217 14.282 28.5217 13.913C28.5217 13.544 28.3752 13.1902 28.1142 12.9292C27.8533 12.6683 27.4994 12.5217 27.1304 12.5217ZM7.65217 19.4783H24.3478V24.9266C24.3354 25.0018 24.3354 25.0784 24.3478 25.1535V30.6087H7.65217V25.1603C7.66459 25.0852 7.66459 25.0085 7.65217 24.9334V19.4783ZM10.4348 21.5652C10.3426 21.5639 10.2511 21.5809 10.1655 21.6153C10.08 21.6497 10.0021 21.7007 9.93649 21.7655C9.87084 21.8302 9.81871 21.9073 9.78313 21.9924C9.74755 22.0774 9.72922 22.1687 9.72922 22.2609C9.72922 22.3531 9.74755 22.4443 9.78313 22.5294C9.81871 22.6144 9.87084 22.6916 9.93649 22.7563C10.0021 22.821 10.08 22.872 10.1655 22.9064C10.2511 22.9408 10.3426 22.9578 10.4348 22.9565H21.5652C21.6574 22.9578 21.7489 22.9408 21.8345 22.9064C21.92 22.872 21.9979 22.821 22.0635 22.7563C22.1292 22.6916 22.1813 22.6144 22.2169 22.5294C22.2525 22.4443 22.2708 22.3531 22.2708 22.2609C22.2708 22.1687 22.2525 22.0774 22.2169 21.9924C22.1813 21.9073 22.1292 21.8302 22.0635 21.7655C21.9979 21.7007 21.92 21.6497 21.8345 21.6153C21.7489 21.5809 21.6574 21.5639 21.5652 21.5652H10.4348ZM10.4348 24.3478C10.3426 24.3465 10.2511 24.3636 10.1655 24.3979C10.08 24.4323 10.0021 24.4833 9.93649 24.5481C9.87084 24.6128 9.81871 24.6899 9.78313 24.775C9.74755 24.86 9.72922 24.9513 9.72922 25.0435C9.72922 25.1357 9.74755 25.2269 9.78313 25.312C9.81871 25.397 9.87084 25.4742 9.93649 25.5389C10.0021 25.6036 10.08 25.6547 10.1655 25.689C10.2511 25.7234 10.3426 25.7404 10.4348 25.7391H18.7826C18.8748 25.7404 18.9663 25.7234 19.0519 25.689C19.1374 25.6547 19.2153 25.6036 19.2809 25.5389C19.3466 25.4742 19.3987 25.397 19.4343 25.312C19.4698 25.2269 19.4882 25.1357 19.4882 25.0435C19.4882 24.9513 19.4698 24.86 19.4343 24.775C19.3987 24.6899 19.3466 24.6128 19.2809 24.5481C19.2153 24.4833 19.1374 24.4323 19.0519 24.3979C18.9663 24.3636 18.8748 24.3465 18.7826 24.3478H10.4348ZM10.4348 27.1304C10.3426 27.1291 10.2511 27.1462 10.1655 27.1805C10.08 27.2149 10.0021 27.2659 9.93649 27.3307C9.87084 27.3954 9.81871 27.4725 9.78313 27.5576C9.74755 27.6426 9.72922 27.7339 9.72922 27.8261C9.72922 27.9183 9.74755 28.0096 9.78313 28.0946C9.81871 28.1796 9.87084 28.2568 9.93649 28.3215C10.0021 28.3862 10.08 28.4373 10.1655 28.4716C10.2511 28.506 10.3426 28.523 10.4348 28.5217H21.5652C21.6574 28.523 21.7489 28.506 21.8345 28.4716C21.92 28.4373 21.9979 28.3862 22.0635 28.3215C22.1292 28.2568 22.1813 28.1796 22.2169 28.0946C22.2525 28.0096 22.2708 27.9183 22.2708 27.8261C22.2708 27.7339 22.2525 27.6426 22.2169 27.5576C22.1813 27.4725 22.1292 27.3954 22.0635 27.3307C21.9979 27.2659 21.92 27.2149 21.8345 27.1805C21.7489 27.1462 21.6574 27.1291 21.5652 27.1304H10.4348Z" fill="white"/>
</svg>
