<svg width="32" height="32" viewBox="0 0 32 32" fill="none" xmlns="http://www.w3.org/2000/svg">
<path d="M7.68 1.28003C5.5675 1.28003 3.84 3.00753 3.84 5.12003V27.1475C3.84 29.18 5.6525 30.72 7.68 30.72H28.16V29.44H7.68C6.2975 29.44 5.12 28.4025 5.12 27.1475C5.12 25.8925 6.2725 24.96 7.68 24.96H28.16V1.28003H7.68ZM7.68 2.56003H26.88V23.68H7.68C6.725 23.68 5.82 24.025 5.12 24.5875V5.12003C5.12 3.70003 6.26 2.56003 7.68 2.56003ZM9.6 5.76003C8.9 5.76003 8.32 6.34003 8.32 7.04003V9.60003C8.32 10.3 8.9 10.88 9.6 10.88H23.04C23.74 10.88 24.32 10.3 24.32 9.60003V7.04003C24.32 6.34003 23.74 5.76003 23.04 5.76003H9.6ZM9.6 7.04003H23.04V9.60003H9.6V7.04003Z" fill="white"/>
</svg>
