<svg width="50" height="50" viewBox="0 0 50 50" fill="none" xmlns="http://www.w3.org/2000/svg">
<path d="M16.8194 13C14.7224 13 13 14.7224 13 16.8194V34.1806C13 36.2776 14.7224 38 16.8194 38H34.1806C36.2776 38 38 36.2776 38 34.1806V16.8194C38 14.7224 36.2776 13 34.1806 13H16.8194ZM16.8194 15.0833H34.1806C35.1515 15.0833 35.9167 15.8485 35.9167 16.8194V31.0244L31.7419 26.9852C31.7414 26.9847 31.741 26.9843 31.7405 26.9838C31.2002 26.4621 30.4909 26.1944 29.7874 26.1944C29.0842 26.1944 28.3749 26.4621 27.8343 26.9852L26.4115 28.3619L22.12 24.2101C21.5808 23.6873 20.8723 23.4167 20.1655 23.4167C19.4577 23.4167 18.7507 23.689 18.2124 24.2088C18.2119 24.2092 18.2115 24.2097 18.211 24.2101L15.0833 27.2361V16.8194C15.0833 15.8485 15.8485 15.0833 16.8194 15.0833ZM30.0139 17.8611C29.059 17.8611 28.211 18.2567 27.6729 18.8621C27.1347 19.4675 26.8889 20.2338 26.8889 20.9861C26.8889 21.7384 27.1347 22.5047 27.6729 23.1101C28.211 23.7155 29.059 24.1111 30.0139 24.1111C30.9687 24.1111 31.8168 23.7155 32.3549 23.1101C32.8931 22.5047 33.1389 21.7384 33.1389 20.9861C33.1389 20.2338 32.8931 19.4675 32.3549 18.8621C31.8168 18.2567 30.9687 17.8611 30.0139 17.8611ZM30.0139 19.9444C30.4479 19.9444 30.6415 20.0697 30.7979 20.2456C30.9542 20.4214 31.0556 20.6968 31.0556 20.9861C31.0556 21.2755 30.9542 21.5508 30.7979 21.7267C30.6415 21.9025 30.4479 22.0278 30.0139 22.0278C29.5799 22.0278 29.3862 21.9025 29.2299 21.7267C29.0736 21.5508 28.9722 21.2755 28.9722 20.9861C28.9722 20.6968 29.0736 20.4214 29.2299 20.2456C29.3862 20.0697 29.5799 19.9444 30.0139 19.9444ZM20.1655 25.5C20.3463 25.5 20.5245 25.565 20.6701 25.7062C20.6705 25.7066 20.671 25.7071 20.6714 25.7075L24.9127 29.8104L18.6003 35.9167H16.8194C15.8485 35.9167 15.0833 35.1515 15.0833 34.1806V30.1346L19.6596 25.7075C19.8075 25.5647 19.9859 25.5 20.1655 25.5ZM29.7874 28.2778C29.9714 28.2778 30.1476 28.3419 30.2933 28.4826L35.9167 33.9229V34.1806C35.9167 35.1515 35.1515 35.9167 34.1806 35.9167H21.5978L29.2828 28.4826C29.4269 28.3432 29.6045 28.2778 29.7874 28.2778Z" fill="white"/>
</svg>
