<svg width="21" height="20" viewBox="0 0 21 20" fill="none" xmlns="http://www.w3.org/2000/svg">
<path fill-rule="evenodd" clip-rule="evenodd" d="M8.01853 3.39989C7.31054 3.43221 6.82706 3.54463 6.40398 3.70906C5.96018 3.87609 5.55812 4.1379 5.2259 4.47625C4.88747 4.80844 4.62558 5.2105 4.45851 5.65433C4.2942 6.07743 4.18178 6.56092 4.14959 7.26891C4.11709 7.97824 4.10944 8.20483 4.10944 10.0112C4.10944 11.8177 4.11709 12.0442 4.14959 12.7536C4.18191 13.4616 4.29433 13.9451 4.45877 14.3681C4.62579 14.8119 4.8876 15.214 5.22595 15.5462C5.55818 15.8846 5.96023 16.1464 6.40404 16.3134C6.82714 16.4778 7.31062 16.5903 8.01858 16.6226C8.72802 16.6549 8.95453 16.6626 10.7609 16.6626C12.5673 16.6626 12.7939 16.6549 13.5033 16.6226C14.2112 16.5903 14.6947 16.4778 15.1178 16.3134C16.0112 15.9678 16.7175 15.2615 17.0631 14.3681C17.2275 13.945 17.3399 13.4615 17.3722 12.7536C17.4046 12.0441 17.4123 11.8176 17.4123 10.0112C17.4123 8.20485 17.4046 7.97824 17.3722 7.26891C17.3399 6.56092 17.2275 6.07743 17.0631 5.65436C16.8961 5.21053 16.6342 4.8085 16.2959 4.47627C15.9637 4.13784 15.5616 3.87598 15.1177 3.70893C14.6946 3.54463 14.2111 3.43221 13.5032 3.40002C12.7938 3.36752 12.5672 3.35986 10.7608 3.35986C8.95445 3.35986 8.72787 3.36752 8.01853 3.39989ZM13.4487 4.59714C14.0972 4.62673 14.4493 4.73506 14.6837 4.82615C14.9727 4.93277 15.234 5.1028 15.4485 5.32371C15.6694 5.53826 15.8395 5.79959 15.9461 6.08849C16.0372 6.32287 16.1455 6.67505 16.1751 7.32355C16.2071 8.02494 16.2139 8.23529 16.2139 10.0113C16.2139 11.7874 16.2071 11.9977 16.1751 12.6991C16.1455 13.3476 16.0371 13.6998 15.9461 13.9342C15.7223 14.5143 15.2638 14.9728 14.6837 15.1965C14.4494 15.2876 14.0972 15.396 13.4487 15.4255C12.7474 15.4575 12.5371 15.4643 10.7609 15.4643C8.9847 15.4643 8.77443 15.4575 8.0731 15.4255C7.4246 15.3959 7.07244 15.2876 6.83804 15.1965C6.54914 15.0899 6.28781 14.9199 6.07326 14.699C5.85235 14.4844 5.68231 14.2231 5.5757 13.9342C5.48461 13.6998 5.37625 13.3476 5.34668 12.6991C5.31468 11.9978 5.3079 11.7874 5.3079 10.0113C5.3079 8.23529 5.31468 8.02499 5.34668 7.32355C5.37628 6.67505 5.48461 6.32289 5.5757 6.08849C5.68234 5.79957 5.85237 5.53823 6.07331 5.32368C6.28786 5.10277 6.54919 4.93274 6.83809 4.82613C7.07247 4.73504 7.42465 4.62668 8.07315 4.59711C8.77454 4.56511 8.98489 4.55832 10.7609 4.55832C12.5369 4.55835 12.7472 4.56514 13.4487 4.59714ZM8.54376 10.0112C8.54376 8.78674 9.53642 7.79413 10.7609 7.79413C11.9854 7.79416 12.978 8.78679 12.978 10.0112C12.978 11.2357 11.9853 12.2283 10.7608 12.2283C9.53637 12.2283 8.54373 11.2357 8.54376 10.0112ZM7.3453 10.0112C7.3453 11.8976 8.87452 13.4269 10.7609 13.4269C12.6472 13.4269 14.1765 11.8976 14.1765 10.0112C14.1765 8.12489 12.6472 6.59567 10.7609 6.59567C8.87452 6.59567 7.3453 8.12489 7.3453 10.0112ZM14.3114 7.25886C14.7522 7.25886 15.1095 6.90152 15.1095 6.4607C15.1095 6.01991 14.7522 5.66255 14.3114 5.66255C13.8706 5.66255 13.5133 6.01991 13.5133 6.4607C13.5133 6.90152 13.8706 7.25886 14.3114 7.25886Z" fill="white"/>
</svg>
