<svg width="50" height="50" viewBox="0 0 50 50" fill="none" xmlns="http://www.w3.org/2000/svg">
<path d="M31.6445 13C30.2723 12.9999 28.8996 13.5229 27.8548 14.5675L24.8779 17.5444C23.3942 19.0281 22.9701 21.1706 23.5941 23.0377L25.7326 20.8992C25.8219 20.2878 26.0919 19.6979 26.5617 19.2282L29.5386 16.2513C30.119 15.6714 30.8824 15.3803 31.6445 15.3803C32.4065 15.3803 33.1693 15.6708 33.7492 16.2513C34.9096 17.4123 34.9096 19.3004 33.7492 20.4608L30.7723 23.4377C30.3026 23.9074 29.7134 24.1769 29.1013 24.2668L26.9617 26.4064C27.5142 26.591 28.0895 26.689 28.6664 26.689C30.0388 26.689 31.4112 26.1664 32.4561 25.1215L35.433 22.1446C37.5228 20.0554 37.5222 16.6567 35.433 14.5675C34.3881 13.5232 33.0167 13.0001 31.6445 13ZM28.049 20.7259C27.7396 20.7352 27.446 20.8644 27.2303 21.0864L20.0858 28.2309C19.9715 28.3407 19.8803 28.4721 19.8174 28.6175C19.7546 28.7629 19.7214 28.9194 19.7197 29.0779C19.7181 29.2363 19.7481 29.3934 19.808 29.5401C19.8679 29.6868 19.9565 29.82 20.0685 29.9321C20.1805 30.0441 20.3138 30.1326 20.4604 30.1925C20.6071 30.2524 20.7643 30.2824 20.9227 30.2808C21.0811 30.2792 21.2376 30.246 21.383 30.1831C21.5284 30.1203 21.6599 30.029 21.7696 29.9147L28.9141 22.7702C29.0862 22.603 29.2037 22.3876 29.2513 22.1524C29.2989 21.9172 29.2743 21.6731 29.1808 21.4522C29.0872 21.2312 28.9291 21.0436 28.7272 20.914C28.5252 20.7844 28.2888 20.7189 28.049 20.7259ZM20.5998 24.3238C19.1399 24.2495 17.657 24.7657 16.5438 25.8785L13.5669 28.8554C11.4777 30.9446 11.4777 34.3445 13.5669 36.4336C14.6118 37.4779 15.9837 38 17.3554 38C18.7272 38 20.0991 37.4774 21.144 36.4325L24.1209 33.4556C25.6045 31.9719 26.0298 29.8294 25.4058 27.9623L23.2662 30.102C23.1769 30.7134 22.9068 31.3032 22.4371 31.773L19.4602 34.7498C18.2998 35.9108 16.4111 35.9108 15.2507 34.7498C14.0903 33.5889 14.0903 31.7007 15.2507 30.5404L18.2276 27.5635C18.6973 27.0937 19.2871 26.8231 19.8986 26.7332L22.037 24.5947C21.5703 24.4387 21.0864 24.3485 20.5998 24.3238Z" fill="white"/>
</svg>
