<svg width="21" height="20" viewBox="0 0 21 20" fill="none" xmlns="http://www.w3.org/2000/svg">
<path fill-rule="evenodd" clip-rule="evenodd" d="M6.44278 8.13062C6.44278 5.66518 8.3829 3.6665 10.7761 3.6665C13.1693 3.6665 15.1094 5.66518 15.1094 8.13062C15.1094 10.1804 12.114 14.6947 11.104 16.1586C11.0238 16.275 10.8999 16.3332 10.7761 16.3332C10.6524 16.3332 10.5284 16.275 10.4482 16.1586C9.43822 14.6947 6.44278 10.1804 6.44278 8.13062ZM8.74913 8.1307C8.74913 6.9773 9.65671 6.04253 10.7761 6.04253C11.8955 6.04253 12.8031 6.9773 12.8031 8.1307C12.8031 9.28389 11.8955 10.2187 10.7761 10.2187C9.65671 10.2187 8.74913 9.28389 8.74913 8.1307Z" fill="white"/>
</svg>
