<svg width="25" height="25" viewBox="0 0 25 25" fill="none" xmlns="http://www.w3.org/2000/svg">
<path fill-rule="evenodd" clip-rule="evenodd" d="M19.236 10.4646L19.2361 10.4788C19.2343 11.6667 18.8964 12.8299 18.2519 13.8489L14.0556 20.0854C13.9205 20.2863 13.7476 20.4591 13.5467 20.5943C12.6876 21.1724 11.5225 20.9445 10.9444 20.0854L6.7384 13.834C6.10359 12.8299 5.76576 11.6667 5.76404 10.4646C5.84118 6.81329 8.86092 3.91434 12.4877 3.98623C16.1391 3.91434 19.1588 6.81329 19.236 10.4646ZM12.4877 5.23599C9.5258 5.17767 7.0763 7.52919 7.01387 10.4768C7.01536 11.4289 7.28613 12.3612 7.78519 13.1511L11.9814 19.3876C12.1741 19.6739 12.5625 19.7499 12.8489 19.5572C12.9159 19.5121 12.9735 19.4545 13.0185 19.3876L17.205 13.166C17.7126 12.3632 17.9833 11.4336 17.9861 10.4839C17.9197 7.52543 15.4718 5.17772 12.4877 5.23599ZM12.5 12.7472C10.9527 12.7472 9.68611 11.5418 9.68611 10.0389C9.68611 8.53602 10.9527 7.33055 12.5 7.33055C14.0473 7.33055 15.3139 8.53602 15.3139 10.0389C15.3139 11.5418 14.0473 12.7472 12.5 12.7472ZM12.5 11.4972C13.3704 11.4972 14.0639 10.8372 14.0639 10.0389C14.0639 9.24057 13.3704 8.58055 12.5 8.58055C11.6296 8.58055 10.9361 9.24057 10.9361 10.0389C10.9361 10.8372 11.6296 11.4972 12.5 11.4972Z" fill="#1F4274"/>
</svg>
