<svg width="132" height="59" viewBox="0 0 132 59" fill="none" xmlns="http://www.w3.org/2000/svg">
<circle cx="28.7209" cy="28.7209" r="28.343" fill="white" stroke="#F79533" stroke-width="0.755814"/>
<path d="M24.5171 18.2922C25.8626 15.6266 24.7093 9.85569 28.5534 9.85569C31.4914 9.85569 30.503 15.7915 32.0955 18.3746C30.9148 16.3411 33.2213 13.4007 36.5986 11.5595C35.8298 7.57481 33.2762 3.59015 28.3612 3.59015C23.8032 3.59015 20.8652 7.95954 19.8767 12.1366C23.0069 13.8404 25.2036 16.5609 24.5171 18.2922Z" fill="#00AF91"/>
<path d="M34.8712 19.3638C37.6719 18.3745 41.1042 13.7303 43.6852 16.4784C45.7171 18.6493 40.1981 22.1943 39.5116 25.1622C40.1706 22.6615 43.7402 22.7439 47.1449 24.4202C50.028 21.0951 51.7853 15.9837 48.1334 12.054C45.1405 8.83879 40.253 9.5258 36.5736 11.5319C37.2601 15.0494 36.5462 18.5669 34.8712 19.3638Z" fill="#148DCD"/>
<path d="M47.1408 24.4204C44.9167 27.0036 42.0337 28.515 40.4686 27.5807C42.8849 29.3669 48.4863 29.8341 47.5253 33.4615C46.8113 36.2645 41.4845 33.7638 38.4916 34.5332C40.6333 34.0936 42.9398 37.0889 43.9283 40.7988C47.9646 41.0461 52.4128 39.5622 53.6209 34.8905C54.8291 30.3562 51.0673 26.3441 47.1408 24.4204Z" fill="#98A93F"/>
<path d="M36.5726 36.7584C36.4353 39.7813 41.0208 44.343 37.5611 46.3491C35.0624 47.8056 32.9207 42.227 30.2847 40.6606C32.3166 41.8973 31.438 45.2499 29.1864 48.1628C31.7949 51.5979 36.3255 54.3184 40.8561 51.6528C44.5629 49.4819 44.9748 44.7552 43.9313 40.798C40.0598 40.5507 36.5177 38.7645 36.5726 36.7584Z" fill="#C45827"/>
<path d="M27.6466 40.7713C25.2028 42.5575 23.775 48.4658 20.3153 46.7345C17.6793 45.4154 21.3312 40.4415 21.0566 37.4186C21.2763 39.782 17.8441 41.3483 13.9725 41.4308C12.7918 45.388 13.2311 50.197 17.6793 52.423C21.8529 54.5115 26.5482 51.626 29.2391 48.1635C27.0425 45.3055 26.1913 41.9804 27.6466 40.7713Z" fill="#864D90"/>
<path d="M19.3279 35.3301C16.4174 34.5882 10.9533 37.611 9.8824 33.7912C9.11358 31.0157 14.9896 30.3562 17.1862 28.2402C15.4564 29.834 12.2438 28.2676 9.82748 25.4372C5.98337 27.1684 2.52366 30.7409 3.89656 35.6324C5.07725 39.8644 9.77257 41.5132 13.9736 41.4308C15.017 37.8308 17.4059 34.9454 19.3279 35.3301Z" fill="#F89633"/>
<path d="M17.6534 25.3271C16.3629 22.6066 10.8164 20.3257 13.1229 17.2204C14.8802 14.8846 19.0812 19.2814 22.1016 19.6112C19.6853 19.3364 19.0263 15.8189 19.8775 12.164C16.1432 10.1304 11.0635 9.4984 7.98821 13.6205C5.26987 17.2754 7.02718 22.1669 9.8279 25.437C13.2052 23.8981 16.8571 23.8157 17.7633 25.547C17.7358 25.492 17.6809 25.3821 17.6534 25.3271Z" fill="#0763A4"/>
<path d="M21.1934 53.1098C21.5778 52.2304 21.8524 51.351 21.9897 50.3892C22.127 49.3724 22.0721 48.2457 21.4955 47.3664C21.4131 47.229 21.3032 47.119 21.2209 47.0366C20.9463 47.0091 20.6443 46.8992 20.3422 46.7618C20.1226 46.6519 19.9303 46.5145 19.7931 46.3221C19.6009 46.2946 19.3812 46.2946 19.189 46.3496C18.173 46.5145 17.4042 47.2564 16.7178 47.9709C16.0588 48.6579 15.4272 49.3449 14.9604 50.1419C15.1252 50.3892 15.3174 50.609 15.5371 50.8289C16.0039 49.9495 16.6628 49.235 17.3493 48.5205C18.0083 47.8335 18.9419 46.8992 19.9853 47.2015C21.0287 47.5038 21.3032 48.7679 21.2758 49.7022C21.2483 50.8838 20.8639 52.0655 20.3697 53.1372V53.1647C20.5893 53.1372 20.8914 53.1372 21.1934 53.1098Z" fill="#986BA1"/>
<path d="M20.0667 51.1315C20.2864 50.4719 20.5335 49.675 20.2864 48.9605C20.0667 48.3559 19.4901 47.9712 18.8585 48.1361C18.1721 48.3285 17.6779 49.0155 17.2385 49.5101C16.7717 50.0597 16.3599 50.6368 15.948 51.2139C16.0853 51.3238 16.2226 51.4612 16.3873 51.5712C16.7717 50.9941 17.2111 50.417 17.6779 49.8674C17.925 49.5926 18.1446 49.3178 18.4192 49.0704C18.6663 48.8231 19.0508 48.5208 19.4077 48.6857C20.1216 48.988 19.847 50.0872 19.6823 50.6368C19.4626 51.4063 19.188 52.1482 18.886 52.8627C19.0508 52.9177 19.243 52.9452 19.4077 53.0001C19.6274 52.3956 19.847 51.7635 20.0667 51.1315Z" fill="#986BA1"/>
<path d="M18.3631 51.6267C18.2533 51.929 18.116 52.2588 17.9787 52.5611C18.1434 52.6435 18.3082 52.6985 18.5004 52.7534C18.6651 52.3687 18.8573 51.984 18.9672 51.5718C19.0495 51.297 19.1045 51.0221 19.1045 50.7199C19.1045 50.4725 19.0495 50.1153 18.8573 49.9504C18.6102 49.7306 18.2533 49.8954 18.0611 50.0878C17.8689 50.2802 17.7041 50.5 17.5394 50.7199C17.2648 51.1046 17.0451 51.4893 16.8529 51.929C16.9902 52.0389 17.1549 52.1214 17.3197 52.2038C17.4844 51.8466 17.6492 51.5168 17.8689 51.187C17.9787 51.0221 18.116 50.8573 18.2258 50.6924C18.2807 50.6099 18.3631 50.5275 18.4455 50.4451C18.4455 50.4451 18.4729 50.4176 18.5004 50.4176C18.5278 50.5 18.5278 50.5825 18.5553 50.6649C18.5553 50.7748 18.5553 50.8847 18.5553 50.9947C18.5004 51.2145 18.4455 51.4344 18.3631 51.6267Z" fill="#986BA1"/>
<path d="M28.6052 48.8784C28.2483 48.1089 27.8364 47.3944 27.3421 46.7074C26.8479 45.9929 26.2713 45.0861 25.3377 44.9487C25.0082 44.8937 24.6787 44.9487 24.3492 45.0586C23.855 45.7181 23.3607 46.2952 22.7841 46.6525C22.4821 47.5318 22.5645 48.5486 22.5095 49.4555C22.4546 50.5822 22.3722 51.7364 22.5919 52.8631C22.8665 52.7806 23.1136 52.6982 23.3882 52.6157C23.196 51.544 23.3058 50.4723 23.3333 49.4005C23.3607 48.8234 23.3607 48.2189 23.4156 47.6143C23.4706 47.0372 23.6079 46.5151 24.0746 46.1303C24.4316 45.8555 24.9533 45.6357 25.3926 45.8006C25.8045 45.9655 26.1065 46.3777 26.3537 46.7349C26.9852 47.6143 27.5618 48.4937 27.9737 49.5104C28.2208 49.3181 28.413 49.0982 28.6052 48.8784Z" fill="#986BA1"/>
<path d="M26.6556 48.0266C26.4359 47.4769 26.1339 46.8174 25.5298 46.5701C23.7176 45.8831 23.5529 48.796 23.5803 49.8677C23.6078 50.7196 23.7176 51.5715 23.8549 52.4234C24.0196 52.341 24.2118 52.286 24.3766 52.2036C24.2393 51.4066 24.1569 50.6372 24.1295 49.8403C24.102 49.0708 24.102 48.0815 24.5139 47.3945C24.7335 47.0373 25.1729 46.9273 25.5024 47.2021C25.7495 47.3945 25.9142 47.7243 26.0515 48.0266C26.4085 48.8235 26.6831 49.6479 27.0126 50.4448C27.1499 50.3074 27.3146 50.1975 27.4519 50.0601C27.1773 49.3731 26.9302 48.6861 26.6556 48.0266Z" fill="#986BA1"/>
<path d="M26.5186 49.9499C26.3813 49.5377 26.1891 49.098 25.9145 48.7408C25.7497 48.5209 25.4752 48.3835 25.2006 48.4935C24.9809 48.6034 24.8436 48.8232 24.7887 49.0431C24.6789 49.4553 24.7063 49.9224 24.7338 50.3347C24.7612 50.8568 24.8162 51.3789 24.8711 51.9285C25.0358 51.8186 25.228 51.7362 25.3928 51.6262C25.3653 51.214 25.3104 50.8018 25.2829 50.3896C25.2555 50.1423 25.2555 49.895 25.2555 49.6476C25.2555 49.4828 25.2555 49.2629 25.3379 49.098C25.3653 49.0156 25.3928 48.9881 25.4477 49.0431C25.5301 49.1255 25.585 49.208 25.6399 49.2904C25.7497 49.4828 25.8596 49.7026 25.9419 49.9499C26.0792 50.3072 26.1891 50.6644 26.244 51.0491C26.4087 50.9392 26.5735 50.8018 26.7108 50.6919C26.6833 50.4171 26.6009 50.1972 26.5186 49.9499Z" fill="#986BA1"/>
<path d="M16.8284 46.7073C17.6796 46.2677 18.6406 45.8554 19.3271 45.1684C19.2722 44.3715 19.5468 43.3547 19.9037 42.3105C19.6291 41.9807 19.1898 41.8158 18.7505 41.7059C18.2013 41.5685 17.6522 41.5135 17.103 41.4861C16.4989 41.4586 15.8674 41.5135 15.2633 41.6509C14.7691 41.7609 14.2748 41.8983 13.7806 42.0357C13.6982 42.338 13.6433 42.6402 13.5884 42.9425H13.6158C14.2199 42.8051 14.7965 42.6128 15.4281 42.4754C16.0321 42.3654 16.6362 42.3105 17.2128 42.338C17.762 42.3654 18.3935 42.4204 18.9152 42.6402C19.4644 42.8326 19.4644 43.3547 19.2722 43.8494C18.8603 44.8936 17.6796 45.3883 16.746 45.8554C15.7026 46.3776 14.6867 46.8997 13.6433 47.4218C13.6982 47.6966 13.7806 47.9714 13.8904 48.2188C14.8789 47.6966 15.8674 47.202 16.8284 46.7073Z" fill="#986BA1"/>
<path d="M17.4852 44.6463C17.952 44.2616 18.3364 43.4921 17.7872 42.9975C17.293 42.5578 16.4418 42.5853 15.8377 42.6402C15.0414 42.7501 14.3 42.9975 13.5587 43.2998C13.5312 43.4921 13.5038 43.712 13.4763 43.9043C14.2451 43.602 15.0414 43.2723 15.8652 43.1898C16.2221 43.1349 17.7872 43.0524 17.4577 43.7944C17.3204 44.1242 16.936 44.3715 16.634 44.5364C16.3045 44.7287 15.9475 44.9211 15.5906 45.086C14.9041 45.4432 14.1902 45.7455 13.4489 45.9654C13.4763 46.1577 13.4763 46.3501 13.5038 46.515C14.1902 46.3226 14.8767 46.0203 15.5357 45.718C16.1947 45.4432 16.9086 45.1409 17.4852 44.6463Z" fill="#986BA1"/>
<path d="M14.9592 45.1957C15.1239 45.1407 15.2612 45.0308 15.371 44.9209C15.6456 44.5911 15.4809 44.1514 15.0964 43.9866C14.7944 43.8492 14.41 43.8766 14.0805 43.9591C13.8608 44.014 13.6412 44.124 13.449 44.2614C13.4215 44.5087 13.4215 44.7285 13.4215 44.9759C13.449 44.9759 13.5039 44.9484 13.5313 44.9209C13.751 44.7011 13.9981 44.5637 14.3002 44.5087C14.4375 44.4812 14.5473 44.4812 14.712 44.4812C14.7395 44.4812 14.767 44.4812 14.767 44.4812C14.7395 44.4812 14.7395 44.4812 14.7944 44.4812C14.8219 44.4812 14.9042 44.5087 14.8768 44.5087C14.9042 44.5087 14.9042 44.5362 14.9317 44.5362C14.9042 44.5087 14.9317 44.5362 14.9317 44.5362C14.9317 44.5362 14.9317 44.5362 14.9592 44.5637C14.9592 44.5637 14.9592 44.5911 14.9866 44.5911C14.9866 44.5911 14.9866 44.5911 14.9866 44.6186C14.9592 44.6461 14.9317 44.6736 14.9592 44.6736C14.9317 44.7011 14.8768 44.7285 14.8493 44.756C14.712 44.8385 14.5747 44.8934 14.41 44.9484C14.108 45.0583 13.7785 45.1407 13.449 45.2232C13.449 45.4155 13.449 45.6079 13.4764 45.8003C13.8334 45.7178 14.1629 45.6354 14.4924 45.498C14.6022 45.3331 14.7944 45.2781 14.9592 45.1957ZM14.9592 44.5637C14.9317 44.5637 14.9317 44.5637 14.9592 44.5637V44.5637Z" fill="#986BA1"/>
<path d="M10.3202 24.5573C10.9517 23.8978 11.6382 23.2657 12.2697 22.6062C12.7365 22.0841 13.1483 21.507 13.5877 20.9299C13.3406 20.6276 13.0934 20.2978 12.9287 19.9955C12.4619 20.5726 12.05 21.1772 11.5558 21.7268C10.9792 22.3863 10.3202 22.9909 9.68864 23.5955C9.44152 23.8428 9.22185 24.0901 8.97473 24.3649C9.1944 24.6672 9.41406 24.9695 9.66118 25.2443C9.9083 25.0245 10.1005 24.7771 10.3202 24.5573Z" fill="#4D77B1"/>
<path d="M8.31758 20.3799C8.97657 20.215 9.6081 20.0501 10.2671 19.8853C11.0634 19.6929 11.8597 19.4731 12.6559 19.2807C12.5736 18.9234 12.5461 18.5387 12.6559 18.154C11.7224 18.3738 10.7888 18.6212 9.85523 18.841C9.16878 19.0059 8.50978 19.1982 7.82333 19.3631C7.49384 19.4456 7.1918 19.528 6.8623 19.6105C6.94468 19.9677 7.02705 20.3249 7.13688 20.6547C7.5213 20.5448 7.90571 20.4898 8.31758 20.3799Z" fill="#4D77B1"/>
<path d="M12.7931 17.7695C12.8755 17.5772 12.9853 17.4123 13.1226 17.2199C13.2324 17.0825 13.3423 16.9451 13.4796 16.8627C11.4477 16.0657 9.36087 15.4062 7.27406 14.8566C7.10931 15.1864 6.99948 15.5436 6.88965 15.9009C8.89408 16.3955 10.8436 17.0276 12.7931 17.7695Z" fill="#4D77B1"/>
<path d="M12.8205 14.0589C13.0951 14.9658 13.3696 15.8726 13.6168 16.752C13.9463 16.5597 14.3032 16.5047 14.6876 16.5322C14.413 15.5704 14.1385 14.5811 13.809 13.6193C13.5069 12.63 13.1774 11.6132 12.7656 10.6514C12.4086 10.7063 12.0242 10.7888 11.6947 10.8987C12.1615 11.9155 12.4635 12.9872 12.8205 14.0589Z" fill="#4D77B1"/>
<path d="M16.1675 16.9453C16.6343 16.2582 17.0736 15.5712 17.513 14.8842C17.8974 14.3071 18.2818 13.73 18.6937 13.2079C18.8859 12.9606 19.0781 12.7133 19.2428 12.411C19.3252 12.2736 19.3801 12.0812 19.49 11.9438C19.1605 11.7789 18.831 11.6141 18.474 11.4767C18.474 11.5041 18.4465 11.5041 18.4465 11.5316C18.3093 11.7789 18.1994 12.0537 18.0347 12.2736C17.5953 12.8507 17.156 13.4278 16.7442 14.0323C16.1675 14.8842 15.6458 15.7636 15.0692 16.588C15.4536 16.6705 15.8106 16.7804 16.1675 16.9453Z" fill="#4D77B1"/>
<path d="M8.84001 24.145C9.71866 23.2106 10.5973 22.2488 11.4211 21.2595C11.6956 20.9298 11.4211 20.4901 11.0092 20.5725C9.77358 20.7924 8.53797 20.9847 7.2749 21.2046C7.38473 21.4794 7.46711 21.7267 7.6044 21.974C8.42814 21.8366 9.22442 21.6992 10.0482 21.5618C9.499 22.1939 8.94984 22.8259 8.37322 23.4305C8.53797 23.6778 8.67526 23.9251 8.84001 24.145Z" fill="#4D77B1"/>
<path d="M6.72459 19.0062C7.90529 18.7039 9.08598 18.4016 10.2941 18.3192C10.7609 18.2917 10.8433 17.6871 10.404 17.5222C9.71751 17.2474 8.97615 17.0276 8.26224 16.8352C7.90529 16.7528 7.52088 16.6978 7.16392 16.6154C7.02663 16.5879 6.88934 16.5604 6.75205 16.5329C6.69714 16.8077 6.66968 17.0825 6.66968 17.3573C6.75205 17.3848 6.83443 17.3848 6.9168 17.4123C7.30121 17.4673 7.68562 17.5222 8.07004 17.6321C8.23478 17.6596 8.37207 17.7146 8.53682 17.7421C7.90529 17.8795 7.30121 18.0169 6.69714 18.1818C6.66968 18.4566 6.69714 18.7314 6.72459 19.0062Z" fill="#4D77B1"/>
<path d="M11.2288 15.0764C11.6132 15.2688 11.9702 14.884 11.8054 14.4993C11.4759 13.8398 11.2013 13.1528 10.9268 12.4657C10.7895 12.1085 10.6522 11.7513 10.4874 11.394C10.2403 11.5314 10.0207 11.6688 9.77353 11.8337C9.91082 12.136 10.0207 12.4657 10.1579 12.768C10.2952 13.1253 10.46 13.4825 10.5973 13.8673C9.91082 13.5375 9.22437 13.2627 8.51046 12.9604C8.31826 13.1528 8.15351 13.3726 7.98876 13.5924C7.98876 13.5924 7.98876 13.6199 7.9613 13.6199C9.08708 14.0871 10.1579 14.5543 11.2288 15.0764Z" fill="#4D77B1"/>
<path d="M15.1828 14.0321C15.3201 14.4169 15.8418 14.4169 15.9791 14.0321C16.1988 13.3726 16.5283 12.7955 16.8578 12.191C17.0774 11.8337 17.2696 11.449 17.4893 11.0917C17.2147 11.0093 16.9402 10.9269 16.6656 10.8719C16.4734 11.2017 16.2812 11.5314 16.089 11.8337C15.9242 12.1085 15.7595 12.4108 15.6222 12.6856C15.43 11.9986 15.2378 11.2841 15.1005 10.5696C14.8259 10.5421 14.5238 10.5146 14.2493 10.5146C14.4964 11.7238 14.7984 12.878 15.1828 14.0321Z" fill="#4D77B1"/>
<path d="M15.6742 23.458H15.7017C15.7017 23.458 15.7017 23.458 15.7291 23.458C15.7566 23.458 15.784 23.458 15.8115 23.458C15.8939 23.458 15.9488 23.458 16.0312 23.458C16.0861 23.458 16.1135 23.458 16.1685 23.4305C15.9213 23.1832 15.6468 22.9358 15.3722 22.6885C14.9328 22.7709 14.4935 22.9358 14.0816 23.0732C13.8894 23.1282 13.6972 23.2106 13.505 23.2656C13.6149 23.1282 13.7247 23.0183 13.862 22.8809C14.1366 22.6061 14.3837 22.3038 14.6583 22.0015C14.4661 21.8091 14.2464 21.6168 14.0816 21.4244C14.0267 21.4794 13.9993 21.5343 13.9444 21.5618C13.6972 21.8366 13.4501 22.1114 13.2304 22.3587C12.7911 22.8259 12.3518 23.2931 11.9399 23.8152C11.8301 23.9526 11.885 24.1725 11.9674 24.2824C12.0772 24.4198 12.242 24.4473 12.4067 24.4198C13.0382 24.3099 13.6423 24.0625 14.2464 23.8702C14.5759 23.7602 14.9054 23.6503 15.2623 23.5679C15.3447 23.5129 15.5095 23.4854 15.6742 23.458Z" fill="#4D77B1"/>
<path d="M19.0802 18.4564C19.0253 17.2473 19.19 16.0107 19.0802 14.8015C19.0527 14.6367 18.9978 14.4993 18.8331 14.4168C18.6958 14.3619 18.5036 14.3619 18.3937 14.4993C17.7073 15.2962 17.3778 16.3404 16.8835 17.2473C17.1307 17.3572 17.3778 17.4946 17.6249 17.632C17.8171 17.2748 18.0093 16.8626 18.2015 16.5053C18.2564 16.4229 18.2839 16.3404 18.3388 16.258C18.3114 16.8351 18.2839 17.4122 18.2839 18.0167C18.531 18.1542 18.8056 18.319 19.0802 18.4564Z" fill="#4D77B1"/>
<path d="M49.7818 31.9549L51.3469 30.8557L49.0404 30.6908L50.331 28.7122L47.8872 29.4816L48.7384 27.2832L46.6241 28.3L46.5967 28.2725L47.5303 26.3214L45.4984 27.3931C45.1963 27.1733 44.8943 26.9809 44.5923 26.7885C44.3451 26.9534 44.1255 27.0908 43.8783 27.2008C43.9058 27.2832 43.9607 27.3656 44.0705 27.4206C45.1414 28.0526 46.075 28.8496 46.9536 29.729C47.8048 30.5808 48.7933 31.4053 49.1228 32.6144C49.2876 33.164 49.3699 33.8235 49.013 34.3182C48.6835 34.7579 48.1618 35.0327 47.6675 35.2525C46.6241 35.7197 45.4709 35.8846 44.3451 35.8021C43.1919 35.7197 42.0387 35.4449 40.9403 35.0876C40.803 35.0327 40.6932 35.0602 40.6108 35.1151C40.9953 35.3899 41.3797 35.7472 41.7366 36.1869C41.9837 36.2418 42.2309 36.3243 42.478 36.3792L43.6861 39.1273L44.6746 36.654C44.7021 36.654 44.7021 36.654 44.7295 36.654L45.6357 39.1273L46.2946 36.5166C46.3221 36.5166 46.3496 36.5166 46.377 36.4891L47.2831 38.5502L47.4204 36.2143C47.4479 36.2143 47.4753 36.1869 47.5028 36.1869L49.0679 37.5884L48.7659 35.6922L50.2211 36.4067L49.7818 34.7029L51.5391 35.0602L50.0839 33.164L52.0059 32.6694L49.7818 31.9549Z" fill="#AAB660"/>
<path d="M46.3223 39.3968L46.4321 37.8304L47.1735 39.3968L46.9538 40.2212L46.3223 39.3968Z" fill="#AAB660"/>
<path d="M48.0243 38.5719V37.3353L48.8755 38.2971V39.4513L48.0243 38.5719Z" fill="#AAB660"/>
<path d="M48.8739 28.5695L49.2034 27.6077L50.1919 27.2505L49.8899 28.2398L48.8739 28.5695Z" fill="#AAB660"/>
<path d="M50.0829 30.2184L50.7144 29.1191H51.6205L51.291 29.9161L50.0829 30.2184Z" fill="#AAB660"/>
<path d="M50.9893 31.7025L51.6208 31.1254L52.6367 31.4277L52.0327 32.1422L50.9893 31.7025Z" fill="#AAB660"/>
<path d="M51.1561 33.4334L52.0348 33.1036L52.9684 33.7082L51.9524 34.4776L51.1561 33.4334Z" fill="#AAB660"/>
<path d="M50.4689 35.385L50.716 36.2644L51.6221 36.4292L51.5123 35.385H50.4689Z" fill="#AAB660"/>
<path d="M49.5335 37.3357L49.4237 36.4288L50.1925 37.0334L50.3024 37.8303L49.5335 37.3357Z" fill="#AAB660"/>
<path d="M44.3693 39.0124L44.6988 38.188L45.0283 39.2048L44.6164 40.0841L44.3693 39.0124Z" fill="#AAB660"/>
<path d="M47.7209 27.2502L48.3525 26.9204L48.4623 26.2609L47.8308 26.5906L47.7209 27.2502Z" fill="#AAB660"/>
<path d="M36.5967 11.559C33.2194 13.4001 30.9129 16.3406 32.0936 18.3741C32.5329 19.0886 33.1645 19.5283 34.1255 19.5283C34.3726 19.5008 34.6197 19.4458 34.8943 19.3634C36.5418 18.539 37.2557 15.049 36.5967 11.559ZM34.9767 17.6871C34.7296 18.2642 34.0706 18.5665 33.494 18.3191C32.9173 18.0718 32.6153 17.4123 32.8624 16.8352C33.1095 16.2581 33.7685 15.9558 34.3452 16.2032C34.9218 16.4505 35.2238 17.11 34.9767 17.6871Z" fill="#40BC99"/>
<path d="M39.5071 25.1612C39.5071 25.1612 39.5071 25.1887 39.5071 25.1612C39.3698 25.7658 39.4247 26.3429 39.7816 26.8925C39.9464 27.1398 40.1935 27.3597 40.4681 27.5795C42.0332 28.5139 44.9163 26.975 47.1404 24.4193C43.7081 22.7705 40.1386 22.6605 39.5071 25.1612ZM42.1156 26.6727C41.5389 26.92 40.8525 26.6727 40.6054 26.0956C40.3582 25.5185 40.6054 24.8315 41.182 24.5842C41.7586 24.3368 42.4451 24.5842 42.6922 25.1612C42.9668 25.7383 42.6922 26.4253 42.1156 26.6727Z" fill="#0763A4"/>
<path d="M38.5189 34.5318C38.2992 34.5868 38.107 34.6692 37.9423 34.7517C37.8873 34.7791 37.8599 34.8066 37.805 34.8341C37.5853 34.9715 37.4206 35.1089 37.2833 35.2463C37.0087 35.5211 36.8165 35.8784 36.6792 36.3455C36.6517 36.4005 36.6517 36.4829 36.6243 36.5379C36.6243 36.5928 36.6243 36.6478 36.5968 36.6753C36.5968 36.7028 36.5968 36.7302 36.5968 36.7577C36.5419 38.7638 40.084 40.5775 43.983 40.7974C42.9671 37.0875 40.6606 34.0921 38.5189 34.5318ZM39.068 37.5821C38.4914 37.8295 37.805 37.5821 37.5579 37.0051C37.3107 36.428 37.5579 35.741 38.1345 35.4936C38.7111 35.2463 39.3975 35.4936 39.6447 36.0707C39.8918 36.6478 39.6447 37.3348 39.068 37.5821Z" fill="#8B8A33"/>
<path d="M30.3085 40.6607C30.281 40.6607 30.281 40.6332 30.2536 40.6332C30.1987 40.6057 30.1437 40.5782 30.0614 40.5507C30.0339 40.5507 30.0339 40.5507 30.0064 40.5233C29.0729 40.1111 28.304 40.2759 27.6176 40.7981C26.1623 42.0072 27.041 45.3323 29.1827 48.1903C31.4617 45.2224 32.3404 41.8698 30.3085 40.6607ZM29.0729 43.7385C28.4413 43.7385 27.9196 43.2163 27.9196 42.5843C27.9196 41.9522 28.4413 41.4301 29.0729 41.4301C29.7044 41.4301 30.2261 41.9522 30.2261 42.5843C30.1987 43.2163 29.7044 43.7385 29.0729 43.7385Z" fill="#A8503A"/>
<path d="M21.0547 37.3909C21.0273 37.226 20.9998 37.0886 20.9724 36.9238C20.8351 36.4841 20.6429 36.1268 20.3683 35.8795C20.231 35.7421 20.0663 35.6322 19.8466 35.5223C19.6818 35.4398 19.5171 35.3849 19.3249 35.3299C17.4028 34.9452 15.0414 37.8581 13.9706 41.4305C17.8422 41.3481 21.247 39.7817 21.0547 37.3909ZM18.6934 38.6825C18.0618 38.6825 17.5401 38.1604 17.5401 37.5283C17.5401 36.8963 18.0618 36.3741 18.6934 36.3741C19.3249 36.3741 19.8466 36.8963 19.8466 37.5283C19.8466 38.1879 19.3249 38.6825 18.6934 38.6825Z" fill="#7B377C"/>
<path d="M19.874 12.1357C19.0228 15.8181 19.6818 19.3356 22.0981 19.5829C22.153 19.5829 22.1805 19.5829 22.2354 19.5829C22.2903 19.5829 22.3452 19.5829 22.4001 19.5829H22.4276C22.8395 19.5829 23.1964 19.5004 23.4985 19.363C23.5259 19.363 23.5534 19.3356 23.5808 19.3356C23.6083 19.3356 23.6358 19.3081 23.6358 19.3081C23.6632 19.2806 23.7181 19.2531 23.7456 19.2256L23.773 19.1982C23.8005 19.1707 23.828 19.1432 23.8829 19.1157C23.9103 19.1157 23.9103 19.0882 23.9378 19.0882L23.9652 19.0608C24.1849 18.8409 24.3771 18.5936 24.5419 18.2913C25.2009 16.56 23.0042 13.8395 19.874 12.1357ZM23.4435 17.1096C23.6907 17.6867 23.4435 18.3737 22.8669 18.6211C22.2903 18.8684 21.6039 18.6211 21.3567 18.044C21.1096 17.4669 21.3567 16.7799 21.9334 16.5326C22.51 16.2577 23.1964 16.5326 23.4435 17.1096Z" fill="#1F4375"/>
<path d="M17.1832 28.2393C17.2381 28.1844 17.3205 28.1019 17.3754 28.047C17.4029 28.0195 17.4303 27.992 17.4578 27.9645C17.4853 27.937 17.4853 27.937 17.5127 27.9095C17.6225 27.7447 17.7324 27.5798 17.8147 27.4424C18.0344 26.9752 18.0893 26.4806 17.9246 25.876C17.348 23.7875 13.4489 23.815 9.85193 25.4363C12.2408 28.2393 15.4534 29.8332 17.1832 28.2393ZM14.4923 26.563C14.4923 25.931 15.014 25.4088 15.6456 25.4088C16.2771 25.4088 16.7988 25.931 16.7988 26.563C16.7988 27.1951 16.2771 27.7172 15.6456 27.7172C15.014 27.7172 14.4923 27.1951 14.4923 26.563Z" fill="#C45827"/>
<path d="M29.0708 41.4298C28.4393 41.4298 27.9176 41.952 27.9176 42.584C27.9176 43.2161 28.4393 43.7382 29.0708 43.7382C29.7024 43.7382 30.2241 43.2161 30.2241 42.584C30.1966 41.952 29.7024 41.4298 29.0708 41.4298Z" fill="white"/>
<path d="M18.691 36.4012C18.0594 36.4012 17.5377 36.9233 17.5377 37.5554C17.5377 38.1874 18.0594 38.7095 18.691 38.7095C19.3225 38.7095 19.8442 38.1874 19.8442 37.5554C19.8442 36.9233 19.3225 36.4012 18.691 36.4012Z" fill="white"/>
<path d="M16.7723 26.563C16.7723 25.931 16.2506 25.4088 15.6191 25.4088C14.9875 25.4088 14.4658 25.931 14.4658 26.563C14.4658 27.1951 14.9875 27.7172 15.6191 27.7172C16.2506 27.7172 16.7723 27.1951 16.7723 26.563Z" fill="white"/>
<path d="M38.1326 35.4938C37.556 35.7411 37.3089 36.4281 37.556 37.0052C37.8031 37.5823 38.4896 37.8296 39.0662 37.5823C39.6428 37.335 39.8899 36.648 39.6428 36.0709C39.3957 35.4938 38.7092 35.2465 38.1326 35.4938Z" fill="white"/>
<path d="M41.1802 24.5843C40.6036 24.8316 40.3565 25.5186 40.6036 26.0957C40.8507 26.6728 41.5372 26.9201 42.1138 26.6728C42.6904 26.4255 42.9375 25.7385 42.6904 25.1614C42.4433 24.5843 41.7568 24.337 41.1802 24.5843Z" fill="white"/>
<path d="M34.3447 16.2036C33.7681 15.9563 33.0816 16.2586 32.862 16.8357C32.6149 17.4128 32.9169 18.0998 33.4935 18.3196C34.0701 18.5669 34.7566 18.2647 34.9762 17.6876C35.1959 17.1105 34.9213 16.451 34.3447 16.2036Z" fill="white"/>
<path d="M21.9335 16.5325C21.3569 16.7799 21.1098 17.4669 21.3569 18.044C21.604 18.6211 22.2905 18.8684 22.8671 18.6211C23.4437 18.3737 23.6908 17.6867 23.4437 17.1096C23.1966 16.5325 22.5101 16.2577 21.9335 16.5325Z" fill="white"/>
<path d="M19.7639 23.9259C20.4463 23.9259 20.9995 23.3723 20.9995 22.6893C20.9995 22.0063 20.4463 21.4527 19.7639 21.4527C19.0815 21.4527 18.5283 22.0063 18.5283 22.6893C18.5283 23.3723 19.0815 23.9259 19.7639 23.9259Z" fill="#F5AE15"/>
<path d="M37.0361 23.1838C37.7186 23.1838 38.2718 22.6301 38.2718 21.9471C38.2718 21.2642 37.7186 20.7105 37.0361 20.7105C36.3537 20.7105 35.8005 21.2642 35.8005 21.9471C35.8005 22.6301 36.3537 23.1838 37.0361 23.1838Z" fill="#F5AE15"/>
<path d="M28.2505 19.1716C28.9329 19.1716 29.4861 18.618 29.4861 17.935C29.4861 17.252 28.9329 16.6984 28.2505 16.6984C27.5681 16.6984 27.0149 17.252 27.0149 17.935C27.0149 18.618 27.5681 19.1716 28.2505 19.1716Z" fill="#F5AE15"/>
<path d="M33.4114 40.3034C34.0938 40.3034 34.647 39.7498 34.647 39.0668C34.647 38.3839 34.0938 37.8302 33.4114 37.8302C32.729 37.8302 32.1758 38.3839 32.1758 39.0668C32.1758 39.7498 32.729 40.3034 33.4114 40.3034Z" fill="#F5AE15"/>
<path d="M24.0773 40.7721C24.7597 40.7721 25.3129 40.2185 25.3129 39.5355C25.3129 38.8525 24.7597 38.2989 24.0773 38.2989C23.3949 38.2989 22.8417 38.8525 22.8417 39.5355C22.8417 40.2185 23.3949 40.7721 24.0773 40.7721Z" fill="#F5AE15"/>
<path d="M39.3434 32.4991C40.0258 32.4991 40.579 31.9455 40.579 31.2625C40.579 30.5795 40.0258 30.0259 39.3434 30.0259C38.661 30.0259 38.1078 30.5795 38.1078 31.2625C38.1078 31.9455 38.661 32.4991 39.3434 32.4991Z" fill="#F5AE15"/>
<path d="M17.898 33.4613C18.5804 33.4613 19.1336 32.9077 19.1336 32.2247C19.1336 31.5418 18.5804 30.9881 17.898 30.9881C17.2156 30.9881 16.6624 31.5418 16.6624 32.2247C16.6624 32.9077 17.2156 33.4613 17.898 33.4613Z" fill="#F5AE15"/>
<path d="M28.8828 21.0948C24.1875 20.9025 20.2061 24.5299 20.0139 29.2016C19.8217 33.8732 23.5011 37.8304 28.1964 37.9953C32.9192 38.1877 36.8731 34.5328 37.0653 29.8611C37.2575 25.2169 33.6056 21.2597 28.8828 21.0948ZM35.7473 29.8886C35.5826 33.8183 32.2327 36.8961 28.2788 36.7312C24.2974 36.5663 21.2221 33.2412 21.3868 29.3115C21.5516 25.3818 24.9014 22.304 28.8554 22.4689C32.8093 22.6337 35.8846 25.9589 35.7473 29.8886Z" fill="#F89633"/>
<path d="M28.8287 22.4693C24.8473 22.3044 21.5249 25.3822 21.3602 29.3119C21.1954 33.2416 24.2982 36.5667 28.2521 36.7316C32.2335 36.8965 35.5559 33.8187 35.7207 29.889C35.8854 25.9593 32.8101 22.6342 28.8287 22.4693ZM28.3619 33.8187C25.9731 33.7363 24.1334 31.7302 24.2158 29.3669C24.2982 27.0036 26.3301 25.1624 28.6914 25.2723C31.0528 25.3822 32.92 27.3608 32.8376 29.7241C32.7552 32.0874 30.7508 33.9286 28.3619 33.8187Z" fill="#F5AE15"/>
<path d="M28.5552 33.846C30.936 33.846 32.8661 31.9267 32.8661 29.5591C32.8661 27.1915 30.936 25.2722 28.5552 25.2722C26.1743 25.2722 24.2443 27.1915 24.2443 29.5591C24.2443 31.9267 26.1743 33.846 28.5552 33.846Z" fill="white"/>
<path d="M3.9515 23.9531C3.89658 24.0081 3.86912 24.0356 3.81421 24.0905C3.75929 24.1455 3.73183 24.2004 3.70437 24.2829C3.59454 24.5027 3.56708 24.75 3.64946 25.0248C3.89658 25.9317 5.62643 25.9317 7.19154 25.2172C6.12068 23.9806 4.72032 23.2936 3.9515 23.9531Z" fill="#C45827"/>
<path d="M37.6133 9.41584C39.0686 8.61891 40.0845 7.35481 39.5903 6.44795C39.5354 6.36551 39.4804 6.28307 39.4255 6.22811C39.2059 5.98079 38.9587 5.89835 38.6842 5.92583C38.5743 5.92583 38.4645 5.95331 38.3547 6.00827C37.6133 6.36551 37.3113 7.90442 37.6133 9.41584Z" fill="#40BC99"/>
<path d="M52.5513 23.4035C52.6337 23.1012 52.5787 22.8539 52.414 22.6341C52.3865 22.5791 52.3316 22.5241 52.2767 22.4417C52.2218 22.3867 52.1669 22.3593 52.112 22.3318C51.4255 21.9196 50.1624 22.6066 49.2014 23.7333C50.7116 24.4478 52.2767 24.4753 52.5513 23.4035Z" fill="#0763A4"/>
<path d="M48.569 45.0857C48.6789 45.0583 48.7612 45.0308 48.8711 44.9758C48.9809 44.9209 49.0633 44.8659 49.1456 44.7834C49.3379 44.6186 49.4202 44.3987 49.4477 44.1789C49.4477 44.1514 49.4477 44.1239 49.4477 44.1239C49.4751 43.2445 47.9375 42.4476 46.2076 42.3652C46.6195 43.959 47.608 45.2781 48.569 45.0857Z" fill="#8B8A33"/>
<path d="M28.7189 53.7146C28.7464 53.7421 28.7739 53.7421 28.8013 53.7696C28.8288 53.7696 28.8562 53.797 28.8837 53.797C28.9111 53.797 28.9386 53.8245 28.9386 53.8245C28.9935 53.8245 29.021 53.852 29.0759 53.852C29.1308 53.852 29.2132 53.852 29.2681 53.852C29.2956 53.852 29.2956 53.852 29.323 53.852C29.3505 53.852 29.3779 53.852 29.3779 53.852C29.4054 53.852 29.4054 53.852 29.4328 53.852C29.4603 53.852 29.4878 53.8245 29.5152 53.8245H29.5427C29.5976 53.797 29.6525 53.7696 29.7074 53.7421C29.7623 53.7146 29.7898 53.6871 29.8173 53.6596C30.4488 53.11 30.0644 51.681 29.1033 50.4444C28.2247 51.7085 27.8403 53.165 28.7189 53.7146Z" fill="#A8503A"/>
<path d="M9.27868 44.6182C9.27868 44.6182 9.27868 44.6457 9.27868 44.6182C9.30614 44.893 9.38851 45.1128 9.58072 45.3052C9.63564 45.3602 9.71801 45.4151 9.80038 45.4701C9.80038 45.4701 9.82784 45.4701 9.82784 45.4976C9.91022 45.5251 9.96513 45.5525 10.0475 45.58C10.8712 45.7174 11.9147 44.4533 12.3814 42.8869C10.7065 42.9144 9.22377 43.5739 9.27868 44.5907C9.27868 44.5907 9.27868 44.5907 9.27868 44.6182C9.27868 44.6182 9.25123 44.5907 9.27868 44.6182Z" fill="#7B377C"/>
<path d="M19.2461 9.93797C19.603 8.34411 19.3285 6.83268 18.34 6.6678C18.2851 6.6678 18.2301 6.6678 18.1752 6.64032H18.1478H18.1203C18.0928 6.64032 18.0379 6.64032 18.0105 6.64032C17.9281 6.64032 17.8457 6.6678 17.7908 6.69528C17.7633 6.69528 17.7084 6.72276 17.681 6.75024C17.6535 6.75024 17.6535 6.77772 17.6261 6.77772C17.6261 6.77772 17.6261 6.77772 17.5986 6.77772C17.5711 6.77772 17.5711 6.8052 17.5437 6.8052C17.5437 6.8052 17.5437 6.8052 17.5162 6.83268C17.4888 6.83268 17.4888 6.86016 17.4613 6.86016C17.4064 6.91512 17.3515 6.97008 17.2966 7.02505C17.2416 7.08001 17.2142 7.13497 17.1867 7.18993C16.9122 8.01434 17.8732 9.196 19.2461 9.93797Z" fill="#1F4375"/>
<path d="M83.4478 19.6602V43.3719C83.4478 44.3455 82.6627 45.1306 81.6891 45.1306C80.7155 45.1306 79.9304 44.3455 79.9304 43.3719V33.3219H73.0524V43.3719C73.0524 44.3455 72.2673 45.1306 71.2937 45.1306C70.3201 45.1306 69.5349 44.3455 69.5349 43.3719V19.6602C69.5349 14.9807 71.9532 12.0285 76.5071 12.0285C81.061 12.0285 83.4478 14.9493 83.4478 19.6602ZM79.9304 30.0557V20.257C79.9304 16.7709 78.7369 15.389 76.4757 15.389C74.2458 15.389 73.021 16.7709 73.021 20.257V30.0557H79.9304Z" fill="white"/>
<path d="M91.6759 43.3406V14.0701C91.6759 13.0965 92.4611 12.3113 93.4347 12.3113C94.4082 12.3113 95.1934 13.0965 95.1934 14.0701V43.3406C95.1934 44.3142 94.4082 45.0994 93.4347 45.0994C92.4611 45.0994 91.6759 44.3456 91.6759 43.3406Z" fill="white"/>
<path d="M103.328 38.1586V19.943C103.328 15.2635 105.84 12.3113 110.394 12.3113C114.822 12.3113 117.083 14.9495 117.083 19.4719V20.1315C117.083 21.1993 116.298 21.8588 115.356 21.8588C114.414 21.8588 113.629 21.1993 113.629 20.0373C113.629 17.2107 112.844 15.6718 110.362 15.6718C108.038 15.6718 106.845 17.2421 106.845 20.5398V37.5619C106.845 40.7653 107.913 42.0844 110.3 42.0844C112.655 42.0844 113.817 40.6083 113.817 37.2164V30.2757H111.399C110.331 30.2757 109.64 29.4905 109.64 28.5483C109.64 27.6061 110.331 26.821 111.399 26.821H115.073C116.361 26.821 117.083 27.5747 117.083 28.8624V37.7817C117.083 42.4613 114.728 45.4134 110.3 45.4134C105.746 45.4134 103.328 42.8381 103.328 38.1586Z" fill="white"/>
<path d="M125.092 43.3406V14.0701C125.092 13.0965 125.877 12.3113 126.851 12.3113C127.824 12.3113 128.609 13.0965 128.609 14.0701V43.3406C128.609 44.3142 127.824 45.0994 126.851 45.0994C125.877 45.0994 125.092 44.3456 125.092 43.3406Z" fill="white"/>
</svg>
