<svg width="86" height="38" viewBox="0 0 86 38" fill="none" xmlns="http://www.w3.org/2000/svg">
<circle cx="19" cy="19" r="18.75" fill="white" stroke="#F79533" stroke-width="0.5"/>
<path d="M16.2193 12.101C17.1093 10.3376 16.3464 6.51989 18.8895 6.51989C20.8331 6.51989 20.1791 10.4466 21.2327 12.1555C20.4516 10.8102 21.9774 8.86503 24.2117 7.64701C23.7031 5.01101 22.0138 2.375 18.7623 2.375C15.747 2.375 13.8034 5.26552 13.1495 8.02878C15.2202 9.1559 16.6734 10.9557 16.2193 12.101Z" fill="#00AF91"/>
<path d="M23.0687 12.8099C24.9215 12.1554 27.1921 9.08311 28.8995 10.901C30.2437 12.3372 26.5926 14.6824 26.1385 16.6457C26.5745 14.9914 28.9359 15.0459 31.1883 16.1549C33.0955 13.9552 34.2581 10.5738 31.8422 7.97417C29.8623 5.84718 26.629 6.30166 24.1949 7.62876C24.649 9.95572 24.1768 12.2827 23.0687 12.8099Z" fill="#148DCD"/>
<path d="M31.1858 16.155C29.7145 17.8639 27.8072 18.8638 26.7718 18.2457C28.3703 19.4273 32.0759 19.7364 31.4401 22.136C30.9678 23.9903 27.4439 22.336 25.464 22.845C26.8808 22.5542 28.4066 24.5357 29.0606 26.9899C31.7307 27.1535 34.6734 26.1719 35.4726 23.0814C36.2719 20.0818 33.7833 17.4276 31.1858 16.155Z" fill="#98A93F"/>
<path d="M24.1941 24.3171C24.1033 26.3169 27.1368 29.3346 24.848 30.6617C23.1951 31.6252 21.7782 27.9348 20.0344 26.8986C21.3786 27.7167 20.7974 29.9346 19.3079 31.8616C21.0335 34.134 24.0306 35.9338 27.0278 34.1704C29.48 32.7342 29.7525 29.6073 29.0622 26.9895C26.501 26.8259 24.1578 25.6442 24.1941 24.3171Z" fill="#C45827"/>
<path d="M18.2895 26.9718C16.6729 28.1534 15.7283 32.062 13.4396 30.9167C11.6958 30.0441 14.1117 26.7536 13.93 24.7539C14.0753 26.3173 11.8048 27.3536 9.24357 27.4081C8.46249 30.0259 8.75312 33.2073 11.6958 34.6798C14.4568 36.0615 17.5629 34.1526 19.343 31.862C17.8899 29.9714 17.3268 27.7717 18.2895 26.9718Z" fill="#864D90"/>
<path d="M12.7864 23.3722C10.8609 22.8814 7.24618 24.8811 6.53777 22.3542C6.02916 20.518 9.91637 20.0817 11.3695 18.6819C10.2252 19.7363 8.09992 18.7001 6.50144 16.8276C3.95841 17.9729 1.66968 20.3363 2.5779 23.5722C3.35898 26.3718 6.46511 27.4626 9.24428 27.408C9.93453 25.0265 11.5148 23.1177 12.7864 23.3722Z" fill="#F89633"/>
<path d="M11.6784 16.7548C10.8247 14.955 7.15543 13.4461 8.68125 11.3919C9.84378 9.84663 12.6229 12.7553 14.621 12.9735C13.0226 12.7917 12.5866 10.4647 13.1497 8.04688C10.6793 6.7016 7.31891 6.28348 5.28448 9.01038C3.48619 11.4282 4.64872 14.6642 6.5015 16.8275C8.73574 15.8095 11.1516 15.7549 11.751 16.9002C11.7329 16.8639 11.6966 16.7911 11.6784 16.7548Z" fill="#0763A4"/>
<path d="M14.0207 35.1341C14.275 34.5523 14.4566 33.9706 14.5475 33.3343C14.6383 32.6617 14.6019 31.9163 14.2205 31.3346C14.166 31.2437 14.0933 31.171 14.0388 31.1164C13.8572 31.0983 13.6574 31.0255 13.4576 30.9346C13.3123 30.8619 13.1851 30.771 13.0943 30.6438C12.9671 30.6256 12.8218 30.6256 12.6947 30.662C12.0226 30.771 11.514 31.2619 11.0599 31.7345C10.6239 32.189 10.2061 32.6435 9.89734 33.1707C10.0063 33.3343 10.1335 33.4798 10.2788 33.6252C10.5876 33.0435 11.0235 32.5708 11.4777 32.0981C11.9136 31.6436 12.5312 31.0255 13.2214 31.2255C13.9117 31.4255 14.0933 32.2617 14.0752 32.8798C14.057 33.6616 13.8027 34.4433 13.4757 35.1523V35.1704C13.6211 35.1523 13.8209 35.1523 14.0207 35.1341Z" fill="#986BA1"/>
<path d="M13.2748 33.8252C13.4202 33.3889 13.5836 32.8617 13.4202 32.3891C13.2748 31.9891 12.8934 31.7346 12.4756 31.8437C12.0215 31.9709 11.6945 32.4254 11.4039 32.7527C11.0951 33.1162 10.8226 33.498 10.5502 33.8798C10.641 33.9525 10.7318 34.0434 10.8408 34.1161C11.0951 33.7343 11.3857 33.3526 11.6945 32.989C11.858 32.8072 12.0033 32.6254 12.185 32.4618C12.3485 32.2982 12.6028 32.0982 12.8389 32.2073C13.3112 32.4073 13.1295 33.1344 13.0205 33.498C12.8752 34.007 12.6936 34.4979 12.4938 34.9705C12.6028 35.0069 12.7299 35.0251 12.8389 35.0614C12.9842 34.6615 13.1295 34.2434 13.2748 33.8252Z" fill="#986BA1"/>
<path d="M12.1482 34.1529C12.0756 34.3529 11.9847 34.571 11.8939 34.771C12.0029 34.8256 12.1119 34.8619 12.239 34.8983C12.348 34.6438 12.4752 34.3893 12.5478 34.1166C12.6023 33.9348 12.6387 33.753 12.6387 33.553C12.6387 33.3894 12.6023 33.1531 12.4752 33.044C12.3117 32.8985 12.0756 33.0076 11.9484 33.1349C11.8213 33.2621 11.7123 33.4076 11.6033 33.553C11.4216 33.8075 11.2763 34.062 11.1492 34.3529C11.24 34.4256 11.349 34.4801 11.458 34.5347C11.567 34.2984 11.6759 34.0802 11.8213 33.862C11.8939 33.753 11.9847 33.6439 12.0574 33.5348C12.0937 33.4803 12.1482 33.4257 12.2027 33.3712C12.2027 33.3712 12.2209 33.353 12.239 33.353C12.2572 33.4076 12.2572 33.4621 12.2754 33.5166C12.2754 33.5894 12.2754 33.6621 12.2754 33.7348C12.239 33.8802 12.2027 34.0257 12.1482 34.1529Z" fill="#986BA1"/>
<path d="M18.9236 32.3349C18.6875 31.8258 18.415 31.3532 18.088 30.8987C17.7611 30.426 17.3796 29.8261 16.762 29.7352C16.5441 29.6989 16.3261 29.7352 16.1081 29.8079C15.7812 30.2442 15.4542 30.626 15.0727 30.8623C14.8729 31.4441 14.9274 32.1167 14.8911 32.7166C14.8548 33.462 14.8003 34.2255 14.9456 34.9709C15.1272 34.9163 15.2907 34.8618 15.4724 34.8073C15.3452 34.0983 15.4179 33.3893 15.436 32.6803C15.4542 32.2985 15.4542 31.8986 15.4905 31.4986C15.5268 31.1168 15.6177 30.7714 15.9265 30.5169C16.1626 30.3351 16.5077 30.1897 16.7984 30.2988C17.0708 30.4078 17.2706 30.6805 17.4341 30.9169C17.8519 31.4986 18.2334 32.0803 18.5058 32.753C18.6693 32.6257 18.7965 32.4803 18.9236 32.3349Z" fill="#986BA1"/>
<path d="M17.6338 31.7713C17.4885 31.4078 17.2886 30.9714 16.889 30.8078C15.6902 30.3533 15.5812 32.2804 15.5993 32.9894C15.6175 33.5529 15.6902 34.1165 15.781 34.68C15.89 34.6255 16.0171 34.5891 16.1261 34.5346C16.0353 34.0074 15.9808 33.4984 15.9626 32.9712C15.9445 32.4622 15.9445 31.8077 16.2169 31.3532C16.3623 31.1169 16.6529 31.0442 16.8709 31.226C17.0343 31.3532 17.1433 31.5714 17.2342 31.7713C17.4703 32.2985 17.6519 32.8439 17.8699 33.3711C17.9607 33.2802 18.0697 33.2075 18.1605 33.1166C17.9789 32.6621 17.8154 32.2076 17.6338 31.7713Z" fill="#986BA1"/>
<path d="M17.5431 33.0435C17.4523 32.7709 17.3252 32.48 17.1435 32.2437C17.0345 32.0982 16.8529 32.0073 16.6712 32.08C16.5259 32.1528 16.4351 32.2982 16.3988 32.4436C16.3261 32.7163 16.3443 33.0254 16.3624 33.2981C16.3806 33.6435 16.4169 33.9889 16.4533 34.3525C16.5622 34.2797 16.6894 34.2252 16.7984 34.1525C16.7802 33.8798 16.7439 33.6071 16.7257 33.3344C16.7076 33.1708 16.7076 33.0072 16.7076 32.8436C16.7076 32.7345 16.7076 32.5891 16.7621 32.48C16.7802 32.4254 16.7984 32.4073 16.8347 32.4436C16.8892 32.4982 16.9255 32.5527 16.9619 32.6072C17.0345 32.7345 17.1072 32.8799 17.1617 33.0435C17.2525 33.2799 17.3252 33.5162 17.3615 33.7707C17.4705 33.698 17.5795 33.6071 17.6703 33.5344C17.6521 33.3526 17.5976 33.2072 17.5431 33.0435Z" fill="#986BA1"/>
<path d="M11.1327 30.8986C11.6958 30.6077 12.3315 30.335 12.7856 29.8805C12.7493 29.3533 12.931 28.6807 13.1671 27.9899C12.9855 27.7717 12.6948 27.6626 12.4042 27.5899C12.0409 27.499 11.6776 27.4627 11.3143 27.4445C10.9147 27.4263 10.4969 27.4627 10.0973 27.5536C9.77033 27.6263 9.44337 27.7172 9.11641 27.8081C9.06192 28.008 9.02559 28.208 8.98926 28.408H9.00742C9.40704 28.3171 9.7885 28.1898 10.2063 28.0989C10.6059 28.0262 11.0055 27.9899 11.387 28.008C11.7503 28.0262 12.168 28.0626 12.5132 28.208C12.8765 28.3353 12.8765 28.6807 12.7493 29.0079C12.4768 29.6987 11.6958 30.026 11.0782 30.335C10.3879 30.6804 9.71584 31.0258 9.02559 31.3712C9.06192 31.553 9.11641 31.7348 9.18907 31.8984C9.84299 31.553 10.4969 31.2258 11.1327 30.8986Z" fill="#986BA1"/>
<path d="M11.5673 29.535C11.8761 29.2805 12.1304 28.7715 11.7671 28.4443C11.4401 28.1534 10.877 28.1716 10.4774 28.208C9.95064 28.2807 9.46019 28.4443 8.96975 28.6443C8.95159 28.7715 8.93342 28.9169 8.91526 29.0442C9.42387 28.8442 9.95064 28.6261 10.4956 28.5715C10.7317 28.5352 11.7671 28.4806 11.5491 28.9715C11.4583 29.1896 11.204 29.3533 11.0042 29.4623C10.7862 29.5896 10.5501 29.7168 10.3139 29.8259C9.85981 30.0622 9.38754 30.2622 8.89709 30.4077C8.91526 30.5349 8.91526 30.6622 8.93342 30.7712C9.38754 30.644 9.84165 30.444 10.2776 30.244C10.7135 30.0622 11.1858 29.8623 11.5673 29.535Z" fill="#986BA1"/>
<path d="M9.89636 29.8987C10.0054 29.8623 10.0962 29.7896 10.1688 29.7169C10.3505 29.4987 10.2415 29.2079 9.98719 29.0988C9.78738 29.0079 9.53307 29.0261 9.3151 29.0806C9.16978 29.117 9.02447 29.1897 8.89732 29.2806C8.87915 29.4442 8.87915 29.5896 8.87915 29.7532C8.89731 29.7532 8.93364 29.7351 8.95181 29.7169C9.09712 29.5714 9.26061 29.4806 9.46042 29.4442C9.55124 29.426 9.6239 29.426 9.73288 29.426C9.75105 29.426 9.76921 29.426 9.76921 29.426C9.75105 29.426 9.75105 29.426 9.78738 29.426C9.80554 29.426 9.86003 29.4442 9.84187 29.4442C9.86003 29.4442 9.86003 29.4624 9.8782 29.4624C9.86003 29.4442 9.8782 29.4624 9.8782 29.4624C9.8782 29.4624 9.8782 29.4624 9.89636 29.4806C9.89636 29.4806 9.89636 29.4987 9.91453 29.4987C9.91453 29.4987 9.91453 29.4987 9.91453 29.5169C9.89636 29.5351 9.8782 29.5533 9.89636 29.5533C9.8782 29.5714 9.84187 29.5896 9.82371 29.6078C9.73288 29.6623 9.64206 29.6987 9.53307 29.7351C9.33326 29.8078 9.11529 29.8623 8.89732 29.9169C8.89732 30.0441 8.89732 30.1714 8.91548 30.2986C9.15162 30.2441 9.36959 30.1895 9.58757 30.0986C9.66023 29.9896 9.78738 29.9532 9.89636 29.8987ZM9.89636 29.4806C9.8782 29.4806 9.8782 29.4806 9.89636 29.4806V29.4806Z" fill="#986BA1"/>
<path d="M6.8275 16.2456C7.24528 15.8093 7.6994 15.3911 8.11718 14.9548C8.42598 14.6094 8.69845 14.2276 8.98908 13.8459C8.8256 13.6459 8.66212 13.4278 8.55313 13.2278C8.24433 13.6095 7.97186 14.0095 7.6449 14.3731C7.26345 14.8094 6.8275 15.2093 6.40972 15.6093C6.24624 15.7729 6.10092 15.9365 5.93744 16.1183C6.08276 16.3183 6.22807 16.5182 6.39155 16.7C6.55503 16.5546 6.68218 16.391 6.8275 16.2456Z" fill="#4D77B1"/>
<path d="M5.50276 13.482C5.93871 13.373 6.35649 13.2639 6.79244 13.1548C7.31921 13.0276 7.84598 12.8821 8.37275 12.7549C8.31826 12.5185 8.30009 12.264 8.37275 12.0095C7.75516 12.155 7.13757 12.3186 6.51997 12.464C6.06586 12.5731 5.62991 12.7003 5.1758 12.8094C4.95782 12.864 4.75801 12.9185 4.54004 12.973C4.59453 13.2094 4.64903 13.4457 4.72168 13.6638C4.97599 13.5911 5.23029 13.5548 5.50276 13.482Z" fill="#4D77B1"/>
<path d="M8.46336 11.7551C8.51785 11.6279 8.59051 11.5188 8.68133 11.3916C8.75399 11.3007 8.82665 11.2098 8.91747 11.1552C7.57329 10.628 6.19279 10.1917 4.81229 9.82812C4.7033 10.0463 4.63064 10.2826 4.55798 10.5189C5.88399 10.8462 7.17367 11.2643 8.46336 11.7551Z" fill="#4D77B1"/>
<path d="M8.48144 9.30063C8.66308 9.90055 8.84473 10.5005 9.00821 11.0822C9.22618 10.9549 9.46232 10.9186 9.71663 10.9368C9.53498 10.3005 9.35334 9.64604 9.13536 9.00976C8.93555 8.3553 8.71758 7.68266 8.44511 7.04639C8.20897 7.08275 7.95467 7.13728 7.73669 7.21C8.04549 7.88264 8.2453 8.59163 8.48144 9.30063Z" fill="#4D77B1"/>
<path d="M10.6956 11.21C11.0044 10.7555 11.295 10.301 11.5856 9.84653C11.8399 9.46476 12.0942 9.08299 12.3667 8.73758C12.4939 8.57397 12.621 8.41036 12.73 8.21038C12.7845 8.11949 12.8208 7.99223 12.8935 7.90133C12.6755 7.79226 12.4575 7.68318 12.2214 7.59229C12.2214 7.61046 12.2032 7.61046 12.2032 7.62864C12.1124 7.79226 12.0397 7.97405 11.9308 8.11949C11.6401 8.50125 11.3495 8.88302 11.077 9.28297C10.6956 9.84653 10.3504 10.4283 9.96899 10.9736C10.2233 11.0282 10.4594 11.1009 10.6956 11.21Z" fill="#4D77B1"/>
<path d="M5.84849 15.9728C6.42975 15.3547 7.01102 14.7184 7.55595 14.0639C7.7376 13.8458 7.55595 13.5549 7.28349 13.6095C6.46608 13.7549 5.64868 13.8822 4.81311 14.0276C4.88577 14.2094 4.94026 14.373 5.03108 14.5366C5.57602 14.4457 6.10279 14.3548 6.64773 14.2639C6.28444 14.682 5.92115 15.1002 5.53969 15.5001C5.64868 15.6637 5.7395 15.8273 5.84849 15.9728Z" fill="#4D77B1"/>
<path d="M4.4488 12.5732C5.22988 12.3732 6.01095 12.1732 6.81019 12.1187C7.11899 12.1005 7.17348 11.7005 6.88285 11.5915C6.42874 11.4097 5.9383 11.2642 5.46602 11.137C5.22988 11.0824 4.97558 11.0461 4.73944 10.9916C4.64861 10.9734 4.55779 10.9552 4.46697 10.937C4.43064 11.1188 4.41248 11.3006 4.41248 11.4824C4.46697 11.5006 4.52146 11.5006 4.57596 11.5188C4.83026 11.5551 5.08456 11.5915 5.33887 11.6642C5.44785 11.6824 5.53868 11.7187 5.64766 11.7369C5.22988 11.8278 4.83026 11.9187 4.43064 12.0278C4.41248 12.2096 4.43064 12.3914 4.4488 12.5732Z" fill="#4D77B1"/>
<path d="M7.42873 9.97363C7.68303 10.1009 7.91917 9.84638 7.81018 9.59187C7.59221 9.15556 7.41056 8.70108 7.22892 8.24659C7.1381 8.01026 7.04727 7.77393 6.93829 7.5376C6.77481 7.62849 6.62949 7.71939 6.46601 7.82847C6.55683 8.02844 6.62949 8.24659 6.72031 8.44657C6.81114 8.6829 6.92012 8.91923 7.01094 9.17374C6.55683 8.95559 6.10272 8.77379 5.63044 8.57382C5.50329 8.70108 5.3943 8.84651 5.28532 8.99195C5.28532 8.99195 5.28532 9.01013 5.26715 9.01013C6.0119 9.31918 6.72031 9.62822 7.42873 9.97363Z" fill="#4D77B1"/>
<path d="M10.0445 9.28277C10.1353 9.53728 10.4804 9.53728 10.5712 9.28277C10.7166 8.84646 10.9345 8.4647 11.1525 8.06475C11.2978 7.82842 11.425 7.57391 11.5703 7.33758C11.3886 7.28304 11.207 7.2285 11.0254 7.19214C10.8982 7.41029 10.7711 7.62845 10.6439 7.82842C10.5349 8.01021 10.4259 8.21019 10.3351 8.39198C10.208 7.9375 10.0808 7.46483 9.98998 6.99217C9.80834 6.97399 9.60853 6.95581 9.42688 6.95581C9.59036 7.7557 9.79017 8.51924 10.0445 9.28277Z" fill="#4D77B1"/>
<path d="M10.3695 15.5184H10.3876C10.3876 15.5184 10.3876 15.5184 10.4058 15.5184C10.424 15.5184 10.4421 15.5184 10.4603 15.5184C10.5148 15.5184 10.5511 15.5184 10.6056 15.5184C10.6419 15.5184 10.6601 15.5184 10.6964 15.5002C10.5329 15.3366 10.3513 15.173 10.1697 15.0093C9.87902 15.0639 9.58839 15.173 9.31592 15.2639C9.18877 15.3002 9.06162 15.3548 8.93446 15.3911C9.00712 15.3002 9.07978 15.2275 9.1706 15.1366C9.35225 14.9548 9.51573 14.7548 9.69737 14.5549C9.57022 14.4276 9.42491 14.3004 9.31592 14.1731C9.27959 14.2095 9.26143 14.2458 9.2251 14.264C9.06162 14.4458 8.89814 14.6276 8.75282 14.7912C8.46219 15.1002 8.17155 15.4093 7.89909 15.7547C7.82643 15.8456 7.86276 15.991 7.91725 16.0637C7.98991 16.1546 8.0989 16.1728 8.20788 16.1546C8.62567 16.0819 9.02529 15.9183 9.42491 15.7911C9.64288 15.7183 9.86085 15.6456 10.097 15.5911C10.1515 15.5547 10.2605 15.5365 10.3695 15.5184Z" fill="#4D77B1"/>
<path d="M12.6225 12.2095C12.5861 11.4096 12.6951 10.5915 12.6225 9.79163C12.6043 9.68255 12.568 9.59166 12.459 9.53712C12.3682 9.50076 12.241 9.50076 12.1684 9.59166C11.7142 10.1189 11.4963 10.8097 11.1693 11.4096C11.3328 11.4823 11.4963 11.5732 11.6598 11.6641C11.7869 11.4278 11.9141 11.1551 12.0412 10.9188C12.0775 10.8642 12.0957 10.8097 12.132 10.7551C12.1139 11.1369 12.0957 11.5187 12.0957 11.9186C12.2592 12.0095 12.4408 12.1186 12.6225 12.2095Z" fill="#4D77B1"/>
<path d="M32.9326 21.1394L33.968 20.4122L32.4422 20.3031L33.2959 18.9942L31.6793 19.5032L32.2424 18.0489L30.8437 18.7215L30.8255 18.7033L31.4431 17.4126L30.0989 18.1216C29.8991 17.9762 29.6993 17.8489 29.4995 17.7216C29.336 17.8307 29.1907 17.9216 29.0272 17.9943C29.0454 18.0489 29.0817 18.1034 29.1544 18.1398C29.8628 18.5579 30.4804 19.0851 31.0617 19.6668C31.6248 20.2304 32.2787 20.7758 32.4967 21.5757C32.6057 21.9393 32.6601 22.3756 32.424 22.7028C32.206 22.9937 31.8609 23.1755 31.5339 23.3209C30.8437 23.6299 30.0808 23.739 29.336 23.6845C28.5731 23.6299 27.8102 23.4481 27.0836 23.2118C26.9928 23.1755 26.9202 23.1936 26.8657 23.23C27.12 23.4118 27.3743 23.6481 27.6104 23.939C27.7739 23.9753 27.9374 24.0299 28.1008 24.0662L28.9001 25.8842L29.554 24.248C29.5722 24.248 29.5722 24.248 29.5903 24.248L30.1898 25.8842L30.6257 24.1571C30.6439 24.1571 30.662 24.1571 30.6802 24.139L31.2796 25.5024L31.3705 23.9572C31.3886 23.9572 31.4068 23.939 31.425 23.939L32.4603 24.8661L32.2605 23.6118L33.2232 24.0844L32.9326 22.9573L34.0951 23.1936L33.1324 21.9393L34.4039 21.612L32.9326 21.1394Z" fill="#AAB660"/>
<path d="M30.6439 26.0623L30.7165 25.0261L31.207 26.0623L31.0616 26.6077L30.6439 26.0623Z" fill="#AAB660"/>
<path d="M31.7699 25.5168V24.6987L32.333 25.335V26.0985L31.7699 25.5168Z" fill="#AAB660"/>
<path d="M32.3318 18.8997L32.5498 18.2634L33.2037 18.0271L33.0039 18.6816L32.3318 18.8997Z" fill="#AAB660"/>
<path d="M33.132 19.9906L33.5497 19.2634H34.1492L33.9312 19.7906L33.132 19.9906Z" fill="#AAB660"/>
<path d="M33.7314 20.9723L34.1492 20.5906L34.8213 20.7906L34.4217 21.2632L33.7314 20.9723Z" fill="#AAB660"/>
<path d="M33.8417 22.1176L34.4229 21.8994L35.0405 22.2994L34.3684 22.8084L33.8417 22.1176Z" fill="#AAB660"/>
<path d="M33.3871 23.4084L33.5506 23.9902L34.15 24.0993L34.0773 23.4084H33.3871Z" fill="#AAB660"/>
<path d="M32.7686 24.699L32.6959 24.0991L33.2045 24.4991L33.2772 25.0263L32.7686 24.699Z" fill="#AAB660"/>
<path d="M29.352 25.8081L29.57 25.2627L29.7879 25.9353L29.5155 26.5171L29.352 25.8081Z" fill="#AAB660"/>
<path d="M31.5693 18.027L31.9871 17.8089L32.0597 17.3726L31.6419 17.5907L31.5693 18.027Z" fill="#AAB660"/>
<path d="M24.2105 7.64673C21.9763 8.86475 20.4505 10.8099 21.2315 12.1552C21.5222 12.6279 21.9399 12.9187 22.5757 12.9187C22.7392 12.9006 22.9027 12.8642 23.0843 12.8097C24.1742 12.2643 24.6465 9.95551 24.2105 7.64673ZM23.1388 11.7007C22.9753 12.0825 22.5394 12.2825 22.1579 12.1189C21.7765 11.9552 21.5767 11.5189 21.7401 11.1372C21.9036 10.7554 22.3396 10.5554 22.721 10.719C23.1025 10.8827 23.3023 11.319 23.1388 11.7007Z" fill="#40BC99"/>
<path d="M26.1359 16.6451C26.1359 16.6451 26.1359 16.6633 26.1359 16.6451C26.045 17.045 26.0814 17.4268 26.3175 17.7904C26.4265 17.954 26.59 18.0994 26.7716 18.2449C27.807 18.863 29.7143 17.8449 31.1856 16.1543C28.915 15.0635 26.5536 14.9908 26.1359 16.6451ZM27.8615 17.645C27.48 17.8086 27.0259 17.645 26.8624 17.2632C26.699 16.8814 26.8624 16.4269 27.2439 16.2633C27.6253 16.0997 28.0795 16.2633 28.2429 16.6451C28.4246 17.0269 28.2429 17.4813 27.8615 17.645Z" fill="#0763A4"/>
<path d="M25.4821 22.8441C25.3368 22.8804 25.2097 22.935 25.1007 22.9895C25.0644 23.0077 25.0462 23.0259 25.0099 23.0441C24.8645 23.135 24.7556 23.2259 24.6647 23.3168C24.4831 23.4985 24.3559 23.7349 24.2651 24.0439C24.247 24.0803 24.247 24.1348 24.2288 24.1712C24.2288 24.2075 24.2288 24.2439 24.2106 24.2621C24.2106 24.2803 24.2106 24.2984 24.2106 24.3166C24.1743 25.6437 26.5175 26.8435 29.0969 26.989C28.4248 24.5348 26.899 22.5532 25.4821 22.8441ZM25.8454 24.862C25.464 25.0256 25.0099 24.862 24.8464 24.4802C24.6829 24.0985 24.8464 23.644 25.2278 23.4804C25.6093 23.3168 26.0634 23.4804 26.2269 23.8621C26.3904 24.2439 26.2269 24.6984 25.8454 24.862Z" fill="#8B8A33"/>
<path d="M20.0506 26.8987C20.0325 26.8987 20.0325 26.8805 20.0143 26.8805C19.978 26.8623 19.9417 26.8442 19.8872 26.826C19.869 26.826 19.869 26.826 19.8508 26.8078C19.2332 26.5351 18.7246 26.6442 18.2705 26.9896C17.3078 27.7895 17.8891 29.9892 19.3059 31.8798C20.8136 29.9165 21.3948 27.6986 20.0506 26.8987ZM19.2332 28.9348C18.8155 28.9348 18.4703 28.5894 18.4703 28.1712C18.4703 27.7531 18.8155 27.4077 19.2332 27.4077C19.651 27.4077 19.9962 27.7531 19.9962 28.1712C19.978 28.5894 19.651 28.9348 19.2332 28.9348Z" fill="#A8503A"/>
<path d="M13.9289 24.7357C13.9107 24.6266 13.8925 24.5357 13.8744 24.4266C13.7836 24.1358 13.6564 23.8994 13.4748 23.7358C13.3839 23.6449 13.275 23.5722 13.1296 23.4995C13.0207 23.445 12.9117 23.4086 12.7845 23.3722C11.513 23.1177 9.95085 25.0447 9.24243 27.4081C11.8036 27.3535 14.056 26.3173 13.9289 24.7357ZM12.3667 25.5901C11.9489 25.5901 11.6038 25.2447 11.6038 24.8266C11.6038 24.4085 11.9489 24.0631 12.3667 24.0631C12.7845 24.0631 13.1296 24.4085 13.1296 24.8266C13.1296 25.2629 12.7845 25.5901 12.3667 25.5901Z" fill="#7B377C"/>
<path d="M13.1478 8.02832C12.5847 10.4644 13.0207 12.7913 14.6192 12.9549C14.6555 12.9549 14.6737 12.9549 14.71 12.9549C14.7463 12.9549 14.7826 12.9549 14.819 12.9549H14.8371C15.1096 12.9549 15.3457 12.9004 15.5455 12.8095C15.5637 12.8095 15.5819 12.7913 15.6 12.7913C15.6182 12.7913 15.6364 12.7731 15.6364 12.7731C15.6545 12.755 15.6909 12.7368 15.709 12.7186L15.7272 12.7004C15.7454 12.6822 15.7635 12.6641 15.7999 12.6459C15.818 12.6459 15.818 12.6277 15.8362 12.6277L15.8543 12.6095C15.9997 12.4641 16.1268 12.3005 16.2358 12.1005C16.6717 10.9552 15.2186 9.15544 13.1478 8.02832ZM15.5092 11.3188C15.6727 11.7006 15.5092 12.155 15.1278 12.3187C14.7463 12.4823 14.2922 12.3186 14.1287 11.9369C13.9652 11.5551 14.1287 11.1006 14.5102 10.937C14.8916 10.7552 15.3457 10.937 15.5092 11.3188Z" fill="#1F4375"/>
<path d="M11.3677 18.6814C11.404 18.645 11.4585 18.5905 11.4948 18.5541C11.513 18.5359 11.5312 18.5177 11.5493 18.4996C11.5675 18.4814 11.5675 18.4814 11.5857 18.4632C11.6583 18.3541 11.731 18.2451 11.7855 18.1542C11.9308 17.8451 11.9671 17.5179 11.8581 17.1179C11.4767 15.7363 8.89731 15.7545 6.51776 16.8271C8.09807 18.6814 10.2233 19.7358 11.3677 18.6814ZM9.58757 17.5724C9.58757 17.1543 9.93269 16.8089 10.3505 16.8089C10.7683 16.8089 11.1134 17.1543 11.1134 17.5724C11.1134 17.9905 10.7683 18.3359 10.3505 18.3359C9.93269 18.3359 9.58757 17.9905 9.58757 17.5724Z" fill="#C45827"/>
<path d="M19.2317 27.4075C18.8139 27.4075 18.4688 27.7529 18.4688 28.171C18.4688 28.5891 18.8139 28.9345 19.2317 28.9345C19.6494 28.9345 19.9946 28.5891 19.9946 28.171C19.9764 27.7529 19.6494 27.4075 19.2317 27.4075Z" fill="white"/>
<path d="M12.3652 24.0808C11.9474 24.0808 11.6023 24.4262 11.6023 24.8443C11.6023 25.2625 11.9474 25.6079 12.3652 25.6079C12.783 25.6079 13.1281 25.2625 13.1281 24.8443C13.1281 24.4262 12.783 24.0808 12.3652 24.0808Z" fill="white"/>
<path d="M11.0958 17.5726C11.0958 17.1545 10.7507 16.8091 10.3329 16.8091C9.91513 16.8091 9.57001 17.1545 9.57001 17.5726C9.57001 17.9907 9.91513 18.3361 10.3329 18.3361C10.7507 18.3361 11.0958 17.9907 11.0958 17.5726Z" fill="white"/>
<path d="M25.2266 23.4804C24.8451 23.644 24.6816 24.0985 24.8451 24.4803C25.0086 24.862 25.4627 25.0257 25.8442 24.862C26.2256 24.6984 26.3891 24.2439 26.2256 23.8622C26.0621 23.4804 25.608 23.3168 25.2266 23.4804Z" fill="white"/>
<path d="M27.2426 16.2634C26.8612 16.427 26.6977 16.8815 26.8612 17.2632C27.0246 17.645 27.4788 17.8086 27.8602 17.645C28.2417 17.4814 28.4051 17.0269 28.2417 16.6451C28.0782 16.2634 27.6241 16.0998 27.2426 16.2634Z" fill="white"/>
<path d="M22.7205 10.7194C22.339 10.5557 21.8849 10.7557 21.7396 11.1375C21.5761 11.5192 21.7759 11.9737 22.1574 12.1192C22.5388 12.2828 22.9929 12.0828 23.1382 11.701C23.2836 11.3193 23.1019 10.883 22.7205 10.7194Z" fill="white"/>
<path d="M14.51 10.9369C14.1286 11.1006 13.9651 11.555 14.1286 11.9368C14.292 12.3186 14.7461 12.4822 15.1276 12.3186C15.5091 12.155 15.6725 11.7005 15.5091 11.3187C15.3456 10.9369 14.8915 10.7551 14.51 10.9369Z" fill="white"/>
<path d="M13.0747 15.828C13.5262 15.828 13.8921 15.4618 13.8921 15.01C13.8921 14.5582 13.5262 14.1919 13.0747 14.1919C12.6233 14.1919 12.2573 14.5582 12.2573 15.01C12.2573 15.4618 12.6233 15.828 13.0747 15.828Z" fill="#F5AE15"/>
<path d="M24.5009 15.3371C24.9523 15.3371 25.3183 14.9708 25.3183 14.519C25.3183 14.0672 24.9523 13.7009 24.5009 13.7009C24.0494 13.7009 23.6835 14.0672 23.6835 14.519C23.6835 14.9708 24.0494 15.3371 24.5009 15.3371Z" fill="#F5AE15"/>
<path d="M18.6886 12.6828C19.1401 12.6828 19.506 12.3165 19.506 11.8647C19.506 11.4129 19.1401 11.0466 18.6886 11.0466C18.2372 11.0466 17.8712 11.4129 17.8712 11.8647C17.8712 12.3165 18.2372 12.6828 18.6886 12.6828Z" fill="#F5AE15"/>
<path d="M22.1027 26.6623C22.5541 26.6623 22.9201 26.296 22.9201 25.8442C22.9201 25.3924 22.5541 25.0261 22.1027 25.0261C21.6512 25.0261 21.2853 25.3924 21.2853 25.8442C21.2853 26.296 21.6512 26.6623 22.1027 26.6623Z" fill="#F5AE15"/>
<path d="M15.9281 26.9723C16.3795 26.9723 16.7455 26.6061 16.7455 26.1543C16.7455 25.7024 16.3795 25.3362 15.9281 25.3362C15.4766 25.3362 15.1107 25.7024 15.1107 26.1543C15.1107 26.6061 15.4766 26.9723 15.9281 26.9723Z" fill="#F5AE15"/>
<path d="M26.027 21.4994C26.4784 21.4994 26.8444 21.1332 26.8444 20.6814C26.8444 20.2295 26.4784 19.8633 26.027 19.8633C25.5756 19.8633 25.2096 20.2295 25.2096 20.6814C25.2096 21.1332 25.5756 21.4994 26.027 21.4994Z" fill="#F5AE15"/>
<path d="M11.8402 22.1359C12.2917 22.1359 12.6576 21.7696 12.6576 21.3178C12.6576 20.866 12.2917 20.4998 11.8402 20.4998C11.3888 20.4998 11.0228 20.866 11.0228 21.3178C11.0228 21.7696 11.3888 22.1359 11.8402 22.1359Z" fill="#F5AE15"/>
<path d="M19.1072 13.955C16.0011 13.8278 13.3672 16.2275 13.2401 19.3179C13.1129 22.4084 15.5469 25.0263 18.6531 25.1353C21.7774 25.2626 24.3931 22.8447 24.5202 19.7542C24.6474 16.6819 22.2315 14.0641 19.1072 13.955ZM23.6483 19.7724C23.5393 22.3721 21.3233 24.4082 18.7076 24.2991C16.0737 24.19 14.0393 21.9903 14.1483 19.3907C14.2573 16.791 16.4733 14.7549 19.089 14.864C21.7047 14.9731 23.7391 17.1728 23.6483 19.7724Z" fill="#F89633"/>
<path d="M19.0714 14.8643C16.4375 14.7552 14.2396 16.7913 14.1306 19.391C14.0216 21.9906 16.0742 24.1903 18.6899 24.2994C21.3238 24.4085 23.5217 22.3724 23.6307 19.7727C23.7396 17.1731 21.7052 14.9734 19.0714 14.8643ZM18.7626 22.3724C17.1823 22.3178 15.9652 20.9907 16.0197 19.4273C16.0742 17.8639 17.4184 16.6459 18.9805 16.7186C20.5427 16.7913 21.7779 18.1002 21.7234 19.6636C21.6689 21.2271 20.3429 22.4451 18.7626 22.3724Z" fill="#F5AE15"/>
<path d="M18.8905 22.3905C20.4655 22.3905 21.7424 21.1208 21.7424 19.5545C21.7424 17.9882 20.4655 16.7185 18.8905 16.7185C17.3155 16.7185 16.0387 17.9882 16.0387 19.5545C16.0387 21.1208 17.3155 22.3905 18.8905 22.3905Z" fill="white"/>
<path d="M2.61425 15.8458C2.57792 15.8821 2.55975 15.9003 2.52342 15.9367C2.48709 15.973 2.46893 16.0094 2.45077 16.0639C2.37811 16.2094 2.35994 16.373 2.41444 16.5548C2.57792 17.1547 3.72228 17.1547 4.75766 16.682C4.04924 15.8639 3.12285 15.4095 2.61425 15.8458Z" fill="#C45827"/>
<path d="M24.8828 6.22887C25.8455 5.70167 26.5176 4.86542 26.1907 4.2655C26.1543 4.21096 26.118 4.15642 26.0817 4.12006C25.9364 3.95645 25.7729 3.90191 25.5912 3.92009C25.5186 3.92009 25.4459 3.93827 25.3733 3.97463C24.8828 4.21096 24.683 5.229 24.8828 6.22887Z" fill="#40BC99"/>
<path d="M34.7647 15.4822C34.8191 15.2822 34.7828 15.1186 34.6738 14.9732C34.6557 14.9368 34.6193 14.9005 34.583 14.8459C34.5467 14.8096 34.5104 14.7914 34.474 14.7732C34.0199 14.5005 33.1843 14.955 32.5486 15.7004C33.5476 16.173 34.583 16.1912 34.7647 15.4822Z" fill="#0763A4"/>
<path d="M32.1306 29.8259C32.2033 29.8077 32.2578 29.7895 32.3304 29.7532C32.4031 29.7168 32.4576 29.6804 32.5121 29.6259C32.6392 29.5168 32.6937 29.3714 32.7119 29.226C32.7119 29.2078 32.7119 29.1896 32.7119 29.1896C32.7301 28.6079 31.7128 28.0807 30.5685 28.0261C30.8409 29.0805 31.4949 29.9531 32.1306 29.8259Z" fill="#8B8A33"/>
<path d="M18.9987 35.5342C19.0169 35.5524 19.035 35.5524 19.0532 35.5706C19.0714 35.5706 19.0895 35.5887 19.1077 35.5887C19.1259 35.5887 19.144 35.6069 19.144 35.6069C19.1804 35.6069 19.1985 35.6251 19.2349 35.6251C19.2712 35.6251 19.3257 35.6251 19.362 35.6251C19.3802 35.6251 19.3802 35.6251 19.3983 35.6251C19.4165 35.6251 19.4347 35.6251 19.4347 35.6251C19.4528 35.6251 19.4528 35.6251 19.471 35.6251C19.4892 35.6251 19.5073 35.6069 19.5255 35.6069H19.5436C19.58 35.5887 19.6163 35.5706 19.6526 35.5524C19.689 35.5342 19.7071 35.516 19.7253 35.4978C20.1431 35.1342 19.8888 34.1889 19.253 33.3708C18.6718 34.2071 18.4174 35.1706 18.9987 35.5342Z" fill="#A8503A"/>
<path d="M6.13832 29.5166C6.13832 29.5166 6.13832 29.5348 6.13832 29.5166C6.15649 29.6984 6.21098 29.8439 6.33813 29.9711C6.37446 30.0075 6.42895 30.0438 6.48345 30.0802C6.48345 30.0802 6.50161 30.0802 6.50161 30.0984C6.55611 30.1166 6.59244 30.1347 6.64693 30.1529C7.19186 30.2438 7.88212 29.4076 8.19091 28.3713C7.08288 28.3895 6.10199 28.8258 6.13832 29.4985C6.13832 29.4985 6.13832 29.4985 6.13832 29.5166C6.13832 29.5166 6.12016 29.4985 6.13832 29.5166Z" fill="#7B377C"/>
<path d="M12.7323 6.57435C12.9684 5.51994 12.7868 4.52008 12.1328 4.411C12.0965 4.411 12.0602 4.411 12.0239 4.39282H12.0057H11.9875C11.9694 4.39282 11.933 4.39282 11.9149 4.39282C11.8604 4.39282 11.8059 4.411 11.7696 4.42918C11.7514 4.42918 11.7151 4.44736 11.6969 4.46554C11.6787 4.46554 11.6787 4.48372 11.6606 4.48372C11.6606 4.48372 11.6606 4.48372 11.6424 4.48372C11.6242 4.48372 11.6242 4.5019 11.6061 4.5019C11.6061 4.5019 11.6061 4.5019 11.5879 4.52008C11.5697 4.52008 11.5697 4.53826 11.5516 4.53826C11.5152 4.57462 11.4789 4.61097 11.4426 4.64733C11.4063 4.68369 11.3881 4.72005 11.3699 4.75641C11.1883 5.30179 11.824 6.0835 12.7323 6.57435Z" fill="#1F4375"/>
<path d="M55.2039 13.0059V28.6921C55.2039 29.3362 54.6845 29.8556 54.0405 29.8556C53.3964 29.8556 52.877 29.3362 52.877 28.6921V22.0437H48.327V28.6921C48.327 29.3362 47.8075 29.8556 47.1635 29.8556C46.5194 29.8556 46 29.3362 46 28.6921V13.0059C46 9.91026 47.5998 7.95728 50.6124 7.95728C53.6249 7.95728 55.2039 9.88948 55.2039 13.0059ZM52.877 19.8829V13.4007C52.877 11.0945 52.0875 10.1803 50.5916 10.1803C49.1165 10.1803 48.3062 11.0945 48.3062 13.4007V19.8829H52.877Z" fill="black"/>
<path d="M60.647 28.6714V9.30776C60.647 8.6637 61.1664 8.14429 61.8105 8.14429C62.4545 8.14429 62.9739 8.6637 62.9739 9.30776V28.6714C62.9739 29.3154 62.4545 29.8348 61.8105 29.8348C61.1664 29.8348 60.647 29.3362 60.647 28.6714Z" fill="black"/>
<path d="M68.355 25.2433V13.1929C68.355 10.0973 70.0172 8.14429 73.0297 8.14429C75.9592 8.14429 77.4551 9.8895 77.4551 12.8813V13.3176C77.4551 14.024 76.9357 14.4603 76.3124 14.4603C75.6891 14.4603 75.1697 14.024 75.1697 13.2553C75.1697 11.3854 74.6503 10.3674 73.0089 10.3674C71.4715 10.3674 70.682 11.4062 70.682 13.5877V24.8485C70.682 26.9677 71.3884 27.8403 72.9674 27.8403C74.5256 27.8403 75.2944 26.8638 75.2944 24.62V20.0284H73.6946C72.9882 20.0284 72.5311 19.509 72.5311 18.8857C72.5311 18.2624 72.9882 17.743 73.6946 17.743H76.1254C76.9772 17.743 77.4551 18.2416 77.4551 19.0934V24.9939C77.4551 28.0896 75.8969 30.0426 72.9674 30.0426C69.9548 30.0426 68.355 28.3389 68.355 25.2433Z" fill="black"/>
<path d="M82.7531 28.6714V9.30776C82.7531 8.6637 83.2725 8.14429 83.9166 8.14429C84.5607 8.14429 85.0801 8.6637 85.0801 9.30776V28.6714C85.0801 29.3154 84.5607 29.8348 83.9166 29.8348C83.2725 29.8348 82.7531 29.3362 82.7531 28.6714Z" fill="black"/>
</svg>
