<svg width="92" height="38" viewBox="0 0 92 38" fill="none" xmlns="http://www.w3.org/2000/svg">
<path d="M19.6152 35.959L19.6406 35.8066L19.6152 35.375L19.5391 28.2402C19.5052 25.4134 19.4714 23.0352 19.4375 21.1055L19.1836 11.4062L18.9043 1.73242L18.8789 1.27539L18.8281 1.04688L18.8027 0.792969C17.4486 0.640625 16.2637 0.589844 15.248 0.640625V0.84375V0.996094V1.27539L15.4512 4.29688C15.5358 5.48177 15.5866 6.48047 15.6035 7.29297L15.7812 14.0215L15.9336 20.75L15.959 22.5781L15.9336 24.3809C15.9336 24.3978 15.8743 24.6686 15.7559 25.1934C15.6035 24.9733 15.4173 24.7109 15.1973 24.4062L14.6387 23.6699C14.2155 23.1113 13.8939 22.6289 13.6738 22.2227C11.8118 18.8372 9.50977 13.793 6.76758 7.08984C6.1582 5.61719 5.40495 3.69596 4.50781 1.32617C4.32161 0.852214 4 0.615234 3.54297 0.615234C3.1875 0.615234 2.73047 0.598307 2.17188 0.564453L0.800781 0.513672L0.470703 0.539062L0.115234 0.615234V1.04688L0.546875 8.74023L0.978516 16.4336L1.25781 22.832L1.51172 29.2559L1.61328 32.3535L1.68945 35.4512L1.71484 35.7559V37H5.39648V36.5176C5.41341 36.3991 5.42188 36.2637 5.42188 36.1113C5.45573 34.5033 5.47266 33.1152 5.47266 31.9473L5.44727 24.9902L5.42188 18.0586L5.44727 17.3984L5.49805 16.7383L5.77734 16.6875L6.23438 17.627L6.69141 18.5664C7.89323 21.2747 8.99349 23.4583 9.99219 25.1172C11.6341 27.8424 12.929 30.0599 13.877 31.7695C14.1478 32.2604 14.444 32.8698 14.7656 33.5977L15.1719 34.5371L15.5781 35.4766L16.0098 37H19.6406L19.6152 35.959ZM39.0078 5.05859C38.957 3.80599 38.8978 2.62109 38.8301 1.50391C38.8132 1.38542 38.7878 1.22461 38.7539 1.02148L38.6777 0.742188L38.627 0.462891C37.5775 0.530599 36.3841 0.572917 35.0469 0.589844H33.2441H31.4668C28.3353 0.55599 25.9316 0.598307 24.2559 0.716797V1.68164L24.4082 6.15039L24.5098 10.6191L24.6367 15.8496C24.6875 17.8809 24.7214 19.6243 24.7383 21.0801C24.7552 25.041 24.6621 28.5365 24.459 31.5664L24.3066 34.0039L24.2051 36.416C24.2051 36.7038 24.222 36.8984 24.2559 37L37.6621 36.873L37.6875 36.5176L37.5352 34.3594L37.4082 32.2012C37.3913 31.7441 37.1712 31.5072 36.748 31.4902L35.6562 31.4395L34.5645 31.3633C33.6842 31.3294 32.9479 31.3548 32.3555 31.4395C32.0508 31.4902 31.6191 31.5241 31.0605 31.541C30.3665 31.541 29.9349 31.4648 29.7656 31.3125C29.6133 31.1432 29.5371 30.7031 29.5371 29.9922L29.5117 22.8828C29.5117 22.7982 29.5202 22.6882 29.5371 22.5527L29.5625 22.3496L29.5879 22.1211L29.7148 21.8672L35.9609 22.0703C36.0286 21.901 36.0625 21.6641 36.0625 21.3594C36.0625 20.1745 36.054 19.2181 36.0371 18.4902L35.9863 18.0332L35.9102 17.5508H30.5527V17.1191C30.5527 16.9499 30.5443 16.7637 30.5273 16.5605V16.5352C30.4935 16.4336 30.4766 16.2812 30.4766 16.0781L30.4258 15.291C30.4258 15.2233 30.4258 15.1725 30.4258 15.1387C30.4258 15.0879 30.4258 15.0625 30.4258 15.0625C30.3581 13.8099 30.2988 12.5573 30.248 11.3047C30.1973 10.2214 30.1549 8.80794 30.1211 7.06445C30.1211 6.69206 30.1634 6.44661 30.248 6.32812C30.3496 6.22656 30.5781 6.15885 30.9336 6.125C31.2891 6.07422 31.6953 6.04883 32.1523 6.04883L35.1738 5.99805L38.1953 5.94727C38.5677 5.94727 38.8047 5.89648 38.9062 5.79492C38.9909 5.69336 39.0247 5.44792 39.0078 5.05859ZM66.3984 0.513672L66.5254 1.88477C66.5423 2.07096 66.5508 2.22331 66.5508 2.3418L66.627 2.97656L67.2617 26.9707C66.5169 26.3105 65.7044 25.4388 64.8242 24.3555L63.7324 22.9844C63.2923 22.4427 62.9284 22.0026 62.6406 21.6641C61.9974 20.9193 61.2103 19.9967 60.2793 18.8965L59.0859 17.4746L57.8672 16.0527L57.7656 16.2559L57.6641 16.4082C57.6133 16.5098 57.571 16.5944 57.5371 16.6621L53.1699 24.8887L49.793 13.0566L48.9805 8.0293C48.8451 7.19987 48.6504 6.27734 48.3965 5.26172L47.4824 0.539062H43.5723C44.4355 5.54948 45.3073 10.6361 46.1875 15.7988C46.4076 17.7624 46.6022 19.3197 46.7715 20.4707C47.0254 22.0957 47.3301 23.9577 47.6855 26.0566L48.6504 31.6426L48.8281 32.5566C48.7943 32.946 48.972 33.7415 49.3613 34.9434L49.4883 35.502C49.5391 35.7728 49.6406 35.9844 49.793 36.1367C49.9115 36.4753 50.0215 36.763 50.123 37H50.8848L51.2402 36.3652C51.3079 36.3145 51.3757 36.2383 51.4434 36.1367L51.6211 35.8574L52.2559 34.7656L52.8906 33.6738L53.8047 31.998C54.1602 31.3548 54.4564 30.7962 54.6934 30.3223L54.7188 30.2715L55.0234 29.6113C55.4128 28.748 55.8783 27.6732 56.4199 26.3867L57.1055 24.7617L57.791 23.1367C57.8418 23.0182 57.918 22.8659 58.0195 22.6797L58.1719 22.4258L58.3242 22.1465L58.5273 22.3496L58.7051 22.5527C58.8236 22.6712 58.9082 22.7728 58.959 22.8574L61.3203 26.3105L63.6816 29.7383L65.8398 32.8105L67.998 35.8828C68.2181 36.1875 68.4889 36.3822 68.8105 36.4668C69.4368 36.873 69.9954 37.0508 70.4863 37C71.6543 34.7656 72.1283 28.0202 71.9082 16.7637C71.7897 11.1439 71.5527 5.73568 71.1973 0.539062L66.3984 0.513672ZM89.0664 31.0332C90.1497 28.4772 90.2174 25.862 89.2695 23.1875C88.931 22.2734 88.474 21.3001 87.8984 20.2676C87.2721 19.1504 86.5104 17.8301 85.6133 16.3066L83.3281 12.3711C82.7188 11.3385 82.4395 10.2467 82.4902 9.0957C82.541 7.92773 82.9049 6.92057 83.582 6.07422C84.0729 5.48177 84.7077 5.2194 85.4863 5.28711C86.7389 5.4056 87.6276 6.13346 88.1523 7.4707L88.4316 8.23242L88.7109 9.01953C88.8464 9.39193 89.0579 9.56966 89.3457 9.55273C90.3275 9.48503 91.1654 9.30729 91.8594 9.01953L91.8086 8.15625L91.7578 7.29297C91.724 6.61589 91.6732 6.04883 91.6055 5.5918C91.487 4.83008 91.25 4.01758 90.8945 3.1543C90.4714 2.13867 89.7266 1.44466 88.6602 1.07227C87.2383 0.58138 85.5202 0.429036 83.5059 0.615234C82.8457 0.666016 82.2871 0.953776 81.8301 1.47852L80.8398 2.62109C80.4674 3.04427 80.1374 3.43359 79.8496 3.78906C79.6465 4.04297 79.4603 4.4069 79.291 4.88086C78.8171 6.13346 78.6478 8.04622 78.7832 10.6191C78.8848 12.498 79.4349 14.2161 80.4336 15.7734C80.8229 16.3659 81.2969 17.026 81.8555 17.7539L82.5918 18.7188L83.3535 19.6836C84.8431 21.5456 85.7233 23.1198 85.9941 24.4062C86.4173 26.4036 86.2057 28.2572 85.3594 29.9668C84.8854 30.9147 84.2422 31.4648 83.4297 31.6172C82.6849 31.7695 82.1432 31.6003 81.8047 31.1094C80.9583 29.8737 80.4674 28.7734 80.332 27.8086C80.2982 27.5378 80.222 27.2161 80.1035 26.8438L79.9766 26.3613L79.8242 25.8535C78.7917 25.9551 77.8353 26.0482 76.9551 26.1328C76.8704 26.2682 76.8281 26.3359 76.8281 26.3359C76.8112 26.4375 76.8027 26.5221 76.8027 26.5898C76.9382 29.4844 77.3105 31.651 77.9199 33.0898C78.5293 34.5625 79.528 35.6966 80.916 36.4922C81.5931 36.8984 82.3633 37.0592 83.2266 36.9746C84.1745 36.9069 84.9701 36.5599 85.6133 35.9336C87.1706 34.4271 88.3216 32.7936 89.0664 31.0332Z" fill="white"/>
</svg>
