<svg width="15" height="17" viewBox="0 0 15 17" fill="none" xmlns="http://www.w3.org/2000/svg">
<path fill-rule="evenodd" clip-rule="evenodd" d="M11.8938 5.79148H12.8016C13.5184 5.79148 14.0995 6.3726 14.0995 7.08944V14.9972C14.0995 15.7141 13.5184 16.2952 12.8016 16.2952H2.19737C1.48053 16.2952 0.899414 15.7141 0.899414 14.9972V7.08944C0.899414 6.3726 1.48053 5.79148 2.19737 5.79148H3.10498L3.10516 4.45926C3.16694 2.083 5.13132 0.199998 7.49061 0.238752C9.86259 0.199888 11.825 2.07537 11.8938 4.46213V5.79148ZM10.8248 5.79148V5.14861C10.8248 4.63855 10.8248 4.63787 10.8251 4.47821V4.47757C10.7734 2.69114 9.29506 1.27824 7.49065 1.30751C5.70012 1.27832 4.22025 2.69688 4.17388 4.47316V5.79148H10.8248ZM1.96806 7.08942C1.96806 6.96292 2.07061 6.86037 2.19712 6.86037H12.8013C12.9278 6.86037 13.0304 6.96292 13.0304 7.08942V14.9972C13.0304 15.1237 12.9278 15.2262 12.8013 15.2262H2.19712C2.07061 15.2262 1.96806 15.1237 1.96806 14.9972V7.08942ZM9.32534 10.0939L9.32528 10.0845C9.3134 9.37336 8.89679 8.73138 8.25219 8.43088C7.60758 8.13037 6.84802 8.22404 6.29573 8.67215C6.2161 8.72471 6.12128 8.81953 6.04626 8.92929C5.43052 9.70876 5.56437 10.8743 6.36442 11.5141C6.3735 11.5222 6.38543 11.5481 6.38543 11.5754V12.8106C6.38543 13.3682 6.83741 13.8201 7.39495 13.8201H7.59346C8.15101 13.8201 8.60299 13.3682 8.60299 12.8106V11.5754C8.60316 11.5506 8.61583 11.5242 8.6375 11.5066C9.06746 11.1702 9.32322 10.6478 9.32534 10.0939ZM6.84304 9.40607C7.15321 9.15639 7.53836 9.10889 7.86522 9.26127C8.19066 9.41298 8.40149 9.73634 8.40927 10.095C8.40681 10.3667 8.28079 10.6226 8.06673 10.7901C7.82598 10.9853 7.68895 11.2705 7.68695 11.5724L7.68694 12.8106C7.68694 12.8621 7.64516 12.9039 7.59362 12.9039H7.39511C7.34358 12.9039 7.3018 12.8621 7.3018 12.8106V11.5754C7.30182 11.2804 7.17272 11 6.94846 10.8082C6.52997 10.4732 6.4619 9.88051 6.78439 9.47137C6.8136 9.4305 6.82724 9.41686 6.84304 9.40607Z" fill="#131032"/>
</svg>
