<svg width="14" height="10" viewBox="0 0 14 10" fill="none" xmlns="http://www.w3.org/2000/svg">
<path d="M5.17816 9.66548C5.32442 9.63936 5.44021 9.53184 5.48135 9.39053C5.52249 9.24614 5.47983 9.09407 5.37317 8.99269L1.81104 5.40145L13.2592 5.40145C13.2714 5.40145 13.2836 5.40145 13.2958 5.40145C13.5091 5.39224 13.6767 5.20791 13.666 4.99287C13.6554 4.77782 13.4741 4.6104 13.2592 4.62115L1.81104 4.62115L5.37317 1.02991C5.48744 0.934672 5.54077 0.784142 5.50725 0.636683C5.47373 0.492295 5.36099 0.377093 5.21625 0.343301C5.07151 0.309508 4.92067 0.36327 4.82773 0.480007L0.599797 4.73021L0.333172 5.0113L0.599797 5.29239L4.82773 9.54259C4.90848 9.63015 5.02427 9.67469 5.14311 9.66548C5.1553 9.66548 5.16597 9.66548 5.17816 9.66548Z" fill="#0762A4"/>
</svg>
