<svg width="20" height="14" viewBox="0 0 20 14" fill="none" xmlns="http://www.w3.org/2000/svg">
<path d="M7.26748 13.9982C7.48687 13.959 7.66056 13.7978 7.72227 13.5858C7.78397 13.3692 7.71998 13.1411 7.56001 12.989L2.21681 7.60218L19.3891 7.60218C19.4074 7.60218 19.4256 7.60218 19.4439 7.60218C19.7639 7.58835 20.0153 7.31187 19.9993 6.9893C19.9833 6.66673 19.7113 6.41559 19.3891 6.43172L2.21681 6.43172L7.56001 1.04486C7.73141 0.902008 7.8114 0.676211 7.76112 0.455023C7.71084 0.238442 7.54172 0.0656395 7.32461 0.0149498C7.1075 -0.0357389 6.88125 0.0449028 6.74184 0.22001L0.399939 6.59531L0 7.01695L0.399939 7.43859L6.74184 13.8139C6.86297 13.9452 7.03666 14.012 7.21491 13.9982C7.2332 13.9982 7.2492 13.9982 7.26748 13.9982Z" fill="white"/>
</svg>
