<svg width="14" height="10" viewBox="0 0 14 10" fill="none" xmlns="http://www.w3.org/2000/svg">
<path d="M8.82184 0.334566C8.67558 0.360679 8.55979 0.468201 8.51865 0.609516C8.47751 0.753903 8.52017 0.90597 8.62683 1.00735L12.189 4.59859H0.740774C0.728585 4.59859 0.716397 4.59859 0.704208 4.59859C0.490907 4.60781 0.323313 4.79213 0.333978 5.00717C0.344643 5.22222 0.525949 5.38965 0.740774 5.37889H12.189L8.62683 8.97013C8.51256 9.06537 8.45923 9.2159 8.49275 9.36336C8.52627 9.50775 8.63901 9.62295 8.78375 9.65674C8.92849 9.69053 9.07933 9.63677 9.17227 9.52003L13.4002 5.26984L13.6668 4.98874L13.4002 4.70765L9.17227 0.457448C9.09152 0.369895 8.97573 0.32535 8.85689 0.334566C8.8447 0.334566 8.83403 0.334566 8.82184 0.334566Z" fill="#131032"/>
</svg>
