<svg width="20" height="14" viewBox="0 0 20 14" fill="none" xmlns="http://www.w3.org/2000/svg">
<path d="M12.7325 0.00178763C12.5131 0.0409569 12.3394 0.20224 12.2777 0.414212C12.216 0.630793 12.28 0.858894 12.44 1.01096L17.7832 6.39782H0.610917C0.592634 6.39782 0.574351 6.39782 0.556068 6.39782C0.236116 6.41165 -0.0152745 6.68813 0.000723268 7.0107C0.0167204 7.33327 0.28868 7.58441 0.610917 7.56828H17.7832L12.44 12.9551C12.2686 13.098 12.1886 13.3238 12.2389 13.545C12.2892 13.7616 12.4583 13.9344 12.6754 13.9851C12.8925 14.0357 13.1187 13.9551 13.2582 13.78L19.6001 7.40469L20 6.98305L19.6001 6.56141L13.2582 0.186111C13.137 0.0547809 12.9633 -0.0120364 12.7851 0.00178763C12.7668 0.00178763 12.7508 0.00178763 12.7325 0.00178763Z" fill="white"/>
</svg>
