<svg width="15" height="19" viewBox="0 0 15 19" fill="none" xmlns="http://www.w3.org/2000/svg">
<path fill-rule="evenodd" clip-rule="evenodd" d="M1.53545 0.621155H5.56593C5.95253 0.621155 6.26593 0.934555 6.26593 1.32115V17.3788C6.26593 17.7654 5.95253 18.0788 5.56593 18.0788H1.53545C1.14885 18.0788 0.835449 17.7654 0.835449 17.3788V1.32115C0.835449 0.934555 1.14885 0.621155 1.53545 0.621155ZM2.23545 2.02115V16.6788H4.86593V2.02115H2.23545ZM9.28061 0.621155H13.3111C13.6977 0.621155 14.0111 0.934555 14.0111 1.32115V17.3788C14.0111 17.7654 13.6977 18.0788 13.3111 18.0788H9.28061C8.89401 18.0788 8.58061 17.7654 8.58061 17.3788V1.32115C8.58061 0.934555 8.89401 0.621155 9.28061 0.621155ZM9.98061 16.6788H12.6111V2.02115H9.98061V16.6788Z" fill="white"/>
</svg>
