<svg width="21" height="21" viewBox="0 0 21 21" fill="none" xmlns="http://www.w3.org/2000/svg">
<path fill-rule="evenodd" clip-rule="evenodd" d="M19.6816 16.9344C20.0423 16.5969 20.2208 16.0836 20.1447 15.5752C20.123 15.4304 20.0638 15.3096 19.9812 15.2155C19.8353 14.9019 19.5931 14.6384 19.2849 14.4668L15.6391 12.312C15.3379 12.1533 15.0353 12.0873 14.7314 12.1034C14.3049 12.0962 13.8474 12.2701 13.4982 12.5889L12.558 13.545L12.5336 13.5403C12.4151 13.5042 12.2461 13.4332 12.0876 13.3426C11.7178 13.142 11.3767 12.9227 11.0534 12.6789C10.5433 12.2921 10.0643 11.8631 9.62254 11.3972C9.14938 10.9367 8.73332 10.4603 8.3583 9.95232C8.11277 9.62571 7.89625 9.28575 7.70701 8.93057C7.61227 8.75761 7.53738 8.57964 7.48187 8.39666L8.23732 7.64358C8.50155 7.37995 8.68125 7.04257 8.75272 6.67541C8.83923 6.30783 8.78134 5.89434 8.58484 5.54142L6.54593 1.71328C6.38831 1.46079 6.22066 1.27946 6.02465 1.13256C5.78127 0.946399 5.47607 0.844664 5.16288 0.847596C4.74448 0.849303 4.34166 1.02444 4.05253 1.33193L1.53547 3.83533C1.34854 4.00869 1.1842 4.23674 1.06883 4.49011C0.961776 4.70258 0.881469 4.95585 0.84216 5.21697L0.834361 5.32118V5.69722C0.82808 6.04662 0.858627 6.4081 0.925636 6.76366C1.0148 7.27321 1.14486 7.78402 1.31309 8.28275C1.5393 8.95601 1.82187 9.60987 2.15755 10.2367C2.59159 11.0378 3.08194 11.8031 3.62628 12.5295C4.31391 13.4515 5.07555 14.3181 5.90289 15.1195C6.87469 16.1252 7.96687 17.0411 9.14539 17.8359C10.0139 18.4225 10.9346 18.9289 11.8956 19.3485C12.9606 19.8276 14.1162 20.0971 15.2911 20.1388L15.6722 20.1392L15.7784 20.1311C16.038 20.0913 16.2899 20.0114 16.5251 19.8944C16.7566 19.7897 16.985 19.6251 17.1748 19.4207L19.6816 16.9344ZM18.5883 15.6811C18.6707 15.7272 18.7173 15.7921 18.7314 15.8671C18.7331 15.8761 18.7349 15.8851 18.7369 15.8939C18.7295 15.9058 18.7205 15.9168 18.71 15.9266L16.1688 18.4475C16.0853 18.5366 16.0087 18.5917 15.9237 18.6304C15.8127 18.6852 15.7129 18.7194 15.6123 18.7392H15.316C14.3471 18.7044 13.3697 18.4765 12.4629 18.0686C11.5728 17.68 10.7269 17.2147 9.9286 16.6755C8.83058 15.9349 7.81338 15.0819 6.89318 14.1301C6.10345 13.3646 5.39137 12.5545 4.74758 11.6912C4.24331 11.0183 3.78993 10.3107 3.3901 9.57277C3.09296 9.0179 2.84148 8.43596 2.63992 7.83607C2.49411 7.40379 2.38158 6.96185 2.30304 6.51329C2.25205 6.24242 2.22954 5.97611 2.23425 5.70958L2.23436 5.38001C2.25356 5.28071 2.28628 5.18444 2.33167 5.0939C2.38184 4.9849 2.43723 4.90803 2.50593 4.84412L5.05617 2.30772C5.09836 2.26341 5.13447 2.24771 5.1723 2.24756C5.1773 2.24752 5.17858 2.24795 5.17962 2.24875C5.24517 2.29791 5.29659 2.35354 5.33681 2.417L7.35543 6.21102C7.38872 6.27107 7.39669 6.32802 7.38402 6.38219C7.36042 6.50083 7.31495 6.58621 7.24794 6.65307L6.31716 7.58384C6.18122 7.73894 6.10881 7.87652 6.0695 8.02494C6.03599 8.21619 6.03599 8.33728 6.05438 8.45625C6.14824 8.88407 6.28707 9.25251 6.47534 9.5961C6.69474 10.008 6.95024 10.4091 7.23563 10.7887C7.65245 11.3534 8.11897 11.8876 8.62682 12.3809C9.10077 12.8816 9.63667 13.3616 10.209 13.7956C10.5895 14.0826 10.9894 14.3396 11.4068 14.5658C11.6501 14.7051 11.9242 14.8202 12.2092 14.9009L12.5039 14.9607L12.6375 14.9736H12.7628L12.9387 14.9511C13.0896 14.912 13.2294 14.8384 13.3471 14.7362L14.4696 13.5964C14.5286 13.5439 14.6419 13.5008 14.7591 13.5024C14.8585 13.4986 14.9113 13.5102 14.9584 13.5348L18.5883 15.6811Z" fill="#1F4274"/>
</svg>
