<svg width="15" height="18" viewBox="0 0 15 18" fill="none" xmlns="http://www.w3.org/2000/svg">
<path fill-rule="evenodd" clip-rule="evenodd" d="M14.1966 7.46458L14.1967 7.47876C14.1949 8.66669 13.857 9.82988 13.2125 10.8489L9.01625 17.0854C8.88106 17.2863 8.70824 17.4591 8.50733 17.5943C7.64818 18.1724 6.48306 17.9445 5.90498 17.0854L1.699 10.834C1.06419 9.82988 0.726357 8.66669 0.72464 7.46458C0.801781 3.81329 3.82152 0.914339 7.44831 0.986233C11.0997 0.914339 14.1194 3.81329 14.1966 7.46458ZM7.44828 2.23599C4.4864 2.17767 2.03691 4.52919 1.97447 7.4768C1.97596 8.42894 2.24674 9.36123 2.74579 10.1511L6.94204 16.3876C7.13473 16.6739 7.52311 16.7499 7.80949 16.5572C7.87646 16.5121 7.93407 16.4545 7.97913 16.3876L12.1656 10.166C12.6732 9.36322 12.9439 8.43355 12.9467 7.48388C12.8803 4.52543 10.4324 2.17772 7.44828 2.23599ZM7.4606 9.74722C5.91326 9.74722 4.64672 8.54176 4.64672 7.03889C4.64672 5.53602 5.91326 4.33055 7.4606 4.33055C9.00795 4.33055 10.2745 5.53602 10.2745 7.03889C10.2745 8.54176 9.00795 9.74722 7.4606 9.74722ZM7.4606 8.49722C8.33104 8.49722 9.02449 7.83721 9.02449 7.03889C9.02449 6.24057 8.33104 5.58055 7.4606 5.58055C6.59017 5.58055 5.89672 6.24057 5.89672 7.03889C5.89672 7.83721 6.59017 8.49722 7.4606 8.49722Z" fill="#1F4274"/>
</svg>
