<svg width="343" height="80" viewBox="0 0 343 80" fill="none" xmlns="http://www.w3.org/2000/svg">
<g style="mix-blend-mode:overlay" opacity="0.1">
<path d="M75.3788 57.2837C73.8486 57.0103 72.2786 57.0558 70.7668 57.4172C69.2549 57.7785 67.8338 58.4481 66.5921 59.384C65.3419 60.2566 64.2794 61.3717 63.4678 62.663C62.6562 63.9543 62.112 65.3957 61.8674 66.9015C61.6228 68.4073 61.6828 69.947 62.0438 71.4292C62.4049 72.9113 63.0596 74.3059 63.9692 75.53C64.8544 76.7893 65.9843 77.8569 67.2912 78.6689C68.5982 79.4809 70.0553 80.0205 71.5755 80.2556C73.0972 80.5336 74.6592 80.5026 76.1686 80.1643C77.6781 79.826 79.1043 79.1875 80.3623 78.2866C81.6204 77.4006 82.6869 76.2697 83.4981 74.9615C84.3094 73.6533 84.8486 72.1947 85.0835 70.6731C85.3621 69.1625 85.3192 67.6101 84.9577 66.1172C84.5961 64.6243 83.924 63.2246 82.9852 62.0094C82.1149 60.736 80.9889 59.6581 79.6792 58.8445C78.3696 58.0309 76.905 57.4993 75.3788 57.2837Z" fill="white"/>
<path d="M109.083 65.6854C108.468 65.2678 107.724 65.0817 106.985 65.1603C106.605 65.2415 106.247 65.4 105.931 65.6258C105.615 65.8516 105.349 66.14 105.149 66.473C104.928 66.7703 104.779 67.1139 104.71 67.4778C104.642 67.8416 104.658 68.2163 104.755 68.5733C104.933 69.2648 105.352 69.8701 105.936 70.2798C106.22 70.5265 106.557 70.7026 106.922 70.7939C107.287 70.8851 107.668 70.8889 108.034 70.8049C108.422 70.7649 108.797 70.6387 109.13 70.4354C109.464 70.2322 109.747 69.957 109.961 69.63C110.175 69.303 110.313 68.9323 110.365 68.5451C110.417 68.1579 110.383 67.7639 110.264 67.3919C110.215 67.0343 110.083 66.6933 109.878 66.3967C109.673 66.1001 109.401 65.8563 109.083 65.6854Z" fill="white"/>
<path d="M100.559 38.1188C102.301 36.9865 104.145 36.0196 106.067 35.2308L104.624 38.9063C104.1 40.4028 104.31 41.348 105.28 41.7943C105.963 42.0098 106.696 42.0098 107.378 41.7943C107.824 41.6105 108.48 41.3217 109.346 40.8754C111.368 40.2313 113.426 39.7054 115.509 39.3002C116.296 39.3002 116.611 38.7226 116.428 37.8562C116.244 36.9898 115.641 36.6223 114.854 36.8061C113.207 37.0662 111.584 37.4614 110.001 37.9875L107.378 38.7751L109.608 33.5244C109.705 33.2939 109.719 33.0368 109.647 32.7973C109.575 32.5577 109.422 32.3507 109.215 32.2117C109.067 32.0514 108.881 31.9311 108.675 31.8623C108.469 31.7934 108.248 31.7781 108.034 31.8179C105.851 32.5294 103.743 33.4526 101.739 34.5745L103.575 26.4358C103.641 26.2726 103.668 26.0966 103.655 25.9211C103.642 25.7457 103.59 25.5755 103.501 25.4235C103.413 25.2716 103.291 25.1419 103.144 25.0444C102.998 24.9468 102.832 24.884 102.657 24.8607C101.801 24.5981 101.276 24.8606 101.083 25.6482L98.5917 36.8061C98.5002 37.051 98.5033 37.3212 98.6004 37.564C98.6974 37.8068 98.8813 38.0046 99.1163 38.1188C99.308 38.3095 99.5674 38.4166 99.8377 38.4166C100.108 38.4166 100.367 38.3095 100.559 38.1188Z" fill="white"/>
<path d="M91.772 45.995C92.0746 46.2042 92.4178 46.3474 92.7793 46.4152C93.1408 46.4831 93.5125 46.4741 93.8703 46.3888C94.6072 46.2358 95.2614 45.815 95.7063 45.2074C95.9267 44.9101 96.0767 44.5665 96.1448 44.2027C96.213 43.8388 96.1976 43.4641 96.0998 43.1071C96.0654 42.7283 95.94 42.3635 95.7345 42.0435C95.529 41.7236 95.2495 41.458 94.9195 41.2694C94.6225 41.0489 94.2791 40.8988 93.9156 40.8305C93.5521 40.7623 93.1779 40.7777 92.8212 40.8756C92.4428 40.91 92.0782 41.0355 91.7585 41.2411C91.4389 41.4468 91.1736 41.7267 90.9852 42.057C90.7648 42.3543 90.6148 42.6979 90.5467 43.0618C90.4785 43.4256 90.4939 43.8002 90.5917 44.1572C90.7445 44.8948 91.165 45.5496 91.772 45.995Z" fill="white"/>
<path d="M268.949 80.3872C270.406 80.9967 271.973 81.2996 273.553 81.277C275.132 81.2544 276.69 80.9068 278.129 80.2559C279.555 79.6497 280.846 78.7669 281.929 77.6583C283.011 76.5498 283.864 75.2375 284.437 73.7973C285.01 72.357 285.292 70.8174 285.268 69.2673C285.243 67.7172 284.912 66.1874 284.293 64.7662C283.679 63.3288 282.782 62.03 281.655 60.9474C280.529 59.8648 279.196 59.0206 277.736 58.4654C276.301 57.8559 274.755 57.5528 273.197 57.5754C271.639 57.598 270.103 57.9458 268.687 58.5966C267.247 59.1694 265.943 60.0376 264.859 61.1455C263.774 62.2533 262.934 63.5761 262.392 65.0288C261.242 67.9371 261.286 71.1821 262.514 74.0582C263.742 76.9343 266.054 79.2088 268.949 80.3872Z" fill="white"/>
<path d="M255.179 59.7772L247.467 58.3333L254.025 62.9276L255.179 59.7772Z" fill="white"/>
<path d="M248.622 83.0124L256.49 80.7809L254.812 77.7617L248.622 83.0124Z" fill="white"/>
<path d="M261.342 52.8191L254.916 48.0934L258.72 55.1819C259.498 54.2934 260.378 53.5003 261.342 52.8191Z" fill="white"/>
<path d="M269.867 49.2752L266.064 42.0554L266.588 50.0627C268.608 49.5377 269.683 49.2752 269.867 49.2752Z" fill="white"/>
<path d="M278.785 41.53L275.663 49.1436L279.073 49.7999L278.785 41.53Z" fill="white"/>
<path d="M241.277 84.981C243.181 89.2819 245.961 93.1379 249.439 96.3023C252.916 99.4667 257.015 101.87 261.474 103.359C265.865 104.974 270.541 105.668 275.211 105.397C279.881 105.126 284.446 103.896 288.621 101.783C292.924 99.7845 296.774 96.9248 299.931 93.3804C303.089 89.836 305.488 85.6819 306.981 81.1742C308.639 76.7751 309.377 72.0825 309.152 67.3863C308.926 62.6902 307.741 58.0901 305.67 53.8704C303.765 49.5695 300.986 45.7136 297.508 42.5492C294.031 39.3848 289.932 36.9814 285.473 35.4929C281.082 33.8774 276.406 33.1836 271.736 33.4545C267.066 33.7255 262.501 34.9556 258.326 37.0681C254.036 39.0523 250.194 41.8917 247.037 45.4127C243.881 48.9337 241.474 53.0623 239.966 57.5459C238.337 61.9735 237.613 66.6838 237.839 71.3968C238.064 76.1098 239.233 80.7294 241.277 84.981ZM241.54 70.279L253.08 67.2598C253.082 66.2839 253.214 65.3126 253.474 64.3719L243.9 57.5459C243.559 57.5459 243.454 57.1521 243.638 56.627C243.697 56.4755 243.81 56.3513 243.956 56.2785C244.101 56.2058 244.268 56.1896 244.425 56.2333L255.966 58.4648L257.671 56.102L252.031 45.6005C251.769 45.338 251.821 45.023 252.031 44.6817C252.168 44.5924 252.327 44.5449 252.49 44.5449C252.653 44.5449 252.813 44.5924 252.949 44.6817L262.523 51.7702L265.146 50.5887L264.359 38.6433C264.359 38.1183 264.569 37.8557 265.015 37.8557C265.461 37.8557 265.618 37.8557 265.801 38.2495L271.441 48.7509H274.064L278.654 37.4619C278.846 37.0243 279.108 36.8931 279.441 37.0681C279.53 37.0548 279.621 37.0626 279.706 37.0909C279.792 37.1191 279.87 37.1672 279.934 37.231C279.997 37.2948 280.045 37.3727 280.074 37.4584C280.102 37.5441 280.11 37.6352 280.096 37.7245L280.49 50.0636L280.883 50.1949L282.719 50.9825L291.899 42.8439C292.052 42.7329 292.235 42.6731 292.424 42.6731C292.612 42.6731 292.796 42.7329 292.949 42.8439C293.058 42.9721 293.117 43.135 293.117 43.3034C293.117 43.4717 293.058 43.6346 292.949 43.7628L287.965 55.1831L289.539 56.8896L301.473 53.4766C301.648 53.4393 301.83 53.4571 301.994 53.5276C302.159 53.5981 302.297 53.7179 302.391 53.8704C302.575 54.133 302.391 54.448 302.129 54.7893L292.686 62.928L293.211 65.0282L305.67 67.1285C305.824 67.1947 305.956 67.3044 306.049 67.4443C306.142 67.5841 306.192 67.7481 306.194 67.9162C306.194 68.3625 306.011 68.5725 305.67 68.5725L293.473 71.8542C293.463 72.6145 293.33 73.3681 293.08 74.0858L303.571 81.3055C303.912 81.6468 304.017 81.9618 303.833 82.2244C303.65 82.4869 303.178 82.697 302.916 82.6182L290.588 80.2553L289.276 82.0931L295.44 93.1197C295.624 93.3822 295.44 93.6972 295.178 94.0385C294.916 94.3798 294.601 94.3798 294.26 94.0385L284.162 86.6875L282.195 87.7376L282.982 100.339C282.98 100.508 282.929 100.671 282.836 100.811C282.743 100.951 282.611 101.061 282.457 101.127C282.283 101.145 282.107 101.119 281.947 101.05C281.786 100.981 281.645 100.872 281.539 100.733L275.637 89.5754H273.539L268.687 101.127C268.503 101.468 268.293 101.652 268.031 101.652H267.9C267.454 101.468 267.244 101.206 267.244 100.864L266.851 88.5253L265.801 88.2628L264.621 87.7376L255.441 96.0075C254.995 96.1913 254.707 96.1913 254.523 96.0075C254.339 95.8238 254.077 95.535 254.261 95.0887L259.113 83.9309L257.408 81.9619L245.867 85.3748C245.535 85.5674 245.273 85.4361 245.081 84.981C244.818 84.7185 244.871 84.4035 245.212 84.0622L254.261 76.3173L253.605 73.6919L241.802 71.7229C241.356 71.5391 241.146 71.3291 241.146 71.0666C241.146 70.804 241.199 70.279 241.54 70.279Z" fill="white"/>
<path d="M252.949 68.8348L245.238 70.8039L253.107 72.1166L252.949 68.8348Z" fill="white"/>
<path d="M229.238 79.8604L239.336 84.4548L229.107 76.9725H232.884L229.107 71.5905H232.884L229.238 66.471H232.884L228.189 59.9076L223.599 66.471H227.271L223.599 71.5905H227.376L223.599 76.9725H227.927L221.37 85.3736L229.238 79.8604Z" fill="white"/>
<path d="M239.337 55.7075L235.665 43.3683L238.419 46.2562L239.599 39.8241L242.222 42.4494L243.271 36.1486L245.894 38.7739L247.31 30.8978L239.337 32.2105L241.959 34.8359L235.665 35.886L238.287 38.6427L231.861 39.6928L235.009 42.8432L224.36 45.7312L234.091 45.9937L239.337 55.7075Z" fill="white"/>
<path d="M290.483 46.3882L284.188 52.0327L287.047 54.2643L290.483 46.3882Z" fill="white"/>
<path d="M44.9534 53.4769C44.5913 53.3582 44.2075 53.3198 43.8291 53.3645C43.4507 53.4093 43.0865 53.536 42.7619 53.7359C42.4374 53.9358 42.1604 54.204 41.95 54.522C41.7396 54.84 41.6008 55.2001 41.5435 55.5772C41.4583 55.9353 41.4493 56.3074 41.5171 56.6692C41.5849 57.0311 41.728 57.3747 41.937 57.6776C42.1198 57.9987 42.3648 58.2802 42.6576 58.5056C42.9503 58.731 43.2849 58.8957 43.642 58.9902C44.0137 59.1095 44.4073 59.1442 44.7941 59.0918C45.1809 59.0395 45.5512 58.9013 45.8779 58.6875C46.2046 58.4737 46.4794 58.1895 46.6825 57.8558C46.8856 57.5221 47.0117 57.1473 47.0517 56.7587C47.1369 56.4005 47.1459 56.0285 47.0781 55.6666C47.0103 55.3048 46.8672 54.9612 46.6582 54.6583C46.2489 54.0736 45.6443 53.6546 44.9534 53.4769Z" fill="white"/>
<path d="M36.1666 36.5428C36.1213 36.3698 36.0328 36.2113 35.9092 36.0822C35.7856 35.9531 35.631 35.8577 35.4603 35.8051C35.2895 35.7525 35.1082 35.7444 34.9334 35.7816C34.7587 35.8188 34.5964 35.9002 34.4618 36.0178C34.3029 36.1 34.1624 36.2138 34.0491 36.3523C33.9358 36.4909 33.852 36.6511 33.8029 36.8232C33.7538 36.9953 33.7404 37.1757 33.7635 37.3532C33.7866 37.5307 33.8457 37.7017 33.9372 37.8555L37.4781 44.944L30.2651 43.8938C30.031 43.848 29.7892 43.8598 29.5607 43.9284C29.3322 43.997 29.1238 44.1203 28.9536 44.2876C28.7901 44.4311 28.6766 44.623 28.6294 44.8354C28.5823 45.0478 28.604 45.2697 28.6914 45.469C29.6341 48.0048 30.7742 50.4628 32.1011 52.8201L26.4618 52.0324C25.5963 52.0324 25.1504 52.3475 25.1504 53.2139C25.132 53.3969 25.1523 53.5819 25.2099 53.7566C25.2675 53.9313 25.3613 54.092 25.485 54.2282C25.6086 54.3643 25.7595 54.473 25.9278 54.547C26.0961 54.621 26.278 54.6587 26.4618 54.6578L34.5929 55.8392C34.8388 55.8861 35.093 55.8615 35.3253 55.7685C35.5577 55.6754 35.7586 55.5178 35.9044 55.3141C36.095 55.1223 36.202 54.8627 36.202 54.5922C36.202 54.3216 36.095 54.062 35.9044 53.8702C34.3346 51.6374 32.9737 49.2645 31.8389 46.7817L39.183 47.8319C39.429 47.8934 39.688 47.8758 39.9234 47.7815C40.1588 47.6872 40.3587 47.5211 40.4945 47.3068C40.6435 47.1205 40.7245 46.889 40.7245 46.6504C40.7245 46.4118 40.6435 46.1804 40.4945 45.9941L36.1666 36.5428Z" fill="white"/>
<path d="M46.5271 27.0918C47.7598 27.8795 49.4909 29.1134 51.7729 30.7674C53.4436 32.1003 55.1956 33.3278 57.0187 34.4429C57.2253 34.5341 57.4486 34.5811 57.6744 34.5811C57.9002 34.5811 58.1235 34.5341 58.3301 34.4429C58.5402 34.3287 58.7135 34.1568 58.8296 33.9476C58.9457 33.7384 58.9999 33.5004 58.9858 33.2615C58.9858 32.2113 58.5399 29.4022 57.9366 24.8604L60.5595 28.5358C61.6874 29.9273 62.3431 30.7674 62.5267 31.0299L63.3137 32.2113C63.4008 32.4383 63.5418 32.6406 63.7246 32.8007C63.9074 32.9608 64.1265 33.0739 64.3628 33.1302C65.4906 33.3928 66.1463 32.7889 66.3299 31.2925V27.8795C65.9538 24.8299 65.7349 21.7629 65.6742 18.6907C65.6742 17.9031 65.2283 17.5093 64.3628 17.5093C63.4972 17.5093 63.0513 17.8244 63.0513 18.6907C63.1155 20.886 63.2907 23.0766 63.5759 25.2541L63.8381 28.5358L61.871 25.9105C60.4768 23.8394 58.9432 21.8658 57.2809 20.0034C57.2121 19.8998 57.1238 19.8109 57.0206 19.7416C56.9174 19.6723 56.8014 19.6241 56.6796 19.5997C56.5578 19.5753 56.4325 19.5752 56.3106 19.5994C56.1887 19.6237 56.0727 19.6717 55.9694 19.7409C55.7292 19.8441 55.5191 20.0066 55.3585 20.2132C55.198 20.4198 55.0923 20.6638 55.0515 20.9223C55.06 24.225 55.3672 27.5202 55.9694 30.7674L51.904 27.7482C50.5751 26.6874 49.1728 25.7224 47.7074 24.8604C47.5639 24.7707 47.4029 24.7129 47.2351 24.691C47.0674 24.6691 46.8969 24.6835 46.7352 24.7333C46.5735 24.7831 46.4244 24.8671 46.298 24.9796C46.1716 25.0921 46.0708 25.2305 46.0025 25.3854C45.6877 26.3043 45.8189 26.7506 46.5271 27.0918Z" fill="white"/>
<path d="M62.6581 38.7737C62.7261 39.1418 62.8803 39.4885 63.1083 39.7852C63.3363 40.0818 63.6316 40.3201 63.9696 40.4802C64.2666 40.7008 64.6098 40.8509 64.9733 40.9191C65.3369 40.9873 65.7112 40.9719 66.0679 40.874C66.7588 40.6963 67.3633 40.2774 67.7727 39.6926C67.993 39.3953 68.143 39.0517 68.2111 38.6878C68.2793 38.324 68.2639 37.9493 68.1661 37.5923C68.1317 37.2135 68.0065 36.8486 67.801 36.5287C67.5955 36.2087 67.3158 35.9432 66.9858 35.7546C66.3447 35.407 65.6109 35.2693 64.8875 35.3608C64.4992 35.4007 64.1248 35.5269 63.7914 35.7301C63.458 35.9334 63.1742 36.2086 62.9605 36.5357C62.7469 36.8627 62.609 37.2333 62.5566 37.6205C62.5043 38.0077 62.539 38.4017 62.6581 38.7737Z" fill="white"/>
<path d="M319.728 60.0389H316.449L320.253 65.4209H316.449L320.095 70.6717H316.449L321.144 77.2351L325.735 70.6717H322.062L325.735 65.4209H321.958L325.735 60.0389H321.695L326.39 50.7189L319.833 57.6761L308.948 55.182L319.728 60.0389Z" fill="white"/>
<path d="M295.834 33.6552L302.391 34.7053L299.663 37.462L305.958 38.5121L303.335 41.1375L311.309 42.4502L309.893 34.574L307.27 37.1994L306.221 30.8985L303.598 33.5239L302.391 27.0917L300.057 29.4546L298.457 20.1345L297.303 29.5858L287.047 34.049L297.696 31.8174L295.834 33.6552Z" fill="white"/>
<path d="M258.353 34.0495L264.648 24.2043V27.2235L269.998 23.4167V27.2235L275.244 23.548V27.2235L281.801 22.6291L275.244 18.0347V21.579L269.998 18.0347V21.7102L264.648 18.0347V21.9728L256.385 16.0657L262.287 23.6793L258.353 34.0495Z" fill="white"/>
<path d="M302.129 68.3096L293.604 66.8657C293.817 68.0786 293.905 69.3103 293.866 70.5412L302.129 68.3096Z" fill="white"/>
<path d="M292.45 76.8412L291.401 79.0728L299.925 80.648L292.844 75.6598L292.45 76.8412Z" fill="white"/>
<path d="M298.745 55.9696L290.588 58.3324L292.293 61.6141L298.745 55.9696Z" fill="white"/>
<path d="M2.46262 1.0992C2.22549 1.25987 2.04256 1.48871 1.93801 1.75554L1.67578 2.5432C1.58775 2.89741 1.63446 3.27171 1.80689 3.59333L2.06912 4.24967C2.37697 4.62227 2.78743 4.89612 3.24945 5.03725C3.72194 5.1643 4.21953 5.1643 4.69201 5.03725C5.07543 4.9161 5.41658 4.68852 5.67592 4.38099C5.93526 4.07345 6.10221 3.6986 6.15715 3.29993C6.21208 2.90126 6.15281 2.49514 5.98633 2.12882C5.81985 1.7625 5.55296 1.45104 5.21662 1.23052C5.04915 1.03347 4.84298 0.872868 4.61101 0.758772C4.37904 0.644676 4.12621 0.579511 3.86804 0.567205C3.60987 0.5549 3.35193 0.595708 3.11018 0.687225C2.86843 0.778741 2.64804 0.918971 2.46262 1.0992Z" fill="white"/>
<path d="M19.5113 31.8168L18.7244 32.3418L18.1998 32.9981C18.0388 33.3699 17.9931 33.7815 18.0687 34.1796L18.1998 34.8359C18.3653 35.2877 18.6924 35.6619 19.1178 35.886C19.5612 36.1286 20.0553 36.2635 20.5603 36.2798C20.8687 36.2986 21.1765 36.2357 21.4528 36.0974C21.7291 35.9591 21.9641 35.7504 22.1342 35.4923C22.4516 35.1032 22.625 34.6163 22.625 34.114C22.625 33.6116 22.4516 33.1247 22.1342 32.7357C21.8762 32.2967 21.471 31.9635 20.9908 31.7953C20.5106 31.6271 19.9864 31.6347 19.5113 31.8168Z" fill="white"/>
<path d="M11.3801 9.6328C11.0059 9.33898 10.5442 9.17932 10.0686 9.17932C9.59308 9.17932 9.1313 9.33898 8.75717 9.6328L8.23272 10.4205L7.97034 11.208L8.10145 12.2582L8.49495 12.7833L9.67528 13.4396C9.90952 13.5308 10.1617 13.5664 10.412 13.5436C10.6623 13.5208 10.9039 13.4403 11.1178 13.3083C11.3773 13.2147 11.6094 13.0576 11.7926 12.8512C11.9759 12.6449 12.1046 12.3959 12.1671 12.1269C12.2842 11.9126 12.3569 11.6767 12.3806 11.4335C12.4044 11.1903 12.3787 10.9449 12.3052 10.7119C12.2317 10.4789 12.1118 10.2631 11.9529 10.0777C11.7939 9.89227 11.599 9.74092 11.3801 9.6328Z" fill="white"/>
<path d="M11.7737 14.7518L11.2491 15.2768C11.0401 15.4382 10.8997 15.6726 10.8557 15.9331V16.852L11.1179 17.3771C11.1969 17.5868 11.3195 17.7773 11.4778 17.9357C11.6361 18.0942 11.8264 18.217 12.0359 18.296C12.2246 18.4294 12.4447 18.5115 12.6745 18.5345C12.9043 18.5575 13.136 18.5206 13.3473 18.4273C13.5952 18.4089 13.8342 18.3267 14.041 18.1887C14.2478 18.0507 14.4154 17.8616 14.5277 17.6397C14.7274 17.2625 14.806 16.8328 14.7528 16.4093C14.6995 15.9857 14.5171 15.589 14.2302 15.2731C13.9434 14.9572 13.566 14.7377 13.1498 14.6444C12.7336 14.5511 12.2989 14.5886 11.9048 14.7518H11.7737Z" fill="white"/>
<path d="M21.085 38.1178L20.6917 39.0367L20.8228 39.693C20.8376 39.9449 20.9034 40.191 21.0162 40.4167C21.1289 40.6423 21.2861 40.8427 21.4785 41.0057C21.859 41.3232 22.3079 41.5478 22.7899 41.6621C23.4021 41.6918 24.0052 41.506 24.4947 41.137C24.847 40.8103 25.0875 40.3807 25.1817 39.9093C25.2758 39.4379 25.219 38.9488 25.0193 38.5116C24.8405 38.0225 24.4866 37.6173 24.0261 37.3748C23.5657 37.1322 23.0316 37.0695 22.5275 37.1989L21.7407 37.5927L21.085 38.1178Z" fill="white"/>
<path d="M6.52786 4.64504L5.6099 5.17014L4.95417 5.69517L4.56067 6.87662V7.53297C4.68686 8.03905 4.96076 8.49605 5.34751 8.84565C5.53037 9.04796 5.75272 9.2106 6.00084 9.32349C6.24897 9.43638 6.51757 9.49712 6.79009 9.502C7.44628 9.56409 8.1018 9.3766 8.62617 8.97689C8.85021 8.82187 9.04156 8.62415 9.1892 8.39506C9.33685 8.16597 9.43793 7.90999 9.48665 7.64177C9.53537 7.37355 9.53084 7.09836 9.4732 6.83191C9.41557 6.56547 9.30598 6.31299 9.15078 6.08896C8.97563 5.56187 8.60815 5.12041 8.12188 4.85271C7.63561 4.58501 7.06638 4.51084 6.52786 4.64504Z" fill="white"/>
<path d="M14.3968 20.1338C14.1302 20.2384 13.9016 20.4216 13.741 20.6589L13.3475 21.1839L13.2164 22.2341L13.3475 22.7592L14.2657 23.6781C14.6689 23.8889 15.1239 23.98 15.5771 23.9406C16.0827 23.8143 16.5393 23.5401 16.8886 23.153C17.1846 22.7972 17.3357 22.3427 17.3113 21.8803C17.287 21.4178 17.0892 20.9816 16.7574 20.6589C16.5059 20.2856 16.1208 20.023 15.6816 19.9253C15.2425 19.8276 14.7826 19.9022 14.3968 20.1338Z" fill="white"/>
<path d="M17.8063 25.9095H17.0195C16.9082 25.9318 16.8034 25.9788 16.7126 26.0469C16.6218 26.115 16.5474 26.2026 16.4949 26.3033C16.1539 26.6446 15.9703 26.9071 15.9703 27.0909L15.8392 27.616C15.8226 27.8292 15.8489 28.0436 15.9165 28.2465C15.9841 28.4494 16.0916 28.6368 16.2327 28.7974C16.3362 28.9999 16.4845 29.176 16.6663 29.3125C16.8481 29.449 17.0585 29.5422 17.2817 29.585C17.5001 29.7144 17.7493 29.7826 18.0031 29.7826C18.2569 29.7826 18.506 29.7144 18.7244 29.585C19.1239 29.3846 19.4444 29.0556 19.6347 28.6509C19.825 28.2462 19.8738 27.7893 19.7735 27.3534C19.674 26.9161 19.4204 26.5294 19.059 26.2642C18.6977 25.999 18.2529 25.873 17.8063 25.9095Z" fill="white"/>
<path d="M-1.73448 -3.36336L-2.52132 -2.70701C-2.63627 -2.60881 -2.73037 -2.4885 -2.79795 -2.3532C-2.86554 -2.2179 -2.90514 -2.07041 -2.91466 -1.91944C-3.03219 -1.53442 -3.03219 -1.12301 -2.91466 -0.737987L-2.65243 -0.0816448C-2.65243 0.364668 -2.20647 0.70595 -1.6032 0.968487C-1.11599 1.2095 -0.568492 1.30087 -0.0295205 1.23104C0.296178 1.26419 0.624063 1.19305 0.906845 1.02794C1.18963 0.862825 1.41267 0.612236 1.54416 0.312145C1.90597 -0.107422 2.10512 -0.643229 2.10512 -1.19747C2.10512 -1.75172 1.90597 -2.28745 1.54416 -2.70701C1.3886 -2.98412 1.17516 -3.22433 0.918212 -3.41111C0.661265 -3.59789 0.366877 -3.72686 0.0554874 -3.78919C-0.255903 -3.85153 -0.577049 -3.84578 -0.886001 -3.77229C-1.19495 -3.6988 -1.4844 -3.55925 -1.73448 -3.36336Z" fill="white"/>
<path d="M496.747 140.113C496.827 139.768 496.827 139.409 496.747 139.063V138.932V139.063C497.022 138.86 497.285 138.641 497.534 138.407C499.533 136.931 501.418 135.308 503.173 133.55L505.534 131.318C505.691 131.161 505.875 131.003 506.059 130.793C508.236 128.168 510.177 125.805 511.829 123.442C516.532 125.616 520.564 129.016 523.501 133.287C528.466 139.917 532.198 147.387 534.517 155.34C535.225 157.624 536.222 161.064 537.534 165.842C538.555 169.251 540.249 172.42 542.517 175.162C545.058 177.934 548.262 180.012 551.828 181.2C554.189 182.067 557.782 183.169 562.582 184.482C571.54 187.512 579.921 192.04 587.369 197.871C587.506 198.018 587.674 198.132 587.861 198.207C588.047 198.281 588.248 198.313 588.449 198.3C588.649 198.288 588.844 198.231 589.02 198.134C589.196 198.037 589.349 197.903 589.467 197.74C590.166 197.04 590.166 196.384 589.467 195.771C582.948 190.755 575.807 186.608 568.221 183.432C565.861 182.452 561.883 181.139 556.287 179.494C552.351 178.512 548.68 176.674 545.533 174.112C542.909 171.339 541.016 167.955 540.025 164.267C538.714 159.2 537.665 155.472 536.878 153.109C534.357 145.227 530.546 137.819 525.599 131.187C522.49 126.805 518.284 123.319 513.403 121.079L513.272 121.211C520.301 109.608 522.996 95.8886 520.878 82.4864C519.064 68.6949 512.418 55.9955 502.124 46.6501C498.773 43.5276 495.077 40.7971 491.108 38.5115L492.813 35.3611C494.024 33.5102 495.48 31.8321 497.141 30.3728C498.19 29.4014 499.764 27.9575 502.124 26.041C508.018 20.8483 511.76 13.6381 512.616 5.8257C513.135 1.81921 513.441 -2.21204 513.534 -6.25101C513.718 -12.1056 513.875 -16.1487 514.059 -18.3277C514.407 -22.3774 515.334 -26.3561 516.813 -30.1419C518.447 -33.7504 520.517 -37.1449 522.976 -40.2496C527.357 -46.1041 529.875 -49.6483 530.583 -50.8823C532.937 -54.5793 534.459 -58.7451 535.042 -63.0902C535.225 -64.0616 534.779 -64.5342 533.73 -64.5342C533.528 -64.5614 533.323 -64.5438 533.129 -64.4827C532.935 -64.4216 532.756 -64.3186 532.606 -64.1809C532.456 -64.0431 532.338 -63.874 532.26 -63.6856C532.182 -63.4971 532.147 -63.2938 532.157 -63.0902C531.566 -59.1961 530.134 -55.4778 527.96 -52.195C526.981 -50.6197 524.664 -47.4693 521.009 -42.7436C516.144 -36.6356 512.856 -29.4223 511.436 -21.7407C510.921 -17.7796 510.658 -13.7898 510.649 -9.79527C510.465 -3.75693 510.308 0.233604 510.124 2.15012C509.259 11.5227 506.059 18.6375 500.551 23.5469C498.19 25.5685 496.433 27.0912 495.305 28.1413C493.55 29.6816 492.007 31.4471 490.715 33.3921C489.929 34.5657 489.228 35.794 488.616 37.0676C485.046 35.3068 481.313 33.8999 477.469 32.867C478.44 31.213 480.826 27.6162 484.682 22.1029C487.234 18.6592 489.349 14.9112 490.977 10.9451C492.17 7.3091 492.616 3.46912 492.289 -0.343933C491.843 -5.41089 491.502 -9.27017 491.239 -11.8955C490.957 -19.8497 491.795 -27.8041 493.731 -35.5238C494.685 -39.6779 495.386 -43.8863 495.829 -48.1257C496.196 -52.38 495.975 -56.6646 495.174 -60.8587C494.99 -61.8301 494.439 -62.1188 493.469 -61.7775C492.498 -61.4362 492.157 -60.9374 492.42 -60.0711C493.564 -52.4049 493.117 -44.5849 491.108 -37.0991C489.173 -29.5897 488.117 -21.8807 487.961 -14.1271C488.144 -11.5017 488.564 -7.56369 489.272 -2.31296C489.78 1.64641 489.468 5.66805 488.354 9.5012C487.312 12.4013 485.948 15.1753 484.289 17.7711C483.764 18.5587 481.981 21.1053 479.043 25.3846C477.39 27.7475 475.948 30.0316 474.715 32.2106L476.551 32.7357C470.978 31.3373 465.247 30.6753 459.502 30.7667C457.378 30.7667 455.279 31.0292 453.207 31.2917C454.697 25.0334 455.705 18.6702 456.224 12.2578C456.708 5.81906 456.132 -0.65564 454.519 -6.90735C453.024 -13.0245 452.158 -16.7 451.896 -17.9339C451.422 -21.5012 451.291 -25.1056 451.502 -28.698C451.502 -31.2358 451.765 -34.78 452.289 -39.3307C452.814 -44.3189 453.129 -47.8631 453.207 -49.8321C453.826 -57.329 452.422 -64.8545 449.142 -71.6227C449.075 -71.812 448.963 -71.9824 448.816 -72.1187C448.669 -72.255 448.49 -72.3533 448.297 -72.405C448.103 -72.4568 447.899 -72.4604 447.704 -72.4155C447.508 -72.3707 447.327 -72.2788 447.175 -72.1478C447 -72.0643 446.845 -71.9439 446.722 -71.7948C446.598 -71.6458 446.508 -71.4716 446.458 -71.2844C446.409 -71.0972 446.4 -70.9014 446.433 -70.7105C446.466 -70.5196 446.54 -70.3382 446.65 -70.1787C449.54 -64.0857 450.806 -57.3474 450.322 -50.6197C450.138 -46.0778 449.588 -39.3307 448.617 -30.4044C448.127 -23.5598 448.792 -16.6813 450.584 -10.0578C451.7 -6.26611 452.576 -2.40797 453.207 1.49378C453.555 5.20323 453.599 8.93497 453.338 12.6516C452.646 19.0443 451.417 25.3675 449.666 31.5543C445.146 32.5009 440.747 33.954 436.552 35.8861C429.449 39.0721 423.068 43.6724 417.798 49.4067C415.319 52.186 413.081 55.1724 411.11 58.3331L412.683 55.7077L409.536 56.2327C407.875 56.4953 403.022 57.8517 394.979 60.3021C390.174 61.9691 385.112 62.7691 380.028 62.6649C375.582 62.2326 371.261 60.9397 367.307 58.8581C362.062 55.8914 358.18 53.6074 355.635 52.2947C348.054 47.8044 339.198 45.9577 330.456 47.0439L329.275 47.3065C326.246 39.2785 321.494 32.0141 315.352 26.026C309.211 20.038 301.832 15.4723 293.735 12.6516C290.082 11.3424 286.302 10.4186 282.457 9.89499C282.687 6.26569 282.287 2.62389 281.276 -0.869034C279.324 -6.39969 276.293 -11.4865 272.358 -15.8336C270.167 -18.3185 268.594 -21.2874 267.768 -24.4973C267.214 -27.9687 266.994 -31.4854 267.113 -34.9988C267.424 -41.7474 267.161 -48.5103 266.326 -55.2141C265.388 -61.6167 262.503 -67.575 258.064 -72.279C257.452 -72.9791 256.796 -72.9791 256.096 -72.279C255.942 -72.1509 255.818 -71.9904 255.733 -71.8089C255.648 -71.6274 255.604 -71.4294 255.604 -71.2289C255.604 -71.0284 255.648 -70.8304 255.733 -70.6489C255.818 -70.4674 255.942 -70.3069 256.096 -70.1787C260.249 -65.6833 262.867 -59.9832 263.572 -53.9014C264.291 -47.8038 264.51 -41.6574 264.227 -35.5238C264.165 -32.4994 264.296 -29.474 264.621 -26.4664C264.844 -23.4611 265.74 -20.5447 267.244 -17.9339C268.812 -15.5591 270.52 -13.2797 272.358 -11.108C274.173 -8.86834 275.755 -6.44923 277.08 -3.88819C279.044 0.336746 279.944 4.9788 279.703 9.63244C276.957 9.36198 274.193 9.3181 271.44 9.5012H271.309C268.669 9.63778 266.041 9.94473 263.441 10.4201H263.309C260.945 7.30745 258.312 4.40839 255.441 1.75633C252.528 -0.949501 249.892 -3.93974 247.572 -7.16991C244.402 -12.7367 243.244 -19.2265 244.293 -25.5475C245.123 -31.5165 244.722 -37.5924 243.113 -43.4C240.575 -49.4312 237.363 -55.1559 233.539 -60.4648C233.444 -60.6464 233.308 -60.804 233.143 -60.9258C232.978 -61.0476 232.787 -61.1305 232.585 -61.1684C232.383 -61.2062 232.176 -61.198 231.978 -61.1444C231.78 -61.0908 231.596 -60.9931 231.441 -60.8587C230.576 -60.4124 230.392 -59.8085 230.917 -59.0209C234.315 -54.3244 237.258 -49.3134 239.703 -44.0563C241.571 -38.3023 242.153 -32.2078 241.408 -26.2038C240.624 -20.4605 241.208 -14.6131 243.113 -9.13893C245.674 -4.12592 249.194 0.334274 253.474 3.98791C255.927 6.21727 258.207 8.63087 260.293 11.2077C257.058 12.1878 254.304 13.0629 252.031 13.833L244.031 17.7711V17.9023C241.949 13.6556 239.104 9.82884 235.638 6.61328C233.177 4.62988 230.855 2.48081 228.687 0.181091C226.437 -2.4389 225.061 -5.69759 224.753 -9.13893C224.561 -12.3302 224.561 -15.5302 224.753 -18.7215C224.957 -21.9608 224.869 -25.2119 224.49 -28.4354C223.649 -34.5412 221.74 -40.4509 218.851 -45.8941C215.588 -51.978 211.127 -57.3366 205.737 -61.6463C205.609 -61.8005 205.448 -61.9246 205.267 -62.0098C205.086 -62.095 204.888 -62.1392 204.688 -62.1392C204.487 -62.1392 204.289 -62.095 204.108 -62.0098C203.927 -61.9246 203.767 -61.8005 203.639 -61.6463C202.939 -60.9287 202.939 -60.2724 203.639 -59.6773C208.428 -55.8395 212.435 -51.1156 215.442 -45.7628C218.301 -40.5049 220.168 -34.7645 220.95 -28.8292C221.328 -25.65 221.46 -22.4462 221.343 -19.2466C221.159 -14.521 221.133 -11.3705 221.343 -9.66404C221.562 -6.67566 222.411 -3.76767 223.835 -1.13159C225.445 1.43146 227.486 3.69646 229.868 5.56315C234.459 9.35606 238.286 13.9891 241.146 19.215C239.904 20.0037 238.721 20.8811 237.605 21.8404L230.523 28.1413L230.13 28.6664L227.376 31.8168L225.54 34.4422L222.13 39.5616V39.8242L221.605 40.7431L217.933 49.1443L217.671 49.5381L216.622 52.6885C214.202 51.1293 211.544 49.9765 208.753 49.2755C205.018 48.7065 201.199 49.2071 197.737 50.7194C194.27 52.2305 190.936 54.0309 187.77 56.1015C182.786 59.2519 179.464 61.2647 177.803 62.1398C174.334 63.9386 170.397 64.626 166.524 64.1088C163.921 63.6031 161.432 62.6243 159.18 61.2209C156.216 59.3044 153.934 57.8867 152.361 57.0204C148.106 54.5449 143.442 52.8552 138.591 52.0321C135.43 51.4916 132.218 51.3155 129.017 51.5071L127.968 48.4879L122.984 38.5115L116.689 30.2416L111.575 25.2534L105.28 21.0528L103.575 19.8714L98.0668 16.9835C98.3248 17.0073 98.5843 16.9584 98.8161 16.8424C99.0478 16.7264 99.2425 16.548 99.3783 16.3272C99.7142 15.9798 99.9127 15.5221 99.9368 15.0392C99.961 14.5563 99.8091 14.081 99.5094 13.7018C99.4032 13.4645 99.2471 13.2528 99.0519 13.0813C98.8566 12.9097 98.6267 12.7822 98.3779 12.7075C98.1291 12.6328 97.867 12.6126 97.6096 12.6482C97.3523 12.6839 97.1057 12.7746 96.8865 12.9141L96.0997 13.3079C95.9904 13.5391 95.8586 13.759 95.7062 13.9643L95.4439 15.0145V15.5395L95.8373 16.0646L88.3621 13.7018C87.8375 13.0017 87.3128 12.8704 86.7882 13.3079H86.6571C78.3362 11.3788 69.6848 11.3814 61.365 13.3154C53.0452 15.2494 45.278 19.0635 38.6581 24.4658L33.4123 29.1915C32.394 27.1251 31.5601 24.9726 30.9205 22.7593C30.396 20.5802 29.6878 16.0121 28.8222 9.10741C28.3042 4.54811 27.2928 0.0586243 25.8058 -4.28198C24.4908 -8.00406 22.3369 -11.3729 19.511 -14.1271C16.5841 -16.6354 13.1995 -18.5523 9.54401 -19.7716C4.2982 -21.2681 0.547394 -22.397 -1.99681 -23.3159C-5.80505 -24.6859 -9.28821 -26.8313 -12.2262 -29.6168C-15.3996 -32.8165 -18.0544 -36.4926 -20.0949 -40.5121C-21.5899 -43.1375 -23.4521 -47.2855 -25.734 -52.7201C-25.7949 -52.9153 -25.8959 -53.0956 -26.0303 -53.2496C-26.1648 -53.4035 -26.3298 -53.5276 -26.5149 -53.6141C-26.7001 -53.7006 -26.9012 -53.7475 -27.1055 -53.7518C-27.3098 -53.756 -27.5126 -53.7176 -27.7012 -53.639C-28.6717 -53.3764 -28.9603 -52.7988 -28.6193 -51.9324C-25.8289 -44.3445 -21.9882 -37.1862 -17.2096 -30.667C-14.7619 -27.7067 -11.8363 -25.1777 -8.55406 -23.1847C-4.98172 -21.2609 -1.19643 -19.763 2.72438 -18.7215C6.83437 -17.7489 10.8016 -16.2488 14.5274 -14.2584C18.1098 -11.8761 20.8605 -8.43456 22.3961 -4.4133C24.055 -0.0177917 25.1565 4.56869 25.6747 9.23865C26.654 16.4146 27.3972 21.0528 27.9043 23.1531C28.6781 26.0069 29.7323 28.7772 31.0516 31.423H31.1829H31.0516L23.4453 42.5809L19.9043 50.457C17.3262 48.5608 14.8731 46.4999 12.5602 44.2873C9.0937 41.0192 6.01347 37.3635 3.3801 33.3921C2.33093 31.7381 0.101501 27.1699 -3.30826 19.7401C-7.05852 11.2251 -13.3902 4.10689 -21.4063 -0.606483C-22.7965 -1.3941 -24.8685 -2.39172 -27.5701 -3.62564C-30.2717 -4.85957 -32.8159 -5.90973 -33.8651 -6.51357C-38.2646 -8.56353 -41.8945 -11.967 -44.2254 -16.2275C-45.6541 -18.9789 -46.8815 -21.8305 -47.8975 -24.7599C-49.2877 -28.698 -50.3369 -31.6383 -51.045 -33.5548L-56.9466 -49.307V-50.0947C-56.6009 -50.1014 -56.2712 -50.2418 -56.0267 -50.4866C-55.7822 -50.7313 -55.6418 -51.0613 -55.6351 -51.4074C-55.562 -51.7719 -55.6295 -52.1506 -55.8242 -52.4672C-56.0189 -52.7838 -56.3262 -53.0149 -56.6842 -53.1138C-57.0465 -53.2446 -57.4396 -53.2645 -57.8133 -53.171C-58.187 -53.0775 -58.5244 -52.8748 -58.7826 -52.5887C-59.3429 -52.0686 -59.7123 -51.3752 -59.8317 -50.6197C-59.8591 -49.3077 -59.5901 -48.0064 -59.0449 -46.813C-58.6306 -45.5198 -58.1491 -44.2491 -57.6023 -43.0062L-51.045 -25.2849C-50.3369 -23.6309 -49.3925 -21.0844 -48.1598 -17.6714C-47.1577 -15.1629 -45.7875 -12.8181 -44.0943 -10.7142C-40.7553 -7.13215 -36.6851 -4.31163 -32.1601 -2.44427L-25.2094 0.7062C-22.9632 1.84049 -20.8141 3.15761 -18.7834 4.64425C-14.5563 7.76118 -10.9901 11.6877 -8.29184 16.1959C-5.65326 21.0025 -3.28883 25.9548 -1.20998 31.0292C1.22105 35.5485 4.2179 39.7391 7.70795 43.4997C11.221 47.1436 15.038 50.4812 19.1175 53.4761L18.1996 57.1516V57.2829L17.4127 61.0897C13.4227 59.8086 9.66035 57.9035 6.26538 55.4451C1.3699 51.3018 -2.3786 45.9677 -4.61971 39.9555C-6.73079 34.2878 -9.69376 28.9759 -13.4064 24.2033C-17.2162 19.8366 -21.8516 16.2676 -27.0455 13.7018C-29.956 12.4078 -32.9328 11.2685 -35.9634 10.2888C-38.9939 9.2588 -41.9702 8.07586 -44.8811 6.74451C-50.1185 3.94952 -54.3069 -0.473053 -56.8155 -5.85722C-59.3826 -11.2112 -61.5737 -16.7379 -63.3727 -22.397C-65.1213 -28.1986 -67.6822 -33.723 -70.979 -38.8056C-74.1565 -43.9612 -79.0965 -47.7864 -84.8804 -49.5696C-85.7459 -49.9109 -86.323 -49.5696 -86.5853 -48.6507C-86.8476 -47.7318 -86.5854 -47.0755 -85.6673 -46.813C-80.4069 -45.0431 -75.9451 -41.461 -73.0773 -36.7053C-70.1046 -32.0027 -67.7674 -26.9265 -66.1267 -21.6094C-64.5209 -16.1874 -62.5492 -10.8807 -60.2252 -5.72598C-57.8739 -0.58091 -54.2657 3.88847 -49.7336 7.26962C-47.1629 9.00512 -44.3878 10.416 -41.4714 11.4702C-39.5567 12.2578 -36.6191 13.3079 -32.6848 14.6206C-26.9184 16.6891 -21.679 20.0059 -17.3407 24.3345C-13.1458 29.0035 -9.89473 34.442 -7.76723 40.3493C-5.59442 46.0993 -2.24406 51.3308 2.06865 55.7077C6.47122 59.4684 11.5436 62.3632 17.0192 64.2401V75.0041L17.6749 79.5985V79.9924C9.98984 85.9519 4.11452 90.2313 0.101471 92.8566C-3.26576 95.1222 -7.13998 96.52 -11.177 96.9259C-15.3846 97.0145 -19.5823 96.4837 -23.6357 95.3507L-34.9142 92.2003C-38.7047 91.2476 -42.5632 90.5892 -46.455 90.2313C-53.5522 89.7735 -60.6719 90.6643 -67.4382 92.8566C-71.2301 94.0801 -74.8793 95.7084 -78.3231 97.7136L-78.5855 97.0572L-82.5198 91.9377L-87.241 85.6369L-89.8639 83.2741L-90.3885 82.6177L-98.6506 76.4481L-106.519 72.3787C-107.814 71.7084 -109.177 71.1803 -110.585 70.8036L-114.781 69.4909L-115.437 69.3596L-120.158 68.4407L-125.404 67.6531L-133.535 67.5219L-142.191 68.7032L-142.715 68.8345C-144.416 64.2002 -147.1 59.9903 -150.584 56.4953C-155.227 52.1109 -158.636 48.803 -160.813 46.5189C-164.146 43.1472 -166.894 39.2431 -168.944 34.9672L-171.567 28.7977C-172.46 26.7068 -173.512 24.688 -174.715 22.7593C-176.848 19.0579 -179.868 15.9454 -183.501 13.7018C-187.285 11.4183 -191.399 9.7355 -195.698 8.71354C-197.009 8.381 -201.381 7.46215 -208.812 5.95694C-213.505 5.15195 -218.084 3.78576 -222.451 1.88765C-226.893 0.079277 -230.719 -2.9748 -233.468 -6.90735C-233.564 -7.08891 -233.699 -7.24648 -233.864 -7.36828C-234.03 -7.49008 -234.22 -7.57295 -234.422 -7.6108C-234.624 -7.64866 -234.831 -7.64046 -235.029 -7.58685C-235.227 -7.53323 -235.411 -7.43557 -235.566 -7.30114C-236.431 -6.77607 -236.615 -6.11973 -236.091 -5.33212C-232.086 0.70623 -225.223 4.99432 -215.501 7.53217C-210.063 8.84486 -201.975 10.7264 -191.239 13.1767C-187.198 14.5731 -183.523 16.8611 -180.485 19.8714C-177.62 23.4363 -175.32 27.4209 -173.666 31.6855C-170.473 40.2321 -164.981 47.7283 -157.797 53.3448C-154.571 56.4952 -152.21 58.9369 -150.715 60.6959C-148.482 63.3092 -146.708 66.2831 -145.469 69.4909L-155.699 73.2976L-157.272 74.0853L-160.551 75.923L-160.944 76.0543L-170.125 82.8802L-170.911 83.6678C-172.075 84.6458 -173.13 85.746 -174.059 86.9496L-174.584 87.4746C-175.738 88.6989 -176.791 90.016 -177.731 91.4126L-178.518 92.3315L-181.403 96.7947C-185.355 103.435 -187.941 110.799 -189.009 118.454C-189.304 120.322 -189.479 122.208 -189.534 124.098C-189.79 129.89 -189.171 135.688 -187.698 141.295L-185.731 147.333L-182.452 154.421L-176.288 163.61L-175.239 164.66L-171.961 167.942L-169.338 170.568C-171.101 175.983 -173.385 181.214 -176.157 186.188C-178.586 189.924 -181.868 193.029 -185.731 195.246C-190.136 197.319 -194.349 199.779 -198.321 202.597C-200.466 204.316 -202.287 206.406 -203.698 208.767C-204.563 210.158 -205.849 212.573 -207.501 215.986C-209.727 220.674 -212.5 225.08 -215.763 229.113C-223.275 238.421 -233.216 245.463 -244.484 249.46C-244.679 249.521 -244.859 249.622 -245.013 249.756C-245.167 249.891 -245.291 250.056 -245.377 250.241C-245.463 250.427 -245.51 250.628 -245.515 250.833C-245.519 251.037 -245.48 251.24 -245.402 251.429C-245.14 252.4 -244.562 252.689 -243.697 252.348C-233.93 248.831 -225.093 243.129 -217.861 235.677C-214.289 232.084 -211.163 228.073 -208.55 223.731C-207.763 222.419 -206.504 219.924 -204.747 216.249C-203.632 213.673 -202.271 211.211 -200.681 208.898C-199.1 206.889 -197.194 205.158 -195.042 203.778C-193.731 202.912 -191.501 201.626 -188.354 199.972C-184.075 197.94 -180.208 195.136 -176.944 191.702C-172.525 186.016 -169.191 179.563 -167.108 172.668H-166.977L-161.076 176.606L-159.502 177.656L-156.092 179.231L-151.371 181.331L-150.059 181.857L-144.158 183.563L-133.666 185.007C-134.028 192.697 -136.041 200.219 -139.568 207.06C-142.189 212.309 -145.644 217.096 -149.797 221.237C-152.042 223.3 -154.407 225.229 -156.879 227.013C-161.076 229.901 -163.567 231.66 -164.354 232.264C-168.966 236.206 -172.412 241.335 -174.321 247.097C-175.029 249.119 -176.026 252.085 -177.338 256.023C-178.328 259.067 -179.601 262.012 -181.141 264.818C-184.2 270.414 -188.564 275.187 -193.862 278.733C-198.232 281.653 -202.89 284.117 -207.763 286.084C-213.032 288.397 -218.156 291.027 -223.107 293.96C-228.099 296.836 -232.223 301.008 -235.041 306.036C-235.221 306.404 -235.253 306.827 -235.131 307.217C-235.009 307.608 -234.742 307.937 -234.386 308.137C-234.234 308.268 -234.052 308.36 -233.856 308.405C-233.661 308.449 -233.457 308.446 -233.264 308.394C-233.07 308.342 -232.891 308.244 -232.744 308.108C-232.597 307.971 -232.485 307.801 -232.418 307.612C-229.829 303.002 -226.075 299.155 -221.533 296.454C-216.97 293.749 -212.239 291.337 -207.37 289.234C-202.491 287.101 -197.759 284.645 -193.206 281.883C-188.098 278.617 -183.721 274.326 -180.354 269.281C-177.154 263.792 -174.643 257.928 -172.879 251.823C-171.151 245.514 -167.806 239.767 -163.174 235.152C-160.788 233.174 -158.292 231.334 -155.699 229.638C-153.123 227.882 -150.669 225.952 -148.355 223.862C-144.144 219.859 -140.602 215.206 -137.863 210.079C-133.699 202.396 -131.324 193.87 -130.912 185.138L-123.044 184.613C-119.713 184.088 -117.195 183.616 -115.437 183.169L-110.191 181.463L-109.667 181.331L-104.421 178.969L-95.1097 173.324L-94.454 172.668L-93.2737 171.88V172.011C-92.885 172.261 -92.4168 172.355 -91.9622 172.274C-91.6936 172.27 -91.4309 172.195 -91.2005 172.057C-90.9702 171.919 -90.7804 171.722 -90.6508 171.486C-90.3975 171.201 -90.2471 170.84 -90.2233 170.459C-90.1996 170.078 -90.3038 169.7 -90.5197 169.386L-86.1918 165.054V164.792C-85.291 167.849 -83.9667 170.766 -82.2574 173.455C-80.4546 176.084 -77.7461 177.953 -74.6511 178.706C-72.3692 179.231 -68.8283 179.835 -64.1595 180.544C-60.9723 181.36 -57.923 182.643 -55.1105 184.351C-52.932 186.011 -51.0288 188.004 -49.4712 190.258C-51.3442 194.973 -52.5792 199.917 -53.1433 204.96C-54.1235 212.69 -53.589 220.538 -51.5697 228.063C-49.5701 235.548 -46.0918 242.556 -41.3403 248.672C-39.433 251.117 -37.3275 253.4 -35.0453 255.498C-34.8511 258.431 -34.939 261.377 -35.3077 264.293C-35.6594 267.904 -36.5433 271.443 -37.9306 274.795C-38.9797 277.157 -40.5534 280.308 -42.7829 284.246C-46.0356 290.254 -48.3781 296.713 -49.7336 303.411C-50.8035 310.226 -51.0675 317.143 -50.5204 324.02C-50.1707 329.271 -49.1215 337.06 -47.3729 347.386C-47.3716 347.586 -47.3193 347.783 -47.221 347.958C-47.1227 348.132 -46.9818 348.279 -46.8113 348.384C-46.6408 348.489 -46.4464 348.549 -46.2464 348.558C-46.0464 348.567 -45.8475 348.525 -45.6681 348.436C-45.4611 348.411 -45.2621 348.341 -45.0854 348.23C-44.9087 348.119 -44.7587 347.971 -44.646 347.795C-44.5332 347.62 -44.4606 347.421 -44.4332 347.215C-44.4059 347.008 -44.4245 346.797 -44.4878 346.598C-46.0615 337.147 -47.0669 330.102 -47.504 325.464C-48.2336 318.378 -48.0131 311.226 -46.8483 304.199C-45.4771 297.323 -42.9967 290.717 -39.5042 284.64C-36.0695 278.783 -33.632 272.395 -32.2913 265.737C-32.0294 263.296 -31.8982 260.842 -31.8979 258.386C-29.0242 260.771 -25.9024 262.839 -22.5865 264.556L-22.8489 264.818L-23.3735 265.475L-23.6357 266.393L-23.5046 267.05C-23.3391 267.502 -23.0119 267.876 -22.5865 268.1C-22.2342 268.332 -21.8274 268.468 -21.4063 268.494C-21.1288 268.528 -20.8474 268.484 -20.5929 268.368C-20.3384 268.253 -20.1206 268.069 -19.9636 267.837C-19.5949 267.347 -19.4095 266.744 -19.4391 266.131C-15.9291 267.828 -12.2316 269.106 -8.42294 269.938L-2.12793 271.119C0.223618 271.381 2.58788 271.513 4.95393 271.513L10.9866 271.25C11.8414 278.219 11.9732 285.257 11.3799 292.253C11.0272 295.43 10.5019 298.585 9.80623 301.705C9.36034 303.726 8.67842 306.772 7.70795 310.893C6.35086 316.518 5.95178 322.332 6.5276 328.09C7.15573 334.39 9.02792 340.503 12.0356 346.073C12.1023 346.263 12.2141 346.433 12.3614 346.569C12.5087 346.706 12.6869 346.804 12.8807 346.856C13.0746 346.907 13.2782 346.911 13.4737 346.866C13.6693 346.821 13.8508 346.729 14.0028 346.598C14.1917 346.532 14.363 346.423 14.5034 346.281C14.6438 346.138 14.7497 345.965 14.813 345.775C14.8763 345.585 14.8953 345.383 14.8686 345.184C14.8418 344.986 14.7699 344.796 14.6585 344.629C9.20673 334.216 7.80496 322.15 10.7242 310.762C12.2266 304.924 13.4088 299.008 14.2652 293.041C14.8712 286.711 14.8712 280.337 14.2652 274.007L14.0028 270.857C24.6838 269.273 34.6923 264.674 42.8547 257.598C51.0726 250.658 57.2021 241.569 60.5593 231.345C74.0955 227.378 88.5803 228.165 101.608 233.576C104.231 234.697 108.34 236.797 113.935 239.877C117.928 242.243 122.093 244.305 126.394 246.047L129.804 256.286L134 264.293L137.017 268.231L140.82 272.957L141.476 273.744L145.672 277.683C143.631 278.445 141.693 279.459 139.902 280.702C135.662 283.452 132.152 287.191 129.673 291.597C127.234 296.004 125.299 300.671 123.902 305.511C120.93 315.033 119.356 320.021 119.181 320.476C117.497 325.373 115.064 329.979 111.968 334.128C110.998 335.362 107.037 339.116 100.034 345.417C95.7729 348.925 92.5151 353.499 90.5915 358.675C90.497 358.853 90.4463 359.05 90.4437 359.251C90.4411 359.452 90.4867 359.651 90.5766 359.831C90.6665 360.011 90.798 360.167 90.9603 360.285C91.1226 360.404 91.311 360.482 91.5096 360.513C91.6977 360.597 91.9028 360.635 92.1085 360.625C92.3141 360.614 92.5145 360.556 92.6933 360.453C92.8721 360.351 93.0242 360.208 93.1375 360.036C93.2509 359.864 93.3221 359.668 93.3455 359.463C95.1383 354.901 98.0739 350.877 101.87 347.78C108.611 341.663 112.178 338.329 112.624 337.803C115.977 333.983 118.679 329.637 120.624 324.939C122.484 320.256 124.104 315.48 125.476 310.631C126.858 305.564 128.611 300.606 130.722 295.798C133.03 290.918 136.553 286.714 140.951 283.59C143.355 282.036 145.902 280.717 148.558 279.652L148.82 279.783L157.738 285.427H157.869L158.262 285.69L164.033 287.921L168.098 289.365L168.492 289.497L173.213 290.547C174.769 290.878 176.347 291.098 177.934 291.203L178.983 291.334C181.082 291.518 182.708 291.597 183.836 291.597H186.327V292.91C186.248 298.237 184.754 303.447 182 308.005C180.1 311.059 177.904 313.917 175.442 316.538L167.967 324.414C165.328 327.192 162.916 330.177 160.754 333.34C157.607 338.259 156.339 342.328 156.951 345.548C156.952 345.749 157.004 345.945 157.103 346.12C157.201 346.295 157.342 346.441 157.513 346.546C157.683 346.651 157.877 346.711 158.077 346.72C158.277 346.729 158.476 346.688 158.656 346.598C158.863 346.573 159.062 346.503 159.238 346.392C159.415 346.282 159.565 346.133 159.678 345.958C159.791 345.782 159.863 345.584 159.891 345.377C159.918 345.17 159.899 344.96 159.836 344.761C159.311 342.205 160.71 338.53 164.033 333.734C166.052 330.859 168.336 328.178 170.852 325.727L177.803 318.376C180.052 315.863 182.113 313.186 183.967 310.368C187.061 305.813 188.873 300.508 189.213 295.01V291.334L190.655 291.203L193.671 290.678H193.803L199.573 289.365L207.966 286.346L213.212 283.458V283.59C213.561 283.977 214.018 284.251 214.523 284.377C215.115 284.381 215.699 284.246 216.228 283.983C216.64 283.702 216.943 283.288 217.086 282.81C217.229 282.332 217.204 281.82 217.015 281.358L216.884 281.227L217.015 281.095C219.566 279.264 221.977 277.246 224.228 275.057L228.425 270.594L232.622 264.818L233.933 262.455L234.195 262.193L235.638 259.305L239.441 249.722L241.802 237.252C244.078 236.237 246.525 235.658 249.015 235.545C253.426 235.372 257.84 235.814 262.129 236.858C269.29 238.25 273.67 239.037 275.244 239.221C279.368 239.89 283.592 239.575 287.571 238.302C290.295 237.151 292.926 235.791 295.44 234.233L296.751 233.576C299.435 241.333 303.776 248.411 309.472 254.317C319.678 265.343 333.814 271.898 348.816 272.563H348.947L349.603 273.219L351.177 273.482C351.639 273.341 352.049 273.067 352.357 272.694C355.26 272.693 358.157 272.429 361.012 271.907C361.777 277.483 364.359 282.651 368.357 286.609C371.216 289.511 374.332 292.147 377.668 294.485C382.389 297.985 385.58 300.479 387.241 301.967C392.487 306.885 396.072 314.149 397.995 323.758C398.52 326.383 399.228 330.111 400.094 335.178C400.869 338.956 402.011 342.649 403.503 346.205C406.913 354.527 412.028 359.673 418.847 361.694C419.713 362.036 420.29 361.694 420.552 360.775C420.635 360.596 420.677 360.401 420.674 360.203C420.671 360.006 420.624 359.812 420.536 359.635C420.448 359.458 420.321 359.304 420.165 359.183C420.009 359.062 419.827 358.979 419.634 358.938C413.409 356.925 408.819 352.068 405.864 344.367C403.743 337.67 402.121 330.826 401.012 323.889C399.957 316.431 397.074 309.35 392.618 303.28C390.311 300.479 387.718 297.928 384.881 295.666C380.868 292.778 377.878 290.416 375.963 288.972C368.697 283.117 364.868 277.236 364.422 271.382C369.265 270.351 373.974 268.765 378.455 266.656C378.863 268.697 379.389 270.713 380.028 272.694C381.386 277.29 383.917 281.453 387.373 284.771C388.684 286.014 392.443 288.902 398.651 293.435C402.588 296.073 406.011 299.41 408.749 303.28C411.327 307.655 413.103 312.456 413.995 317.457C414.703 320.87 415.516 325.937 416.618 332.684C419.171 345.286 424.067 353.731 431.306 358.019C431.478 358.114 431.668 358.174 431.863 358.195C432.058 358.217 432.256 358.2 432.445 358.145C432.633 358.09 432.81 357.998 432.963 357.875C433.116 357.753 433.244 357.6 433.339 357.428C433.433 357.256 433.493 357.066 433.515 356.871C433.537 356.675 433.52 356.477 433.465 356.288C433.41 356.099 433.318 355.923 433.196 355.77C433.073 355.616 432.921 355.488 432.749 355.393C426.454 351.543 422.082 343.842 419.634 332.29C418.585 325.727 417.711 320.782 417.011 317.457C416.157 312.563 414.565 307.827 412.29 303.411C409.934 299.351 406.817 295.786 403.11 292.91C398.126 289.313 394.402 286.53 391.963 284.509C388.037 281.422 385.004 277.344 383.176 272.694C382.366 270.154 381.709 267.568 381.209 264.949C387.025 261.849 392.261 257.763 396.684 252.873C398.374 251.081 399.91 249.149 401.274 247.097L406.52 255.629C407.889 258.153 409.515 260.529 411.372 262.718C413.377 264.685 415.678 266.324 418.192 267.575C419.844 268.441 422.31 269.754 425.536 271.513C429.339 273.742 432.467 276.964 434.585 280.833C436.333 283.721 439.437 291.947 443.896 305.511C447.306 315.838 451.808 323.189 457.404 327.565C458.007 328.011 460.735 329.849 465.535 333.078C468.296 334.89 470.847 337.003 473.141 339.379C477.317 344.244 480.123 350.134 481.272 356.444C481.274 356.644 481.326 356.841 481.424 357.015C481.522 357.19 481.664 357.337 481.834 357.442C482.005 357.547 482.199 357.606 482.399 357.616C482.599 357.625 482.798 357.583 482.977 357.494C483.184 357.469 483.383 357.398 483.56 357.288C483.737 357.177 483.887 357.028 483.999 356.853C484.112 356.677 484.185 356.479 484.212 356.272C484.239 356.065 484.221 355.855 484.157 355.656C483.142 350.237 480.997 345.093 477.863 340.56C474.533 336.143 470.394 332.401 465.666 329.534C460.998 326.802 456.865 323.244 453.47 319.032C451.044 315.407 449.104 311.479 447.699 307.349C447.367 306.299 446.012 302.098 443.634 294.747C442.418 290.506 440.838 286.378 438.912 282.408C437.147 278.553 434.653 275.076 431.568 272.169C429.62 270.518 427.512 269.067 425.273 267.837C422.205 266.341 420.028 265.212 418.454 264.293C415.388 262.46 412.786 259.944 410.848 256.942L405.208 247.753L403.11 244.209C408.559 235.539 411.592 225.568 411.897 215.33C412.322 205.275 410.01 195.293 405.208 186.451C403.657 183.473 401.812 180.659 399.7 178.05C404.518 168.949 412.637 162.043 422.388 158.753C427.778 157.087 432.901 154.656 437.601 151.534C439.669 150.095 441.601 148.469 443.371 146.677C449.53 148.801 456.004 149.866 462.518 149.827C473.933 149.968 485.126 146.676 494.649 140.376L493.338 141.295C493.703 141.539 494.127 141.68 494.565 141.703C495.004 141.726 495.441 141.631 495.829 141.426C496.07 141.289 496.278 141.1 496.437 140.873C496.595 140.646 496.702 140.387 496.747 140.113ZM342.521 50.1944C346.585 51.1753 350.476 52.7687 354.062 54.92L364.816 60.8271C368.406 62.7796 372.244 64.2367 376.225 65.159C380.941 65.9305 385.765 65.707 390.389 64.5026C393.449 63.785 398.039 62.4723 404.159 60.5646C406.258 59.8759 408.406 59.3494 410.585 58.9894H410.716C407.136 64.7416 404.647 71.105 403.372 77.7608C398.473 79.7889 393.432 81.4561 388.291 82.7489C381.14 83.8509 373.825 82.6076 367.438 79.2047C363.163 76.9206 359.911 75.2142 357.734 74.0853C354.563 72.3146 351.224 70.8635 347.767 69.7534C343.128 68.1784 338.231 67.5099 333.341 67.7843C333.255 61.7568 332.238 55.7789 330.325 50.0631C334.347 49.1793 338.518 49.2243 342.521 50.1944ZM319.57 129.743C319.234 123.918 317.43 118.273 314.325 113.334L321.931 104.802C327.754 110.056 331.364 117.33 332.029 125.149C332.292 127.433 332.475 130.846 332.554 135.388C332.633 139.929 332.764 143.264 332.947 145.627L334.521 158.753C329.892 160.268 325.483 162.386 321.407 165.054C319.306 160.969 318.397 156.374 318.784 151.796C319.726 144.485 319.99 137.103 319.57 129.743ZM328.357 107.559C326.936 105.636 325.357 103.836 323.636 102.177L327.964 94.038L331.374 84.4554C332.126 81.4738 332.695 78.4491 333.078 75.3979L333.341 70.8036C337.633 70.5469 341.936 71.0354 346.062 72.2475C349.645 73.4132 353.113 74.9072 356.422 76.7106L366.258 81.8301C372.374 85.2131 379.365 86.6767 386.323 86.0307C391.974 85.1277 397.485 83.4951 402.716 81.1737L402.848 80.7799C402.255 84.556 402.079 88.3858 402.323 92.2003C402.649 100.017 404.521 107.691 407.831 114.778C411.183 121.896 415.856 128.31 421.601 133.681C423.437 135.335 424.827 136.516 425.798 137.225L425.011 136.7C422.283 140.653 418.862 144.078 414.913 146.808C412.481 148.506 409.835 149.875 407.044 150.877C402.585 152.19 399.176 153.24 397.077 154.028C391.701 155.969 386.976 159.38 383.438 163.873C371.96 156.791 358.348 154.001 345.013 155.997C342.345 156.268 339.71 156.795 337.144 157.572C336.619 154.947 336.051 149.74 335.439 141.951C335.256 140.297 335.124 136.91 335.046 131.843C335.039 128.503 334.776 125.167 334.259 121.867C333.476 116.73 331.45 111.863 328.357 107.69V107.559ZM217.409 67.3905V66.9967C217.464 65.2366 217.639 63.4822 217.933 61.746V61.2209L220.556 50.7194C221.49 48.1584 222.585 45.6593 223.835 43.2372L224.359 42.187L230.523 33.1295L235.244 27.8788L245.08 20.5277C250.241 17.3944 255.861 15.0912 261.736 13.7018L264.883 13.1767C267.959 12.6506 271.074 12.3872 274.194 12.3891L279.44 12.5204L287.309 13.833L292.817 15.5395C294.178 15.9317 295.496 16.4594 296.751 17.1148H296.883C305.675 20.8853 313.287 26.9626 318.915 34.7048L321.538 38.6428C323.314 41.5762 324.849 44.6492 326.128 47.8316L327.177 50.7194C329.074 56.2586 330.091 62.0611 330.193 67.9156L329.8 75.2666C329.539 78.0671 329.012 80.8363 328.226 83.5365L326.915 87.9997L326.652 88.3935C326.652 88.656 326.049 90.0213 325.079 92.4628L322.456 97.7136L321.669 98.7637C320.956 100.077 320.168 101.348 319.308 102.57L315.899 106.902L307.374 114.778L303.309 117.535L292.686 122.786L282.194 125.542H281.932C276.631 126.368 271.234 126.368 265.932 125.542H265.145C264.962 125.542 263.493 125.28 260.687 124.755L254.916 123.048C251.435 121.889 248.092 120.348 244.949 118.454L240.228 115.566L239.966 115.303C237.102 113.223 234.465 110.847 232.097 108.215L231.835 107.821C229.479 105.224 227.371 102.411 225.54 99.42L225.277 98.8949C224.337 97.3803 223.504 95.8012 222.786 94.1693C221.978 92.4644 221.277 90.7107 220.687 88.9186L219.114 83.6678V83.2741L218.064 78.1546V77.892C217.491 74.4228 217.272 70.9042 217.409 67.3905ZM251.638 137.357C251.38 133.424 251.336 129.48 251.506 125.542L253.605 126.33L262.916 128.824L269.998 129.612C269.445 134.537 269.357 139.503 269.735 144.445C270.194 149.375 270.369 154.328 270.26 159.278C269.857 166.707 266.561 173.682 261.08 178.706C258.461 181.018 255.702 183.166 252.818 185.138C248.097 188.367 245.264 190.389 244.293 191.045C240.258 194.033 236.793 197.724 234.064 201.941L226.72 191.964V191.702C228.158 187.775 230.051 184.03 232.359 180.544C234.81 177.1 237.576 173.892 240.621 170.961C243.622 168.067 246.184 164.751 248.228 161.116C250.104 157.439 251.219 153.421 251.506 149.302C251.791 145.327 251.835 141.337 251.638 137.357ZM136.623 54.7888C141.649 55.504 146.496 57.1511 150.918 59.6458C152.413 60.5121 154.59 61.8773 157.475 63.715C159.69 65.0355 162.072 66.051 164.557 66.7342C168.274 67.508 172.133 67.2354 175.705 65.9466C179.28 64.5415 182.707 62.7826 185.934 60.6959C191.442 57.1954 194.721 55.1826 195.77 54.6575C199.083 52.7836 202.853 51.8743 206.655 52.0321C209.928 52.4895 213.038 53.7524 215.704 55.7077C215.227 57.4746 214.877 59.2731 214.655 61.0897L214.523 61.6148L214.13 66.0779L210.196 66.3404C206.833 66.9204 203.594 68.0749 200.622 69.7534C199.048 70.541 196.084 72.3788 191.704 75.1354C188.666 77.0779 185.463 78.7471 182.131 80.1236C178.81 81.4781 175.202 81.9746 171.639 81.5675C167.51 80.8627 163.523 79.4883 159.836 77.4982C153.095 74.164 149.344 72.2475 148.295 71.9849C143.005 69.7058 137.131 69.1545 131.509 70.4097V65.5528L129.804 54.395C132.082 54.4023 134.359 54.5338 136.623 54.7888ZM130.066 82.0926L131.378 73.5602C136.837 72.041 142.661 72.5539 147.771 75.0041C149.082 75.5292 152.754 77.2794 158.787 80.2548C162.342 82.1219 166.137 83.4913 170.065 84.3242C176.701 85.2196 183.439 83.7312 189.081 80.1236C190.996 79.0734 193.855 77.3144 197.606 74.8728C200.425 72.9807 203.464 71.438 206.655 70.2785C209.012 69.4467 211.5 69.0465 213.999 69.097C213.926 72.3045 214.145 75.5121 214.655 78.6797L215.704 84.3242V84.5867C216.158 86.4245 216.683 88.2622 217.277 90.0999H217.409C218.052 91.9767 218.796 93.8171 219.638 95.6132L222.261 100.864L222.523 101.127C224.433 104.443 226.722 107.527 229.343 110.315V110.447C230.536 111.913 231.852 113.274 233.277 114.516L233.539 114.647C234.984 116.016 236.518 117.287 238.13 118.454L241.146 120.554L242.457 121.211L243.113 121.736L248.49 124.492C248.306 127.118 248.28 130.189 248.359 133.944C248.359 136.044 248.359 139.011 248.49 142.87C248.586 147.298 248.056 151.717 246.916 155.997C245.431 160.175 243.06 163.981 239.966 167.155C234.72 172.405 231.887 175.634 231.179 176.606C228.594 180.028 226.477 183.781 224.884 187.764L224.097 189.601V189.47L219.638 185.532H219.507L216.884 183.432V183.038C216.668 182.674 216.361 182.374 215.993 182.167C215.624 181.959 215.208 181.852 214.786 181.857L205.343 177.131L200.229 175.293L187.508 172.93L176.623 173.193L167.442 175.031L164.557 176.081H164.295C162.361 173.496 160.164 171.121 157.738 168.992L150.525 162.298C147.668 159.602 145.275 156.453 143.443 152.978C141.711 148.962 140.563 144.718 140.033 140.376C139.246 134.863 138.538 130.872 137.935 128.43C137.011 124.468 135.509 120.664 133.476 117.141C130.365 111.57 125.899 106.874 120.493 103.489L122.46 100.601C124.025 98.0682 125.426 95.4375 126.656 92.7253C128.167 89.3125 129.31 85.7481 130.066 82.0926ZM202.196 187.764L202.852 188.289C204.964 190.26 206.736 192.566 208.097 195.115C208.962 197.488 210.357 199.632 212.175 201.383C213.993 203.135 216.187 204.448 218.589 205.222C221.231 206.286 223.671 207.795 225.802 209.686L226.195 210.079C218.519 209.642 214.279 211.917 213.474 216.905C213.355 217.791 213.422 218.693 213.67 219.552C213.919 220.41 214.343 221.208 214.917 221.893L217.146 223.6C220.644 225.175 225.015 223.425 230.261 218.349C230.421 220.358 229.863 222.358 228.687 223.994C227.424 226.114 226.286 228.305 225.277 230.557C224.841 233.519 225.156 236.544 226.195 239.352C227.479 243.333 227.794 247.564 227.113 251.691C225.369 249.138 223.141 246.953 220.556 245.259C219.59 244.597 218.488 244.159 217.331 243.977C216.173 243.796 214.99 243.875 213.868 244.209L212.294 244.997L211.901 245.259L210.458 246.703C209.76 247.736 209.27 248.895 209.015 250.116V251.298C209.207 252.44 209.662 253.521 210.345 254.455C211.029 255.39 211.92 256.151 212.95 256.68C215.679 258.249 218.647 259.358 221.736 259.961C220.131 260.899 218.466 261.732 216.753 262.455C212.126 264.033 207.719 266.195 203.639 268.888C202.249 269.979 200.935 271.163 199.704 272.432C197.868 274.27 196.609 275.503 195.901 276.107C196.95 270.331 195.639 266.612 191.967 264.949L191.442 264.687C190.251 264.279 188.971 264.211 187.744 264.489C186.516 264.767 185.39 265.381 184.491 266.262C182.131 268.888 182.393 272.957 185.278 278.47C183.1 277.857 180.991 277.021 178.983 275.976C177.062 274.908 175.041 274.029 172.951 273.351C168.512 272.402 163.98 271.962 159.443 272.038C157.515 272.026 155.606 271.671 153.803 270.988C156.873 269.934 159.656 268.181 161.934 265.868C162.858 265.045 163.549 263.993 163.941 262.818C164.332 261.644 164.409 260.387 164.164 259.174L163.77 257.861C163.336 256.731 162.612 255.735 161.672 254.973L160.098 254.185C159.548 253.986 158.975 253.854 158.394 253.792C157.167 253.84 155.967 254.159 154.879 254.726C153.79 255.294 152.841 256.095 152.098 257.073C149.749 259.701 147.963 262.784 146.853 266.131L145.935 264.687C145.001 261.991 144.644 259.129 144.886 256.286C145.147 253.42 144.696 250.534 143.574 247.885C142.376 246.101 140.917 244.508 139.246 243.159C137.603 241.805 136.225 240.158 135.181 238.302C134.196 236.298 133.659 234.103 133.607 231.87C136.616 234.036 140.063 235.514 143.705 236.202C145.067 236.562 146.502 236.532 147.848 236.114C149.193 235.696 150.393 234.908 151.312 233.839L151.836 233.182L152.098 232.92V232.789L152.885 231.213C153.321 229.697 153.229 228.076 152.623 226.619C152.121 225.55 151.322 224.647 150.323 224.019C149.323 223.391 148.164 223.063 146.984 223.075C143.745 222.794 140.484 223.197 137.41 224.256C140.554 221.942 143.225 219.045 145.279 215.724C146.537 213.254 147.379 210.592 147.771 207.848C148.199 204.969 149.084 202.177 150.394 199.578L152.623 196.559C152.948 199.397 153.985 202.107 155.639 204.435C156.291 205.403 157.17 206.196 158.199 206.745C159.227 207.294 160.375 207.583 161.541 207.585H161.934L162.328 207.454H162.459C163.541 207.385 164.584 207.022 165.475 206.404V206.272L165.738 206.141L166 205.879L166.393 205.616V205.485C167.03 204.705 167.519 203.816 167.836 202.86C168.798 199.184 166.262 195.202 160.229 190.914C161.458 190.464 162.734 190.156 164.033 189.995C166.846 190.056 169.651 190.319 172.426 190.783C175.151 191.273 177.929 191.405 180.688 191.177C183.626 190.651 186.488 189.77 189.213 188.551L190.786 187.895C187.56 192.962 187.114 197.005 189.475 199.972C190.174 200.954 191.135 201.721 192.247 202.185C193.36 202.649 194.58 202.792 195.77 202.597L197.868 201.809C201.19 199.727 202.633 195.045 202.196 187.764ZM221.605 219.268C221.756 219.303 221.898 219.37 222.022 219.464C222.145 219.558 222.247 219.677 222.322 219.814C222.396 219.95 222.441 220.101 222.453 220.255C222.465 220.41 222.444 220.566 222.392 220.712C222.379 220.861 222.331 221.005 222.252 221.131C222.173 221.258 222.065 221.364 221.937 221.441C221.809 221.518 221.665 221.563 221.516 221.573C221.367 221.584 221.218 221.558 221.081 221.5L217.015 220.056L216.228 219.662C216.065 219.518 215.951 219.327 215.904 219.114C215.857 218.902 215.879 218.68 215.966 218.48C216.566 216.99 217.267 215.543 218.064 214.149C218.136 214.011 218.238 213.892 218.363 213.801C218.488 213.709 218.633 213.649 218.786 213.623C218.938 213.598 219.095 213.608 219.243 213.654C219.391 213.699 219.526 213.779 219.638 213.886C220.346 214.227 220.478 214.726 220.032 215.33L218.982 217.036L229.474 213.492C229.611 213.434 229.76 213.408 229.909 213.419C230.058 213.429 230.203 213.474 230.33 213.551C230.458 213.628 230.566 213.734 230.646 213.861C230.725 213.987 230.773 214.131 230.785 214.28C230.838 214.426 230.858 214.582 230.846 214.737C230.834 214.891 230.789 215.042 230.715 215.178C230.641 215.314 230.538 215.434 230.415 215.528C230.292 215.622 230.15 215.688 229.999 215.724L220.425 218.874L221.605 219.268ZM214.392 252.873C214.451 253.01 214.476 253.16 214.466 253.309C214.456 253.458 214.41 253.602 214.334 253.73C214.257 253.858 214.151 253.966 214.024 254.045C213.898 254.125 213.754 254.173 213.605 254.185C212.897 254.448 212.478 254.185 212.294 253.529L211.638 249.066C211.626 248.924 211.643 248.781 211.688 248.645C211.734 248.51 211.806 248.385 211.901 248.278C211.901 247.946 212.163 247.683 212.687 247.491C214.174 246.944 215.712 246.548 217.277 246.309C218.064 246.309 218.51 246.572 218.589 247.097C218.668 247.622 218.589 248.357 217.802 248.541L215.442 248.935L219.507 251.298C221.253 252.68 223.144 253.868 225.146 254.842C225.854 255.026 226.117 255.498 225.933 256.286C225.75 257.073 225.33 257.205 224.622 256.942C222.611 256.091 220.716 254.988 218.982 253.66L214.13 250.772L214.392 252.873ZM191.048 279.126C191.1 279.247 191.128 279.377 191.13 279.508C191.132 279.639 191.107 279.77 191.059 279.892C191.01 280.014 190.938 280.125 190.846 280.219C190.754 280.313 190.645 280.388 190.524 280.439C190.274 280.541 189.997 280.557 189.736 280.486C189.476 280.415 189.245 280.26 189.081 280.045L188.819 279.652C188.767 279.6 188.725 279.539 188.697 279.471C188.668 279.404 188.654 279.331 188.654 279.258C188.654 279.184 188.668 279.112 188.697 279.044C188.725 278.977 188.767 278.915 188.819 278.864C188.078 275.636 187.726 272.331 187.77 269.019L185.803 270.594C185.699 270.697 185.577 270.78 185.442 270.835C185.307 270.891 185.162 270.92 185.016 270.92C184.87 270.92 184.725 270.891 184.59 270.835C184.455 270.78 184.332 270.697 184.229 270.594C184.126 270.491 184.044 270.368 183.988 270.233C183.932 270.098 183.903 269.953 183.903 269.806C183.903 269.66 183.932 269.515 183.988 269.38C184.044 269.245 184.126 269.122 184.229 269.019C185.349 267.876 186.631 266.903 188.032 266.131L188.426 266C188.95 265.658 189.396 265.606 189.737 265.868C191.05 266.81 192.279 267.864 193.409 269.019C193.514 269.122 193.597 269.244 193.654 269.379C193.711 269.514 193.74 269.66 193.74 269.806C193.74 269.953 193.711 270.098 193.654 270.234C193.597 270.369 193.514 270.491 193.409 270.594L192.753 270.988C192.61 271.068 192.449 271.111 192.285 271.112C192.121 271.112 191.959 271.072 191.815 270.993C191.671 270.914 191.549 270.8 191.461 270.662C191.373 270.523 191.321 270.364 191.311 270.2L189.999 268.888C189.888 272.332 190.241 275.776 191.048 279.126ZM155.377 259.042C154.774 259.226 154.459 259.042 154.459 258.124C154.431 257.831 154.508 257.538 154.676 257.298C154.845 257.057 155.093 256.884 155.377 256.811L160.623 256.286C161.331 256.102 161.672 256.286 161.672 257.205V257.598L162.459 261.799C162.643 262.508 162.328 262.98 161.541 263.243C160.754 263.506 160.439 263.243 160.361 262.455L159.836 259.83C158.079 261.747 157.03 262.902 156.689 263.243C154.823 264.587 153.068 266.079 151.443 267.706C150.997 268.31 150.525 268.31 150 267.706C149.88 267.617 149.78 267.504 149.707 267.373C149.634 267.242 149.59 267.097 149.578 266.948C149.565 266.799 149.585 266.649 149.635 266.508C149.685 266.367 149.765 266.238 149.869 266.131C151.495 264.504 153.249 263.012 155.115 261.668L157.869 258.78L155.377 259.042ZM145.279 226.75C144.676 226.75 144.282 226.54 144.099 225.832C144.063 225.694 144.056 225.55 144.076 225.409C144.097 225.268 144.145 225.133 144.218 225.011C144.291 224.889 144.388 224.782 144.503 224.698C144.617 224.613 144.747 224.553 144.886 224.519C145.313 224.444 145.753 224.477 146.165 224.615C146.577 224.752 146.949 224.99 147.246 225.306C147.862 225.88 148.52 226.406 149.213 226.882C149.364 226.917 149.506 226.984 149.63 227.078C149.753 227.172 149.855 227.291 149.93 227.427C150.004 227.564 150.049 227.714 150.061 227.869C150.073 228.024 150.052 228.179 150 228.326C150.03 228.509 150.023 228.697 149.977 228.878C149.932 229.058 149.851 229.228 149.738 229.376L146.853 232.264C146.644 232.473 146.361 232.59 146.066 232.59C145.771 232.59 145.488 232.473 145.279 232.264C145.07 232.055 144.953 231.771 144.953 231.476C144.953 231.181 145.07 230.897 145.279 230.688L146.459 229.507C142.365 228.954 138.213 228.998 134.132 229.638C133.424 229.822 132.951 229.507 132.689 228.719C132.63 228.582 132.605 228.433 132.616 228.284C132.626 228.135 132.671 227.99 132.748 227.862C132.825 227.734 132.931 227.626 133.057 227.547C133.184 227.468 133.327 227.42 133.476 227.407C137.561 226.843 141.698 226.755 145.803 227.144L145.279 226.75ZM154.59 191.702C154.144 191.098 154.275 190.599 154.984 190.258C155.108 190.165 155.252 190.101 155.404 190.071C155.556 190.041 155.713 190.044 155.864 190.082C156.014 190.12 156.154 190.19 156.274 190.289C156.394 190.387 156.491 190.511 156.557 190.652C157.781 192.664 159.486 195.815 161.672 200.103L162.197 198.396C162.38 197.688 162.852 197.478 163.639 197.74C164.426 198.003 164.557 198.344 164.295 199.053L162.984 202.991C162.939 203.162 162.857 203.322 162.743 203.458C162.63 203.594 162.488 203.703 162.328 203.778H161.672L157.082 202.991C156.636 203.175 156.243 202.991 155.902 202.466C155.807 202.384 155.732 202.284 155.68 202.17C155.628 202.057 155.601 201.934 155.601 201.809C155.601 201.685 155.628 201.562 155.68 201.448C155.732 201.335 155.807 201.234 155.902 201.153C156.426 200.707 157.344 200.68 158.525 201.022L159.311 201.153C157.475 196.742 155.823 193.592 154.59 191.702ZM196.557 196.559C197.344 196.034 197.868 196.112 198.13 196.821V196.952C198.224 197.172 198.25 197.415 198.203 197.65C198.156 197.884 198.039 198.099 197.868 198.265L196.032 199.184L193.934 199.84C193.226 200.365 192.701 200.182 192.36 199.315L192.098 198.921C191.586 197.737 191.191 196.507 190.917 195.246C190.833 195.162 190.776 195.054 190.753 194.938C190.729 194.821 190.741 194.7 190.786 194.59V194.327C190.841 194.094 190.976 193.887 191.168 193.743C191.36 193.599 191.596 193.527 191.835 193.54C192.439 193.54 192.806 193.802 192.885 194.327L193.409 196.165C194.648 193.545 195.657 190.821 196.426 188.026C196.609 187.317 197.029 187.107 197.737 187.37C197.886 187.383 198.029 187.431 198.156 187.51C198.282 187.589 198.388 187.697 198.465 187.825C198.542 187.953 198.587 188.098 198.597 188.247C198.608 188.396 198.582 188.545 198.524 188.683C197.759 191.521 196.75 194.288 195.507 196.952L196.557 196.559ZM89.28 85.5056C90.8899 83.9353 92.2996 82.1716 93.4768 80.2548L113.28 106.902L107.116 112.678L98.8537 117.929L92.821 120.817L89.6735 121.867C90.5977 109.716 90.5099 97.5102 89.4112 85.3743L89.28 85.5056ZM-71.8971 117.01L-72.684 112.941C-65.8002 109.614 -58.2923 107.78 -50.6516 107.559C-45.2544 107.31 -39.8524 107.93 -34.6519 109.396C-33.4192 109.738 -30.6389 110.63 -26.2586 112.022C-23.5542 112.974 -20.7951 113.763 -17.9964 114.385C-13.8779 115.352 -9.60684 115.479 -5.43825 114.758C-1.26965 114.036 2.71092 112.48 6.26538 110.184C9.39435 108.315 12.3756 106.208 15.1831 103.883C17.0192 102.308 19.7733 99.8926 23.4453 96.6634L25.8058 100.733V100.864L32.6255 109.659L37.2155 113.991L45.0843 119.767L46.789 120.686L46.6579 121.867C46.4743 124.492 46.0547 128.115 45.3465 132.762C45.0827 135.838 43.9954 138.785 42.199 141.295C41.1015 142.335 39.8659 143.218 38.527 143.92L34.4615 146.152C32.1229 147.595 29.9654 149.314 28.0354 151.271C26.5464 152.726 25.1862 154.307 23.9699 155.997C20.22 154.739 16.3538 153.859 12.4291 153.371C10.0776 153.109 7.71333 152.978 5.34727 152.978C-4.11447 152.937 -13.4396 155.237 -21.7997 159.672C-29.9777 164.025 -37.0281 170.228 -42.3895 177.787C-45.5928 175.437 -49.1291 173.578 -52.8811 172.274C-55.7365 171.488 -58.5396 170.523 -61.2743 169.386C-64.0928 168.274 -66.451 166.238 -67.9628 163.61C-69.1459 161.144 -70.0266 158.544 -70.5857 155.865C-71.2132 153.152 -72.0013 150.478 -72.9462 147.858L-74.52 145.233L-73.0773 140.376L-71.3725 128.824L-71.8971 117.01ZM31.0516 152.584C33.1468 150.631 35.4827 148.955 38.0024 147.596C38.868 147.149 40.1532 146.467 41.8056 145.495C43.067 144.743 44.1786 143.764 45.0843 142.607C46.6389 140.227 47.6673 137.542 48.1005 134.731C48.5464 132.552 49.0186 129.165 49.5432 124.624L49.8055 122.129L50.4612 122.523L51.3791 122.786L55.8381 124.624L56.4938 124.755L61.4774 126.199L64.1003 126.724C64.1918 131.031 63.6166 135.326 62.3953 139.457C61.4832 141.882 60.0507 144.078 58.1988 145.889C56.2267 147.548 54.1212 149.04 51.9037 150.352C47.6057 153.064 43.7564 156.43 40.4942 160.329L38.3959 163.216C34.7961 160.727 30.924 158.657 26.8551 157.047C28.1937 155.421 29.6396 153.886 31.1829 152.452L31.0516 152.584ZM56.6249 121.342L53.0841 119.898C53.8709 120.082 54.3168 119.767 54.3955 118.979L61.6085 88.5248C63.3184 89.4883 65.1195 90.2798 66.9854 90.8876L67.2478 91.544C74.2422 102.045 80.7119 112.416 86.6571 122.655L74.3295 124.23L67.51 123.836L56.6249 121.342ZM70.264 91.544C71.7792 91.8144 73.326 91.8586 74.8541 91.6752C77.0224 95.8758 79.2956 99.8576 81.6737 103.621C81.8227 103.855 82.0449 104.034 82.3058 104.129C82.5667 104.224 82.8516 104.23 83.1163 104.146C83.4061 104.113 83.6736 103.975 83.8673 103.756C84.061 103.538 84.1671 103.256 84.1653 102.964L84.5588 88.9186L86.9195 87.4746C87.7195 97.695 87.807 107.959 87.1818 118.191C82.3556 109.773 76.76 100.846 70.3951 91.4126L70.264 91.544ZM77.6081 91.4126C79.0844 91.1552 80.5335 90.7598 81.9359 90.2313L81.6737 98.5012L77.6081 91.4126ZM84.0342 85.5056C81.8436 86.9193 79.3875 87.8698 76.8165 88.2987C74.2455 88.7276 71.614 88.6259 69.0837 87.9997C66.522 87.4947 64.0926 86.4642 61.9484 84.9731C59.8041 83.482 57.9916 81.5627 56.6249 79.336C55.2136 77.1672 54.2539 74.7356 53.8032 72.1868C53.3525 69.6381 53.4201 67.0246 54.002 64.5026C54.5863 61.9679 55.6641 59.5733 57.1735 57.4557C58.683 55.3381 60.5947 53.5391 62.7992 52.1615C65.0038 50.7839 67.4579 49.8547 70.0215 49.4271C72.585 48.9995 75.2076 49.0817 77.7394 49.6693C80.2861 50.2147 82.699 51.2615 84.8379 52.7489C86.9767 54.2362 88.7989 56.1345 90.1982 58.3331C91.6574 60.4798 92.6456 62.9116 93.0977 65.4684C93.5498 68.0251 93.4555 70.6487 92.821 73.1664C92.2776 75.6812 91.2302 78.0595 89.7425 80.1578C88.2549 82.2561 86.3575 84.0307 84.1653 85.3743L84.0342 85.5056ZM53.0841 42.3183C52.8843 42.1057 52.6129 41.9746 52.3224 41.9504C52.0318 41.9262 51.7426 42.0104 51.5104 42.187C51.2416 42.3034 51.0256 42.5156 50.9044 42.7824C50.7833 43.0493 50.7655 43.3518 50.8547 43.631C51.9038 46.0726 53.3463 49.8006 55.1823 54.7888C54.0976 56.0941 53.2136 57.5541 52.5594 59.1206L43.9039 30.6354C46.0022 32.5519 49.1497 35.2823 53.6087 38.774L63.8379 47.9628L61.215 49.4067L53.0841 42.3183ZM58.9856 50.982C58.3175 51.4872 57.7023 52.0589 57.1495 52.6885L55.3135 47.7003L58.9856 50.982ZM105.804 54.6575C105.981 54.4668 106.099 54.2296 106.146 53.9738C106.192 53.718 106.165 53.4543 106.067 53.2136C105.972 52.9788 105.808 52.778 105.598 52.6375C105.387 52.497 105.139 52.4233 104.886 52.426C102.254 52.4126 99.6246 52.588 97.0176 52.951C93.5292 53.3973 91.3784 53.6074 90.5915 53.6074L88.4932 51.6383C99.0072 49.6464 109.664 48.505 120.361 48.2254C116.793 51.7544 112.883 54.9204 108.69 57.6767C103.103 61.3522 98.9324 64.1613 96.2308 66.0779L95.7062 63.4525C100.375 59.4619 103.759 56.5478 105.936 54.5262L105.804 54.6575ZM94.9193 60.8271C94.263 59.1402 93.3806 57.5505 92.2964 56.1015L101.608 55.1826L94.9193 60.8271ZM109.608 115.041V114.91L113.935 111.103L114.984 110.053C116.637 108.136 117.607 106.955 118.001 106.508L118.657 105.983C123.06 108.89 126.848 112.637 129.804 117.01C131.922 120.38 133.514 124.054 134.525 127.905C135.523 131.702 136.268 135.561 136.755 139.457C138.145 148.987 140.872 156.128 144.886 160.854C147.329 163.653 149.958 166.284 152.754 168.73C155.601 171.121 158.234 173.757 160.623 176.606L161.279 177.262H161.541L161.279 177.393L160.754 177.525L155.377 180.15L154.853 180.544C153.095 181.515 151.233 182.697 149.213 184.088H149.082C145.685 177.119 140.644 171.082 134.394 166.498C131.955 164.923 130.145 163.742 129.148 162.954C127.263 161.833 125.505 160.513 123.902 159.016C122.27 157.327 121.096 155.248 120.493 152.978C119.907 150.695 119.512 148.368 119.312 146.02C118.299 136.492 115.306 127.281 110.526 118.979L108.558 115.829L109.608 115.041ZM117.87 101.389C116.095 97.9535 114.124 94.6225 111.968 91.4126C110.904 89.5555 109.675 87.7982 108.296 86.1619C113.611 86.9515 118.868 88.0917 124.033 89.5749L120.886 96.2696L118.001 100.864L117.87 101.389ZM123.771 48.3566L126.001 54.6575V54.7888C126.175 55.2439 126.569 56.819 127.181 59.5144L127.968 66.0779L127.706 75.7917L126.787 81.4363C126.482 83.2301 125.999 84.989 125.345 86.687V87.2121C118.66 85.25 111.813 83.8881 104.886 83.1427C104.749 83.1074 104.605 83.0998 104.464 83.1204C104.324 83.1409 104.188 83.1893 104.066 83.2625C103.944 83.3358 103.838 83.4326 103.754 83.5472C103.669 83.6618 103.609 83.7921 103.575 83.9304C103.468 84.2133 103.461 84.5245 103.557 84.8116C103.652 85.0986 103.844 85.3437 104.099 85.5056C106.784 87.8602 109.046 90.6573 110.788 93.7755C112.624 96.7422 114.407 99.8926 116.034 103.227L116.296 103.621L115.116 104.933L96.3619 79.4672C106.226 78.6796 116.137 78.6796 126.001 79.4672C126.866 79.4672 127.312 79.1522 127.312 78.2858C127.33 78.1027 127.31 77.9178 127.253 77.7431C127.195 77.5683 127.101 77.4077 126.978 77.2716C126.854 77.1354 126.703 77.0268 126.535 76.9528C126.367 76.8787 126.184 76.841 126.001 76.8419C115.697 76.0578 105.347 76.1016 95.0504 76.9731L95.8373 74.7416C96.3011 72.8968 96.5215 70.9991 96.493 69.097C99.6405 66.8042 104.405 63.5663 110.788 59.3832C115.551 56.1519 119.949 52.4106 123.902 48.2254L123.771 48.3566ZM96.3619 20.0027L96.7554 20.1339L100.558 22.1029L101.608 22.7593C102.971 23.4354 104.247 24.2728 105.411 25.2534L110.001 28.7977L113.804 32.6044L119.574 40.0867L122.329 45.2062L122.591 45.6C110.255 45.7661 97.9614 47.0845 85.8703 49.5381C84.0571 48.4714 82.1189 47.6336 80.0999 47.0439C84.9085 38.1877 90.1543 29.0427 95.8373 19.6089L96.3619 20.0027ZM85.2146 16.3272L81.4113 24.7283C80.9655 22.8905 80.3622 19.8189 79.5753 15.5395L85.2146 16.3272ZM76.9524 15.277C77.6351 19.872 78.5544 24.4287 79.7065 28.9289C79.7837 29.1757 79.9194 29.4002 80.1021 29.5831C80.2849 29.766 80.509 29.9018 80.7556 29.979C81.0163 30.0387 81.2896 30.0058 81.5288 29.8861C81.768 29.7664 81.9583 29.5673 82.0671 29.3227L87.8375 16.9835L91.9029 18.1649L92.5587 18.4274C92.4664 18.6107 92.4184 18.813 92.4184 19.0182C92.4184 19.2233 92.4664 19.4257 92.5587 19.6089C89.4112 24.8596 84.8648 32.8232 78.9196 43.4997C76.9961 38.2489 75.5099 33.6545 74.4608 29.7165L72.6247 21.5779C71.9165 18.1649 71.4444 16.1171 71.1821 15.4083L76.9524 15.277ZM42.8547 25.7784L44.1661 24.8596C45.303 23.944 46.5341 23.1519 47.8383 22.4967L48.3629 22.1029L57.543 18.0336L67.7722 15.6708H68.5592C69.1643 16.7708 69.5641 17.9717 69.7394 19.215C69.923 20.0814 70.1328 21.3678 70.3951 23.0218L72.2312 31.1605C73.735 36.4112 75.4836 41.4869 77.477 46.3876C73.8462 45.7712 70.1227 45.9957 66.5921 47.0439L55.707 37.0676C52.7431 34.7047 50.4612 32.9194 49.0186 31.6855C46.8001 29.8953 44.738 27.9191 42.8547 25.7784ZM26.3305 45.2062L29.7402 39.4304L34.8549 32.867L40.1007 27.8788L40.4942 27.6162C41.9805 33.392 43.904 39.9992 46.2646 47.4377L49.4119 57.1516C49.9282 59.0363 50.5858 60.8793 51.3791 62.6649L51.248 62.9275C50.7412 64.8114 50.4768 66.7523 50.4612 68.7032L22.5272 55.1826L26.3305 45.2062ZM21.7404 58.0705L21.8715 57.9392V57.6767C32.0134 62.9275 41.4559 67.478 50.1989 71.3286L24.1011 83.0115C23.3841 83.3441 23.2529 83.8691 23.7076 84.5867C24.1535 85.3744 24.7043 85.5844 25.4125 85.2431L39.8385 78.6797C45.6875 76.0543 49.4645 74.4266 51.1169 73.8227C52.1108 78.5767 54.6466 82.8686 58.3299 86.0307C49.102 90.0775 40.0852 94.5902 31.314 99.5513C31.1534 99.6326 31.0129 99.7488 30.9029 99.8916C30.793 100.034 30.7162 100.2 30.6785 100.376C30.6407 100.552 30.643 100.735 30.6849 100.91C30.7268 101.085 30.8072 101.249 30.9205 101.389C30.9862 101.547 31.0886 101.687 31.2193 101.798C31.3499 101.909 31.5051 101.986 31.6718 102.025C31.8386 102.063 32.012 102.061 32.1779 102.019C32.3438 101.977 32.4972 101.896 32.6255 101.783C41.1098 96.8685 49.867 92.442 58.8545 88.5248L52.0349 118.191C51.9433 118.436 51.9465 118.707 52.0435 118.949C52.1405 119.192 52.3244 119.39 52.5594 119.504L51.6415 119.11L47.7072 117.01C47.9946 117.015 48.2762 116.928 48.5117 116.763C48.7473 116.598 48.9247 116.363 49.0186 116.091L54.3955 96.4009C54.4262 96.1869 54.4067 95.9686 54.3385 95.7635C54.2703 95.5583 54.1552 95.3719 54.0025 95.2191C53.8498 95.0662 53.6635 94.951 53.4585 94.8827C53.2536 94.8144 53.0356 94.7949 52.8218 94.8257C46.4333 97.3724 40.4647 100.868 35.1173 105.196C34.9766 105.289 34.8611 105.416 34.7812 105.565C34.7014 105.714 34.6597 105.88 34.6597 106.049C34.6597 106.218 34.7014 106.384 34.7812 106.533C34.8611 106.682 34.9766 106.809 35.1173 106.902C35.2207 107.044 35.3536 107.161 35.5069 107.246C35.6602 107.331 35.8301 107.381 36.0048 107.394C36.1795 107.406 36.3549 107.38 36.5187 107.318C36.6825 107.256 36.8307 107.159 36.9532 107.034C41.2744 103.469 46.0895 100.551 51.248 98.3699L46.5268 115.566C46.4655 115.711 46.434 115.868 46.434 116.025C46.434 116.183 46.4655 116.34 46.5268 116.485L38.3959 110.447C37.2544 109.493 36.2009 108.439 35.2484 107.296H35.1173C34.0495 106.124 33.0427 104.897 32.1009 103.621L28.56 98.6324C29.3469 98.9737 29.9238 98.8424 30.2648 98.2386C31.2963 96.9163 32.2173 95.5114 33.0188 94.038C33.9042 92.8869 34.4901 91.5337 34.7238 90.0999C34.5402 89.2336 33.6222 88.7873 32.1009 88.7873H26.0682C25.7204 88.7873 25.3868 88.9256 25.1408 89.1718C24.8949 89.4179 24.7568 89.7518 24.7568 90.0999C24.7568 90.4481 24.8949 90.782 25.1408 91.0282C25.3868 91.2744 25.7204 91.4126 26.0682 91.4126H31.7074L31.1829 92.069L27.773 97.3197L26.1993 94.5631V94.4319L23.5764 87.8685L20.9536 77.367C22.7896 77.0257 26.1993 76.2643 30.7894 75.1354C34.9074 74.164 38.1336 73.5077 40.4942 73.1664C40.6241 73.1598 40.7513 73.1271 40.8683 73.0703C40.9853 73.0135 41.0897 72.9338 41.1754 72.8359C41.261 72.7379 41.3261 72.6237 41.3668 72.5001C41.4075 72.3765 41.4229 72.246 41.4121 72.1162C41.4359 71.858 41.3871 71.5983 41.2712 71.3663C41.1554 71.1344 40.9771 70.9395 40.7564 70.8036C37.6153 69.0652 34.3232 67.6152 30.9205 66.4716C27.5424 65.3183 24.2906 63.8229 21.2158 62.0086H21.0847L21.7404 58.0705ZM20.8224 64.7652C23.2712 66.0872 25.8134 67.228 28.4287 68.1782C32.3631 69.6747 34.9336 70.8035 36.1663 71.3286C29.3468 72.9826 24.1798 74.1378 20.6913 74.7416V74.4791V73.9539L20.8224 64.7652ZM-46.1926 93.3817C-46.0002 93.3817 -38.3064 95.1319 -23.1111 98.6324C-13.861 100.645 -6.25459 99.9888 -0.29187 96.6634C3.60477 94.1933 7.36938 91.5205 10.9866 88.656L18.5929 83.0115L21.6093 92.4628L22.265 93.9068C14.8335 100.295 10.1997 104.146 8.36368 105.458C0.162735 111.147 -7.88084 113.291 -15.767 111.891C-17.944 111.444 -20.7506 110.709 -24.1603 109.659L-32.4224 106.902C-37.6112 105.335 -43.0021 104.539 -48.4221 104.539C-57.0196 104.504 -65.5218 106.341 -73.3397 109.922L-76.6183 101.258L-77.0117 100.47C-67.7129 94.9782 -56.9604 92.4593 -46.1926 93.2504V93.3817ZM-85.1427 158.622L-86.9788 161.247L-93.4048 167.811C-95.3438 169.588 -97.4523 171.171 -99.6998 172.537L-100.224 172.93C-101.311 173.67 -102.45 174.328 -103.634 174.899L-104.159 175.293L-107.962 177.131L-116.093 179.888H-116.224L-119.896 180.675L-120.158 180.806L-123.437 181.331H-124.093C-126.269 181.593 -128.458 181.725 -130.65 181.725L-138.781 181.069L-144.814 179.888L-152.42 177.262L-161.6 172.405L-168.026 167.417L-173.797 161.379L-178.78 154.29L-182.583 146.152L-183.108 144.708L-185.337 136.7L-186.124 130.662V129.087L-186.255 127.905L-185.6 117.929L-183.633 109.79L-179.174 99.5513L-178.649 98.7637L-177.731 97.0572L-177.206 96.5321L-171.567 89.0498L-171.174 88.7873L-167.502 85.1118L-167.108 84.8492L-163.043 81.5675L-162.649 81.305C-161.237 80.2328 -159.746 79.2675 -158.19 78.4171L-157.797 78.1546L-155.568 76.9731L-155.174 76.7106L-150.191 74.6103L-144.945 72.9038H-144.683L-144.551 72.7726L-140.092 71.8537L-130.519 70.9348L-120.289 71.8537L-112.159 73.9539L-108.355 75.3979L-107.437 75.923L-104.552 77.2357L-96.1589 82.4864L-89.0771 89.0498L-81.6017 99.42L-78.0609 107.165L-76.4872 112.153V112.284L-75.8315 114.647L-75.3069 117.929L-75.1758 118.323L-74.7823 122.129L-74.9134 131.843L-77.0117 142.082V142.345L-77.9298 145.101L-78.192 145.627C-78.4791 146.629 -78.8749 147.598 -79.3723 148.514V149.039L-80.946 152.19L-85.0116 158.622H-85.1427ZM-50.3893 183.826C-54.586 180.071 -60.881 177.604 -69.2742 176.475C-71.1884 176.269 -73.0774 175.873 -74.9134 175.293C-76.7115 174.775 -78.2825 173.665 -79.3723 172.143C-80.3565 170.674 -81.1498 169.086 -81.733 167.417C-82.4412 165.238 -82.9919 163.558 -83.4378 162.429L-83.5689 162.166L-79.2412 155.865C-78.3377 154.397 -77.5485 152.861 -76.8805 151.271L-75.5691 148.646L-75.3069 149.302C-74.3955 151.787 -73.6506 154.331 -73.0773 156.916C-72.4523 159.533 -71.5738 162.083 -70.4544 164.529C-68.3561 168.467 -64.247 171.443 -58.1269 173.455C-53.0553 174.962 -48.2372 177.218 -43.8321 180.15C-45.1752 182.359 -46.4008 184.638 -47.504 186.976L-50.3893 183.826ZM60.297 218.874C58.8727 231.062 53.4268 242.426 44.8219 251.166C36.6223 259.821 25.7806 265.501 14.0028 267.312L5.34727 268.1C3.11024 268.041 0.877838 267.865 -1.34108 267.575L-8.42294 266.262C-12.461 265.194 -16.3737 263.698 -20.0949 261.799L-23.7668 259.699C-26.5925 257.965 -29.2296 255.942 -31.6355 253.66L-34.7831 250.379C-40.0632 244.674 -44.0847 237.92 -46.5861 230.557C-49.2774 222.945 -50.2187 214.824 -49.3401 206.798L-48.8155 202.466C-48.3125 199.521 -47.5669 196.623 -46.5861 193.802L-45.1435 190.126C-43.9603 187.416 -42.6023 184.785 -41.0781 182.25L-39.3731 179.756C-34.3294 172.59 -27.683 166.701 -19.9636 162.56C-12.0624 158.312 -3.22818 156.101 5.74077 156.128C7.9761 156.125 10.2095 156.257 12.4291 156.522C15.8485 156.999 19.2249 157.745 22.5272 158.753L25.2814 159.804C29.4497 161.377 33.4128 163.448 37.0844 165.973L39.4449 167.811C41.9062 169.698 44.1891 171.807 46.2646 174.112L49.1497 177.525C56.9466 187.367 61.0738 199.621 60.8217 212.18L60.297 218.874ZM119.574 239.352C115.719 237.173 112.807 235.545 110.788 234.495C107.871 232.889 104.848 231.486 101.739 230.295C95.4895 227.844 88.8969 226.382 82.1982 225.963C75.3627 225.623 68.5143 226.287 61.8707 227.932C62.7339 225.11 63.3053 222.207 63.5757 219.268C63.837 217.618 63.9686 215.95 63.9691 214.28C73.9362 211.567 82.548 211.479 89.8047 214.017C92.8204 215.184 95.7186 216.634 98.4602 218.349C100.375 219.478 103.129 221.237 106.722 223.6C112.176 227.188 118.357 229.519 124.82 230.426L125.083 230.557V230.688C125.004 231.912 125.004 233.14 125.083 234.364V235.283L125.87 242.371C124.033 241.584 121.935 240.586 119.574 239.352ZM125.214 227.407C118.596 226.455 112.301 223.935 106.853 220.056C103.181 217.693 100.427 215.943 98.5913 214.805C95.8196 213.097 92.8741 211.689 89.8047 210.604C82.9932 208.547 75.7677 208.275 68.8214 209.817C67.1744 210.077 65.5516 210.472 63.9691 210.998C63.968 198.029 59.5763 185.443 51.5104 175.293C48.4703 171.199 44.8471 167.572 40.7564 164.529C42.7256 161.814 44.9666 159.307 47.4448 157.047C49.9447 155.039 52.5732 153.198 55.3135 151.534C58.0302 149.874 60.4652 147.791 62.5264 145.364C65.7256 140.402 67.3698 134.597 67.2478 128.693V126.986H67.51L70.1329 127.249L70.7886 127.38H74.9852L74.8541 127.774V128.955L75.2476 129.612C75.3702 129.838 75.5383 130.037 75.7415 130.195C75.9446 130.353 76.1784 130.467 76.4279 130.531C76.9355 130.72 77.494 130.72 78.0016 130.531C78.3192 130.464 78.6161 130.322 78.8672 130.116C79.1183 129.911 79.3162 129.648 79.4442 129.349C79.6079 129 79.6929 128.619 79.6929 128.233C79.6929 127.848 79.6079 127.467 79.4442 127.118L87.5753 125.805L93.0833 124.098L102.263 119.898L105.936 117.535L106.198 117.404C106.988 118.411 107.649 119.513 108.165 120.686C112.853 128.819 115.759 137.858 116.689 147.202C116.873 151.373 118.09 155.433 120.23 159.016C122.738 161.894 125.708 164.334 129.017 166.236C135.781 170.554 141.44 176.398 145.541 183.301L146.853 185.795L142.656 189.601L142.132 190.258L138.722 193.933L134.132 200.497L133.082 201.941L129.542 209.16L127.312 215.461C126.26 219.373 125.558 223.371 125.214 227.407ZM142.394 269.938C140.644 267.943 139.023 265.839 137.541 263.637L137.148 263.112L135.181 259.699L134.787 259.174L132.951 255.367L129.935 247.097L129.279 243.947L129.017 243.159L128.361 238.958L128.099 227.669C128.496 223.856 129.198 220.081 130.197 216.38L131.902 211.129H132.033L134.394 205.879L140.558 196.559L143.836 192.752L144.361 192.358L150 187.239L150.918 186.714L153.279 185.007H153.541L156.426 183.169L162.721 180.15L163.115 179.888L165.738 178.969C167.453 178.339 169.205 177.813 170.983 177.393H171.115L176.623 176.475C178.843 176.216 181.076 176.084 183.311 176.081L188.95 176.343L196.032 177.525L199.835 178.706C198.186 179.925 196.609 181.24 195.114 182.644C192.573 183.169 190.106 184.007 187.77 185.138C185.41 186.178 182.949 186.97 180.426 187.501C177.357 187.808 174.259 187.631 171.246 186.976C168.264 186.417 165.223 186.24 162.197 186.451C160.142 186.874 158.155 187.58 156.295 188.551L152.098 186.582C151.891 188.324 151.803 190.079 151.836 191.833C147.896 195.227 145.216 199.852 144.23 204.96C143.818 207.937 143.024 210.849 141.869 213.624C140.672 215.792 139.121 217.744 137.279 219.399C135.527 220.685 133.903 222.136 132.427 223.731C131.56 224.783 130.894 225.984 130.46 227.275L128.755 228.194L129.804 229.244V229.901C129.458 232.475 129.774 235.096 130.722 237.514C131.595 239.959 133.033 242.163 134.919 243.947C135.522 244.55 136.44 245.443 137.673 246.572C138.612 247.399 139.409 248.374 140.033 249.46C140.794 250.82 141.157 252.366 141.082 253.923C141.082 254.973 141.082 256.548 141.082 258.649C141.064 262.963 142.654 267.129 145.541 270.332L145.017 272.957L142.394 269.938ZM231.703 260.749L231.572 261.143L229.212 264.687V264.818L223.572 271.644L223.048 272.038C222.102 273.061 221.095 274.026 220.032 274.926V275.057L216.753 277.683L216.228 277.945L212.95 280.308L204.556 284.509L195.507 287.396L186.852 288.578H182.524C181.826 288.635 181.124 288.635 180.426 288.578H179.508L176.623 288.315H176.491L170.459 287.134L161.672 284.115L155.115 280.702L154.459 280.177L151.836 278.47L145.541 273.219L148.689 272.563C151.021 274.208 153.725 275.245 156.557 275.582C159.433 275.875 162.325 275.963 165.213 275.845C167.426 275.992 169.621 276.343 171.77 276.895C172.988 277.224 174.173 277.663 175.311 278.208L178.721 280.045C181.15 281.089 183.648 281.966 186.196 282.671L188.163 283.065C189.227 284.559 190.411 285.964 191.704 287.265C193.016 284.824 193.855 283.143 194.196 282.277C195.25 281.768 196.223 281.104 197.081 280.308C198.796 278.976 200.417 277.529 201.934 275.976L205.868 272.038C208.078 270.328 210.503 268.915 213.081 267.837L219.507 265.475C221.675 264.64 223.707 263.49 225.54 262.062L227.113 260.486C228.682 260.67 230.266 260.67 231.835 260.486L231.703 260.749ZM237.212 248.016L237.08 248.147L235.638 252.61L231.966 260.355L229.868 255.892C230.815 253.283 231.303 250.529 231.31 247.753C231.375 245.011 231.067 242.273 230.392 239.615C229.526 236.543 229.081 234.968 229.081 234.889C228.697 233.258 228.882 231.544 229.605 230.032C231.105 227.871 232.421 225.588 233.539 223.206C234.361 220.472 234.406 217.563 233.671 214.805L235.638 212.048L232.097 210.998C231.268 209.716 230.251 208.565 229.081 207.585C226.926 205.491 224.446 203.762 221.736 202.466C220.163 201.862 219.114 201.363 218.196 201.022C217.031 200.513 215.965 199.802 215.048 198.921C214.009 197.823 213.126 196.586 212.425 195.246C211.455 193.408 210.72 192.043 210.196 191.177C208.159 187.761 205.206 184.987 201.671 183.169L200.491 178.444L200.753 178.575L202.065 178.969L206.655 180.806L214.786 185.532L221.736 191.177L222.523 191.964C223.656 193.022 224.708 194.163 225.671 195.377C228.288 198.282 230.534 201.501 232.359 204.96C233.139 206.363 233.84 207.809 234.458 209.292L235.638 212.048L236.425 214.149L236.556 214.805L238.13 220.581C238.654 223.652 238.916 225.254 238.916 225.438V226.094L239.179 235.545L237.212 248.016ZM288.883 234.626C284.878 236.35 280.465 236.897 276.162 236.202C274.404 236.018 269.867 235.204 262.522 233.708C258.054 232.667 253.468 232.225 248.884 232.395C246.659 232.682 244.465 233.165 242.326 233.839V230.163L241.539 222.419C247.047 216.31 256.752 214.604 270.654 217.299L280.096 219.268C283.208 219.909 286.365 220.304 289.538 220.45L294.129 220.318C294.581 223.767 295.238 227.186 296.096 230.557C293.079 232.474 290.456 233.839 288.883 234.626ZM293.866 210.604C293.866 212.897 293.866 215.129 293.866 217.299L289.538 217.43C287.528 217.43 281.014 216.336 269.998 214.149C263.53 212.654 256.813 212.61 250.326 214.017C246.846 214.954 243.62 216.659 240.884 219.006L237.343 208.504V208.242L235.769 204.96C238.646 199.724 242.796 195.3 247.834 192.096L262.654 181.594C267.911 177.063 271.434 170.846 272.621 164.004C273.177 160.313 273.353 156.574 273.145 152.846C272.883 147.937 272.673 144.235 272.49 141.688C272.262 137.743 272.437 133.784 273.014 129.874H273.276C282.283 129.91 291.174 127.842 299.243 123.836L304.882 120.686C306.41 119.807 307.858 118.797 309.21 117.666L312.095 115.435C315.499 121.227 317.14 127.888 316.817 134.6C316.817 138.092 316.502 143.579 315.899 151.009C315.406 156.382 316.404 161.787 318.784 166.629C311.706 171.7 305.802 178.237 301.473 185.795C297.115 193.391 294.515 201.869 293.866 210.604ZM403.241 196.034L378.717 207.585L405.733 209.16L379.241 214.411L404.946 222.55L377.93 220.843L400.88 235.283L375.176 227.013L393.667 246.572L370.848 232.132L383.963 255.761L365.603 236.07L372.553 262.193L359.439 238.565V265.475L352.75 239.352L346.193 265.606V238.565L333.341 262.324L340.029 236.07L321.669 255.892L334.652 232.264L311.964 246.834L330.456 227.144L304.751 235.677L327.57 221.106L300.555 222.944L326.259 214.674L299.768 209.686L326.652 207.979L302.259 196.559L328.751 201.678L307.899 184.482L332.292 196.034L316.292 174.243L337.275 191.439L327.177 166.367L343.045 188.157L339.636 161.379L349.472 186.451L352.75 159.672L356.16 186.451L365.996 161.379L362.717 188.157L378.455 166.236L368.488 191.308L389.209 173.98L373.471 195.902L397.864 184.219L377.143 201.547L403.241 196.034ZM440.224 145.495L435.24 149.696C433.011 151.119 430.689 152.39 428.29 153.503C424.093 154.894 420.998 156.128 418.978 156.784C413.308 158.993 408.233 162.499 404.159 167.023C401.71 169.67 399.556 172.575 397.733 175.687C394.35 171.772 390.418 168.368 386.061 165.579C390.112 160.84 395.51 157.451 401.536 155.865C407.415 154.405 412.973 151.868 417.929 148.383C421.61 145.668 424.841 142.39 427.503 138.669C431.544 141.599 435.953 143.982 440.617 145.758L440.224 145.495ZM484.551 141.951C471.052 147.667 455.861 147.902 442.191 142.607C435.376 140.115 429.132 136.276 423.831 131.318C418.341 126.307 413.894 120.26 410.743 113.525C407.593 106.79 405.801 99.4985 405.47 92.069C405.096 84.7019 406.211 77.3349 408.749 70.4097C411.247 63.4847 415.129 57.1422 420.159 51.7696C425.063 46.2576 431.057 41.8247 437.762 38.7517C444.466 35.6787 451.736 34.0324 459.109 33.9171H461.076C475.709 33.9224 489.776 39.5737 500.353 49.6955C510.929 59.8173 517.2 73.6306 517.862 88.2622C518.359 95.6316 517.335 103.025 514.853 109.98C512.371 116.936 508.485 123.306 503.436 128.693C498.141 134.391 491.706 138.908 484.551 141.951Z" fill="white"/>
<path d="M325.21 35.6234C325.483 35.976 325.845 36.2482 326.26 36.4111C326.471 36.5044 326.703 36.5413 326.933 36.5183C327.162 36.4953 327.382 36.4131 327.571 36.2798C327.843 36.2243 328.095 36.098 328.302 35.9136C328.51 35.7292 328.665 35.4933 328.751 35.2297C328.899 34.8162 328.916 34.3672 328.798 33.9441C328.681 33.5211 328.435 33.1448 328.096 32.8669C327.749 32.5306 327.291 32.3319 326.809 32.3078C326.326 32.2836 325.852 32.4357 325.473 32.7356L324.948 33.392L324.686 34.1795L324.817 35.0984L325.21 35.6234Z" fill="white"/>
<path d="M331.636 34.9682C331.901 35.0477 332.181 35.0654 332.454 35.0198C332.726 34.9743 332.985 34.8669 333.21 34.7057C333.431 34.6176 333.631 34.485 333.798 34.3162C333.966 34.1473 334.096 33.9457 334.183 33.7241C334.269 33.5024 334.308 33.2655 334.299 33.0278C334.289 32.7902 334.231 32.557 334.128 32.3428C334.105 32.1088 334.036 31.8818 333.924 31.6751C333.812 31.4685 333.66 31.2863 333.477 31.1395C333.293 30.9926 333.082 30.8841 332.856 30.8202C332.63 30.7563 332.394 30.7385 332.161 30.7676L331.243 31.0301L330.587 31.424L330.062 32.2116V32.8679C330.046 33.0811 330.072 33.2955 330.14 33.4984C330.207 33.7014 330.315 33.8887 330.456 34.0494C330.579 34.2758 330.747 34.4744 330.95 34.6325C331.153 34.7907 331.387 34.905 331.636 34.9682Z" fill="white"/>
<path d="M99.1162 11.4701C99.5194 11.6809 99.9744 11.772 100.428 11.7326C100.7 11.7277 100.969 11.6669 101.217 11.554C101.465 11.4411 101.687 11.2786 101.87 11.0763C102.125 10.7105 102.262 10.2752 102.262 9.8292C102.262 9.38319 102.125 8.94789 101.87 8.58213C101.624 8.20234 101.257 7.91748 100.828 7.77436C100.399 7.63124 99.9341 7.6384 99.5097 7.79455L98.3293 8.84469V9.89482V10.4199C98.5115 10.8235 98.7801 11.182 99.1162 11.4701Z" fill="white"/>
<path d="M103.444 8.32085C103.717 8.48882 104.027 8.58843 104.346 8.61128C104.666 8.63414 104.986 8.5796 105.28 8.45217C105.8 8.28436 106.25 7.94827 106.559 7.49682C106.867 7.04536 107.017 6.5041 106.985 5.95803C107.01 5.38972 106.822 4.83255 106.458 4.39553C106.095 3.95852 105.581 3.67313 105.018 3.59521H103.969L103.182 3.989C102.995 4.0802 102.829 4.20881 102.693 4.36685C102.558 4.52489 102.456 4.70904 102.395 4.9079L102.133 5.56424C102.014 6.08257 102.014 6.62116 102.133 7.13948C102.421 7.67306 102.884 8.09045 103.444 8.32085Z" fill="white"/>
<path d="M108.034 3.85748C108.199 3.98707 108.397 4.068 108.606 4.09118C108.814 4.11437 109.025 4.07887 109.215 3.98871C109.707 3.83789 110.127 3.5108 110.395 3.06982C110.619 2.71579 110.703 2.29062 110.631 1.87773C110.558 1.46483 110.333 1.09402 110.001 0.838257C109.712 0.506825 109.309 0.296061 108.872 0.247457C108.435 0.198854 107.996 0.316006 107.641 0.575786L107.116 1.10081L106.854 1.75715C106.775 2.05835 106.775 2.37484 106.854 2.67604V3.20114L108.034 3.85748Z" fill="white"/>
<path d="M339.112 29.3231C338.978 29.3275 338.847 29.366 338.733 29.4349C338.618 29.5038 338.523 29.6008 338.456 29.7169C338.219 29.8775 338.036 30.1064 337.931 30.3732L337.669 31.2921V31.9484C337.832 32.3632 338.104 32.726 338.456 32.9986C338.628 33.1696 338.833 33.3043 339.058 33.3945C339.284 33.4847 339.525 33.5286 339.767 33.5237C340.045 33.5575 340.326 33.5142 340.581 33.3984C340.835 33.2826 341.053 33.0988 341.21 32.8673C341.576 32.5431 341.806 32.0928 341.854 31.6061C341.903 31.1194 341.767 30.6323 341.472 30.242C341.242 29.8423 340.883 29.5332 340.454 29.3661C340.024 29.199 339.551 29.1838 339.112 29.3231Z" fill="white"/>
</g>
</svg>
