<svg width="30" height="30" viewBox="0 0 30 30" fill="none" xmlns="http://www.w3.org/2000/svg">
<path d="M8.91304 5V10.6522H6.30435C5.58914 10.6522 5 11.2413 5 11.9565V19.7826C5 20.4978 5.58914 21.087 6.30435 21.087H8.91304V25H21.087V21.087H23.6957C24.4109 21.087 25 20.4978 25 19.7826V11.9565C25 11.2413 24.4109 10.6522 23.6957 10.6522H21.087V5H8.91304ZM9.78261 5.86957H20.2174V10.6522H9.78261V5.86957ZM6.30435 11.5217H9.2748C9.32175 11.5295 9.36966 11.5295 9.41661 11.5217H20.5791C20.6261 11.5295 20.674 11.5295 20.721 11.5217H23.6957C23.9413 11.5217 24.1304 11.7109 24.1304 11.9565V19.7826C24.1304 20.0283 23.9413 20.2174 23.6957 20.2174H21.087V16.3043H20.6522H8.91304V20.2174H6.30435C6.05868 20.2174 5.86957 20.0283 5.86957 19.7826V11.9565C5.86957 11.7109 6.05868 11.5217 6.30435 11.5217ZM21.9565 12.8261C21.7259 12.8261 21.5047 12.9177 21.3416 13.0808C21.1786 13.2439 21.087 13.465 21.087 13.6957C21.087 13.9263 21.1786 14.1475 21.3416 14.3105C21.5047 14.4736 21.7259 14.5652 21.9565 14.5652C22.1871 14.5652 22.4083 14.4736 22.5714 14.3105C22.7345 14.1475 22.8261 13.9263 22.8261 13.6957C22.8261 13.465 22.7345 13.2439 22.5714 13.0808C22.4083 12.9177 22.1871 12.8261 21.9565 12.8261ZM9.78261 17.1739H20.2174V20.5791C20.2096 20.6261 20.2096 20.674 20.2174 20.721V24.1304H9.78261V20.7252C9.79037 20.6783 9.79037 20.6303 9.78261 20.5834V17.1739ZM11.5217 18.4783C11.4641 18.4774 11.4069 18.4881 11.3535 18.5096C11.3 18.5311 11.2513 18.563 11.2103 18.6034C11.1693 18.6439 11.1367 18.6921 11.1145 18.7452C11.0922 18.7984 11.0808 18.8554 11.0808 18.913C11.0808 18.9707 11.0922 19.0277 11.1145 19.0809C11.1367 19.134 11.1693 19.1822 11.2103 19.2227C11.2513 19.2631 11.3 19.295 11.3535 19.3165C11.4069 19.338 11.4641 19.3486 11.5217 19.3478H18.4783C18.5359 19.3486 18.5931 19.338 18.6465 19.3165C18.7 19.295 18.7487 19.2631 18.7897 19.2227C18.8307 19.1822 18.8633 19.134 18.8855 19.0809C18.9078 19.0277 18.9192 18.9707 18.9192 18.913C18.9192 18.8554 18.9078 18.7984 18.8855 18.7452C18.8633 18.6921 18.8307 18.6439 18.7897 18.6034C18.7487 18.563 18.7 18.5311 18.6465 18.5096C18.5931 18.4881 18.5359 18.4774 18.4783 18.4783H11.5217ZM11.5217 20.2174C11.4641 20.2166 11.4069 20.2272 11.3535 20.2487C11.3 20.2702 11.2513 20.3021 11.2103 20.3425C11.1693 20.383 11.1367 20.4312 11.1145 20.4844C11.0922 20.5375 11.0808 20.5946 11.0808 20.6522C11.0808 20.7098 11.0922 20.7668 11.1145 20.82C11.1367 20.8731 11.1693 20.9214 11.2103 20.9618C11.2513 21.0023 11.3 21.0342 11.3535 21.0556C11.4069 21.0771 11.4641 21.0878 11.5217 21.087H16.7391C16.7967 21.0878 16.8539 21.0771 16.9074 21.0556C16.9609 21.0342 17.0095 21.0023 17.0506 20.9618C17.0916 20.9214 17.1242 20.8731 17.1464 20.82C17.1687 20.7668 17.1801 20.7098 17.1801 20.6522C17.1801 20.5946 17.1687 20.5375 17.1464 20.4844C17.1242 20.4312 17.0916 20.383 17.0506 20.3425C17.0095 20.3021 16.9609 20.2702 16.9074 20.2487C16.8539 20.2272 16.7967 20.2166 16.7391 20.2174H11.5217ZM11.5217 21.9565C11.4641 21.9557 11.4069 21.9664 11.3535 21.9878C11.3 22.0093 11.2513 22.0412 11.2103 22.0817C11.1693 22.1221 11.1367 22.1703 11.1145 22.2235C11.0922 22.2766 11.0808 22.3337 11.0808 22.3913C11.0808 22.4489 11.0922 22.506 11.1145 22.5591C11.1367 22.6123 11.1693 22.6605 11.2103 22.7009C11.2513 22.7414 11.3 22.7733 11.3535 22.7948C11.4069 22.8163 11.4641 22.8269 11.5217 22.8261H18.4783C18.5359 22.8269 18.5931 22.8163 18.6465 22.7948C18.7 22.7733 18.7487 22.7414 18.7897 22.7009C18.8307 22.6605 18.8633 22.6123 18.8855 22.5591C18.9078 22.506 18.9192 22.4489 18.9192 22.3913C18.9192 22.3337 18.9078 22.2766 18.8855 22.2235C18.8633 22.1703 18.8307 22.1221 18.7897 22.0817C18.7487 22.0412 18.7 22.0093 18.6465 21.9878C18.5931 21.9664 18.5359 21.9557 18.4783 21.9565H11.5217Z" fill="#131032"/>
</svg>
