<svg width="21" height="20" viewBox="0 0 21 20" fill="none" xmlns="http://www.w3.org/2000/svg">
<path fill-rule="evenodd" clip-rule="evenodd" d="M15.4339 14.351C18.3074 10.9169 18.1336 5.79027 14.9125 2.56094C11.5067 -0.853645 5.98424 -0.853645 2.57839 2.56094C-0.826422 5.97448 -0.826422 11.5079 2.57839 14.9215C5.81834 18.169 10.9735 18.3272 14.4 15.3962L18.7689 19.7832C19.0554 20.0708 19.5208 20.0718 19.8084 19.7853C20.0961 19.4989 20.097 19.0335 19.8106 18.7458L15.4339 14.351ZM13.8717 3.5991C11.0402 0.760393 6.45066 0.760393 3.61921 3.5991C0.786729 6.43885 0.786729 11.0436 3.61915 13.8832C6.45061 16.7213 11.0403 16.7213 13.8717 13.8833C16.7042 11.0436 16.7042 6.43885 13.8717 3.5991Z" fill="#1F4274"/>
</svg>
