<svg width="30" height="30" viewBox="0 0 30 30" fill="none" xmlns="http://www.w3.org/2000/svg">
<path d="M20.2632 7C19.8427 7.00053 19.4281 7.09791 19.0514 7.28458C18.6747 7.47125 18.3461 7.7422 18.091 8.0764C17.8359 8.41061 17.6613 8.79908 17.5806 9.21168C17.4999 9.62429 17.5154 10.0499 17.6258 10.4556L17.5773 10.4794L11.9424 13.2961L11.8939 13.3199C11.6384 12.9913 11.3113 12.7254 10.9375 12.5422C10.5637 12.3591 10.1531 12.2637 9.73684 12.2632C9.01099 12.2632 8.31486 12.5515 7.8016 13.0648C7.28834 13.578 7 14.2741 7 15C7 15.7259 7.28834 16.422 7.8016 16.9352C8.31486 17.4485 9.01099 17.7368 9.73684 17.7368C10.1534 17.7366 10.5643 17.6412 10.9384 17.4581C11.3125 17.275 11.6399 17.0089 11.8956 16.6801L11.9424 16.7039L17.5773 19.5206L17.6234 19.5436C17.5127 19.9495 17.4972 20.3755 17.5779 20.7883C17.6587 21.2012 17.8335 21.59 18.0889 21.9243C18.3442 22.2587 18.6732 22.5297 19.0503 22.7162C19.4274 22.9028 19.8424 22.9999 20.2632 23C20.989 23 21.6851 22.7117 22.1984 22.1984C22.7117 21.6851 23 20.989 23 20.2632C23 19.5373 22.7117 18.8412 22.1984 18.3279C21.6851 17.8147 20.989 17.5263 20.2632 17.5263C19.8795 17.5269 19.5003 17.608 19.1501 17.7646C18.7999 17.9211 18.4865 18.1496 18.2303 18.435L18.1414 18.3906L12.5074 15.574L12.4194 15.5304C12.4882 15.1804 12.4879 14.8203 12.4186 14.4704L12.5074 14.426L18.1414 11.6094L18.2278 11.5658C18.4844 11.8514 18.7982 12.0799 19.1489 12.2363C19.4995 12.3927 19.8792 12.4736 20.2632 12.4737C20.989 12.4737 21.6851 12.1853 22.1984 11.6721C22.7117 11.1588 23 10.4627 23 9.73684C23 9.01099 22.7117 8.31486 22.1984 7.8016C21.6851 7.28834 20.989 7 20.2632 7Z" fill="#131032"/>
</svg>
