<svg width="30" height="30" viewBox="0 0 30 30" fill="none" xmlns="http://www.w3.org/2000/svg">
<path fill-rule="evenodd" clip-rule="evenodd" d="M8.76821 23.516C8.88818 23.6031 9.0304 23.6466 9.17165 23.6466C9.31291 23.6466 9.45416 23.6021 9.57413 23.516L14.7783 19.7331L19.9815 23.516C20.2234 23.6892 20.5475 23.6911 20.7875 23.516C21.0284 23.3409 21.128 23.0323 21.0371 22.7498L19.0508 16.6284L24.2734 12.8319C24.5143 12.6578 24.6139 12.3482 24.522 12.0657C24.4311 11.7831 24.1669 11.5916 23.8699 11.5916H17.4157L15.4304 5.47407C15.3385 5.19156 15.0763 5 14.7783 5C14.4813 5 14.2181 5.19156 14.1262 5.47407L12.1399 11.5916H5.68575C5.38873 11.5916 5.12557 11.7831 5.03366 12.0657C4.94174 12.3482 5.04236 12.6578 5.28327 12.8319L10.5058 16.6284L8.51956 22.7498C8.42765 23.0323 8.52827 23.3409 8.76821 23.516ZM15.1818 18.3312C15.0608 18.2441 14.9196 18.2006 14.7783 18.2006C14.6371 18.2006 14.4958 18.2441 14.3749 18.3312L10.4749 21.166L11.9639 16.5781C12.0558 16.2956 11.9552 15.986 11.7152 15.8118L7.79587 12.9625H12.6382C12.9352 12.9625 13.1984 12.7719 13.2903 12.4894L14.7783 7.90637L16.2654 12.4894C16.3573 12.7719 16.6204 12.9625 16.9175 12.9625H21.7608L17.8414 15.8118C17.6015 15.986 17.5009 16.2956 17.5928 16.5781L19.0818 21.166L15.1818 18.3312Z" fill="#1F4274"/>
</svg>
