<svg width="50" height="50" viewBox="0 0 50 50" fill="none" xmlns="http://www.w3.org/2000/svg">
<path d="M21.623 6.64388C21.5571 6.64531 21.4913 6.65153 21.4262 6.6625H9.38668C7.89798 6.6625 6.66276 7.89771 6.66276 9.38642V21.4153C6.63845 21.5624 6.63845 21.7124 6.66276 21.8595V33.9017C6.66276 35.3904 7.89798 36.6256 9.38668 36.6256H21.4156C21.5626 36.6499 21.7127 36.6499 21.8598 36.6256H33.902C35.3907 36.6256 36.6259 35.3904 36.6259 33.9017V21.8728C36.6502 21.7257 36.6502 21.5757 36.6259 21.4286V9.38642C36.6259 7.89771 35.3907 6.6625 33.902 6.6625H21.8545C21.778 6.64972 21.7006 6.64349 21.623 6.64388ZM9.38668 9.38642H20.2824V20.2821H9.38668V9.38642ZM23.0063 9.38642H33.902V20.2821H23.0063V9.38642ZM9.38668 23.006H20.2824V33.9017H9.38668V23.006ZM23.0063 23.006H33.902V33.9017H23.0063V23.006Z" fill="white"/>
</svg>
