<svg width="32" height="32" viewBox="0 0 32 32" fill="none" xmlns="http://www.w3.org/2000/svg">
<path d="M15.9999 1.12717e-05C15.8232 -0.00248744 15.6478 0.030154 15.4838 0.0960385C15.3199 0.161923 15.1706 0.259736 15.0448 0.383795C14.919 0.507853 14.8191 0.655682 14.7509 0.81869C14.6827 0.981698 14.6476 1.15663 14.6476 1.33333C14.6476 1.51003 14.6827 1.68497 14.7509 1.84798C14.8191 2.01099 14.919 2.15881 15.0448 2.28287C15.1706 2.40693 15.3199 2.50474 15.4838 2.57063C15.6478 2.63651 15.8232 2.66915 15.9999 2.66666C23.3792 2.66666 29.3331 8.62056 29.3331 15.9999C29.3331 23.3792 23.3792 29.3331 15.9999 29.3331C15.8232 29.3306 15.6478 29.3632 15.4838 29.4291C15.3199 29.495 15.1706 29.5928 15.0448 29.7169C14.919 29.8409 14.8191 29.9888 14.7509 30.1518C14.6827 30.3148 14.6476 30.4897 14.6476 30.6664C14.6476 30.8431 14.6827 31.0181 14.7509 31.1811C14.8191 31.3441 14.919 31.4919 15.0448 31.616C15.1706 31.74 15.3199 31.8378 15.4838 31.9037C15.6478 31.9696 15.8232 32.0022 15.9999 31.9997C24.8204 31.9997 31.9997 24.8204 31.9997 15.9999C31.9997 7.17933 24.8204 1.12717e-05 15.9999 1.12717e-05ZM10.3957 1.11719C10.218 1.11615 10.0418 1.15069 9.87752 1.21875C9.55101 1.35364 9.29138 1.6126 9.15565 1.93876C9.01991 2.26492 9.01916 2.63161 9.15357 2.95832C9.22035 3.12031 9.31841 3.26754 9.44213 3.39161C9.56585 3.51568 9.71281 3.61415 9.87461 3.68138C10.0364 3.74862 10.2099 3.7833 10.3851 3.78346C10.5603 3.78361 10.7338 3.74923 10.8957 3.68227C11.0577 3.61549 11.205 3.51744 11.329 3.39372C11.4531 3.27 11.5516 3.12303 11.6188 2.96123C11.686 2.79943 11.7207 2.62597 11.7209 2.45076C11.721 2.27554 11.6866 2.10202 11.6197 1.9401C11.5193 1.69773 11.3496 1.49038 11.1319 1.344C10.9141 1.19763 10.6581 1.11873 10.3957 1.11719ZM5.64839 4.29685C5.47025 4.29446 5.29343 4.32779 5.12838 4.39488C4.96334 4.46198 4.81341 4.56146 4.68746 4.68747C4.43748 4.93751 4.29704 5.2766 4.29704 5.63017C4.29704 5.98374 4.43748 6.32283 4.68746 6.57287C4.9375 6.82286 5.27659 6.96329 5.63016 6.96329C5.98373 6.96329 6.32282 6.82286 6.57286 6.57287C6.82285 6.32283 6.96328 5.98374 6.96328 5.63017C6.96328 5.2766 6.82285 4.93751 6.57286 4.68747C6.32734 4.44183 5.99566 4.30168 5.64839 4.29685ZM2.47915 9.05462C2.21062 9.04888 1.94661 9.12437 1.72171 9.2712C1.49681 9.41804 1.3215 9.62938 1.21874 9.87753C1.15171 10.0393 1.1172 10.2127 1.11717 10.3878C1.11715 10.5629 1.15161 10.7362 1.2186 10.898C1.28558 11.0598 1.38377 11.2068 1.50757 11.3306C1.63136 11.4544 1.77833 11.5527 1.94009 11.6197C2.102 11.6867 2.27553 11.721 2.45074 11.7209C2.62596 11.7207 2.79942 11.6861 2.96122 11.6188C3.12302 11.5516 3.26998 11.4531 3.3937 11.329C3.51743 11.205 3.61548 11.0577 3.68226 10.8958C3.74921 10.7338 3.7836 10.5603 3.78344 10.3851C3.78329 10.2099 3.74861 10.0364 3.68137 9.87462C3.61414 9.71282 3.51567 9.56586 3.3916 9.44214C3.26753 9.31842 3.1203 9.22036 2.95831 9.15358C2.80606 9.09132 2.6436 9.05777 2.47915 9.05462ZM23.9738 10.6536C23.6274 10.6639 23.2986 10.8087 23.0571 11.0572L14.6665 19.4478L11.6093 16.3905C11.4864 16.2625 11.3393 16.1604 11.1764 16.09C11.0136 16.0196 10.8383 15.9824 10.661 15.9806C10.4836 15.9788 10.3076 16.0124 10.1434 16.0795C9.97913 16.1465 9.82993 16.2457 9.70449 16.3711C9.57905 16.4966 9.47991 16.6458 9.41285 16.81C9.3458 16.9742 9.31219 17.1502 9.314 17.3276C9.31581 17.505 9.35299 17.6802 9.42337 17.843C9.49375 18.0059 9.59591 18.153 9.72388 18.2759L13.7238 22.2759C13.9739 22.5258 14.313 22.6662 14.6665 22.6662C15.0201 22.6662 15.3592 22.5258 15.6092 22.2759L24.9425 12.9426C25.1352 12.7553 25.2668 12.5142 25.32 12.2509C25.3733 11.9875 25.3458 11.7142 25.2411 11.4667C25.1364 11.2193 24.9593 11.0093 24.7332 10.8642C24.507 10.719 24.2423 10.6456 23.9738 10.6536ZM1.33332 14.6666C0.979703 14.6666 0.640567 14.807 0.390521 15.0571C0.140475 15.3071 0 15.6463 0 15.9999C0 16.3535 0.140475 16.6926 0.390521 16.9427C0.640567 17.1927 0.979703 17.3332 1.33332 17.3332C1.68694 17.3332 2.02608 17.1927 2.27612 16.9427C2.52617 16.6926 2.66664 16.3535 2.66664 15.9999C2.66664 15.6463 2.52617 15.3071 2.27612 15.0571C2.02608 14.807 1.68694 14.6666 1.33332 14.6666ZM2.45831 20.2785C2.28053 20.2775 2.10433 20.312 1.94009 20.38C1.77833 20.4471 1.63136 20.5453 1.50757 20.6691C1.38377 20.793 1.28558 20.94 1.2186 21.1017C1.15161 21.2635 1.11715 21.4369 1.11717 21.612C1.1172 21.7871 1.15171 21.9605 1.21874 22.1222C1.28552 22.2842 1.38357 22.4314 1.5073 22.5555C1.63102 22.6796 1.77798 22.778 1.93978 22.8453C2.10158 22.9125 2.27504 22.9472 2.45026 22.9474C2.62547 22.9475 2.799 22.9131 2.96091 22.8462C3.12267 22.7791 3.26964 22.6809 3.39343 22.5571C3.51723 22.4333 3.61542 22.2863 3.6824 22.1245C3.74939 21.9627 3.78385 21.7893 3.78383 21.6142C3.7838 21.4391 3.74929 21.2658 3.68226 21.104C3.58224 20.8611 3.41271 20.6532 3.19497 20.5064C2.97722 20.3595 2.72095 20.2802 2.45831 20.2785ZM5.64839 25.0363C5.47025 25.0339 5.29343 25.0672 5.12838 25.1343C4.96334 25.2014 4.81341 25.3009 4.68746 25.4269C4.43748 25.6769 4.29704 26.016 4.29704 26.3696C4.29704 26.7232 4.43748 27.0622 4.68746 27.3123C4.9375 27.5623 5.27659 27.7027 5.63016 27.7027C5.98373 27.7027 6.32282 27.5623 6.57286 27.3123C6.82285 27.0622 6.96328 26.7232 6.96328 26.3696C6.96328 26.016 6.82285 25.6769 6.57286 25.4269C6.32734 25.1812 5.99566 25.0411 5.64839 25.0363ZM10.4166 28.2159C10.148 28.2102 9.88404 28.2857 9.65914 28.4325C9.43424 28.5793 9.25893 28.7907 9.15617 29.0388C9.08914 29.2006 9.05463 29.374 9.05461 29.5491C9.05458 29.7242 9.08905 29.8975 9.15603 30.0593C9.22301 30.2211 9.32121 30.3681 9.445 30.4919C9.56879 30.6157 9.71576 30.714 9.87752 30.781C10.0393 30.848 10.2127 30.8825 10.3877 30.8826C10.5628 30.8826 10.7362 30.8481 10.898 30.7811C11.0598 30.7142 11.2068 30.616 11.3306 30.4922C11.4544 30.3684 11.5527 30.2214 11.6197 30.0597C11.6867 29.8979 11.7212 29.7245 11.7213 29.5494C11.7213 29.3743 11.6868 29.2009 11.6198 29.0392C11.5529 28.8774 11.4547 28.7304 11.3309 28.6066C11.2071 28.4827 11.0601 28.3845 10.8983 28.3175C10.7455 28.254 10.5821 28.2196 10.4166 28.2159Z" fill="white"/>
</svg>
