<svg width="156" height="38" viewBox="0 0 156 38" fill="none" xmlns="http://www.w3.org/2000/svg">
<path d="M0.884628 1.22461C0.783066 1.56315 0.766139 2.41797 0.833847 3.78906C0.884628 5.1263 0.986191 6.07422 1.13853 6.63281C1.8664 6.81901 2.84817 6.91211 4.08385 6.91211H4.84557L5.58189 6.88672C6.17434 6.90365 6.68215 6.92904 7.10533 6.96289L7.15611 7.29297L7.1815 7.57227C7.21536 7.79232 7.23228 7.97852 7.23228 8.13086L7.15611 15.0625C7.12226 17.7708 7.07994 20.0814 7.02916 21.9941L6.80064 29.4844L6.54674 37H10.6092L10.5838 36.3145L10.5585 35.6035L10.5077 28.6719C10.4907 25.9466 10.4907 23.6361 10.5077 21.7402C10.5415 19.7936 10.6008 17.4831 10.6854 14.8086L10.9139 7.90234C10.9139 7.42839 10.9647 7.14062 11.0663 7.03906C11.1509 6.97135 11.4302 6.92057 11.9042 6.88672C13.343 6.76823 14.951 6.60742 16.7284 6.4043C17.1346 6.35352 17.3801 6.27734 17.4647 6.17578C17.5493 6.07422 17.5917 5.82031 17.5917 5.41406L17.6171 1.17383C17.6171 1.1569 17.5747 0.98763 17.4901 0.666016C15.2726 0.953776 12.5051 1.11458 9.18736 1.14844L7.10533 1.17383H5.0233C3.34752 1.17383 1.96796 1.19076 0.884628 1.22461ZM39.828 26.793C39.9296 26.319 40.065 25.6842 40.2342 24.8887L40.4628 23.9238L40.6913 22.959C41.0298 21.3678 41.2499 19.9375 41.3514 18.668C41.3853 17.6354 41.3599 16.696 41.2753 15.8496C41.1737 14.6986 40.9621 13.6491 40.6405 12.7012C40.2173 11.4147 39.5656 9.69661 38.6854 7.54688C38.3299 6.68359 37.9575 5.98958 37.5682 5.46484C36.1633 3.63672 34.5044 2.22331 32.5917 1.22461C31.0851 0.445964 29.7648 0.412109 28.6307 1.12305L28.2499 1.35156L27.869 1.58008C27.5812 1.74935 27.3527 1.93555 27.1835 2.13867C24.746 5.23633 23.2564 8.67253 22.7147 12.4473C22.3592 14.9186 22.2238 17.3984 22.3085 19.8867C22.4439 23.4922 22.9432 26.3952 23.8065 28.5957C24.6529 30.7285 25.6008 32.4974 26.6503 33.9023C28.106 35.8659 30.1711 36.8984 32.8456 37C33.6919 37.0339 34.3944 36.7207 34.953 36.0605L35.4862 35.4258L36.0702 34.791C37.8644 32.709 38.9816 30.5846 39.4217 28.418L39.6249 27.6055L39.828 26.793ZM63.6131 26.793C63.7147 26.319 63.8501 25.6842 64.0194 24.8887L64.2479 23.9238L64.4764 22.959C64.815 21.3678 65.035 19.9375 65.1366 18.668C65.1704 17.6354 65.145 16.696 65.0604 15.8496C64.9588 14.6986 64.7473 13.6491 64.4256 12.7012C64.0025 11.4147 63.3508 9.69661 62.4706 7.54688C62.1151 6.68359 61.7427 5.98958 61.3534 5.46484C59.9484 3.63672 58.2896 2.22331 56.3768 1.22461C54.8703 0.445964 53.55 0.412109 52.4159 1.12305L52.035 1.35156L51.6542 1.58008C51.3664 1.74935 51.1379 1.93555 50.9686 2.13867C48.5311 5.23633 47.0415 8.67253 46.4999 12.4473C46.1444 14.9186 46.009 17.3984 46.0936 19.8867C46.229 23.4922 46.7284 26.3952 47.5917 28.5957C48.438 30.7285 49.3859 32.4974 50.4354 33.9023C51.8911 35.8659 53.9562 36.8984 56.6307 37C57.4771 37.0339 58.1796 36.7207 58.7381 36.0605L59.2713 35.4258L59.8553 34.791C61.6496 32.709 62.7668 30.5846 63.2069 28.418L63.41 27.6055L63.6131 26.793ZM83.2342 35.9336C83.1157 34.8333 83.0311 33.987 82.9803 33.3945C82.9465 32.8698 82.8703 32.5482 82.7518 32.4297C82.6503 32.3281 82.3371 32.2435 81.8124 32.1758C79.8996 31.9557 77.9361 31.6934 75.9217 31.3887C75.5324 31.3379 75.287 31.2533 75.1854 31.1348C75.1008 31.0332 75.05 30.7878 75.0331 30.3984L74.7792 25.2188C74.6776 23.2044 74.6014 21.4863 74.5506 20.0645L74.2967 11.1777L74.0428 2.29102C74.0259 1.9694 74.0005 1.72396 73.9667 1.55469L73.8905 0.539062H69.7518V3.4082L69.7772 5.97266L69.9042 11.6855L70.0565 17.4238L70.2596 21.7148L70.4881 26.0059L71.0213 34.8164V35.0703C71.0213 35.1719 71.0383 35.2734 71.0721 35.375L71.2499 37H83.2342L83.2088 36.3652C83.2427 36.2637 83.2512 36.1198 83.2342 35.9336ZM104.887 0.208984C104.785 0.208984 104.667 0.251302 104.531 0.335938C104.396 0.403646 104.294 0.488281 104.226 0.589844L102.246 3.25586L100.316 5.94727L97.1678 10.2891L93.994 14.6055C93.9094 14.724 93.7909 14.8763 93.6385 15.0625L93.41 15.291L93.1815 15.5703C93.0969 15.0625 93.0546 14.8001 93.0546 14.7832L93.1053 13.6914L93.1561 12.5742L93.3085 2.18945L93.2831 1.68164V1.58008V0.513672H88.9667V2.39258L88.9413 3.35742L88.8905 7.19141L88.7889 11.0508L88.535 17.4746L88.2811 23.8984L87.8241 35.0449V35.0703L87.7987 35.5781C87.7987 35.849 87.8072 36.0605 87.8241 36.2129V36.9492H88.4081L88.6366 37H89.2967L89.9569 36.9746H91.6327L91.7088 36.1113C91.7427 35.9251 91.7766 35.5866 91.8104 35.0957L92.1151 29.3066C92.2505 26.9199 92.3521 24.9818 92.4198 23.4922C92.4367 22.8828 92.6568 22.3411 93.0799 21.8672C93.2154 21.6979 93.4185 21.4948 93.6893 21.2578L94.0194 20.9785L94.3241 20.6992C94.8488 21.0378 95.1366 21.5964 95.1874 22.375C95.4413 26.2174 96.2199 29.6029 97.5233 32.5312C98.2512 34.1562 99.0806 35.2904 100.012 35.9336C100.959 36.5938 101.814 36.8815 102.576 36.7969C103.287 36.6953 104.049 36.2383 104.861 35.4258C105.251 35.0534 105.674 34.5625 106.131 33.9531C106.74 33.1745 107.214 32.5059 107.553 31.9473C107.637 31.8457 107.688 31.7103 107.705 31.541C107.722 31.3548 107.696 31.2194 107.629 31.1348C107.51 30.9316 107.341 30.7031 107.121 30.4492L106.842 30.1191L106.537 29.7637L105.978 30.1953L105.471 30.627C105.064 30.9486 104.726 31.2109 104.455 31.4141C103.744 31.9388 103.025 32.2435 102.297 32.3281C101.84 32.3958 101.467 32.2435 101.18 31.8711C100.452 30.9232 99.9016 29.6283 99.5292 27.9863C99.326 27.14 99.1144 26.1243 98.8944 24.9395L98.3104 21.8672L97.9296 19.8105L97.5233 17.7793C97.4387 17.3053 97.5572 16.8737 97.8788 16.4844L99.0213 15.0625L100.164 13.6152L101.51 11.9902L102.83 10.3906L103.973 8.94336L105.09 7.49609L105.648 6.78516L106.207 6.07422L106.639 5.43945L107.096 4.80469C107.451 4.29688 107.773 3.89062 108.06 3.58594C108.653 2.94271 109.042 1.93555 109.228 0.564453L109.076 0.488281L108.974 0.4375L106.918 0.310547L104.887 0.208984ZM131.871 37C132.209 37.0169 132.43 36.9831 132.531 36.8984C132.633 36.8138 132.692 36.5938 132.709 36.2383L132.861 34.0039C132.878 33.75 132.912 33.3607 132.963 32.8359H131.998L129.459 32.7598L126.894 32.6582C126.437 32.6413 126.158 32.5736 126.057 32.4551C125.955 32.3535 125.921 32.0742 125.955 31.6172L126.133 27.0723L126.387 22.5273L126.666 18.0078L126.971 13.4629C127.021 12.735 127.064 11.8125 127.098 10.6953L127.174 7.92773C127.191 7.4707 127.275 7.16602 127.428 7.01367C127.563 6.86133 127.859 6.77669 128.316 6.75977C128.672 6.74284 129.112 6.7513 129.637 6.78516L130.982 6.83594L131.82 6.86133L132.633 6.88672C133.09 6.88672 133.403 6.70898 133.572 6.35352L133.724 6.02344L133.877 5.64258C133.978 5.37174 134.038 5.1263 134.055 4.90625C134.105 4.48307 134.148 3.9668 134.182 3.35742L134.232 1.96094C134.232 1.89323 134.215 1.73242 134.182 1.47852V0.513672L117.373 0.488281L117.246 1.22461L117.119 1.93555C117.034 2.47721 116.967 2.93424 116.916 3.30664C116.899 3.49284 116.89 3.65365 116.89 3.78906C116.89 3.99219 116.907 4.15299 116.941 4.27148L117.043 5.0332L120.674 5.46484L121.182 5.56641C121.706 5.6849 122.036 5.8457 122.172 6.04883C122.29 6.23503 122.333 6.59896 122.299 7.14062L121.918 11.1777C121.782 12.735 121.672 14.0892 121.588 15.2402C121.503 16.5944 121.402 18.3971 121.283 20.6484L121.004 26.0566C120.919 27.5124 120.784 29.3236 120.598 31.4902C120.547 32.0319 120.454 32.362 120.318 32.4805C120.2 32.582 119.861 32.6159 119.303 32.582L117.525 32.4551L115.748 32.3027L115.24 32.2773H114.961L114.656 32.252L114.428 33.3184L114.224 34.3848C114.055 35.2142 113.903 35.9421 113.767 36.5684L114.072 36.6191L114.377 36.6699C114.58 36.7038 114.758 36.7207 114.91 36.7207L116.383 36.6699L117.855 36.6191C121.207 36.6191 124.118 36.6445 126.59 36.6953C127.114 36.6953 127.749 36.7207 128.494 36.7715L130.398 36.873L131.135 36.9238L131.871 37ZM138.924 1.22461C138.822 1.56315 138.805 2.41797 138.873 3.78906C138.924 5.1263 139.025 6.07422 139.178 6.63281C139.905 6.81901 140.887 6.91211 142.123 6.91211H142.885L143.621 6.88672C144.213 6.90365 144.721 6.92904 145.144 6.96289L145.195 7.29297L145.221 7.57227C145.254 7.79232 145.271 7.97852 145.271 8.13086L145.195 15.0625C145.161 17.7708 145.119 20.0814 145.068 21.9941L144.84 29.4844L144.586 37H148.648L148.623 36.3145L148.598 35.6035L148.547 28.6719C148.53 25.9466 148.53 23.6361 148.547 21.7402C148.581 19.7936 148.64 17.4831 148.724 14.8086L148.953 7.90234C148.953 7.42839 149.004 7.14062 149.105 7.03906C149.19 6.97135 149.469 6.92057 149.943 6.88672C151.382 6.76823 152.99 6.60742 154.767 6.4043C155.174 6.35352 155.419 6.27734 155.504 6.17578C155.588 6.07422 155.631 5.82031 155.631 5.41406L155.656 1.17383C155.656 1.1569 155.614 0.98763 155.529 0.666016C153.312 0.953776 150.544 1.11458 147.226 1.14844L145.144 1.17383H143.062C141.387 1.17383 140.007 1.19076 138.924 1.22461Z" fill="white"/>
</svg>
