<svg width="21" height="20" viewBox="0 0 21 20" fill="none" xmlns="http://www.w3.org/2000/svg">
<path d="M16.0859 7.7193C16.0859 7.60091 16.0835 7.48306 16.0782 7.3657C16.6124 6.97957 17.0766 6.49769 17.4428 5.94914C16.9527 6.16704 16.4252 6.31371 15.8719 6.37984C16.4366 6.04118 16.8702 5.50543 17.0748 4.86677C16.5462 5.18011 15.9609 5.4078 15.3377 5.53075C14.8385 4.99903 14.1278 4.6665 13.3409 4.6665C11.8302 4.6665 10.6051 5.89156 10.6051 7.40172C10.6051 7.61639 10.6291 7.82516 10.6761 8.02543C8.40241 7.91107 6.38639 6.82252 5.03736 5.16726C4.80241 5.57156 4.66693 6.04118 4.66693 6.54221C4.66693 7.49129 5.14984 8.32919 5.88425 8.8193C5.43543 8.80543 5.01387 8.68225 4.64532 8.47715C4.64492 8.48865 4.64492 8.49984 4.64492 8.51214C4.64492 9.83693 5.58787 10.9431 6.83959 11.1938C6.60975 11.2564 6.36787 11.29 6.11825 11.29C5.94228 11.29 5.77082 11.2727 5.60411 11.2407C5.95239 12.3276 6.96228 13.1186 8.15964 13.1407C7.22335 13.8746 6.04389 14.3117 4.76196 14.3117C4.54147 14.3117 4.32357 14.2991 4.10944 14.2738C5.32013 15.0498 6.75776 15.5026 8.30281 15.5026C13.3345 15.5026 16.0859 11.334 16.0859 7.7193Z" fill="white"/>
</svg>
