<svg width="50" height="50" viewBox="0 0 50 50" fill="none" xmlns="http://www.w3.org/2000/svg">
<path d="M14.0441 13C11.8237 13 10 14.8237 10 17.0441V33.9559C10 36.1763 11.8237 38 14.0441 38H36.8382C39.0587 38 40.8824 36.1763 40.8824 33.9559V17.0441C40.8824 14.8237 39.0587 13 36.8382 13H14.0441ZM14.0441 15.2059H36.8382C37.8663 15.2059 38.6765 16.016 38.6765 17.0441V33.9559C38.6765 34.984 37.8663 35.7941 36.8382 35.7941H14.0441C13.016 35.7941 12.2059 34.984 12.2059 33.9559V17.0441C12.2059 16.016 13.016 15.2059 14.0441 15.2059ZM23.2166 20.3529C22.9647 20.3562 22.7142 20.4234 22.4899 20.5554C22.0407 20.8201 21.7647 21.3029 21.7647 21.8235V29.1765C21.7647 29.6971 22.0407 30.1799 22.4899 30.4446C22.7194 30.5799 22.9772 30.6471 23.2353 30.6471C23.4809 30.6471 23.727 30.5846 23.949 30.4618L30.5667 26.7853C31.0336 26.5258 31.3235 26.0346 31.3235 25.5C31.3235 24.9654 31.0336 24.4742 30.5667 24.2147L23.949 20.5382C23.7215 20.4117 23.4686 20.3497 23.2166 20.3529Z" fill="white"/>
</svg>
