<svg width="70" height="50" viewBox="0 0 70 50" fill="none" xmlns="http://www.w3.org/2000/svg">
<path fill-rule="evenodd" clip-rule="evenodd" d="M66.0378 4.55052C63.6747 2.07536 61.054 1.82054 59.5735 1.67658C59.4117 1.66085 59.2636 1.64645 59.1309 1.63061C49.4847 0.93335 35.0148 0.93335 35.0148 0.93335C34.9849 0.93335 20.5154 0.93335 10.8688 1.63061C10.7361 1.64644 10.588 1.66085 10.4263 1.67657C8.94589 1.82053 6.32596 2.0753 3.96196 4.55052C1.89513 6.64238 1.22257 11.3926 1.22257 11.3926C1.22257 11.3926 0.533203 16.971 0.533203 22.5493V27.779C0.533203 33.3573 1.22257 38.9356 1.22257 38.9356C1.22257 38.9356 1.89513 43.6859 3.96196 45.7778C6.136 48.054 8.87525 48.3834 10.6224 48.5935C10.9826 48.6368 11.3006 48.6751 11.5628 48.7243C17.0776 49.2531 34.9999 49.4167 34.9999 49.4167C34.9999 49.4167 49.4847 49.3949 59.1309 48.6976C59.2635 48.6818 59.4114 48.6674 59.573 48.6517L59.5733 48.6517C61.0538 48.5078 63.6746 48.253 66.0378 45.7778C68.1045 43.6859 68.7782 38.9356 68.7782 38.9356C68.7782 38.9356 69.4665 33.3573 69.4665 27.779V22.5493C69.4665 16.971 68.7782 11.3926 68.7782 11.3926C68.7782 11.3926 68.1045 6.64238 66.0378 4.55052ZM27.8829 34.1164L27.8797 14.748L44.2125 25.6543L27.8829 34.1164Z" fill="white"/>
</svg>
