<?xml version="1.0" encoding="UTF-8"?>
<svg width="30px" height="30px" viewBox="0 0 30 30" version="1.1" xmlns="http://www.w3.org/2000/svg" xmlns:xlink="http://www.w3.org/1999/xlink">
    <title>4EF6642F-E795-459C-A95B-C1A8474CAD05</title>
    <g id="01---Home" stroke="none" stroke-width="1" fill="none" fill-rule="evenodd">
        <g id="Mobile/Home/Home" transform="translate(-15.000000, -15.000000)" fill="#FFFFFF" fill-rule="nonzero">
            <g id="Group-4" transform="translate(0.000000, 3.000000)">
                <g id="icon/header/hamburger-(menu)" transform="translate(15.000000, 12.000000)">
                    <path d="M25.5961538,21.7807692 C25.9827532,21.7807692 26.2961538,22.0941699 26.2961538,22.4807692 C26.2961538,22.8673686 25.9827532,23.1807692 25.5961538,23.1807692 L5.40384615,23.1807692 C5.01724683,23.1807692 4.70384615,22.8673686 4.70384615,22.4807692 C4.70384615,22.0941699 5.01724683,21.7807692 5.40384615,21.7807692 L25.5961538,21.7807692 Z M25.5961538,14.3769231 C25.9827532,14.3769231 26.2961538,14.6903238 26.2961538,15.0769231 C26.2961538,15.4635224 25.9827532,15.7769231 25.5961538,15.7769231 L5.40384615,15.7769231 C5.01724683,15.7769231 4.70384615,15.4635224 4.70384615,15.0769231 C4.70384615,14.6903238 5.01724683,14.3769231 5.40384615,14.3769231 L25.5961538,14.3769231 Z M25.5961538,6.97307692 C25.9827532,6.97307692 26.2961538,7.2864776 26.2961538,7.67307692 C26.2961538,8.05967625 25.9827532,8.37307692 25.5961538,8.37307692 L5.40384615,8.37307692 C5.01724683,8.37307692 4.70384615,8.05967625 4.70384615,7.67307692 C4.70384615,7.2864776 5.01724683,6.97307692 5.40384615,6.97307692 L25.5961538,6.97307692 Z" id="menu-icon"></path>
                </g>
            </g>
        </g>
    </g>
</svg>