<?xml version="1.0" encoding="UTF-8"?>
<svg width="26px" height="26px" viewBox="0 0 26 26" version="1.1" xmlns="http://www.w3.org/2000/svg" xmlns:xlink="http://www.w3.org/1999/xlink">
    <title>BBDDF347-48C4-4E22-AA0B-A8C4D17C44A3</title>
    <g id="01---Home" stroke="none" stroke-width="1" fill="none" fill-rule="evenodd">
        <g id="Mobile/Home/Home" transform="translate(-327.000000, -17.000000)" fill="#FFFFFF" fill-rule="nonzero">
            <g id="Group-4" transform="translate(0.000000, 3.000000)">
                <g id="Group-3" transform="translate(15.000000, 12.000000)">
                    <g id="Group-2" transform="translate(310.000000, 0.000000)">
                        <g id="icon/general/location-(store-locator)" transform="translate(2.000000, 2.000000)">
                            <path d="M20.0054105,10.8831594 L20.0055548,10.8979045 C20.0036245,12.1333608 19.652274,13.3430738 18.9819536,14.4028631 L14.6178608,20.8887759 C14.4772698,21.0977222 14.2975354,21.2774566 14.0885892,21.4180475 C13.1950693,22.0192587 11.9833504,21.7822958 11.3821392,20.8887759 L7.00792179,14.3873427 C6.34772602,13.3430738 5.99637554,12.1333608 5.99458946,10.8831594 C6.07481576,7.08581856 9.21534339,4.07091203 12.9872044,4.14568151 C16.7846566,4.07091203 19.9251842,7.08581856 20.0054105,10.8831594 Z M13.2079058,5.44533119 L12.9872044,5.4454296 C9.90685392,5.38477941 7.35937598,7.83035822 7.29444365,10.8958733 C7.29599078,11.8860913 7.57759812,12.855676 8.09662027,13.6771369 L12.4607131,20.1630498 C12.6611168,20.4608898 13.0650231,20.5398774 13.3628631,20.3394737 C13.4325118,20.29261 13.4924233,20.2326985 13.5392869,20.1630498 L17.8932551,13.6926573 C18.4210913,12.857749 18.7026128,11.8908933 18.7055397,10.9032305 C18.6381922,7.89970546 16.2104911,5.50145563 13.2079058,5.44533119 Z M13,7.62377778 C14.6092418,7.62377778 15.9264444,8.87746051 15.9264444,10.4404444 C15.9264444,12.0034284 14.6092418,13.2571111 13,13.2571111 C11.3907582,13.2571111 10.0735556,12.0034284 10.0735556,10.4404444 C10.0735556,8.87746051 11.3907582,7.62377778 13,7.62377778 Z M13,8.92377778 C12.0947507,8.92377778 11.3735556,9.61019446 11.3735556,10.4404444 C11.3735556,11.2706944 12.0947507,11.9571111 13,11.9571111 C13.9052493,11.9571111 14.6264444,11.2706944 14.6264444,10.4404444 C14.6264444,9.61019446 13.9052493,8.92377778 13,8.92377778 Z" id="pin-icon"></path>
                        </g>
                    </g>
                </g>
            </g>
        </g>
    </g>
</svg>