<svg xmlns:mydata="http://www.w3.org/2000/svg" mydata:contrastcolor="ffffff" mydata:template="Contrast" mydata:presentation="2.5" mydata:layouttype="undefined" mydata:specialfontid="undefined" mydata:id1="855" mydata:id2="145" mydata:companyname="vsbookcollection" mydata:companytagline="" version="1.1" xmlns="http://www.w3.org/2000/svg" xmlns:xlink="http://www.w3.org/1999/xlink" viewBox="0 0 550 470">
                            <g fill="#d22630" fill-rule="nonzero" stroke="none" stroke-width="1" stroke-linecap="butt" stroke-linejoin="miter" stroke-miterlimit="10" stroke-dasharray="" stroke-dashoffset="0" font-family="none" font-weight="none" font-size="none" text-anchor="none" style="mix-blend-mode: normal">
                              <g data-paper-data="{&quot;isGlobalGroup&quot;:true,&quot;bounds&quot;:{&quot;x&quot;:65,&quot;y&quot;:168.3437262357414,&quot;width&quot;:420,&quot;height&quot;:133.31254752851711}}">
                                <g data-paper-data="{&quot;isPrimaryText&quot;:true}">
                                  <path d="M81.45437,285.2019l1.88213,-7.04373h-18.3365l6.73004,7.04373zM84.81939,290.81977l-4.96198,3.79278h-0.91255l1.88213,-7.04373h-9.72433l-3.13688,11.72053l1.79658,2.36692h12.46198l11.8346,-9.03992l3.84981,-14.45817h-9.72433z" data-paper-data="{&quot;glyphName&quot;:&quot;V&quot;,&quot;glyphIndex&quot;:0,&quot;firstGlyphOfWord&quot;:true,&quot;word&quot;:1}"></path>
                                  <path d="M116.35932,301.65627l3.05133,-2.3384l2.85171,-10.57985l-0.91255,-1.1692h-13.37452l0.62738,-2.3384h14.60076l1.88213,-7.04373h-21.87262l-3.05133,2.3384l-2.53802,9.38213l1.79658,2.36692h12.17681l-0.62738,2.3384h-14.60076l-1.88213,7.04373z" data-paper-data="{&quot;glyphName&quot;:&quot;s&quot;,&quot;glyphIndex&quot;:1,&quot;word&quot;:1}"></path>
                                  <path d="M146.58745,299.31787l1.91065,-7.04373l-1.8251,-2.36692l3.07985,-2.3384l1.88213,-7.04373l-1.79658,-2.3384h-21.87262l-6.30228,23.46958h21.87262zM138.14639,294.61255h-4.87643l0.62738,-2.3384h4.87643zM140.02852,287.56882h-4.87643l0.62738,-2.3384h4.87643z" data-paper-data="{&quot;glyphName&quot;:&quot;b&quot;,&quot;glyphIndex&quot;:2,&quot;word&quot;:1}"></path>
                                  <path d="M170.65589,301.65627l3.05133,-2.36692l5.04753,-18.76426l-1.79658,-2.36692h-19.44867l-3.07985,2.36692l-5.01901,18.76426l1.79658,2.36692zM165.26616,294.61255h-4.87643l2.50951,-9.41065h4.87643z" data-paper-data="{&quot;glyphName&quot;:&quot;o&quot;,&quot;glyphIndex&quot;:3,&quot;word&quot;:1}"></path>
                                  <path d="M197.77567,301.65627l3.05133,-2.36692l5.04753,-18.76426l-1.79658,-2.36692h-19.44867l-3.07985,2.36692l-5.01901,18.76426l1.79658,2.36692zM192.38593,294.61255h-4.87643l2.50951,-9.41065h4.87643z" data-paper-data="{&quot;glyphName&quot;:&quot;o&quot;,&quot;glyphIndex&quot;:4,&quot;word&quot;:1}"></path>
                                  <path d="M231.19772,287.56882l2.50951,-9.38213h-9.72433l-1.88213,7.04373l-3.05133,2.3384h-2.45247l2.53802,-9.38213h-9.72433l-6.30228,23.46958h9.72433l2.50951,-9.38213h2.42395l1.8251,2.3384l-1.91065,7.04373h9.72433l2.53802,-9.38213l-1.8251,-2.36692z" data-paper-data="{&quot;glyphName&quot;:&quot;k&quot;,&quot;glyphIndex&quot;:5,&quot;word&quot;:1}"></path>
                                  <path d="M258.31749,287.56882l1.88213,-7.04373l-1.79658,-2.3384h-19.44867l-3.07985,2.3384l-5.01901,18.79278l1.79658,2.3384h19.44867l3.05133,-2.3384l1.91065,-7.04373h-9.72433l-0.62738,2.3384h-4.87643l2.50951,-9.38213h4.87643l-0.62738,2.3384z" data-paper-data="{&quot;glyphName&quot;:&quot;c&quot;,&quot;glyphIndex&quot;:6,&quot;word&quot;:1}"></path>
                                  <path d="M279.22053,301.65627l3.05133,-2.36692l5.04753,-18.76426l-1.79658,-2.36692h-19.44867l-3.07985,2.36692l-5.01901,18.76426l1.79658,2.36692zM273.8308,294.61255h-4.87643l2.50951,-9.41065h4.87643z" data-paper-data="{&quot;glyphName&quot;:&quot;o&quot;,&quot;glyphIndex&quot;:7,&quot;word&quot;:1}"></path>
                                  <path d="M300.57985,278.18669h-9.72433l-6.30228,23.46958h21.87262l1.88213,-7.04373h-12.14829z" data-paper-data="{&quot;glyphName&quot;:&quot;l&quot;,&quot;glyphIndex&quot;:8,&quot;word&quot;:1}"></path>
                                  <path d="M325.27567,278.18669h-9.72433l-6.30228,23.46958h21.87262l1.88213,-7.04373h-12.14829z" data-paper-data="{&quot;glyphName&quot;:&quot;l&quot;,&quot;glyphIndex&quot;:9,&quot;word&quot;:1}"></path>
                                  <path d="M362.6616,285.23042l1.88213,-7.04373h-21.87262l-3.07985,2.3384l-5.01901,18.79278l1.79658,2.3384h21.87262l1.88213,-7.04373h-14.57224l0.62738,-2.3384h12.14829l1.25475,-4.70532h-12.14829l0.62738,-2.3384z" data-paper-data="{&quot;glyphName&quot;:&quot;e&quot;,&quot;glyphIndex&quot;:10,&quot;word&quot;:1}"></path>
                                  <path d="M389.15399,287.56882l1.88213,-7.04373l-1.79658,-2.3384h-19.44867l-3.07985,2.3384l-5.01901,18.79278l1.79658,2.3384h19.44867l3.05133,-2.3384l1.91065,-7.04373h-9.72433l-0.62738,2.3384h-4.87643l2.50951,-9.38213h4.87643l-0.62738,2.3384z" data-paper-data="{&quot;glyphName&quot;:&quot;c&quot;,&quot;glyphIndex&quot;:11,&quot;word&quot;:1}"></path>
                                  <path d="M404.95247,301.65627l4.42015,-16.42586h7.27186l1.91065,-7.04373h-24.3251l-1.88213,7.04373h7.30038l-4.42015,16.42586z" data-paper-data="{&quot;glyphName&quot;:&quot;t&quot;,&quot;glyphIndex&quot;:12,&quot;word&quot;:1}"></path>
                                  <path d="M415.27567,301.65627h9.72433l6.30228,-23.46958h-9.72433z" data-paper-data="{&quot;glyphName&quot;:&quot;i&quot;,&quot;glyphIndex&quot;:13,&quot;word&quot;:1}"></path>
                                  <path d="M449.69582,301.65627l3.05133,-2.36692l5.04753,-18.76426l-1.79658,-2.36692h-19.44867l-3.07985,2.36692l-5.01901,18.76426l1.79658,2.36692zM444.30608,294.61255h-4.87643l2.50951,-9.41065h4.87643z" data-paper-data="{&quot;glyphName&quot;:&quot;o&quot;,&quot;glyphIndex&quot;:14,&quot;word&quot;:1}"></path>
                                  <path d="M479.3251,301.65627l5.6749,-21.13118l-1.79658,-2.3384h-19.44867l-3.05133,2.3384l-5.6749,21.13118h9.72433l4.39163,-16.42586h4.87643l-4.42015,16.42586z" data-paper-data="{&quot;glyphName&quot;:&quot;n&quot;,&quot;glyphIndex&quot;:15,&quot;lastGlyphOfWord&quot;:true,&quot;word&quot;:1}"></path>
                                </g>
                                <g data-paper-data="{&quot;fillRule&quot;:&quot;nonzero&quot;,&quot;fillRuleOriginal&quot;:&quot;nonzero&quot;,&quot;isIcon&quot;:true,&quot;iconStyle&quot;:&quot;standalone&quot;,&quot;selectedEffects&quot;:{&quot;container&quot;:&quot;&quot;,&quot;transformation&quot;:&quot;&quot;,&quot;pattern&quot;:&quot;&quot;},&quot;bounds&quot;:{&quot;x&quot;:228.78764759429657,&quot;y&quot;:168.3437262357414,&quot;width&quot;:92.42470481140685,&quot;height&quot;:92.425855513308},&quot;iconType&quot;:&quot;icon&quot;,&quot;rawIconId&quot;:&quot;63aaaea6-e864-49ee-8426-06c02d38e6a4&quot;,&quot;isDetailed&quot;:false,&quot;suitableAsStandaloneIcon&quot;:true}">
                                  <path d="M321.21235,178.64805v-10.30317h-2.11401c-38.33047,37.95387 -39.30198,39.18415 -44.09142,43.93084c-4.80214,-4.74669 -5.77365,-5.97697 -44.10412,-43.93084h-2.11516v10.30317l46.21928,45.75374zM275.00693,235.36226c-4.88762,-4.84372 -5.70781,-5.93423 -46.21928,-46.03445v12.40678l46.21928,45.75374l46.20542,-45.75374v-12.40678c-40.51032,40.10138 -41.3305,41.19072 -46.20542,46.03445zM281.05784,252.35515h-12.11567c-4.98351,-5.017 -14.77954,-14.82344 -40.15452,-39.95005v12.40678l36.31581,35.9577h19.78499l36.3135,-35.9577v-12.40678c-25.36342,25.12545 -35.17101,34.93305 -40.14412,39.95005zM308.30885,168.34373h-12.47031c-15.8273,15.74066 -17.30479,17.35909 -20.8316,20.8547c-3.53951,-3.49562 -5.01816,-5.11404 -20.84431,-20.8547h-12.47031l33.31462,32.98077z" data-paper-data="{&quot;isPathIcon&quot;:true}"></path>
                                </g>
                              </g>
                            </g>
                          </svg>