<svg xmlns:mydata="http://www.w3.org/2000/svg" mydata:contrastcolor="ffffff" mydata:template="SingleColorHex1" mydata:presentation="2.5" mydata:layouttype="undefined" mydata:specialfontid="undefined" mydata:id1="088" mydata:id2="899" mydata:companyname="vsbookcollection" mydata:companytagline="" version="1.1" xmlns="http://www.w3.org/2000/svg" xmlns:xlink="http://www.w3.org/1999/xlink" viewBox="0 0 550 470">
                            <g fill="#f57eb6" fill-rule="nonzero" stroke="none" stroke-width="1" stroke-linecap="butt" stroke-linejoin="miter" stroke-miterlimit="10" stroke-dasharray="" stroke-dashoffset="0" font-family="none" font-weight="none" font-size="none" text-anchor="none" style="mix-blend-mode: normal">
                              <g data-paper-data="{&quot;isGlobalGroup&quot;:true,&quot;bounds&quot;:{&quot;x&quot;:65,&quot;y&quot;:147.940099009901,&quot;width&quot;:420,&quot;height&quot;:174.119801980198}}">
                                <g data-paper-data="{&quot;isPrimaryText&quot;:true}">
                                  <path d="M80.00646,310.89546l-7.27723,-18.44167h-7.72923l9.89884,24.9957c0.904,2.26001 2.62161,4.15842 5.19802,4.15842c2.57641,0 4.29402,-2.03401 5.15282,-4.24882l9.44684,-24.90529h-7.63883z" data-paper-data="{&quot;glyphName&quot;:&quot;v&quot;,&quot;glyphIndex&quot;:0,&quot;firstGlyphOfWord&quot;:true,&quot;word&quot;:1}"></path>
                                  <path d="M90.9449,314.01427v7.09643h4.52002c4.24882,0 8.27163,-3.43521 9.71804,-7.27723l4.20362,-11.34524c0.452,-1.2204 2.12441,-2.66681 3.48041,-2.66681h4.97202v-7.09643h-4.97202c-4.33922,0 -8.63323,3.25441 -10.12484,7.27723l-4.24882,11.34524c-0.3616,0.9944 -1.85321,2.66681 -3.02841,2.66681z" data-paper-data="{&quot;glyphName&quot;:&quot;s&quot;,&quot;glyphIndex&quot;:1,&quot;word&quot;:1}"></path>
                                  <path d="M138.72148,292.49899h-18.62247v28.61171h18.62247c4.74602,0 8.58803,-3.88721 8.58803,-8.58803v-0.678c0,-1.80801 -0.5876,-3.57081 -1.62721,-5.01722c1.3108,-1.80801 1.62721,-3.52561 1.62721,-5.69522c0,-4.74602 -3.84201,-8.63323 -8.58803,-8.63323zM140.16789,312.52266c0,0.7684 -0.678,1.40121 -1.44641,1.40121h-11.43564v-14.23805h11.43564c1.3108,0 1.44641,1.13 1.44641,2.12441c0,0.7684 -0.678,1.40121 -1.44641,1.40121h-7.14163v7.18683h7.14163c1.3108,0 1.44641,1.13 1.44641,2.12441z" data-paper-data="{&quot;glyphName&quot;:&quot;b&quot;,&quot;glyphIndex&quot;:2,&quot;word&quot;:1}"></path>
                                  <path d="M164.30478,291.86619c-8.27163,0 -14.73526,6.91563 -14.73526,15.09686c0,8.13603 6.46362,15.09686 14.73526,15.09686c8.27163,0 14.69006,-6.96083 14.69006,-15.09686c0,-8.18123 -6.41842,-15.09686 -14.69006,-15.09686zM164.30478,314.91827c-4.38442,0 -7.63883,-3.75161 -7.63883,-7.95523c0,-4.24882 3.29961,-8.00043 7.63883,-8.00043c4.33922,0 7.59363,3.75161 7.59363,8.00043c0,4.20362 -3.25441,7.95523 -7.59363,7.95523z" data-paper-data="{&quot;glyphName&quot;:&quot;o&quot;,&quot;glyphIndex&quot;:3,&quot;word&quot;:1}"></path>
                                  <path d="M195.9901,291.86619c-8.27163,0 -14.73526,6.91563 -14.73526,15.09686c0,8.13603 6.46362,15.09686 14.73526,15.09686c8.27163,0 14.69006,-6.96083 14.69006,-15.09686c0,-8.18123 -6.41842,-15.09686 -14.69006,-15.09686zM195.9901,314.91827c-4.38442,0 -7.63883,-3.75161 -7.63883,-7.95523c0,-4.24882 3.29961,-8.00043 7.63883,-8.00043c4.33922,0 7.59363,3.75161 7.59363,8.00043c0,4.20362 -3.25441,7.95523 -7.59363,7.95523z" data-paper-data="{&quot;glyphName&quot;:&quot;o&quot;,&quot;glyphIndex&quot;:4,&quot;word&quot;:1}"></path>
                                  <path d="M225.91261,305.87824c1.44641,-1.53681 2.98321,-3.02841 4.47482,-4.52002l8.90443,-8.85923h-8.99483l-9.98924,9.71804l-0.1808,0.1808v-9.89884h-7.18683v28.61171h7.18683v-11.75204c0.0904,8.00043 11.43564,11.88765 17.94447,11.75204h0.7684v-7.18683c-3.93241,0 -13.10805,-1.44641 -13.10805,-6.68963c0,-0.452 0.0904,-0.904 0.1808,-1.35601z" data-paper-data="{&quot;glyphName&quot;:&quot;k&quot;,&quot;glyphIndex&quot;:5,&quot;word&quot;:1}"></path>
                                  <path d="M241.14507,306.82744c0,7.86483 6.10202,14.28325 13.60525,14.28325h10.03444v-7.18683h-10.03444c-3.52561,0 -6.41842,-3.16401 -6.41842,-7.09643c0,-3.93241 2.89281,-7.14163 6.41842,-7.14163h10.03444v-7.18683h-10.03444c-7.50323,0 -13.60525,6.41842 -13.60525,14.32845z" data-paper-data="{&quot;glyphName&quot;:&quot;c&quot;,&quot;glyphIndex&quot;:6,&quot;word&quot;:1}"></path>
                                  <path d="M282.18683,291.86619c-8.27163,0 -14.73526,6.91563 -14.73526,15.09686c0,8.13603 6.46362,15.09686 14.73526,15.09686c8.27163,0 14.69006,-6.96083 14.69006,-15.09686c0,-8.18123 -6.41842,-15.09686 -14.69006,-15.09686zM282.18683,314.91827c-4.38442,0 -7.63883,-3.75161 -7.63883,-7.95523c0,-4.24882 3.29961,-8.00043 7.63883,-8.00043c4.33922,0 7.59363,3.75161 7.59363,8.00043c0,4.20362 -3.25441,7.95523 -7.59363,7.95523z" data-paper-data="{&quot;glyphName&quot;:&quot;o&quot;,&quot;glyphIndex&quot;:7,&quot;word&quot;:1}"></path>
                                  <path d="M303.83771,292.49899h-7.50323l7.41283,21.28928c1.35601,3.93241 5.42402,7.32243 9.67284,7.32243h4.52002v-7.09643h-4.52002c-1.76281,0 -2.44081,-1.0396 -3.02841,-2.62161z" data-paper-data="{&quot;glyphName&quot;:&quot;l&quot;,&quot;glyphIndex&quot;:8,&quot;word&quot;:1}"></path>
                                  <path d="M320.38097,292.49899h-7.50323l7.41283,21.28928c1.35601,3.93241 5.42402,7.32243 9.67284,7.32243h4.52002v-7.09643h-4.52002c-1.76281,0 -2.44081,-1.0396 -3.02841,-2.62161z" data-paper-data="{&quot;glyphName&quot;:&quot;l&quot;,&quot;glyphIndex&quot;:9,&quot;word&quot;:1}"></path>
                                  <path d="M335.47783,306.73704c0,7.77443 6.14722,14.37365 14.01205,14.37365h13.51485v-7.18683h-13.51485c-3.88721,0 -6.82523,-3.39001 -6.82523,-7.18683c0,-3.84201 2.93801,-7.23203 6.82523,-7.23203h6.14722c1.40121,0 1.1752,1.58201 1.1752,2.48601c0,0.6328 -0.5424,1.1752 -1.1752,1.1752h-9.49204v7.18683h9.49204c4.56522,0 8.31683,-3.75161 8.31683,-8.36203v-1.3108c0,-4.56522 -3.75161,-8.31683 -8.31683,-8.31683h-6.14722c-7.86483,0 -14.01205,6.59923 -14.01205,14.37365z" data-paper-data="{&quot;glyphName&quot;:&quot;e&quot;,&quot;glyphIndex&quot;:10,&quot;word&quot;:1}"></path>
                                  <path d="M365.80715,306.82744c0,7.86483 6.10202,14.28325 13.60525,14.28325h10.03444v-7.18683h-10.03444c-3.52561,0 -6.41842,-3.16401 -6.41842,-7.09643c0,-3.93241 2.89281,-7.14163 6.41842,-7.14163h10.03444v-7.18683h-10.03444c-7.50323,0 -13.60525,6.41842 -13.60525,14.32845z" data-paper-data="{&quot;glyphName&quot;:&quot;c&quot;,&quot;glyphIndex&quot;:11,&quot;word&quot;:1}"></path>
                                  <path d="M401.10848,296.7478l-1.49161,-4.24882h-7.50323l7.41283,21.28928c1.35601,3.93241 5.42402,7.32243 9.67284,7.32243h4.52002v-7.09643h-4.52002c-1.76281,0 -2.44081,-1.0396 -3.02841,-2.62161l-2.57641,-7.45803h5.10762v-7.18683z" data-paper-data="{&quot;glyphName&quot;:&quot;t&quot;,&quot;glyphIndex&quot;:12,&quot;word&quot;:1}"></path>
                                  <path d="M424.56737,295.9342c0,-2.53121 -2.03401,-4.56522 -4.56522,-4.56522c-2.53121,0 -4.56522,2.03401 -4.56522,4.56522c0,2.53121 2.03401,4.56522 4.56522,4.56522c2.53121,0 4.56522,-2.03401 4.56522,-4.56522zM423.57297,321.0655v-18.98407h-7.14163v18.98407z" data-paper-data="{&quot;glyphName&quot;:&quot;i&quot;,&quot;glyphIndex&quot;:13,&quot;word&quot;:1}"></path>
                                  <path d="M441.02023,291.86619c-8.27163,0 -14.73526,6.91563 -14.73526,15.09686c0,8.13603 6.46362,15.09686 14.73526,15.09686c8.27163,0 14.69006,-6.96083 14.69006,-15.09686c0,-8.18123 -6.41842,-15.09686 -14.69006,-15.09686zM441.02023,314.91827c-4.38442,0 -7.63883,-3.75161 -7.63883,-7.95523c0,-4.24882 3.29961,-8.00043 7.63883,-8.00043c4.33922,0 7.59363,3.75161 7.59363,8.00043c0,4.20362 -3.25441,7.95523 -7.59363,7.95523z" data-paper-data="{&quot;glyphName&quot;:&quot;o&quot;,&quot;glyphIndex&quot;:14,&quot;word&quot;:1}"></path>
                                  <path d="M471.48515,291.77579c-7.72923,0 -13.51485,6.68963 -13.51485,14.23805v15.09686h7.09643v-15.09686c0,-3.61601 2.62161,-7.09643 6.41842,-7.09643c3.79681,0 6.41842,3.48041 6.41842,7.09643v15.09686h7.09643v-15.09686c0,-7.54843 -5.78562,-14.23805 -13.51485,-14.23805z" data-paper-data="{&quot;glyphName&quot;:&quot;n&quot;,&quot;glyphIndex&quot;:15,&quot;lastGlyphOfWord&quot;:true,&quot;word&quot;:1}"></path>
                                </g>
                                <g data-paper-data="{&quot;fillRule&quot;:&quot;nonzero&quot;,&quot;fillRuleOriginal&quot;:&quot;nonzero&quot;,&quot;isIcon&quot;:true,&quot;iconStyle&quot;:&quot;standalone&quot;,&quot;selectedEffects&quot;:{&quot;container&quot;:&quot;circle_simple_outline3&quot;,&quot;transformation&quot;:&quot;&quot;,&quot;pattern&quot;:&quot;&quot;},&quot;bounds&quot;:{&quot;x&quot;:214.6413144280349,&quot;y&quot;:147.940099009901,&quot;width&quot;:120.71737114393022,&quot;height&quot;:120.71760654326297},&quot;widthRatioIconToContainer&quot;:0.8264637742652655,&quot;heightRatioIconToContainer&quot;:0.7999534497360492,&quot;relativeBoundsIconToContainer&quot;:{&quot;top&quot;:0.00030606575245257156,&quot;left&quot;:-0.000022809695646462236},&quot;iconType&quot;:&quot;initial&quot;,&quot;initialText&quot;:&quot;VVV&quot;,&quot;rawInitialId&quot;:422,&quot;blockLetter&quot;:&quot;O&quot;,&quot;monogramSpecial&quot;:&quot;emblem&quot;,&quot;suitableAsStandaloneIcon&quot;:true}">
                                  <path d="M245.59239,167.99763c2.85471,-1.98588 5.95765,-3.84764 9.1847,-5.21294v91.10232c-1.73765,-0.74471 -3.4753,-1.73765 -5.21294,-2.73059l-1.86176,-1.24118c-14.14941,-9.1847 -22.5894,-24.69941 -22.5894,-41.5794c0,-9.68117 2.85471,-19.11411 8.06765,-27.18175l7.69529,4.9647c-4.22,6.70235 -6.57823,14.27352 -6.57823,22.21705c0,10.55 4.09588,20.60353 11.2947,28.05058zM280.49646,160.05162c3.1424,0.36258 6.16394,0.96689 8.94376,1.81292v57.89274l-9.91066,36.62109c-1.5712,0.12086 -3.02154,0.24172 -4.47188,0.24172c-1.5712,0 -3.02154,-0.12086 -4.47188,-0.24172l-10.03152,-36.62109v-57.89274c2.90068,-0.84603 5.92222,-1.45034 8.94376,-1.81292v58.49704l5.55964,20.06304l5.43877,-20.06304zM316.81387,181.15409c5.33706,8.06764 8.06765,17.50058 8.06765,27.18175c0,16.88 -8.44,32.3947 -22.5894,41.5794l-1.86176,1.24118c-1.61353,0.99294 -3.35118,1.98588 -5.21294,2.73059v-91.10232c3.22706,1.36529 6.33,3.22706 9.1847,5.21294v68.38881c7.19882,-7.44706 11.2947,-17.50058 11.2947,-28.05058c0,-7.94353 -2.23411,-15.5147 -6.57823,-22.21705zM232.31997,165.61876c5.56852,-5.5685 11.96352,-9.87998 19.185,-12.93443c7.47778,-3.16282 15.3095,-4.74423 23.49518,-4.74423c8.18553,0 16.01724,1.58141 23.49511,4.74423c7.22137,3.05443 13.61634,7.3659 19.18489,12.93443c5.56855,5.56853 9.88004,11.96355 12.93444,19.18503c3.16273,7.47783 4.74409,15.3095 4.74409,23.49504c0,8.18553 -1.58136,16.01724 -4.74409,23.49511c-3.0544,7.22137 -7.36588,13.61634 -12.93444,19.18489c-5.56855,5.56855 -11.96352,9.88004 -19.18489,12.93444c-7.47787,3.16296 -15.30958,4.74444 -23.49511,4.74444c-8.18572,0 -16.01745,-1.58148 -23.49518,-4.74444c-7.22148,-3.0544 -13.61649,-7.36588 -19.185,-12.93444c-5.5685,-5.56855 -9.87998,-11.96352 -12.93443,-19.18489c-3.16282,-7.47787 -4.74423,-15.30958 -4.74423,-23.49511c0,-8.1856 1.58141,-16.01728 4.74423,-23.49504c3.05445,-7.22151 7.36592,-13.61652 12.93443,-19.18503zM235.60306,247.69576c5.14162,5.14166 11.04516,9.1221 17.71062,11.9413c6.89969,2.91837 14.12852,4.37755 21.68648,4.37755c7.5578,0 14.7865,-1.45919 21.6861,-4.37755c6.66555,-2.8192 12.56915,-6.79964 17.71082,-11.9413c5.14166,-5.14166 9.1221,-11.04516 11.9413,-17.71047c2.91837,-6.89983 4.37755,-14.12865 4.37755,-21.68645c0,-7.55794 -1.45919,-14.78673 -4.37755,-21.68637c-2.8192,-6.66548 -6.79964,-12.56901 -11.9413,-17.71061c-5.14166,-5.1416 -11.04527,-9.12203 -17.71082,-11.9413c-6.8996,-2.91832 -14.12831,-4.37748 -21.6861,-4.37748c-7.55798,0 -14.78681,1.45916 -21.68648,4.37748c-6.66545,2.81925 -12.569,6.79968 -17.71062,11.9413c-5.14162,5.14162 -9.12205,11.04516 -11.9413,17.71061c-2.91832,6.89965 -4.37748,14.12844 -4.37748,21.68637c0,7.55803 1.45916,14.78684 4.37748,21.68645c2.81925,6.66532 6.79968,12.56881 11.9413,17.71047z" data-paper-data="{&quot;isPathIcon&quot;:true}"></path>
                                </g>
                              </g>
                            </g>
                          </svg>