<svg xmlns:mydata="http://www.w3.org/2000/svg" mydata:contrastcolor="ffea83" mydata:template="Contrast" mydata:presentation="2.5" mydata:layouttype="undefined" mydata:specialfontid="undefined" mydata:id1="088" mydata:id2="852" mydata:companyname="vsbookcollection" mydata:companytagline="" version="1.1" xmlns="http://www.w3.org/2000/svg" xmlns:xlink="http://www.w3.org/1999/xlink" viewBox="0 0 550 470">
                            <g fill="#ed8b00" fill-rule="nonzero" stroke="none" stroke-width="1" stroke-linecap="butt" stroke-linejoin="miter" stroke-miterlimit="10" stroke-dasharray="" stroke-dashoffset="0" font-family="none" font-weight="none" font-size="none" text-anchor="none" style="mix-blend-mode: normal">
                              <g data-paper-data="{&quot;isGlobalGroup&quot;:true,&quot;bounds&quot;:{&quot;x&quot;:65,&quot;y&quot;:219.65454154111063,&quot;width&quot;:420,&quot;height&quot;:30.690916917778736}}">
                                <g data-paper-data="{&quot;isPrimaryText&quot;:true}">
                                  <path d="M80.00646,239.18102l-7.27723,-18.44167h-7.72923l9.89884,24.9957c0.904,2.26001 2.62161,4.15842 5.19802,4.15842c2.57641,0 4.29402,-2.03401 5.15282,-4.24882l9.44684,-24.90529h-7.63883z" data-paper-data="{&quot;glyphName&quot;:&quot;v&quot;,&quot;glyphIndex&quot;:0,&quot;firstGlyphOfWord&quot;:true,&quot;word&quot;:1}"></path>
                                  <path d="M90.9449,242.29983v7.09643h4.52002c4.24882,0 8.27163,-3.43521 9.71804,-7.27723l4.20362,-11.34524c0.452,-1.2204 2.12441,-2.66681 3.48041,-2.66681h4.97202v-7.09643h-4.97202c-4.33922,0 -8.63323,3.25441 -10.12484,7.27723l-4.24882,11.34524c-0.3616,0.9944 -1.85321,2.66681 -3.02841,2.66681z" data-paper-data="{&quot;glyphName&quot;:&quot;s&quot;,&quot;glyphIndex&quot;:1,&quot;word&quot;:1}"></path>
                                  <path d="M138.72148,220.78455h-18.62247v28.61171h18.62247c4.74602,0 8.58803,-3.88721 8.58803,-8.58803v-0.678c0,-1.80801 -0.5876,-3.57081 -1.62721,-5.01722c1.3108,-1.80801 1.62721,-3.52561 1.62721,-5.69522c0,-4.74602 -3.84201,-8.63323 -8.58803,-8.63323zM140.16789,240.80822c0,0.7684 -0.678,1.40121 -1.44641,1.40121h-11.43564v-14.23805h11.43564c1.3108,0 1.44641,1.13 1.44641,2.12441c0,0.7684 -0.678,1.40121 -1.44641,1.40121h-7.14163v7.18683h7.14163c1.3108,0 1.44641,1.13 1.44641,2.12441z" data-paper-data="{&quot;glyphName&quot;:&quot;b&quot;,&quot;glyphIndex&quot;:2,&quot;word&quot;:1}"></path>
                                  <path d="M164.30478,220.15174c-8.27163,0 -14.73526,6.91563 -14.73526,15.09686c0,8.13603 6.46362,15.09686 14.73526,15.09686c8.27163,0 14.69006,-6.96083 14.69006,-15.09686c0,-8.18123 -6.41842,-15.09686 -14.69006,-15.09686zM164.30478,243.20383c-4.38442,0 -7.63883,-3.75161 -7.63883,-7.95523c0,-4.24882 3.29961,-8.00043 7.63883,-8.00043c4.33922,0 7.59363,3.75161 7.59363,8.00043c0,4.20362 -3.25441,7.95523 -7.59363,7.95523z" data-paper-data="{&quot;glyphName&quot;:&quot;o&quot;,&quot;glyphIndex&quot;:3,&quot;word&quot;:1}"></path>
                                  <path d="M195.9901,220.15174c-8.27163,0 -14.73526,6.91563 -14.73526,15.09686c0,8.13603 6.46362,15.09686 14.73526,15.09686c8.27163,0 14.69006,-6.96083 14.69006,-15.09686c0,-8.18123 -6.41842,-15.09686 -14.69006,-15.09686zM195.9901,243.20383c-4.38442,0 -7.63883,-3.75161 -7.63883,-7.95523c0,-4.24882 3.29961,-8.00043 7.63883,-8.00043c4.33922,0 7.59363,3.75161 7.59363,8.00043c0,4.20362 -3.25441,7.95523 -7.59363,7.95523z" data-paper-data="{&quot;glyphName&quot;:&quot;o&quot;,&quot;glyphIndex&quot;:4,&quot;word&quot;:1}"></path>
                                  <path d="M225.91261,234.1638c1.44641,-1.53681 2.98321,-3.02841 4.47482,-4.52002l8.90443,-8.85923h-8.99483l-9.98924,9.71804l-0.1808,0.1808v-9.89884h-7.18683v28.61171h7.18683v-11.75204c0.0904,8.00043 11.43564,11.88765 17.94447,11.75204h0.7684v-7.18683c-3.93241,0 -13.10805,-1.44641 -13.10805,-6.68963c0,-0.452 0.0904,-0.904 0.1808,-1.35601z" data-paper-data="{&quot;glyphName&quot;:&quot;k&quot;,&quot;glyphIndex&quot;:5,&quot;word&quot;:1}"></path>
                                  <path d="M241.14507,235.113c0,7.86483 6.10202,14.28325 13.60525,14.28325h10.03444v-7.18683h-10.03444c-3.52561,0 -6.41842,-3.16401 -6.41842,-7.09643c0,-3.93241 2.89281,-7.14163 6.41842,-7.14163h10.03444v-7.18683h-10.03444c-7.50323,0 -13.60525,6.41842 -13.60525,14.32845z" data-paper-data="{&quot;glyphName&quot;:&quot;c&quot;,&quot;glyphIndex&quot;:6,&quot;word&quot;:1}"></path>
                                  <path d="M282.18683,220.15174c-8.27163,0 -14.73526,6.91563 -14.73526,15.09686c0,8.13603 6.46362,15.09686 14.73526,15.09686c8.27163,0 14.69006,-6.96083 14.69006,-15.09686c0,-8.18123 -6.41842,-15.09686 -14.69006,-15.09686zM282.18683,243.20383c-4.38442,0 -7.63883,-3.75161 -7.63883,-7.95523c0,-4.24882 3.29961,-8.00043 7.63883,-8.00043c4.33922,0 7.59363,3.75161 7.59363,8.00043c0,4.20362 -3.25441,7.95523 -7.59363,7.95523z" data-paper-data="{&quot;glyphName&quot;:&quot;o&quot;,&quot;glyphIndex&quot;:7,&quot;word&quot;:1}"></path>
                                  <path d="M303.83771,220.78455h-7.50323l7.41283,21.28928c1.35601,3.93241 5.42402,7.32243 9.67284,7.32243h4.52002v-7.09643h-4.52002c-1.76281,0 -2.44081,-1.0396 -3.02841,-2.62161z" data-paper-data="{&quot;glyphName&quot;:&quot;l&quot;,&quot;glyphIndex&quot;:8,&quot;word&quot;:1}"></path>
                                  <path d="M320.38097,220.78455h-7.50323l7.41283,21.28928c1.35601,3.93241 5.42402,7.32243 9.67284,7.32243h4.52002v-7.09643h-4.52002c-1.76281,0 -2.44081,-1.0396 -3.02841,-2.62161z" data-paper-data="{&quot;glyphName&quot;:&quot;l&quot;,&quot;glyphIndex&quot;:9,&quot;word&quot;:1}"></path>
                                  <path d="M335.47783,235.0226c0,7.77443 6.14722,14.37365 14.01205,14.37365h13.51485v-7.18683h-13.51485c-3.88721,0 -6.82523,-3.39001 -6.82523,-7.18683c0,-3.84201 2.93801,-7.23203 6.82523,-7.23203h6.14722c1.40121,0 1.1752,1.58201 1.1752,2.48601c0,0.6328 -0.5424,1.1752 -1.1752,1.1752h-9.49204v7.18683h9.49204c4.56522,0 8.31683,-3.75161 8.31683,-8.36203v-1.3108c0,-4.56522 -3.75161,-8.31683 -8.31683,-8.31683h-6.14722c-7.86483,0 -14.01205,6.59923 -14.01205,14.37365z" data-paper-data="{&quot;glyphName&quot;:&quot;e&quot;,&quot;glyphIndex&quot;:10,&quot;word&quot;:1}"></path>
                                  <path d="M365.80715,235.113c0,7.86483 6.10202,14.28325 13.60525,14.28325h10.03444v-7.18683h-10.03444c-3.52561,0 -6.41842,-3.16401 -6.41842,-7.09643c0,-3.93241 2.89281,-7.14163 6.41842,-7.14163h10.03444v-7.18683h-10.03444c-7.50323,0 -13.60525,6.41842 -13.60525,14.32845z" data-paper-data="{&quot;glyphName&quot;:&quot;c&quot;,&quot;glyphIndex&quot;:11,&quot;word&quot;:1}"></path>
                                  <path d="M401.10848,225.03336l-1.49161,-4.24882h-7.50323l7.41283,21.28928c1.35601,3.93241 5.42402,7.32243 9.67284,7.32243h4.52002v-7.09643h-4.52002c-1.76281,0 -2.44081,-1.0396 -3.02841,-2.62161l-2.57641,-7.45803h5.10762v-7.18683z" data-paper-data="{&quot;glyphName&quot;:&quot;t&quot;,&quot;glyphIndex&quot;:12,&quot;word&quot;:1}"></path>
                                  <path d="M424.56737,224.21976c0,-2.53121 -2.03401,-4.56522 -4.56522,-4.56522c-2.53121,0 -4.56522,2.03401 -4.56522,4.56522c0,2.53121 2.03401,4.56522 4.56522,4.56522c2.53121,0 4.56522,-2.03401 4.56522,-4.56522zM423.57297,249.35105v-18.98407h-7.14163v18.98407z" data-paper-data="{&quot;glyphName&quot;:&quot;i&quot;,&quot;glyphIndex&quot;:13,&quot;word&quot;:1}"></path>
                                  <path d="M441.02023,220.15174c-8.27163,0 -14.73526,6.91563 -14.73526,15.09686c0,8.13603 6.46362,15.09686 14.73526,15.09686c8.27163,0 14.69006,-6.96083 14.69006,-15.09686c0,-8.18123 -6.41842,-15.09686 -14.69006,-15.09686zM441.02023,243.20383c-4.38442,0 -7.63883,-3.75161 -7.63883,-7.95523c0,-4.24882 3.29961,-8.00043 7.63883,-8.00043c4.33922,0 7.59363,3.75161 7.59363,8.00043c0,4.20362 -3.25441,7.95523 -7.59363,7.95523z" data-paper-data="{&quot;glyphName&quot;:&quot;o&quot;,&quot;glyphIndex&quot;:14,&quot;word&quot;:1}"></path>
                                  <path d="M471.48515,220.06134c-7.72923,0 -13.51485,6.68963 -13.51485,14.23805v15.09686h7.09643v-15.09686c0,-3.61601 2.62161,-7.09643 6.41842,-7.09643c3.79681,0 6.41842,3.48041 6.41842,7.09643v15.09686h7.09643v-15.09686c0,-7.54843 -5.78562,-14.23805 -13.51485,-14.23805z" data-paper-data="{&quot;glyphName&quot;:&quot;n&quot;,&quot;glyphIndex&quot;:15,&quot;lastGlyphOfWord&quot;:true,&quot;word&quot;:1}"></path>
                                </g>
                              </g>
                            </g>
                          </svg>