<svg xmlns:mydata="http://www.w3.org/2000/svg" mydata:contrastcolor="ffffff" mydata:template="SingleColorHex1" mydata:presentation="2.5" mydata:layouttype="undefined" mydata:specialfontid="undefined" mydata:id1="955" mydata:id2="899" mydata:companyname="vsbookcollection" mydata:companytagline="" version="1.1" xmlns="http://www.w3.org/2000/svg" xmlns:xlink="http://www.w3.org/1999/xlink" viewBox="0 0 550 470">
                            <g fill="#f57eb6" fill-rule="nonzero" stroke="none" stroke-width="1" stroke-linecap="butt" stroke-linejoin="miter" stroke-miterlimit="10" stroke-dasharray="" stroke-dashoffset="0" font-family="none" font-weight="none" font-size="none" text-anchor="none" style="mix-blend-mode: normal">
                              <g data-paper-data="{&quot;isGlobalGroup&quot;:true,&quot;bounds&quot;:{&quot;x&quot;:65,&quot;y&quot;:121.29476589443556,&quot;width&quot;:420,&quot;height&quot;:227.4104682111289}}">
                                <g data-paper-data="{&quot;isPrimaryText&quot;:true}">
                                  <path d="M72.90471,299.23593h-7.90471l13.02705,49.4693h6.14426l13.17122,-49.4693h-7.89977l-8.34359,32.93124z" data-paper-data="{&quot;glyphName&quot;:&quot;V&quot;,&quot;glyphIndex&quot;:0,&quot;firstGlyphOfWord&quot;:true,&quot;word&quot;:1}"></path>
                                  <path d="M123.28003,334.80043c0,-3.22196 -0.87775,-5.99938 -2.78308,-8.48847c-2.04455,-2.63326 -4.82763,-4.53858 -7.75489,-5.85521c-1.61133,-0.73287 -3.36684,-1.90533 -4.53858,-3.36613c-0.87775,-1.1668 -1.31663,-2.48908 -1.31663,-3.94988v-1.7555c0,-1.17246 0.43888,-2.3442 1.31663,-3.22196c0.72793,-0.73287 1.90038,-1.31663 3.07213,-1.31663c1.17175,0 2.33926,0.58375 3.07213,1.31663c0.87775,0.87775 1.31663,2.0495 1.31663,3.22196v3.2269h7.61072v-3.22196c0,-3.2163 -1.1668,-6.28843 -3.51101,-8.63264c-2.19438,-2.19438 -5.26651,-3.51101 -8.48847,-3.51101c-3.22196,0 -6.29409,1.31663 -8.48847,3.51101c-2.33926,2.33855 -3.51101,5.41068 -3.51101,8.63264v1.7555c0,3.21701 0.8827,6.00009 2.78308,8.63335c2.0495,2.48838 4.82763,4.39371 7.61072,5.71034c1.7555,0.73287 3.51101,1.90533 4.68276,3.36613c0.87775,1.16751 1.31663,2.48908 1.31663,3.94988v1.7555c0,1.17246 -0.43888,2.3442 -1.31663,3.22196c-0.72793,0.73358 -1.89968,1.31663 -3.07213,1.31663c-1.1668,0 -2.33855,-0.58305 -3.07213,-1.31663c-0.87775,-0.87775 -1.31663,-2.0495 -1.31663,-3.22196v-3.22125h-7.61072v3.2163c0,3.21701 1.1668,6.28914 3.51101,8.63335c2.19438,2.19438 5.26651,3.51101 8.48847,3.51101c3.22196,0 6.29409,-1.31663 8.48847,-3.51101c2.33926,-2.33926 3.51101,-5.41139 3.51101,-8.63335z" data-paper-data="{&quot;glyphName&quot;:&quot;S&quot;,&quot;glyphIndex&quot;:1,&quot;word&quot;:1}"></path>
                                  <path d="M148.58642,323.38471c1.76116,-2.19438 2.63891,-4.82763 2.63891,-7.46654v-4.68276c0,-3.22196 -1.1668,-6.29409 -3.51101,-8.48847c-2.19438,-2.19438 -5.12234,-3.51101 -8.3443,-3.51101h-10.97685v49.4693h12.14435c3.22125,0 6.14426,-1.31663 8.48776,-3.51101c2.19438,-2.19438 3.51101,-5.26651 3.51101,-8.48847v-4.68276c0,-3.07779 -1.31663,-6.14992 -3.51101,-8.3443c-0.14417,-0.14983 -0.294,-0.294 -0.43888,-0.294zM139.37003,306.84665c1.16751,0 2.19438,0.58375 3.07213,1.31663c0.73358,0.87775 1.17246,1.90038 1.17246,3.07213v4.68841c0,1.17175 -0.43888,2.19438 -1.17246,2.92725c-0.87775,0.87775 -1.89968,1.31663 -3.07213,1.31663h-3.36613v-13.32105zM140.54249,327.77841c1.1668,0 2.19438,0.43888 3.07213,1.31663c0.73287,0.73358 1.17175,1.90533 1.17175,2.92796v4.6877c0,1.16751 -0.43888,2.33926 -1.17175,3.07213c-0.87775,0.87775 -1.90038,1.31663 -3.07213,1.31663h-4.53858v-13.32105z" data-paper-data="{&quot;glyphName&quot;:&quot;B&quot;,&quot;glyphIndex&quot;:2,&quot;word&quot;:1}"></path>
                                  <path d="M169.015,299.23593c-3.07213,0 -6.14426,1.31663 -8.48847,3.51595c-2.19438,2.33926 -3.51101,5.41139 -3.51101,8.63335v25.1707c0,3.21701 1.31663,6.28914 3.51101,8.63335c2.33926,2.19438 5.41634,3.51101 8.48847,3.51101c3.21701,0 6.28914,-1.31663 8.63264,-3.51101c2.19438,-2.33926 3.51101,-5.41139 3.51101,-8.63335v-25.17565c0,-3.21701 -1.31663,-6.28914 -3.51101,-8.63335c-2.33855,-2.19438 -5.41068,-3.51101 -8.63264,-3.51101zM172.23696,308.16328c0.73287,0.87775 1.31663,2.0495 1.31663,3.22196v25.17565c0,1.17246 -0.58375,2.3442 -1.31663,3.22196c-0.87775,0.73358 -2.05021,1.31663 -3.22196,1.31663c-1.1668,0 -2.19438,-0.58305 -3.07213,-1.31663c-0.87775,-0.87775 -1.31663,-2.0495 -1.31663,-3.22196v-25.17565c0,-1.17246 0.43888,-2.3442 1.31663,-3.22196c0.87775,-0.73287 1.90038,-1.31663 3.07213,-1.31663c1.17175,0 2.3442,0.58375 3.22196,1.31663z" data-paper-data="{&quot;glyphName&quot;:&quot;O&quot;,&quot;glyphIndex&quot;:3,&quot;word&quot;:1}"></path>
                                  <path d="M198.2734,299.23593c-3.07213,0 -6.14426,1.31663 -8.48847,3.51595c-2.19438,2.33926 -3.51101,5.41139 -3.51101,8.63335v25.1707c0,3.21701 1.31663,6.28914 3.51101,8.63335c2.33926,2.19438 5.41634,3.51101 8.48847,3.51101c3.21701,0 6.28914,-1.31663 8.63264,-3.51101c2.19438,-2.33926 3.51101,-5.41139 3.51101,-8.63335v-25.17565c0,-3.21701 -1.31663,-6.28914 -3.51101,-8.63335c-2.33855,-2.19438 -5.41068,-3.51101 -8.63264,-3.51101zM201.49535,308.16328c0.73287,0.87775 1.31663,2.0495 1.31663,3.22196v25.17565c0,1.17246 -0.58375,2.3442 -1.31663,3.22196c-0.87775,0.73358 -2.05021,1.31663 -3.22196,1.31663c-1.1668,0 -2.19438,-0.58305 -3.07213,-1.31663c-0.87775,-0.87775 -1.31663,-2.0495 -1.31663,-3.22196v-25.17565c0,-1.17246 0.43888,-2.3442 1.31663,-3.22196c0.87775,-0.73287 1.90038,-1.31663 3.07213,-1.31663c1.17175,0 2.3442,0.58375 3.22196,1.31663z" data-paper-data="{&quot;glyphName&quot;:&quot;O&quot;,&quot;glyphIndex&quot;:4,&quot;word&quot;:1}"></path>
                                  <path d="M223.77908,299.23593h-7.61072v49.4693h6.43826l5.56122,-14.34368l5.71033,14.34368h8.19447l-9.8051,-24.73182l9.8051,-24.73748h-8.19447l-10.09909,27.65978z" data-paper-data="{&quot;glyphName&quot;:&quot;K&quot;,&quot;glyphIndex&quot;:5,&quot;word&quot;:1}"></path>
                                  <path d="M256.15413,299.23593c-3.22196,0 -6.29409,1.31663 -8.48847,3.51595c-2.33926,2.33926 -3.51101,5.41139 -3.51101,8.63335v25.1707c0,3.21701 1.1668,6.28914 3.51101,8.63335c2.19438,2.19438 5.26651,3.51101 8.48847,3.51101c3.22196,0 6.29409,-1.31663 8.48847,-3.51101c2.33855,-2.33926 3.51101,-5.41139 3.51101,-8.63335v-4.82763h-7.61072v4.83258c0,1.17246 -0.43888,2.3442 -1.31663,3.22196c-0.72793,0.73358 -1.90038,1.31663 -3.07213,1.31663c-1.1668,0 -2.33926,-0.58305 -3.07213,-1.31663c-0.87775,-0.87775 -1.31663,-2.0495 -1.31663,-3.22196v-25.17565c0,-1.17246 0.43888,-2.3442 1.31663,-3.22196c0.72793,-0.73287 1.89968,-1.31663 3.07213,-1.31663c1.1668,0 2.33926,0.58375 3.07213,1.31663c0.87775,0.87775 1.31663,2.0495 1.31663,3.22196v4.82269h7.61072v-4.82763c0,-3.21701 -1.1668,-6.28914 -3.51101,-8.63335c-2.19438,-2.19438 -5.26651,-3.51101 -8.48847,-3.51101z" data-paper-data="{&quot;glyphName&quot;:&quot;C&quot;,&quot;glyphIndex&quot;:6,&quot;word&quot;:1}"></path>
                                  <path d="M284.56446,299.23593c-3.07213,0 -6.14426,1.31663 -8.48847,3.51595c-2.19438,2.33926 -3.51101,5.41139 -3.51101,8.63335v25.1707c0,3.21701 1.31663,6.28914 3.51101,8.63335c2.33926,2.19438 5.41634,3.51101 8.48847,3.51101c3.21701,0 6.28914,-1.31663 8.63264,-3.51101c2.19438,-2.33926 3.51101,-5.41139 3.51101,-8.63335v-25.17565c0,-3.21701 -1.31663,-6.28914 -3.51101,-8.63335c-2.33855,-2.19438 -5.41068,-3.51101 -8.63264,-3.51101zM287.78641,308.16328c0.73287,0.87775 1.31663,2.0495 1.31663,3.22196v25.17565c0,1.17246 -0.58375,2.3442 -1.31663,3.22196c-0.87775,0.73358 -2.05021,1.31663 -3.22196,1.31663c-1.1668,0 -2.19438,-0.58305 -3.07213,-1.31663c-0.87775,-0.87775 -1.31663,-2.0495 -1.31663,-3.22196v-25.17565c0,-1.17246 0.43888,-2.3442 1.31663,-3.22196c0.87775,-0.73287 1.90038,-1.31663 3.07213,-1.31663c1.17175,0 2.3442,0.58375 3.22196,1.31663z" data-paper-data="{&quot;glyphName&quot;:&quot;O&quot;,&quot;glyphIndex&quot;:7,&quot;word&quot;:1}"></path>
                                  <path d="M310.07509,341.09452c0,-12.87723 0,-25.7594 -0.00495,-38.63663v-3.22196h-7.61072v49.4693h20.49289v-7.61072z" data-paper-data="{&quot;glyphName&quot;:&quot;L&quot;,&quot;glyphIndex&quot;:8,&quot;word&quot;:1}"></path>
                                  <path d="M333.60689,340.79981c0,-12.73235 0,-25.4654 0,-38.19775v-3.36684h-7.75489v49.4693h34.1037v-7.90471zM358.2002,328.94522h-11.12738v-7.02201h8.63829v-7.76054h-8.63829v-7.17184h11.12738v-7.75559h-18.88226v37.46983h18.88226z" data-paper-data="{&quot;glyphName&quot;:&quot;&quot;,&quot;glyphIndex&quot;:9,&quot;word&quot;:1}"></path>
                                  <path d="M376.0146,299.23593c-3.22196,0 -6.29409,1.31663 -8.48847,3.51595c-2.33926,2.33926 -3.51101,5.41139 -3.51101,8.63335v25.1707c0,3.21701 1.1668,6.28914 3.51101,8.63335c2.19438,2.19438 5.26651,3.51101 8.48847,3.51101c3.22196,0 6.29409,-1.31663 8.48847,-3.51101c2.33855,-2.33926 3.51101,-5.41139 3.51101,-8.63335v-4.82763h-7.61072v4.83258c0,1.17246 -0.43888,2.3442 -1.31663,3.22196c-0.72793,0.73358 -1.90038,1.31663 -3.07213,1.31663c-1.1668,0 -2.33926,-0.58305 -3.07213,-1.31663c-0.87775,-0.87775 -1.31663,-2.0495 -1.31663,-3.22196v-25.17565c0,-1.17246 0.43888,-2.3442 1.31663,-3.22196c0.72793,-0.73287 1.89968,-1.31663 3.07213,-1.31663c1.1668,0 2.33926,0.58375 3.07213,1.31663c0.87775,0.87775 1.31663,2.0495 1.31663,3.22196v4.82269h7.61072v-4.82763c0,-3.21701 -1.1668,-6.28914 -3.51101,-8.63335c-2.19438,-2.19438 -5.26651,-3.51101 -8.48847,-3.51101z" data-paper-data="{&quot;glyphName&quot;:&quot;C&quot;,&quot;glyphIndex&quot;:10,&quot;word&quot;:1}"></path>
                                  <path d="M413.95935,306.84665v-7.61072h-24.14878v7.61072h8.34359v41.85858h7.61072v-41.85858z" data-paper-data="{&quot;glyphName&quot;:&quot;T&quot;,&quot;glyphIndex&quot;:11,&quot;word&quot;:1}"></path>
                                  <path d="M424.77153,348.70523v-49.4693h-7.61072v49.4693z" data-paper-data="{&quot;glyphName&quot;:&quot;I&quot;,&quot;glyphIndex&quot;:12,&quot;word&quot;:1}"></path>
                                  <path d="M442.51738,299.23593c-3.07213,0 -6.14426,1.31663 -8.48847,3.51595c-2.19438,2.33926 -3.51101,5.41139 -3.51101,8.63335v25.1707c0,3.21701 1.31663,6.28914 3.51101,8.63335c2.33926,2.19438 5.41634,3.51101 8.48847,3.51101c3.21701,0 6.28914,-1.31663 8.63264,-3.51101c2.19438,-2.33926 3.51101,-5.41139 3.51101,-8.63335v-25.17565c0,-3.21701 -1.31663,-6.28914 -3.51101,-8.63335c-2.33855,-2.19438 -5.41068,-3.51101 -8.63264,-3.51101zM445.73933,308.16328c0.73287,0.87775 1.31663,2.0495 1.31663,3.22196v25.17565c0,1.17246 -0.58375,2.3442 -1.31663,3.22196c-0.87775,0.73358 -2.05021,1.31663 -3.22196,1.31663c-1.1668,0 -2.19438,-0.58305 -3.07213,-1.31663c-0.87775,-0.87775 -1.31663,-2.0495 -1.31663,-3.22196v-25.17565c0,-1.17246 0.43888,-2.3442 1.31663,-3.22196c0.87775,-0.73287 1.90038,-1.31663 3.07213,-1.31663c1.17175,0 2.3442,0.58375 3.22196,1.31663z" data-paper-data="{&quot;glyphName&quot;:&quot;O&quot;,&quot;glyphIndex&quot;:13,&quot;word&quot;:1}"></path>
                                  <path d="M466.70644,299.23593h-6.29409v49.4693h7.61072v-26.78203l10.53797,26.78203h6.43897v-49.4693h-7.75559v26.78203z" data-paper-data="{&quot;glyphName&quot;:&quot;N&quot;,&quot;glyphIndex&quot;:14,&quot;lastGlyphOfWord&quot;:true,&quot;word&quot;:1}"></path>
                                </g>
                                <g data-paper-data="{&quot;fillRule&quot;:&quot;nonzero&quot;,&quot;fillRuleOriginal&quot;:&quot;nonzero&quot;,&quot;isIcon&quot;:true,&quot;iconStyle&quot;:&quot;standalone&quot;,&quot;selectedEffects&quot;:{&quot;container&quot;:&quot;circle_simple_outline3&quot;,&quot;transformation&quot;:&quot;&quot;,&quot;pattern&quot;:&quot;&quot;},&quot;bounds&quot;:{&quot;x&quot;:200.86103223465093,&quot;y&quot;:121.29476589443556,&quot;width&quot;:148.27793553069816,&quot;height&quot;:148.27822467323625},&quot;widthRatioIconToContainer&quot;:0.8264637742652655,&quot;heightRatioIconToContainer&quot;:0.7999534497360492,&quot;relativeBoundsIconToContainer&quot;:{&quot;top&quot;:0.00030606575245257156,&quot;left&quot;:-0.000022809695646462236},&quot;iconType&quot;:&quot;initial&quot;,&quot;initialText&quot;:&quot;VVV&quot;,&quot;rawInitialId&quot;:422,&quot;blockLetter&quot;:&quot;O&quot;,&quot;monogramSpecial&quot;:&quot;emblem&quot;,&quot;suitableAsStandaloneIcon&quot;:true}">
                                  <path d="M238.87843,145.93156c3.50645,-2.43927 7.31782,-4.72609 11.28163,-6.40309v111.90158c-2.13436,-0.91473 -4.26873,-2.13436 -6.40309,-3.354l-2.28681,-1.52454c-17.37981,-11.28163 -27.74671,-30.33844 -27.74671,-51.07225c0,-11.89145 3.50645,-23.47799 9.90954,-33.38753l9.45218,6.09818c-5.18345,8.23254 -8.08009,17.53226 -8.08009,27.28935c0,12.95863 5.031,25.30745 13.87336,34.45471zM281.75133,136.17142c3.85983,0.44536 7.57121,1.18764 10.98568,2.22683v71.11003l-12.17332,44.98192c-1.92992,0.14846 -3.71137,0.29691 -5.49284,0.29691c-1.92992,0 -3.71137,-0.14846 -5.49284,-0.29691l-12.32178,-44.98192v-71.11003c3.56293,-1.03919 7.2743,-1.78147 10.98568,-2.22683v71.8523l6.82894,24.64356l6.68048,-24.64356zM326.36024,162.09173c6.55554,9.90954 9.90954,21.49608 9.90954,33.38753c0,20.73381 -10.3669,39.79062 -27.74671,51.07225l-2.28681,1.52454c-1.98191,1.21964 -4.11627,2.43927 -6.40309,3.354v-111.90158c3.96382,1.677 7.77518,3.96382 11.28163,6.40309v84.00242c8.84236,-9.14727 13.87336,-21.49608 13.87336,-34.45471c0,-9.75709 -2.74418,-19.05681 -8.08009,-27.28935zM222.57584,143.00958c6.83984,-6.83983 14.69487,-12.13565 23.56506,-15.88744c9.18501,-3.88491 18.80476,-5.82737 28.85928,-5.82737c10.05435,0 19.67408,1.94246 28.8592,5.82737c8.87006,3.75177 16.72503,9.04759 23.56492,15.88744c6.83989,6.83987 12.13571,14.69491 15.88746,23.5651c3.8848,9.18506 5.8272,18.80476 5.8272,28.85911c0,10.05435 -1.9424,19.67408 -5.8272,28.8592c-3.75174,8.87006 -9.04756,16.72503 -15.88746,23.56492c-6.83989,6.83989 -14.69487,12.13571 -23.56492,15.88746c-9.18512,3.88508 -18.80485,5.82762 -28.8592,5.82762c-10.05457,0 -19.67433,-1.94254 -28.85928,-5.82762c-8.8702,-3.75174 -16.72522,-9.04756 -23.56506,-15.88746c-6.83983,-6.83989 -12.13564,-14.69487 -15.88744,-23.56492c-3.88491,-9.18512 -5.82737,-18.80485 -5.82737,-28.8592c0,-10.05443 1.94246,-19.67413 5.82737,-28.85911c3.7518,-8.87023 9.04761,-16.72526 15.88744,-23.5651zM226.60848,243.82529c6.31549,6.31554 13.56684,11.20473 21.75407,14.66758c8.47494,3.58465 17.35416,5.37698 26.63764,5.37698c9.28329,0 18.16236,-1.79233 26.63718,-5.37698c8.18734,-3.46285 15.43877,-8.35204 21.75431,-14.66758c6.31554,-6.31554 11.20473,-13.56684 14.66758,-21.75389c3.58465,-8.47511 5.37698,-17.35431 5.37698,-26.6376c0,-9.28346 -1.79233,-18.16264 -5.37698,-26.63752c-3.46285,-8.18725 -8.35204,-15.4386 -14.66758,-21.75406c-6.31554,-6.31546 -13.56698,-11.20465 -21.75431,-14.66758c-8.47483,-3.5846 -17.35389,-5.37689 -26.63718,-5.37689c-9.28352,0 -18.16273,1.7923 -26.63764,5.37689c-8.18722,3.4629 -15.43858,8.3521 -21.75407,14.66758c-6.31548,6.31549 -11.20467,13.56684 -14.66758,21.75406c-3.5846,8.47489 -5.37689,17.35405 -5.37689,26.63752c0,9.28357 1.7923,18.16278 5.37689,26.6376c3.4629,8.18706 8.35209,15.43835 14.66758,21.75389z" data-paper-data="{&quot;isPathIcon&quot;:true}"></path>
                                </g>
                              </g>
                            </g>
                          </svg>