<svg xmlns:mydata="http://www.w3.org/2000/svg" mydata:contrastcolor="ffea83" mydata:template="Contrast" mydata:presentation="2.5" mydata:layouttype="undefined" mydata:specialfontid="undefined" mydata:id1="008" mydata:id2="852" mydata:companyname="vsbookcollection" mydata:companytagline="" version="1.1" xmlns="http://www.w3.org/2000/svg" xmlns:xlink="http://www.w3.org/1999/xlink" viewBox="0 0 550 470">
                            <g fill="#ed8b00" fill-rule="nonzero" stroke="none" stroke-width="1" stroke-linecap="butt" stroke-linejoin="miter" stroke-miterlimit="10" stroke-dasharray="" stroke-dashoffset="0" font-family="none" font-weight="none" font-size="none" text-anchor="none" style="mix-blend-mode: normal">
                              <g data-paper-data="{&quot;isGlobalGroup&quot;:true,&quot;bounds&quot;:{&quot;x&quot;:65,&quot;y&quot;:219.3298199794795,&quot;width&quot;:420,&quot;height&quot;:31.340360041040952}}">
                                <g data-paper-data="{&quot;isPrimaryText&quot;:true}">
                                  <path d="M77.65367,250.67018c-0.91409,0 -1.54743,-0.43746 -1.90001,-1.31238l-10.51861,-26.89395c-0.1567,-0.40481 -0.23505,-0.75739 -0.23505,-1.05774c0,-0.28729 0.05223,-0.55825 0.1567,-0.81289c0.10447,-0.25464 0.25138,-0.47663 0.44072,-0.66598c0.18935,-0.18935 0.40808,-0.33626 0.65619,-0.44072c0.24811,-0.10447 0.52234,-0.1567 0.82268,-0.1567c0.91409,0 1.55396,0.41134 1.9196,1.23403l8.65777,22.27124l8.65777,-22.27124c0.3134,-0.82268 0.95327,-1.23403 1.9196,-1.23403c0.28729,0 0.55825,0.05223 0.81289,0.1567c0.25464,0.10447 0.47663,0.25138 0.66598,0.44072c0.18935,0.18935 0.33626,0.41134 0.44072,0.66598c0.10447,0.25464 0.1567,0.5256 0.1567,0.81289c0,0.33952 -0.07835,0.6921 -0.23505,1.05774l-10.51861,26.89395c-0.35258,0.87492 -0.98592,1.31238 -1.90001,1.31238z" data-paper-data="{&quot;glyphName&quot;:&quot;V&quot;,&quot;glyphIndex&quot;:0,&quot;firstGlyphOfWord&quot;:true,&quot;word&quot;:1}"></path>
                                  <path d="M101.53111,235.41134c-1.89348,-0.56151 -3.32338,-1.28626 -4.28971,-2.17424c-0.96633,-0.88798 -1.6421,-1.79881 -2.02733,-2.73249c-0.38523,-0.93368 -0.57784,-1.92286 -0.57784,-2.96754c0,-1.27973 0.24158,-2.43867 0.72475,-3.47682c0.48316,-1.03815 1.19485,-1.96204 2.13506,-2.77166h-0.01959c1.50173,-1.30585 3.26462,-1.95877 5.28869,-1.95877c0.65292,0 1.30585,0.08162 1.95877,0.24485c0.65292,0.16323 1.283,0.41134 1.89022,0.74433c0.60722,0.33299 1.17526,0.7476 1.70413,1.24382c0.52887,0.49622 1.00224,1.07732 1.42011,1.74331c0.19588,0.33952 0.29382,0.71169 0.29382,1.1165c0,0.30035 -0.05223,0.57457 -0.1567,0.82268c-0.10447,0.24811 -0.25138,0.46684 -0.44072,0.65619c-0.18935,0.18935 -0.41134,0.33626 -0.66598,0.44072c-0.25464,0.10447 -0.5256,0.1567 -0.81289,0.1567c-0.26117,0 -0.49296,-0.03918 -0.69536,-0.11753c-0.20241,-0.07835 -0.38523,-0.18935 -0.54846,-0.33299c-0.16323,-0.14364 -0.31993,-0.31014 -0.47011,-0.49949c-0.15017,-0.18935 -0.31014,-0.40808 -0.4799,-0.65619c-0.3134,-0.45705 -0.74107,-0.79983 -1.283,-1.02836c-0.54193,-0.22852 -1.12629,-0.34279 -1.7531,-0.34279c-0.49622,0 -0.97939,0.1012 -1.44949,0.30361c-0.47011,0.20241 -0.88798,0.4799 -1.25361,0.83248c-0.36564,0.35258 -0.66272,0.77045 -0.89124,1.25361c-0.22852,0.48316 -0.34279,1.0055 -0.34279,1.56702c0,1.0055 0.27749,1.79881 0.83248,2.37991c0.55499,0.5811 1.51152,1.06753 2.8696,1.45929c2.29829,0.65292 4.10036,1.55396 5.40621,2.70311c1.30585,1.14915 2.19383,2.27871 2.66393,3.38868c0.47011,1.10997 0.70516,2.27871 0.70516,3.5062c0,3.05569 -1.12956,5.5368 -3.38868,7.44334h0.01959c-1.81513,1.5409 -3.87837,2.31135 -6.18972,2.31135c-0.77045,0 -1.5409,-0.09467 -2.31135,-0.28402c-0.77045,-0.18935 -1.51152,-0.46684 -2.22321,-0.83248c-0.71169,-0.36564 -1.37767,-0.82268 -1.99795,-1.37114c-0.62028,-0.54846 -1.15894,-1.16873 -1.61599,-1.86083c-0.27423,-0.35258 -0.41134,-0.77045 -0.41134,-1.25361c0,-0.28729 0.05223,-0.55825 0.1567,-0.81289c0.10447,-0.25464 0.25138,-0.47663 0.44072,-0.66598c0.18935,-0.18935 0.40808,-0.33626 0.65619,-0.44072c0.24811,-0.10447 0.52234,-0.1567 0.82268,-0.1567c0.77045,0 1.35155,0.31993 1.74331,0.9598c0.54846,0.8488 1.23403,1.48867 2.05671,1.9196c0.82268,0.43093 1.71066,0.64639 2.66393,0.64639c0.74433,0 1.44623,-0.14691 2.10568,-0.44072c0.65945,-0.29382 1.23403,-0.68883 1.72372,-1.18506c0.48969,-0.49622 0.87818,-1.08059 1.16547,-1.7531c0.28729,-0.67251 0.43093,-1.38746 0.43093,-2.14486c0,-0.71822 -0.13385,-1.39399 -0.40155,-2.02733c-0.2677,-0.63334 -0.78351,-1.26014 -1.54743,-1.88042c-0.76392,-0.62028 -1.9751,-1.17853 -3.63352,-1.67475z" data-paper-data="{&quot;glyphName&quot;:&quot;S&quot;,&quot;glyphIndex&quot;:1,&quot;word&quot;:1}"></path>
                                  <path d="M118.06315,223.48242v7.93303h3.97631c0.54846,0 1.061,-0.10447 1.53764,-0.3134c0.47663,-0.20894 0.89451,-0.49622 1.25361,-0.86186c0.35911,-0.36564 0.64313,-0.78677 0.85207,-1.26341c0.20894,-0.47663 0.3134,-0.98918 0.3134,-1.53764c0,-0.5354 -0.10447,-1.04141 -0.3134,-1.51805c-0.20894,-0.47663 -0.49622,-0.89777 -0.86186,-1.26341c-0.36564,-0.36564 -0.78677,-0.65292 -1.26341,-0.86186c-0.47663,-0.20894 -0.98265,-0.3134 -1.51805,-0.3134zM118.06315,235.56804v10.94954h5.48456c0.75739,0 1.46908,-0.14364 2.13506,-0.43093c0.66598,-0.28729 1.24382,-0.67904 1.73351,-1.17526c0.48969,-0.49622 0.87818,-1.07732 1.16547,-1.74331c0.28729,-0.66598 0.43093,-1.37767 0.43093,-2.13506c0,-0.74433 -0.14364,-1.44949 -0.43093,-2.11547c-0.28729,-0.66598 -0.67904,-1.24709 -1.17526,-1.74331c-0.49622,-0.49622 -1.07732,-0.88798 -1.74331,-1.17526c-0.66598,-0.28729 -1.37114,-0.43093 -2.11547,-0.43093zM122.03946,219.32982c1.10997,0 2.15791,0.2122 3.14383,0.6366c0.98592,0.4244 1.84778,1.0055 2.58558,1.74331c0.7378,0.7378 1.31891,1.59966 1.74331,2.58558c0.4244,0.98592 0.6366,2.03386 0.6366,3.14383c0,1.98489 -0.61375,3.71514 -1.84125,5.19075c0.79657,0.47011 1.4952,1.01203 2.09589,1.62578c0.60069,0.61375 1.10671,1.283 1.51805,2.00774c0.41134,0.72475 0.72148,1.48867 0.93042,2.29176c0.20894,0.8031 0.3134,1.62905 0.3134,2.47785c0,1.31891 -0.25464,2.56273 -0.76392,3.73146c-0.50928,1.16873 -1.19812,2.19056 -2.0665,3.06548c-0.86839,0.87492 -1.88695,1.56702 -3.05569,2.0763c-1.16873,0.50928 -2.41255,0.76392 -3.73146,0.76392h-7.56086c-0.28729,0 -0.55499,-0.0555 -0.8031,-0.1665c-0.24811,-0.111 -0.46684,-0.25791 -0.65619,-0.44072c-0.18935,-0.18282 -0.33952,-0.40155 -0.45052,-0.65619c-0.111,-0.25464 -0.1665,-0.5256 -0.1665,-0.81289v-27.18776c0,-0.28729 0.0555,-0.55825 0.1665,-0.81289c0.111,-0.25464 0.26117,-0.47337 0.45052,-0.65619c0.18935,-0.18282 0.40808,-0.32973 0.65619,-0.44072c0.24811,-0.111 0.51581,-0.1665 0.8031,-0.1665z" data-paper-data="{&quot;glyphName&quot;:&quot;B&quot;,&quot;glyphIndex&quot;:2,&quot;word&quot;:1}"></path>
                                  <path d="M151.63651,223.48242c-1.61925,0 -3.09813,0.28076 -4.43662,0.84227c-1.33849,0.56151 -2.57579,1.41032 -3.71187,2.5464c-1.13609,1.13609 -1.98162,2.37011 -2.53661,3.70208c-0.55499,1.33197 -0.83248,2.80757 -0.83248,4.42683c0,3.18627 1.12303,5.90243 3.36909,8.14849c2.24606,2.24606 4.96222,3.36909 8.14849,3.36909c3.18627,0 5.90243,-1.12303 8.14849,-3.36909c2.24606,-2.24606 3.36909,-4.96222 3.36909,-8.14849c0,-3.17321 -1.12303,-5.88285 -3.36909,-8.12891c-2.25912,-2.25912 -4.97528,-3.38868 -8.14849,-3.38868zM167.30669,235c0,4.32236 -1.53437,8.01791 -4.60312,11.08665c-3.05569,3.05569 -6.74471,4.58353 -11.06706,4.58353c-4.33542,0 -8.03097,-1.52784 -11.08665,-4.58353c-3.05569,-3.05569 -4.58353,-6.75124 -4.58353,-11.08665c0,-4.32236 1.52784,-8.01138 4.58353,-11.06706c3.06874,-3.06874 6.76429,-4.60312 11.08665,-4.60312c4.3093,0 7.99832,1.53437 11.06706,4.60312c1.5409,1.5409 2.69331,3.22545 3.45723,5.05363c0.76392,1.82819 1.14588,3.83266 1.14588,6.01343z" data-paper-data="{&quot;glyphName&quot;:&quot;O&quot;,&quot;glyphIndex&quot;:3,&quot;word&quot;:1}"></path>
                                  <path d="M186.1109,223.48242c-1.61925,0 -3.09813,0.28076 -4.43662,0.84227c-1.33849,0.56151 -2.57579,1.41032 -3.71187,2.5464c-1.13609,1.13609 -1.98162,2.37011 -2.53661,3.70208c-0.55499,1.33197 -0.83248,2.80757 -0.83248,4.42683c0,3.18627 1.12303,5.90243 3.36909,8.14849c2.24606,2.24606 4.96222,3.36909 8.14849,3.36909c3.18627,0 5.90243,-1.12303 8.14849,-3.36909c2.24606,-2.24606 3.36909,-4.96222 3.36909,-8.14849c0,-3.17321 -1.12303,-5.88285 -3.36909,-8.12891c-2.25912,-2.25912 -4.97528,-3.38868 -8.14849,-3.38868zM201.78108,235c0,4.32236 -1.53437,8.01791 -4.60312,11.08665c-3.05569,3.05569 -6.74471,4.58353 -11.06706,4.58353c-4.33542,0 -8.03097,-1.52784 -11.08665,-4.58353c-3.05569,-3.05569 -4.58353,-6.75124 -4.58353,-11.08665c0,-4.32236 1.52784,-8.01138 4.58353,-11.06706c3.06874,-3.06874 6.76429,-4.60312 11.08665,-4.60312c4.3093,0 7.99832,1.53437 11.06706,4.60312c1.5409,1.5409 2.69331,3.22545 3.45723,5.05363c0.76392,1.82819 1.14588,3.83266 1.14588,6.01343z" data-paper-data="{&quot;glyphName&quot;:&quot;O&quot;,&quot;glyphIndex&quot;:4,&quot;word&quot;:1}"></path>
                                  <path d="M204.81718,221.40612c0,-0.57457 0.20241,-1.06427 0.60722,-1.46908c0.40481,-0.40481 0.89451,-0.60722 1.46908,-0.60722c0.57457,0 1.06427,0.20241 1.46908,0.60722c0.40481,0.40481 0.60722,0.89451 0.60722,1.46908v11.59593l13.02584,-13.02584c0.43093,-0.43093 0.93368,-0.64639 1.50825,-0.64639c0.28729,0 0.55825,0.05223 0.81289,0.1567c0.25464,0.10447 0.47663,0.25138 0.66598,0.44072c0.18935,0.18935 0.33626,0.41134 0.44072,0.66598c0.10447,0.25464 0.1567,0.5256 0.1567,0.81289c0,0.57457 -0.20241,1.06427 -0.60722,1.46908l-10.26397,10.28356l10.47943,14.2011c0.26117,0.36564 0.39175,0.75739 0.39175,1.17526c0,0.27423 -0.05223,0.54193 -0.1567,0.8031c-0.10447,0.26117 -0.24811,0.48969 -0.43093,0.68557c-0.18282,0.19588 -0.39828,0.35258 -0.64639,0.47011c-0.24811,0.11753 -0.51581,0.17629 -0.8031,0.17629c-0.77045,0 -1.35155,-0.29382 -1.74331,-0.88145l-10.06809,-13.65264l-2.76187,2.76187v9.69592c0,0.57457 -0.20241,1.06427 -0.60722,1.46908c-0.40481,0.40481 -0.89451,0.60722 -1.46908,0.60722c-0.57457,0 -1.06427,-0.20241 -1.46908,-0.60722c-0.40481,-0.40481 -0.60722,-0.89451 -0.60722,-1.46908z" data-paper-data="{&quot;glyphName&quot;:&quot;K&quot;,&quot;glyphIndex&quot;:5,&quot;word&quot;:1}"></path>
                                  <path d="M249.65348,243.6186c0.28729,0 0.55499,0.0555 0.8031,0.1665c0.24811,0.111 0.46684,0.25791 0.65619,0.44072c0.18935,0.18282 0.33952,0.40155 0.45052,0.65619c0.111,0.25464 0.1665,0.5256 0.1665,0.81289c0,0.54846 -0.21546,1.04468 -0.64639,1.48867c-2.91204,2.32441 -6.19625,3.48662 -9.85263,3.48662c-4.33542,0 -8.03097,-1.52784 -11.08665,-4.58353c-3.05569,-3.05569 -4.58353,-6.75124 -4.58353,-11.08665c0,-4.32236 1.52784,-8.01138 4.58353,-11.06706c3.06874,-3.06874 6.76429,-4.60312 11.08665,-4.60312c3.70861,0 7.05811,1.22097 10.0485,3.6629c0.36564,0.35258 0.54846,0.82921 0.54846,1.4299c0,0.30035 -0.05223,0.57457 -0.1567,0.82268c-0.10447,0.24811 -0.25138,0.46684 -0.44072,0.65619c-0.18935,0.18935 -0.41134,0.33626 -0.66598,0.44072c-0.25464,0.10447 -0.5256,0.1567 -0.81289,0.1567c-0.50928,0 -0.98592,-0.19588 -1.4299,-0.58763c-0.99244,-0.78351 -2.08609,-1.3842 -3.28094,-1.80207c-1.19485,-0.41787 -2.46479,-0.62681 -3.80981,-0.62681c-3.18627,0 -5.90896,1.12956 -8.16808,3.38868c-2.233,2.233 -3.3495,4.94264 -3.3495,8.12891c0,3.19933 1.1165,5.91549 3.3495,8.14849c2.24606,2.24606 4.96875,3.36909 8.16808,3.36909c2.72922,0 5.13198,-0.84227 7.20828,-2.52682c0.33952,-0.23505 0.74433,-0.35911 1.21444,-0.37217z" data-paper-data="{&quot;glyphName&quot;:&quot;C&quot;,&quot;glyphIndex&quot;:6,&quot;word&quot;:1}"></path>
                                  <path d="M269.35874,223.48242c-1.61925,0 -3.09813,0.28076 -4.43662,0.84227c-1.33849,0.56151 -2.57579,1.41032 -3.71187,2.5464c-1.13609,1.13609 -1.98162,2.37011 -2.53661,3.70208c-0.55499,1.33197 -0.83248,2.80757 -0.83248,4.42683c0,3.18627 1.12303,5.90243 3.36909,8.14849c2.24606,2.24606 4.96222,3.36909 8.14849,3.36909c3.18627,0 5.90243,-1.12303 8.14849,-3.36909c2.24606,-2.24606 3.36909,-4.96222 3.36909,-8.14849c0,-3.17321 -1.12303,-5.88285 -3.36909,-8.12891c-2.25912,-2.25912 -4.97528,-3.38868 -8.14849,-3.38868zM285.02892,235c0,4.32236 -1.53437,8.01791 -4.60312,11.08665c-3.05569,3.05569 -6.74471,4.58353 -11.06706,4.58353c-4.33542,0 -8.03097,-1.52784 -11.08665,-4.58353c-3.05569,-3.05569 -4.58353,-6.75124 -4.58353,-11.08665c0,-4.32236 1.52784,-8.01138 4.58353,-11.06706c3.06874,-3.06874 6.76429,-4.60312 11.08665,-4.60312c4.3093,0 7.99832,1.53437 11.06706,4.60312c1.5409,1.5409 2.69331,3.22545 3.45723,5.05363c0.76392,1.82819 1.14588,3.83266 1.14588,6.01343z" data-paper-data="{&quot;glyphName&quot;:&quot;O&quot;,&quot;glyphIndex&quot;:7,&quot;word&quot;:1}"></path>
                                  <path d="M288.06501,221.40612c0,-0.57457 0.20241,-1.06427 0.60722,-1.46908c0.40481,-0.40481 0.89451,-0.60722 1.46908,-0.60722c0.57457,0 1.06427,0.20241 1.46908,0.60722c0.40481,0.40481 0.60722,0.89451 0.60722,1.46908v25.11146h14.53409c0.57457,0 1.06427,0.20241 1.46908,0.60722c0.40481,0.40481 0.60722,0.89451 0.60722,1.46908c0,0.57457 -0.20241,1.06427 -0.60722,1.46908c-0.40481,0.40481 -0.89451,0.60722 -1.46908,0.60722h-16.61039c-0.30035,0 -0.57457,-0.05223 -0.82268,-0.1567c-0.24811,-0.10447 -0.46684,-0.25138 -0.65619,-0.44072c-0.18935,-0.18935 -0.33626,-0.40808 -0.44072,-0.65619c-0.10447,-0.24811 -0.1567,-0.52234 -0.1567,-0.82268z" data-paper-data="{&quot;glyphName&quot;:&quot;L&quot;,&quot;glyphIndex&quot;:8,&quot;word&quot;:1}"></path>
                                  <path d="M311.57028,221.40612c0,-0.57457 0.20241,-1.06427 0.60722,-1.46908c0.40481,-0.40481 0.89451,-0.60722 1.46908,-0.60722c0.57457,0 1.06427,0.20241 1.46908,0.60722c0.40481,0.40481 0.60722,0.89451 0.60722,1.46908v25.11146h14.53409c0.57457,0 1.06427,0.20241 1.46908,0.60722c0.40481,0.40481 0.60722,0.89451 0.60722,1.46908c0,0.57457 -0.20241,1.06427 -0.60722,1.46908c-0.40481,0.40481 -0.89451,0.60722 -1.46908,0.60722h-16.61039c-0.30035,0 -0.57457,-0.05223 -0.82268,-0.1567c-0.24811,-0.10447 -0.46684,-0.25138 -0.65619,-0.44072c-0.18935,-0.18935 -0.33626,-0.40808 -0.44072,-0.65619c-0.10447,-0.24811 -0.1567,-0.52234 -0.1567,-0.82268z" data-paper-data="{&quot;glyphName&quot;:&quot;L&quot;,&quot;glyphIndex&quot;:9,&quot;word&quot;:1}"></path>
                                  <path d="M355.29008,219.32982c0.28729,0 0.55825,0.05223 0.81289,0.1567c0.25464,0.10447 0.47663,0.25138 0.66598,0.44072c0.18935,0.18935 0.33626,0.41134 0.44072,0.66598c0.10447,0.25464 0.1567,0.5256 0.1567,0.81289c0,0.30035 -0.05223,0.57457 -0.1567,0.82268c-0.10447,0.24811 -0.25138,0.46684 -0.44072,0.65619c-0.18935,0.18935 -0.41134,0.33626 -0.66598,0.44072c-0.25464,0.10447 -0.5256,0.1567 -0.81289,0.1567h-18.11865c-0.30035,0 -0.57457,-0.05223 -0.82268,-0.1567c-0.24811,-0.10447 -0.46684,-0.25138 -0.65619,-0.44072c-0.18935,-0.18935 -0.33626,-0.40808 -0.44072,-0.65619c-0.10447,-0.24811 -0.1567,-0.52234 -0.1567,-0.82268c0,-0.28729 0.05223,-0.55825 0.1567,-0.81289c0.10447,-0.25464 0.25138,-0.47663 0.44072,-0.66598c0.18935,-0.18935 0.40808,-0.33626 0.65619,-0.44072c0.24811,-0.10447 0.52234,-0.1567 0.82268,-0.1567zM355.29008,246.51758c0.28729,0 0.55825,0.05223 0.81289,0.1567c0.25464,0.10447 0.47663,0.25138 0.66598,0.44072c0.18935,0.18935 0.33626,0.41134 0.44072,0.66598c0.10447,0.25464 0.1567,0.5256 0.1567,0.81289c0,0.30035 -0.05223,0.57457 -0.1567,0.82268c-0.10447,0.24811 -0.25138,0.46684 -0.44072,0.65619c-0.18935,0.18935 -0.41134,0.33626 -0.66598,0.44072c-0.25464,0.10447 -0.5256,0.1567 -0.81289,0.1567h-18.11865c-0.30035,0 -0.57457,-0.05223 -0.82268,-0.1567c-0.24811,-0.10447 -0.46684,-0.25138 -0.65619,-0.44072c-0.18935,-0.18935 -0.33626,-0.40808 -0.44072,-0.65619c-0.10447,-0.24811 -0.1567,-0.52234 -0.1567,-0.82268c0,-0.28729 0.05223,-0.55825 0.1567,-0.81289c0.10447,-0.25464 0.25138,-0.47663 0.44072,-0.66598c0.18935,-0.18935 0.40808,-0.33626 0.65619,-0.44072c0.24811,-0.10447 0.52234,-0.1567 0.82268,-0.1567zM353.78183,232.9237c0.28729,0 0.55825,0.05223 0.81289,0.1567c0.25464,0.10447 0.47663,0.25138 0.66598,0.44072c0.18935,0.18935 0.33626,0.41134 0.44072,0.66598c0.10447,0.25464 0.1567,0.5256 0.1567,0.81289c0,0.30035 -0.05223,0.57457 -0.1567,0.82268c-0.10447,0.24811 -0.25138,0.46684 -0.44072,0.65619c-0.18935,0.18935 -0.41134,0.33626 -0.66598,0.44072c-0.25464,0.10447 -0.5256,0.1567 -0.81289,0.1567h-15.12172c-0.48316,-0.01306 -0.94674,-0.21546 -1.39073,-0.60722c-0.41787,-0.3787 -0.62681,-0.86839 -0.62681,-1.46908c0,-0.26117 0.05223,-0.51581 0.1567,-0.76392c0.10447,-0.24811 0.24811,-0.46684 0.43093,-0.65619c0.18282,-0.18935 0.39502,-0.34279 0.6366,-0.46031c0.24158,-0.11753 0.50602,-0.18282 0.7933,-0.19588z" data-paper-data="{&quot;glyphName&quot;:&quot;Ξ&quot;,&quot;glyphIndex&quot;:10,&quot;word&quot;:1}"></path>
                                  <path d="M384.29951,243.6186c0.28729,0 0.55499,0.0555 0.8031,0.1665c0.24811,0.111 0.46684,0.25791 0.65619,0.44072c0.18935,0.18282 0.33952,0.40155 0.45052,0.65619c0.111,0.25464 0.1665,0.5256 0.1665,0.81289c0,0.54846 -0.21546,1.04468 -0.64639,1.48867c-2.91204,2.32441 -6.19625,3.48662 -9.85263,3.48662c-4.33542,0 -8.03097,-1.52784 -11.08665,-4.58353c-3.05569,-3.05569 -4.58353,-6.75124 -4.58353,-11.08665c0,-4.32236 1.52784,-8.01138 4.58353,-11.06706c3.06874,-3.06874 6.76429,-4.60312 11.08665,-4.60312c3.70861,0 7.05811,1.22097 10.0485,3.6629c0.36564,0.35258 0.54846,0.82921 0.54846,1.4299c0,0.30035 -0.05223,0.57457 -0.1567,0.82268c-0.10447,0.24811 -0.25138,0.46684 -0.44072,0.65619c-0.18935,0.18935 -0.41134,0.33626 -0.66598,0.44072c-0.25464,0.10447 -0.5256,0.1567 -0.81289,0.1567c-0.50928,0 -0.98592,-0.19588 -1.4299,-0.58763c-0.99244,-0.78351 -2.08609,-1.3842 -3.28094,-1.80207c-1.19485,-0.41787 -2.46479,-0.62681 -3.80981,-0.62681c-3.18627,0 -5.90896,1.12956 -8.16808,3.38868c-2.233,2.233 -3.3495,4.94264 -3.3495,8.12891c0,3.19933 1.1165,5.91549 3.3495,8.14849c2.24606,2.24606 4.96875,3.36909 8.16808,3.36909c2.72922,0 5.13198,-0.84227 7.20828,-2.52682c0.33952,-0.23505 0.74433,-0.35911 1.21444,-0.37217z" data-paper-data="{&quot;glyphName&quot;:&quot;C&quot;,&quot;glyphIndex&quot;:11,&quot;word&quot;:1}"></path>
                                  <path d="M410.88005,223.48242h-7.73715v25.11146c0,0.57457 -0.20241,1.06427 -0.60722,1.46908c-0.40481,0.40481 -0.89451,0.60722 -1.46908,0.60722c-0.57457,0 -1.06427,-0.20241 -1.46908,-0.60722c-0.40481,-0.40481 -0.60722,-0.89451 -0.60722,-1.46908v-25.11146h-7.73715c-0.57457,0 -1.06427,-0.20241 -1.46908,-0.60722c-0.40481,-0.40481 -0.60722,-0.89451 -0.60722,-1.46908c0,-0.57457 0.20241,-1.06427 0.60722,-1.46908c0.40481,-0.40481 0.89451,-0.60722 1.46908,-0.60722h19.6269c0.57457,0 1.06427,0.20241 1.46908,0.60722c0.40481,0.40481 0.60722,0.89451 0.60722,1.46908c0,0.57457 -0.20241,1.06427 -0.60722,1.46908c-0.40481,0.40481 -0.89451,0.60722 -1.46908,0.60722z" data-paper-data="{&quot;glyphName&quot;:&quot;T&quot;,&quot;glyphIndex&quot;:12,&quot;word&quot;:1}"></path>
                                  <path d="M421.32031,248.59388c0,0.57457 -0.20241,1.06427 -0.60722,1.46908c-0.40481,0.40481 -0.89451,0.60722 -1.46908,0.60722c-0.57457,0 -1.06427,-0.20241 -1.46908,-0.60722c-0.40481,-0.40481 -0.60722,-0.89451 -0.60722,-1.46908v-27.18776c0,-0.57457 0.20241,-1.06427 0.60722,-1.46908c0.40481,-0.40481 0.89451,-0.60722 1.46908,-0.60722c0.57457,0 1.06427,0.20241 1.46908,0.60722c0.40481,0.40481 0.60722,0.89451 0.60722,1.46908z" data-paper-data="{&quot;glyphName&quot;:&quot;I&quot;,&quot;glyphIndex&quot;:13,&quot;word&quot;:1}"></path>
                                  <path d="M440.94721,223.48242c-1.61925,0 -3.09813,0.28076 -4.43662,0.84227c-1.33849,0.56151 -2.57579,1.41032 -3.71187,2.5464c-1.13609,1.13609 -1.98162,2.37011 -2.53661,3.70208c-0.55499,1.33197 -0.83248,2.80757 -0.83248,4.42683c0,3.18627 1.12303,5.90243 3.36909,8.14849c2.24606,2.24606 4.96222,3.36909 8.14849,3.36909c3.18627,0 5.90243,-1.12303 8.14849,-3.36909c2.24606,-2.24606 3.36909,-4.96222 3.36909,-8.14849c0,-3.17321 -1.12303,-5.88285 -3.36909,-8.12891c-2.25912,-2.25912 -4.97528,-3.38868 -8.14849,-3.38868zM456.61739,235c0,4.32236 -1.53437,8.01791 -4.60312,11.08665c-3.05569,3.05569 -6.74471,4.58353 -11.06706,4.58353c-4.33542,0 -8.03097,-1.52784 -11.08665,-4.58353c-3.05569,-3.05569 -4.58353,-6.75124 -4.58353,-11.08665c0,-4.32236 1.52784,-8.01138 4.58353,-11.06706c3.06874,-3.06874 6.76429,-4.60312 11.08665,-4.60312c4.3093,0 7.99832,1.53437 11.06706,4.60312c1.5409,1.5409 2.69331,3.22545 3.45723,5.05363c0.76392,1.82819 1.14588,3.83266 1.14588,6.01343z" data-paper-data="{&quot;glyphName&quot;:&quot;O&quot;,&quot;glyphIndex&quot;:14,&quot;word&quot;:1}"></path>
                                  <path d="M459.69266,248.59388v-27.18776c0,-0.28729 0.05223,-0.55825 0.1567,-0.81289c0.10447,-0.25464 0.25138,-0.47663 0.44072,-0.66598c0.18935,-0.18935 0.40808,-0.33626 0.65619,-0.44072c0.24811,-0.10447 0.52234,-0.1567 0.82268,-0.1567c0.61375,0 1.14915,0.25464 1.60619,0.76392l17.47225,22.46712v-21.15474c0,-0.57457 0.20241,-1.06427 0.60722,-1.46908c0.40481,-0.40481 0.89451,-0.60722 1.46908,-0.60722c0.57457,0 1.06427,0.20241 1.46908,0.60722c0.40481,0.40481 0.60722,0.89451 0.60722,1.46908v27.18776c0,0.30035 -0.05223,0.57457 -0.1567,0.82268c-0.10447,0.24811 -0.25138,0.46684 -0.44072,0.65619c-0.18935,0.18935 -0.41134,0.33626 -0.66598,0.44072c-0.25464,0.10447 -0.5256,0.1567 -0.81289,0.1567c-0.61375,0 -1.14262,-0.24158 -1.58661,-0.72475l-17.49184,-22.46712v21.11557c0,0.57457 -0.20241,1.06427 -0.60722,1.46908c-0.40481,0.40481 -0.89451,0.60722 -1.46908,0.60722c-0.57457,0 -1.06427,-0.20241 -1.46908,-0.60722c-0.40481,-0.40481 -0.60722,-0.89451 -0.60722,-1.46908z" data-paper-data="{&quot;glyphName&quot;:&quot;N&quot;,&quot;glyphIndex&quot;:15,&quot;lastGlyphOfWord&quot;:true,&quot;word&quot;:1}"></path>
                                </g>
                              </g>
                            </g>
                          </svg>